<svg xmlns="http://www.w3.org/2000/svg" viewBox="0 0 2526.4 121.98"><defs><style>.cls-1,.cls-3{fill:#fff;}.cls-1,.cls-2{opacity:0.5;}.cls-3,.cls-4{stroke:#fff;stroke-miterlimit:10;}.cls-3{stroke-width:0.25px;}</style></defs><g id="Layer_2" data-name="Layer 2"><g id="Layer_1-2" data-name="Layer 1"><rect class="cls-1" x="1.13" width="2525.28" height="20.01"/><g class="cls-2"><path class="cls-3" d="M.13,105.11V50.39H2525.4v54.72Zm2201-43.8c-1.73,0-3.36,0-5,0a1.27,1.27,0,0,0-1.42.93c-2.31,5.65-4.67,11.27-7,16.9-.72,1.74-1.47,3.47-2.31,5.46-.87-2.12-1.63-4-2.38-5.79-2.23-5.54-4.44-11.08-6.69-16.61-.14-.34-.53-.82-.81-.83-1.79-.07-3.58,0-5.42,0V91h4.86V71.72c2.33,5.27,4.46,10.56,6.6,15.84.46,1.14.67,2.71,1.53,3.26s2.47.17,3.74.26a1.25,1.25,0,0,0,1.42-.93c1.75-4.24,3.53-8.46,5.3-12.69l2.52-6,.26.06V91h4.82Zm-1676.86,0c-1.74,0-3.37,0-5,0a1.21,1.21,0,0,0-1.34.88c-1.78,4.36-3.6,8.7-5.41,13-1.28,3.07-2.58,6.13-3.93,9.35-.22-.49-.38-.81-.51-1.13q-4.24-10.56-8.5-21.1c-.16-.4-.61-.95-.95-1-1.79-.1-3.59,0-5.44,0V91H498V71.55a1.54,1.54,0,0,1,.58.77q3,7.59,6.08,15.19c.46,1.15.67,2.74,1.53,3.3s2.46.18,3.73.27a1.32,1.32,0,0,0,1.5-1c1.86-4.54,3.77-9,5.68-13.57.67-1.61,1.36-3.22,2-4.83l.31.08V91h4.79Zm1257.58,0c-1.76,0-3.4,0-5,0a1.21,1.21,0,0,0-1.31.93q-3.29,8-6.61,15.91c-.87,2.1-1.76,4.19-2.73,6.51-.83-2.09-1.57-3.94-2.31-5.78-2.2-5.49-4.39-11-6.62-16.44-.18-.42-.59-1-.91-1.05-1.83-.11-3.66,0-5.53,0V91h4.85V71.54a.53.53,0,0,1,.37.37c2.08,5.18,4.18,10.35,6.24,15.53,1.52,3.83,1.5,3.86,5.57,3.59a1.55,1.55,0,0,0,1.11-.78c1.4-3.21,2.73-6.46,4.09-9.7q1.86-4.44,3.73-8.87l.26,0V91h4.83ZM943.5,91V61.31c-1.69,0-3.32,0-5,0a1.34,1.34,0,0,0-1.5,1c-2.11,5.17-4.27,10.31-6.42,15.46l-2.88,6.86c-.34-.82-.57-1.35-.78-1.89q-4.12-10.25-8.27-20.5c-.14-.35-.51-.85-.79-.86-1.82-.08-3.64,0-5.48,0V91h4.91V71.79c2.49,5.67,4.78,11.37,7,17.08.88,2.19.87,2.2,3.19,2.2a15.68,15.68,0,0,1,1.68,0,1.16,1.16,0,0,0,1.32-.89c1.6-3.91,3.24-7.81,4.87-11.7,1-2.33,2-4.66,3-7l.28,0V91ZM89.36,84.59c-.26-.58-.42-.9-.55-1.23q-4.2-10.48-8.42-21c-.16-.4-.5-1-.78-1-1.86-.09-3.72,0-5.59,0V91h4.83V71.62a.82.82,0,0,1,.43.47q3.12,7.77,6.25,15.54c.46,1.13.69,2.67,1.55,3.23s2.39.14,3.63.22a1.31,1.31,0,0,0,1.5-1c1.93-4.69,3.9-9.35,5.86-14,.63-1.51,1.29-3,1.93-4.54l.24.06V91H105V61.31c-1.71,0-3.31,0-4.9,0a1.35,1.35,0,0,0-1.49,1Q95.81,69.16,93,76C91.79,78.78,90.62,81.57,89.36,84.59ZM1336.46,91V71.61a.9.9,0,0,1,.42.49q3.12,7.75,6.25,15.52c.45,1.13.68,2.71,1.54,3.24s2.47.15,3.75.22a1.2,1.2,0,0,0,1.34-.88c1.54-3.76,3.13-7.5,4.71-11.24q1.56-3.72,3.13-7.42l.23,0V91h4.79V61.31c-1.85,0-3.6,0-5.35,0a1.38,1.38,0,0,0-.89.74q-3.17,7.49-6.27,15c-1,2.45-2.06,4.9-3.16,7.54l-.67-1.6q-4.18-10.44-8.39-20.86c-.13-.32-.45-.8-.7-.8-1.86-.07-3.72,0-5.57,0V91Zm-180.67,0h5V70.79c.36.53.57.81.75,1.11q5.37,9.13,10.76,18.25c.21.35.55.84.86.86,1.46.09,2.93,0,4.43,0V61.38h-4.86V81.64c-.44-.71-.7-1.11-.94-1.52q-5.19-8.82-10.4-17.63c-.26-.45-.68-1.08-1.08-1.12-1.49-.13-3,0-4.53,0Zm754.74.1V61.4h-4.84V81.61c-.34-.53-.51-.79-.67-1.06q-5.37-9.12-10.77-18.24c-.23-.4-.68-.92-1.06-1-1.46-.11-2.93,0-4.41,0V91h5V71.07a14.58,14.58,0,0,1,1.71,2.47c3.26,5.53,6.51,11.07,9.8,16.59a1.91,1.91,0,0,0,1.21.89C1907.77,91.14,1909.09,91.07,1910.53,91.07Zm577.54-29.72V81.26a4.4,4.4,0,0,1-1-1.27q-5.19-8.82-10.39-17.64c-.23-.38-.59-1-.92-1-1.49-.11-3-.05-4.49-.05V91h4.86V71.11a2.52,2.52,0,0,1,.85,1q5.36,9.06,10.72,18.13c.19.32.5.79.77.81,1.49.07,3,0,4.49,0V61.35Zm-1274.51,0V91h5V71.12a2.84,2.84,0,0,1,.88,1c3.56,6.05,7.11,12.1,10.7,18.13a1.49,1.49,0,0,0,.93.76c1.42.09,2.85,0,4.29,0V61.4h-4.88V81.53c-.29-.39-.39-.5-.47-.64-3.64-6.18-7.26-12.38-10.93-18.55a2,2,0,0,0-1.29-1A41.16,41.16,0,0,0,1213.56,61.31Zm378.5,20.51c-.42-.65-.66-1-.87-1.35q-5.37-9.14-10.75-18.25c-.21-.35-.56-.84-.87-.85-1.49-.09-3,0-4.49,0V91h4.9V70.67c.36.58.53.84.68,1.11,3.61,6.12,7.2,12.24,10.82,18.34.22.38.63.87,1,.89,1.46.1,2.93,0,4.43,0V61.38h-4.82Zm402.22-20.51V91h4.85V70.68a5.17,5.17,0,0,1,.37.44q5.61,9.54,11.23,19.07c.21.36.65.81,1,.83,1.42.1,2.85,0,4.3,0V61.4h-4.85V81.68c-.41-.65-.62-1-.82-1.3-3.56-6-7.12-12.1-10.71-18.13a2,2,0,0,0-1.19-.9C1997.11,61.23,1995.75,61.31,1994.28,61.31ZM233.79,91.06V61.4H229V81.65c-.32-.44-.47-.61-.58-.8q-5.51-9.33-11-18.65c-.19-.33-.5-.81-.77-.83-1.53-.07-3.07,0-4.58,0V91h4.85V70.66c.24.33.35.45.43.58q5.58,9.48,11.18,19a1.77,1.77,0,0,0,1.13.82C231,91.13,232.33,91.06,233.79,91.06ZM2325,61.36V81.72c-.25-.33-.36-.44-.44-.57q-5.58-9.48-11.18-19c-.22-.36-.64-.81-1-.84-1.42-.09-2.85,0-4.32,0V91h4.88V70.69c.4.63.59.93.77,1.24q5.31,9,10.64,18c.24.41.64,1,1,1,1.49.12,3,0,4.49,0V61.36Zm-833.6,29.7V61.4h-4.84V81.7c-.39-.6-.58-.87-.75-1.17q-5.25-8.91-10.51-17.83c-.29-.49-.68-1.26-1.08-1.3a43.81,43.81,0,0,0-4.58-.06V91h4.85V70.72a5.07,5.07,0,0,1,.37.41q5.61,9.54,11.25,19.07a1.76,1.76,0,0,0,1.12.82C1488.57,91.13,1489.93,91.06,1491.39,91.06ZM317.5,61.31V91h4.85V70.68c.4.63.61.94.8,1.27,3.57,6,7.12,12.1,10.7,18.14.21.36.54.89.84.91,1.53.09,3.07,0,4.57,0V61.39h-4.85V81.66a3.16,3.16,0,0,1-.37-.43c-3.75-6.35-7.48-12.72-11.25-19.06a1.74,1.74,0,0,0-1.13-.82C320.31,61.25,319,61.31,317.5,61.31Zm749.91.06V81.82c-.31-.49-.44-.67-.55-.87q-5.5-9.33-11-18.65c-.23-.39-.68-.91-1.06-.94-1.42-.11-2.85,0-4.31,0V91h4.85V71.05a2.75,2.75,0,0,1,.82,1q5.36,9.07,10.72,18.14c.2.35.54.85.85.87,1.49.09,3,0,4.54,0V61.37Zm-309,29.69V61.41h-4.86V81.32a2.8,2.8,0,0,1-.82-1Q747.4,71.29,742,62.22c-.2-.35-.55-.84-.86-.86-1.49-.09-3,0-4.51,0V91h4.84V70.6c.28.42.39.57.49.73,3.69,6.26,7.36,12.52,11.08,18.75a1.94,1.94,0,0,0,1.19.94C755.6,91.14,757,91.06,758.43,91.06Zm1310.49-9.74-.25,0c-.18-.3-.37-.6-.55-.91q-5.41-9.16-10.84-18.32c-.19-.32-.51-.75-.79-.77-1.5-.07-3,0-4.55,0V91h4.91V70.61c.31.48.42.64.51.8q5.54,9.38,11.07,18.75c.22.36.64.84,1,.86,1.42.1,2.85,0,4.32,0V61.39h-4.82Zm-1693.68-20V91h4.85V70.68c.35.56.53.86.71,1.16q5.44,9.21,10.9,18.43c.19.31.52.74.8.75,1.49.08,3,0,4.52,0V61.41h-4.91V81.62a4.46,4.46,0,0,1-.39-.47c-3.73-6.32-7.44-12.64-11.2-19a1.75,1.75,0,0,0-1.11-.85C378.07,61.24,376.7,61.31,375.24,61.31ZM1654.59,91.06V61.41h-4.87V81.76l-.52-.81q-5.49-9.33-11-18.66c-.23-.38-.61-.9-1-.93-1.45-.1-2.92,0-4.43,0V91h4.87V70.61c.37.61.53.88.69,1.16,3.63,6.15,7.25,12.31,10.91,18.44a1.74,1.74,0,0,0,1.14.82C1651.77,91.13,1653.13,91.06,1654.59,91.06ZM794.38,61.31V91h4.87V70.75a5.27,5.27,0,0,1,.4.47q5.6,9.48,11.19,19c.21.35.57.81.89.83,1.45.09,2.92,0,4.43,0V61.38h-4.87V81.72c-.36-.58-.53-.84-.69-1.12-3.61-6.12-7.2-12.24-10.83-18.34a2,2,0,0,0-1.22-.91C797.21,61.23,795.84,61.31,794.38,61.31ZM636,70.54c.47.76.77,1.21,1.05,1.68q5.19,8.82,10.38,17.63c.27.45.68,1.11,1.07,1.15,1.45.13,2.92,0,4.43,0V61.38H648.1V81.63c-.39-.59-.59-.88-.77-1.18-3.59-6.09-7.16-12.17-10.76-18.25-.21-.34-.57-.82-.88-.84-1.5-.09-3,0-4.54,0V91H636ZM2435.17,91.06V61.4h-4.84V81.63c-.44-.72-.71-1.15-1-1.59q-5.25-8.91-10.52-17.82c-.22-.37-.63-.84-1-.87-1.42-.1-2.85,0-4.3,0V91h4.83V71.07a31.28,31.28,0,0,1,2.5,3.82c3,5.11,6,10.24,9.07,15.34a1.7,1.7,0,0,0,1,.8C2432.34,91.12,2433.7,91.06,2435.17,91.06ZM239,90.92c4.48,0,8.85.22,13.18-.07a11.89,11.89,0,0,0,9.93-6.39c2-3.49,2.18-7.29,1.77-11.15a12.75,12.75,0,0,0-12.05-11.84c-4.18-.28-8.38-.1-12.58-.12-.06,0-.13.07-.25.13ZM1496.62,61.44V90.91c4.45,0,8.81.23,13.14-.06a11.94,11.94,0,0,0,10.06-6.61c1.89-3.44,2.06-7.17,1.64-10.94-.72-6.4-5.33-11.33-11.46-11.8C1505.6,61.17,1501.15,61.44,1496.62,61.44Zm419.24,0V91a2.81,2.81,0,0,0,.5.09c4.16,0,8.32.15,12.45-.17A12,12,0,0,0,1939.15,84a18.14,18.14,0,0,0,1.12-12.59,12.33,12.33,0,0,0-11.13-9.86C1924.77,61.18,1920.36,61.44,1915.86,61.44ZM658.16,91a2.58,2.58,0,0,0,.52.1c4.15,0,8.32.14,12.46-.16a12.15,12.15,0,0,0,10.49-7.08,18.44,18.44,0,0,0,1.28-11.46,12.64,12.64,0,0,0-11.8-10.89c-3.94-.25-7.91-.12-11.86-.15-.35,0-.69.06-1.09.09Zm419.26.29c4.92-.18,9.72-.11,14.45-.62a11.09,11.09,0,0,0,8.34-5.66,17.33,17.33,0,0,0,2-11.67c-.93-6.87-5.26-11.25-12.17-11.83-4.08-.34-8.21-.1-12.32-.11-.11,0-.21.11-.33.17ZM2335.08,61.46V90.91c4.46,0,8.83.27,13.15-.07a11.85,11.85,0,0,0,10.52-7.73,17.83,17.83,0,0,0,.17-13.43c-1.79-4.75-5.34-7.67-10.34-8.13C2344.15,61.14,2339.66,61.46,2335.08,61.46ZM1426,60.93c-2.93,0-6.34,2.07-8.29,6.1a20.72,20.72,0,0,0-.36,17.5,11.11,11.11,0,0,0,20.29.57,20.83,20.83,0,0,0,.45-16.87C1436.27,63.59,1432.79,60.93,1426,60.93Zm552.12,0a10.53,10.53,0,0,0-9.91,6.13c-2.29,4.63-2.39,9.52-1.35,14.47a13.19,13.19,0,0,0,3.92,7.13,11.12,11.12,0,0,0,17.66-4.07,21.39,21.39,0,0,0,.29-16.22A10.75,10.75,0,0,0,1978.1,61ZM720.52,61c-4,0-7.19,1.54-9.23,5-3.55,6-3.53,12.34-1,18.63,1.81,4.49,5.38,6.82,10.29,6.86a10.81,10.81,0,0,0,10.33-7,21.9,21.9,0,0,0,.64-14.76C729.89,64,725.89,61,720.52,61Zm-550.5,0A10.49,10.49,0,0,0,160.08,67c-2.38,4.64-2.43,9.57-1.39,14.57a13.2,13.2,0,0,0,3.92,7.12,11.15,11.15,0,0,0,17.76-4.33,21.37,21.37,0,0,0,.17-16A10.78,10.78,0,0,0,170,60.93ZM1020.25,76a18.25,18.25,0,0,0-1.54-8.27c-1.84-4-4.85-6.49-9.35-6.81-4.75-.33-8.53,1.48-10.68,5.77a19.92,19.92,0,0,0,.16,19.18c3.79,7,13.62,7.48,18.39,1.12C1019.64,83.82,1020.33,80.09,1020.25,76Zm1257.59,0a18,18,0,0,0-1.54-8.31c-1.81-3.9-4.75-6.39-9.14-6.76s-8.25,1.1-10.48,5.08a20,20,0,0,0-.2,19.89c2,3.85,5.49,5.57,9.79,5.47a10.57,10.57,0,0,0,9.62-6A18.45,18.45,0,0,0,2277.84,76Zm-707,.15a18.86,18.86,0,0,0-2.35-10c-4-7-14.46-7.09-18.78-.4-3.44,5.34-3.46,15.06-.13,20.48,4.11,6.67,14.47,6.9,18.71.09A18.25,18.25,0,0,0,1570.81,76.19ZM313.21,76a18.3,18.3,0,0,0-2.16-9.43c-4-7.18-14.29-7.86-18.72-1-4.07,6.32-3.93,13.17-.76,19.87,1.85,3.89,5.22,5.82,9.54,5.9A10.58,10.58,0,0,0,311,85.82,18.37,18.37,0,0,0,313.21,76Zm1545.49.19a18.74,18.74,0,0,0-2-9.25,10.57,10.57,0,0,0-9.49-6c-4.64-.12-8.19,1.81-10.24,5.94a20.42,20.42,0,0,0-.28,18.05A11.08,11.08,0,0,0,1856,86.59,18.54,18.54,0,0,0,1858.7,76.21Zm-1257.6,0a19.86,19.86,0,0,0-1.43-8.07c-1.79-4.16-4.77-6.86-9.44-7.2-4.84-.36-8.66,1.5-10.85,5.9a20.57,20.57,0,0,0-.29,18,10.32,10.32,0,0,0,9.79,6.51A10.61,10.61,0,0,0,599,85.57,19,19,0,0,0,601.1,76.24Zm526.77-.1a18.64,18.64,0,0,0,2,9.25,11.08,11.08,0,0,0,19.22,1c2.34-3.58,2.78-7.61,2.55-11.73s-1.35-8-4.52-11c-4.19-4-12-3.5-15.67,1C1128.67,68,1127.87,71.94,1127.87,76.14Zm1257.53-.06c.11,1.31.15,2.63.34,3.93.55,3.76,2,7.07,5.13,9.4A11.14,11.14,0,0,0,2407,85.9c2.08-3.6,2.47-7.54,2.24-11.57a16.71,16.71,0,0,0-2.86-8.87,11.07,11.07,0,0,0-17.42-.69C2386.21,68.05,2385.47,72,2385.4,76.08ZM2144.14,61.36V91h20.72V61.4h-5v25h-11v-25Zm-1103.85,25h-11v-25h-4.78V91h20.75V61.41h-5ZM488,91V61.41h-4.86v25H472.18V61.38h-4.92V91Zm41.47-29.67V91h5V77.71h16.79V61.36ZM2282.09,91h20.76V61.38H2298v25h-11v-25h-4.85ZM891.31,86.43v-25h-4.8V91h20.6V61.38H902.3V86.43ZM1883.55,91V61.4h-4.84v25h-10.94v-25H1863V91ZM626,91V61.4h-4.84v25H610.17v-25h-4.78V91ZM1725,61.35V91h20.58V61.41h-4.89v25h-10.93V61.35Zm-281.28,0V91h20.68V61.37h-4.85v25h-11.07V61.35ZM186.07,91h20.71V61.39H202v25H190.88v-25h-4.81ZM52.87,86.43v-25H48.09V91H68.78V61.39H64v25ZM1305.66,91h20.72V61.39h-4.81v25h-11.09v-25h-4.82ZM115.05,77.71h17V61.41H110.25V91h4.8Zm2113,0V61.4h-21.77V91h4.86V77.74ZM948.7,61.36V91h4.84V77.7h16.93V61.36Zm419.18,0V91h4.82V77.74h16.94V61.35Zm419.28,0V91H1792V77.71h16.81V61.37ZM573.08,73.14h-12V65.86h14.25V61.37H556V77.79h12.1v8.75H556V91h17.05ZM2364.2,61.37V77.8h12.1v8.75h-12.1V91h17V73.17h-11.94V65.85h14.23V61.37ZM2101.13,91h17V73.16h-12V65.81h14.35v-4.4h-19.31V77.78h12.11v8.76h-12.13ZM1111.55,73.2V65.81h14.35v-4.4h-19.31V77.78h12.12v8.76H1106.6V91h17V73.2Zm-251,0h-12.1V65.85h14.34V61.38H843.58v16.4h12.06v8.75H843.58V91h17ZM268.26,77.81h12v8.73h-12V91h17V73.14H273.2V65.82h14.22V61.39H268.26Zm-258.13-12H24.37V61.41H5.12V77.74H17.2v8.8H5.12V91h17V73.15h-12ZM1525.85,91h17V73.16h-12V65.79H1545v-4.4H1525.9V77.8h11.91v8.77h-12ZM1282,61.41h-19.18V77.78h12v8.77h-12V91h16.89V73.18h-12V65.84H1282ZM141.76,65.83h14.29V61.42H136.89V77.76H149v8.8H136.89V91h17V73.14H141.76Zm1815.4,20.73h-12.08V91h17V73.14H1950v-7.3h14.22V61.4H1945V77.77h12.13ZM1411.51,73.13h-12.14V65.84h14.38V61.39h-19.27V77.76h12.09v8.79h-12.06V91h17ZM1682,61.35V77.78h12v8.8h-12V91h17V73.12h-12.08V65.86h14.25V61.35ZM424.44,86.53V91h17V73.17H429.29V65.86h14.25V61.4H424.4V77.73h12.08v8.8ZM2245,77.74v8.79h-12.12V91h17V73.18h-12.06V65.82h14.22V61.37h-19.16V77.74ZM975.35,86.47V91h17V73.21H980.25V65.85h14.2V61.4H975.3V77.76h12.14v8.71Zm-275.82,0h-12V91h16.95V73.14h-12.1V65.87h14.26V61.4H687.43V77.72h12.1Zm1114.21-8.74h12v8.77h-12V91h16.87V73.17h-12V65.85h14.28V61.41h-19.2Zm-136.93-4.6h-12.07V65.82h12.06V61.37h-17V91h17V86.44h-12V77.73h12.09ZM407.12,77.69H419.2V73.18H407.14V65.82H419.2V61.38h-17V91h17V86.45H407.12ZM2079,61.35V91h17v-4.5h-12.11V77.73H2096V73.16h-12.08v-7.3H2096V61.35Zm-1257.6,0V91h17v-4.5H826.26V77.74h12.1V73.12H826.28V65.86h12.09V61.35Zm424.12,16.34h12V73.14h-12V65.8h11.93V61.41h-16.83V91h16.86V86.47h-12ZM2515.14,61.42h-16.87V91h16.84V86.5h-11.94V77.71h11.94V73.17h-11.94V65.83h12ZM44.34,86.48H32.24V61.37H27.32V91h17Zm1993.92,0h-12.21V61.38h-4.81V91h17ZM446.62,61.36V91h17V86.47H451.38V61.36ZM1709,61.4h-4.84V91h17V86.48H1709ZM1187.75,86.51V61.41h-4.83V91h16.88v-4.5Zm-419.32,0V61.4h-4.8V91h17V86.52ZM2457.4,91V86.47h-12.05V61.41h-4.83V91ZM344.52,61.35V91h17V86.46H349.28V61.35Zm1257.6,0V91h17V86.46h-12.21V61.35Zm-736.32,0V91h17V86.46H870.56V61.35Zm1257.6,0V91h17V86.46h-12.21V61.35ZM1289.84,86.48V61.4H1285V91h16.86V86.48Zm-86.26-25.12V91h4.73V61.36Zm424,29.66V61.41h-4.73V91ZM365.26,61.36V91H370V61.36Zm1676.78,0V91h4.73V61.36Zm419.15,0V91h4.72V61.36Zm-1676.75,0V91h4.73V61.36Z"/><path class="cls-3" d="M243.92,65.91c2.4,0,4.69-.15,7,0a8.11,8.11,0,0,1,7.63,6.21,12.41,12.41,0,0,1-1.08,10.39,7.11,7.11,0,0,1-5.35,3.65c-2.67.3-5.38.3-8.15.43Z"/><path class="cls-3" d="M1501.49,86.33V65.88c3.44.17,6.89-.62,10.16.87a7.77,7.77,0,0,1,4.21,4.68,12.69,12.69,0,0,1-.68,10.86,7.38,7.38,0,0,1-5.93,4C1506.73,86.5,1504.17,86.33,1501.49,86.33Z"/><path class="cls-3" d="M1920.83,65.89c2.34,0,4.59-.13,6.81,0a8.26,8.26,0,0,1,7.77,6.53c1,4,.77,7.84-2,11.18a8.28,8.28,0,0,1-6.35,2.84c-2,.09-4.07,0-6.21,0Z"/><path class="cls-3" d="M663.19,86.5V65.7a82.07,82.07,0,0,1,8.82.63A7.18,7.18,0,0,1,677.28,71a13.33,13.33,0,0,1,.38,9.37c-1.19,3.82-3.95,5.86-8.34,6.14C667.34,86.6,665.33,86.5,663.19,86.5Z"/><path class="cls-3" d="M1082.33,66.12a78.13,78.13,0,0,1,8.25.06,7.11,7.11,0,0,1,5.76,4.56,12.25,12.25,0,0,1-.79,12.2,7.43,7.43,0,0,1-6.15,3.42c-2.34.11-4.69,0-7.07,0Z"/><path class="cls-3" d="M2339.93,65.76a69.91,69.91,0,0,1,8.37.43c3.23.53,5.22,2.81,6.2,5.86a12.92,12.92,0,0,1-.14,8.57c-1.28,3.47-3.73,5.53-7.47,5.74-2.3.14-4.61,0-7,0Z"/><path class="cls-3" d="M1420.68,76.28c0-3.09.4-5.85,2.14-8.26a5.78,5.78,0,0,1,9.63.09c1.88,2.68,2.22,5.77,2.11,8.92a12.74,12.74,0,0,1-2,7,5.8,5.8,0,0,1-10-.07A13.1,13.1,0,0,1,1420.68,76.28Z"/><path class="cls-3" d="M1978.11,65.49a5.69,5.69,0,0,1,5.27,3.23,15.57,15.57,0,0,1,0,14.83,5.77,5.77,0,0,1-10.54-.09,15.6,15.6,0,0,1,.18-14.94A5.6,5.6,0,0,1,1978.11,65.49Z"/><path class="cls-3" d="M713.55,76.11a15.22,15.22,0,0,1,1.76-7.45c2.41-4.08,7.83-4.38,10.21-.3a14.92,14.92,0,0,1,.12,15.39c-2.47,4.47-8.11,4.08-10.55-.46A15.8,15.8,0,0,1,713.55,76.11Z"/><path class="cls-3" d="M162.68,76a64.35,64.35,0,0,1,1.72-6.52,5.93,5.93,0,0,1,11.06-.33c2.18,4.84,2.31,9.82-.29,14.52-2.48,4.47-8.12,4.21-10.6-.29a16.19,16.19,0,0,1-1.58-7.3Z"/><path class="cls-3" d="M1015.34,75.77c0,3.11-.32,5.82-1.93,8.21-2.7,4-8.07,3.86-10.27-.44a15.76,15.76,0,0,1-.08-14.63,5.63,5.63,0,0,1,5.59-3.4,6,6,0,0,1,5.24,3.62A13.73,13.73,0,0,1,1015.34,75.77Z"/><path class="cls-3" d="M2272.93,76.24c0,3-.38,5.92-2.37,8.34-2.72,3.3-7.47,3.09-9.58-.67a15,15,0,0,1-.15-15.2c2.53-4.58,8.14-4.27,10.63.34A14.58,14.58,0,0,1,2272.93,76.24Z"/><path class="cls-3" d="M1566,76.26a16.52,16.52,0,0,1-1.53,6.75c-1.17,2.32-2.92,3.84-5.6,3.83-2.85,0-4.69-1.71-5.72-4.2a16.81,16.81,0,0,1-.18-12.51c1.47-4,5.24-5.73,8.56-4,2.23,1.15,3.27,3.23,3.81,5.54C1565.73,73.16,1565.83,74.72,1566,76.26Z"/><path class="cls-3" d="M308.29,75.05c0,3.62-.33,6-1.5,8.21-2.41,4.59-7.87,4.89-10.59.49-2.18-3.52-2.16-7.43-1.45-11.36a9.24,9.24,0,0,1,2.62-5.27,5.73,5.73,0,0,1,8.47.52A12.07,12.07,0,0,1,308.29,75.05Z"/><path class="cls-3" d="M1853.78,76.36a14.34,14.34,0,0,1-1.73,7.24c-2.55,4.28-8,4.49-10.36.15a14.92,14.92,0,0,1,.1-15.29c2.38-4.16,7.64-4,10.16.1A14.49,14.49,0,0,1,1853.78,76.36Z"/><path class="cls-3" d="M582.23,76.1c0-2.79.38-5.55,2.08-7.94a5.8,5.8,0,0,1,10,.29c1.77,2.8,2,5.93,1.84,9.12a12.47,12.47,0,0,1-2.07,6.65,5.77,5.77,0,0,1-9.55.19C582.64,82,582.27,79.09,582.23,76.1Z"/><path class="cls-3" d="M1132.8,76.6c0-3.21.37-5.87,1.91-8.24a5.83,5.83,0,0,1,10.06,0c1.8,2.78,2.09,5.91,1.9,9.1a12.27,12.27,0,0,1-2.13,6.87,5.81,5.81,0,0,1-9.78-.27A13,13,0,0,1,1132.8,76.6Z"/><path class="cls-3" d="M2404.32,76.8a13.4,13.4,0,0,1-2,7.32,5.82,5.82,0,0,1-9.92-.08c-1.91-2.93-2.12-6.23-1.91-9.58a12.42,12.42,0,0,1,1.86-6.11,5.85,5.85,0,0,1,10.07,0C2403.66,70.29,2404.33,73,2404.32,76.8Z"/><path class="cls-3" d="M534.41,73.1V65.94h11.9V73.1Z"/><path class="cls-3" d="M115.12,73.14V66h12v7.17Z"/><path class="cls-3" d="M2223.2,73.16h-12V66h12Z"/><path class="cls-3" d="M965.61,66v7.12h-12V66Z"/><path class="cls-3" d="M1384.76,66V73.1h-12V66Z"/><path class="cls-3" d="M1792,73.11V65.93h11.9v7.18Z"/></g><line class="cls-4" x1="1.13" y1="121.48" x2="2526.4" y2="121.48"/><line class="cls-4" x1="1.13" y1="35.2" x2="2526.4" y2="35.2"/></g></g></svg>