<svg xmlns="http://www.w3.org/2000/svg" viewBox="0 0 1473.26 290.47"><defs><style>.cls-1{fill:none;stroke:#fff;stroke-miterlimit:10;stroke-opacity:0.99;stroke-width:3px;opacity:0.1;isolation:isolate;}</style></defs><g id="Layer_2" data-name="Layer 2"><g id="Layer_1-2" data-name="Layer 1"><path class="cls-1" d="M34.13,213.63c-9.8-2-17.7-8.7-25.6-15.7-4.9-4.3-8.1-8.7-6.7-15.3.5-2.3,1.1-5,2.6-6.6,7-7.6,14.2-14.9,21.5-22.2,3.5-3.5,6.4-3,10.1.4,2.7,2.4,6.2,3.8,9.2,5.9,2.4,1.7,4.3,4,6.7,5.7a13.78,13.78,0,0,0,5.5,2.5c3.1.4,6.2.1,8.4,3.3.6.9,2.7,1,4.1,1,10.7.1,21.3-.1,32,.1,3.6.1,5.1-1.2,5-4.9-.1-4.3.2-8.6.1-13-.1-8-2.4-10.3-10.3-13-4.3-1.4-8-4.4-12.1-6.6-3.5-1.9-7.2-5.2-10.6-5-6,.3-10-3.5-15-5-5.9-1.7-11.3-5-17-7.4-4.3-1.8-9-2.8-12.9-5.2-7.8-4.8-17.7-7.4-20-18.6-.9-4.1-4.1-7.7-6.3-11.6-1.4-2.4,0-12.4,1.9-14.9a2.84,2.84,0,0,0,.9-1.7c.2-9.2,7.9-13.2,13.7-17.9,5-4.1,11.6-6.1,17.1-9.6,4-2.6,6.8-7.2,11-9,7.4-3.2,12.7-9.2,20.5-12.3,12.4-4.9,24.5-2.9,36.6-3,31.8-.5,63.6-.4,95.4,0,5,.1,10.3,2.3,14.8,4.7,2.1,1.1,3.7,5.1,3.8,7.9.4,16.1.2,32.2.1,48.3,0,1.3-.1,3.4-.8,3.7-4.5,2.1-3.4,6.1-3.4,9.5,0,17.9.1,35.9.1,53.8,0,1.2-.3,3.2-1.1,3.6-3.8,2-3.3,5.4-3.3,8.6,0,17.6,0,35.2-.1,52.8,0,3.5,1,5.8,3.6,8.8,5.2,6,10.9,7.7,18.2,7a37.21,37.21,0,0,1,10,.1c2.4.3,4.6,1.8,6.9,2.7a17.77,17.77,0,0,0,5,1.4c8.7.1,17.3-.1,26,.2,2.2.1,4.3,1.6,6.5,2.5,1.6.6,3.3,1.5,5,1.5,7.5.2,15-.2,22.5.2,5,.3,7.3-3.4,10-6,2.3-2.3,0-9.9-2.8-12.6-.5-.6-1.3-1.5-1.2-2.1.6-3.9-2.6-5.4-4.5-7.9s-2.9-5.2-4.3-7.9a8.27,8.27,0,0,0-.9-1.6c-1.5-1.5-3.7-2.7-4.5-4.5-2.8-7-9.3-11.6-11.4-19.1-1.1-4-4.2-7.4-6.4-11-.2-.3-.6-.5-.6-.8-.1-5.8-4-10.8-4.6-16-1.2-11.5-1.6-23.4.1-34.8.9-6.4,2.2-13.7,6.9-19.4s8.5-11.8,13.2-17.3c4-4.8,8.1-10.2,13.4-13.1,8.3-4.6,14-11.8,21.3-17.4a102.45,102.45,0,0,1,21.1-12.6,35.39,35.39,0,0,0,11.6-7.8,1.38,1.38,0,0,1,.4-.3c5.7-1.7,11.4-4,17.2-5,4.9-.8,10-.2,15-.2,3.8,0,7.7-.7,10.4,3.1a2.74,2.74,0,0,0,2.3.8c7.3.1,12.7,5,19,7.5,6.7,2.6,10.2,8.1,15.5,11.7,6.5,4.3,13.7,8.6,21.7,5.8,5.4-2,10-6.2,14.8-9.7,6.3-4.6,11.8-10.5,18.6-14.1,5.7-3,12.7-3.9,19.2-4.9,4.7-.7,9.6-.1,14.5-.1,1.2,0,2.5-.3,3.5.1,5.8,2.3,11.5,4.8,17.2,7.2a12.3,12.3,0,0,0,4.3,1,130.77,130.77,0,0,0,14-.1c1.9-.1,3.7-1.5,5.6-2.4.4-.2.7-.9,1.1-1,6-1.6,11.9-4.5,17.9-4.6,41.5-.4,82.9-.3,124.4-.1,2.7,0,5.4,1.7,8,2.7.8.3,1.5,1.1,2.2,1,9.5-.5,16,6.8,24.4,9.1a6,6,0,0,1,2.3,1.9c10.2,11.3,23.6,12.2,37.1,9.7,4.5-.8,7.7-7.4,12.3-9.3,7.3-3.1,12.5-9,20.1-12,12.9-5.1,25.5-2.8,38.2-3,35.3-.6,70.6-.2,105.9-.2,6.6,0,12.1,2.8,17.4,6.2a11.46,11.46,0,0,0,5.3,2c5.7.3,11.3.1,17,.1,3.6,0,7.2.3,10.1-3,.8-1,3.1-.6,4.7-1.1,2.6-.8,5-2,7.6-2.8a21.62,21.62,0,0,1,6.1-1.4c14.2-.1,28.3.1,42.5-.2,3.4-.1,6.7-1.9,10-3a16.57,16.57,0,0,1,3.8-1.1c3.5-.2,6.8-.1,9.5-3.2.9-1,3.4-.8,5.2-.9,5.6-.4,11.7,1.5,16.4-3.6.7-.7,2.5-.5,3.8-.5,11.7,0,23.3-.1,35,.1,2.1,0,4.1,1.5,6.2,2.3a15.89,15.89,0,0,0,4.5,1.5c4.2.2,8.3.2,12.5.2,3.2,0,6.3-.3,8.5,2.9.7.9,2.7,1.1,4.1,1.1,4.3.2,8.7-.2,13,.3,2.6.3,5,1.8,7.6,2.6a48.65,48.65,0,0,0,7.6,1.5c5.1.5,9.9-.2,15,3.2,3.6,2.5,10,1,15.1,1.2,3.3.1,6.3-.1,9.1,2.8,1.4,1.5,5,.6,7.6,1.2,3,.8,6,1.9,9,3,.6.2,1.2,1,1.7.9,6-1.5,10,3.3,15.1,4.7,2.5.7,4.2,3.6,6.6,5a24.79,24.79,0,0,0,7.9,3.2c3.1.5,6.4-.3,9.5.2,10.5,1.8,17.1-4.2,24.9-10,5.8-4.3,11.8-9.2,19.5-11.9,19.8-6.8,39.8-1.5,59.6-3.4,1-.1,2.4,0,2.8.6,3.6,4.5,8.6,3.6,13.3,3.7,5.9.1,8.5,5.1,12.5,8.1.9.7,1.4,1.9,2.2,2.7,6.1,6.1,6.4,11.8.3,18.1s-12,12.4-18.5,18.2c-2.7,2.4-6.3,4-9.8,5.4-1.2.5-3.5-.7-4.7-1.9a78.59,78.59,0,0,1-6.2-7.8c-.3-.4-.4-1.1-.7-1.3-4.5-1.8-9-4.2-13.7-5.2-4.3-.9-9,0-13.4-.4-2.2-.2-4.3-1.7-6.4-2.6-1-.4-2-1.2-3-1.2-8.5,0-17,.1-25.5.1-3.6,0-5.2,1.4-4.8,5.1a47.07,47.07,0,0,1-.2,6.5c-.2,3.3.4,6.2,3.9,7.7,6.2,2.7,11.8,6.7,19.1,6.7,2.5,0,5,1.7,7.4,2.8,3,1.4,5.9,3.2,9,4.4,5.1,2,10.3,3.6,15.4,5.3l2.9.6c5.4,2.6,11,5.1,16.1,8.2,3.3,2,5.8,5.4,9,7.8,4.2,3.3,9.3,5.6,12.9,9.5,4.8,5.2,8.6,11.3,12.7,17.2a6.51,6.51,0,0,1,.7,3.4c.1,7,.4,14.1-.1,21.1a15.72,15.72,0,0,1-3.4,8.8c-5.6,6.1-11,13.1-18.1,16.9-13.4,7.2-21.3,20-32.8,28.8-4.1,3.1-9.8,4.2-14.8,6.3-2.1.9-4.3,1.7-6.4,2.5a14.69,14.69,0,0,1-4.5,1.4c-5.2.2-10.3.2-15.5.1-3.5-.1-7.4,1-9.8-3.2-.5-.8-2.8-.8-4.2-.8-7-.1-14.1-.7-21,.1-7.4.9-12.8-2.7-18.1-6.3a87.27,87.27,0,0,1-13.7-11.4c-5.1-5-11.4-4.4-16.8-2.5-6.1,2.1-11.3,6.6-16.9,10s-11.2,6.9-17.1,9.8c-5.6,2.8-11.5,5.1-17.4,7.4a16.47,16.47,0,0,1-5.8,1c-10.2.1-20.3.2-30.5-.1-2.5-.1-5-1.3-7.4-2.1-1.1-.4-2-1.3-3.1-1.4-14.2-1.7-24.4-10.8-34.7-19.4-5.8-4.9-11-10.5-16.4-15.8-4.3-4.2-17.3-4.5-21.5-.1-8.6,9-16.9,18.3-25.4,27.3-11.7,12.3-23.5,24.5-35.2,36.7-4.3,4.4-8.3,9.2-13,13.1-3.7,3.1-8.3,5.2-12.6,7.5a5,5,0,0,1-3.4.3c-4.9-2.2-10.2-3.9-14.3-7.1s-5.2-8.2-5.8-14c-1.3-13.1,7.3-19.9,14.5-28.1,6.7-7.6,13-15.4,19.3-23.3,4.9-6.1,9.5-12.5,13.8-19.1s7.7-13.8,11.5-20.7,7.7-13.7,11.1-20.7a67.47,67.47,0,0,0,5-14.3c.8-3.7.1-7.6.5-11.4.9-9.9-3.2-18.1-8.3-26.2a97.17,97.17,0,0,0-23.7-25.8c-9.8-7.5-21.1-8-32.2-5.6-6.3,1.4-16.7,12.7-16.5,22.8.3,21.8.1,43.5.1,65.3,0,10.3-.8,20.7.2,30.9.9,9-2.4,16.9-4.7,24.9a21.68,21.68,0,0,1-12.8,14.4c-5.7,2.2-10.9,6.3-16.7,7.4-10,2-20.4,4.8-30.7.7a7.63,7.63,0,0,1-4.1-3.4c-2.3-5.3-5.8-10.1-5.7-16.5.1-4.9,1.9-10.4-3.5-14.6-3.8-2.9-9.8-4.6-13.4-1.5-9.9,8.4-19.4,17.3-29.5,25.6a69.82,69.82,0,0,1-17.5,11.2c-13.3,5.6-26.5,2.5-39.8,3.3-7,.5-14.3,1.3-20.8-3.2-1.1-.8-3-.3-4.4-.8-6.4-2.3-12.9-4.3-18.9-7.3a61.89,61.89,0,0,1-13.6-9.6c-6.8-6.2-12.3-13.8-9.6-23.3a50.28,50.28,0,0,1,9.7-17.5c4.6-5.5,10.4-10.1,16.2-14.4,3.5-2.6,7.9-3.9,11.9-5.5a4.41,4.41,0,0,1,3.2.8c6,4.2,11.8,8.9,18.1,12.6,5,2.9,10.6,4.7,16.1,6.7a78,78,0,0,0,14.1,4c4.1.6,8.2.4,11.9-3.2,4.2-4.1,4.4-11.1-.5-14.7s-9.8-6.9-15.9-8.4c-4.6-1.1-8.7-4.3-13.3-6.1-5.9-2.3-12-4-18-5.9-.9-.3-2.2-.2-2.9-.7-8-6.4-17.2-2.5-25.9-3.1-1.2-.1-2.5,1.4-3.7,2.1-9,6-17.7,12.7-27.3,17.6-8.3,4.3-17.7,6.5-26.6,9.4-7.7,2.6-15.3,5.4-23.2,7.3-4.6,1.1-9.7.2-14.4,1.2-4.4.9-8.5,3.2-12.7,4.9a1.59,1.59,0,0,0-.9,1.2c-1.5,6.1-3.8,12.2-4.2,18.4-.7,12.1-.3,24.2-.4,36.4-.1,7.9-7.3,16-15,18.3-5,1.5-9.6,4.5-14.3,6.8-.1.1-.3.3-.4.3-11.1,3.8-22.2,7.4-34.2,4.9-4-.8-10.9-10.2-10.9-14.4,0-6.1-.1-12.3-.1-18.4,0-3-1.2-4.1-4.4-4.5-7.7-1-13,1.6-17.8,7.7-8.7,11-18,21.5-27.3,31.9-4.4,4.9-9,10.1-14.6,13.2-3.9,2.2-9.6,1.3-14.5,1.3-1.7,0-3.4-1.4-5-2.4-5.5-3.3-3.9-8.9-4.3-13.8a86.77,86.77,0,0,1,.2-11.4,7.25,7.25,0,0,1,.7-3.3c2.9-4.9,5.7-9.8,8.9-14.4,5.9-8.5,12.3-16.8,17.8-25.5,5.1-8.1,9.6-16.7,14.1-25.2,4.3-8.2,9.2-16.3,12.1-25,4.3-12.6,8.5-26.1,4.3-39.1a58.32,58.32,0,0,0-19.6-27.5c-5.1-4-9.8-8.4-15.3-11.6-4.3-2.5-9.6-4.7-14.3-4.5s-9.9,2.9-13.8,6c-5.7,4.5-12,9.5-15.1,15.8-2.9,5.7-7.3,11.6-5.7,19.2,1.2,6-2,11.7-2.6,17.5-1.2,12.5-.6,25.2-.7,37.8-.1,8.6-.1,17.3-.3,25.9-.4,14-8.2,22-21.1,28.1-9.8,4.6-19,4.2-28.8,3.6-5.1-.3-12.3-8.9-12.3-14.1,0-31.9-.2-63.8.2-95.7.1-10.1-4.6-17.5-10.4-24.7-5.4-6.9-13-11.2-20.7-14.8-6.5-3-12.7.4-17.9,4.5-7.1,5.7-11.6,13-15.4,21.5-6.9,15.5-3.5,31-2.7,46.5.3,6.7,4.3,13.3,6.8,19.8,3,7.8,5.8,15.6,9.4,23.2a166.22,166.22,0,0,0,10.3,17.9c4.5,7.2,9.3,14.3,14.2,21.2,3.2,4.5,7,8.6,10.4,12.9s6.5,8.5,9.6,12.8a7.48,7.48,0,0,1,1,3.2c.2,1.6-.3,3.4.1,5,2.2,8.7-4.1,13.1-9,18.2a1.71,1.71,0,0,1-1.3.7c-8.5,0-17.1,2.2-25.4-1.9-7.5-3.6-15.9-3.3-23.3-.6-9.3,3.3-18,7.7-28.2,7.6-2.6,0-5.3,1.5-7.9,2.2a24.43,24.43,0,0,1-5.2,1.2c-5.7.1-11.3.3-17-.1-3.5-.3-6.9-1.9-10.4-2.3a168.05,168.05,0,0,0-18.8-1.4c-10.3-.3-20.6-.2-31-.3-1.8,0-4,.2-5.3-.7-4.9-3.6-10.4-3-15.8-3.1-8-.1-16-.2-24-.2-5.3,0-10.6.3-15.4-3a8.67,8.67,0,0,0-5.3-.8c-11.7,1-19.7-5.1-26.5-13.6a7.69,7.69,0,0,1-1-4.2c-.1-4.8-.1-9.6,0-14.5.1-3.9-.9-7.9,2.8-11,.9-.8,1-2.8,1-4.3.1-7.8.1-15.6.2-23.4.1-3.3-1.3-4.2-4.6-4.9-10-2-14.7,5.5-21,10.5-5.4,4.3-10.7,8.3-17.5,11.2-13.8,5.8-27.6,2.1-41.2,3.4-7.6.8-15-.1-21.5-4.1C36.73,220.23,36,216.93,34.13,213.63Zm1213.4-40.5a32.62,32.62,0,0,0,21.1-8.6c5-4.4,9.1-9.8,9.4-17a18,18,0,0,1,1-3.3c1-3.9,2.3-7.7,2.9-11.6.8-5.6-.7-11.4,2.4-17,1.3-2.5.1-6.4-.3-9.7-.4-3-2.1-6.1-1.8-9,.9-6.5-2.6-11.8-5.8-15.8-8.3-10.2-18.9-17.7-32.9-18.3a6.15,6.15,0,0,1-3.3-.7c-5.1-3.8-11-2.9-16.7-3.5a38.33,38.33,0,0,1-8-2.3c-6.6-2-13.1-3-19.6.6-5.7,3.1-9.2,7.5-11.7,13.7-3.9,9.5-4.6,19.6-7,29.4a1.7,1.7,0,0,0,0,1c1.5,7.5,5.1,14.7,4,22.7a1.4,1.4,0,0,0,.3.9c5,8.7,8.5,18.2,16.5,25.1,7,6,14.1,11.5,22.9,14.5l14.7,5.1C1239.53,170.63,1243.53,171.83,1247.53,173.13ZM935,88.83h0c0-8.3-.2-16.6.1-24.9.2-5.1-3.9-7.1-6.8-8.6-2.4-1.2-6.9-.1-9.6,1.5-3.6,2.1-6.5,5.5-9.5,8.5-3.9,4-8.1,6.8-14.1,6.5s-9.2-2.4-10.7-8.3c-.3-1.2-.6-3.1-1.4-3.4-4.7-2-9.5-4.7-14.5-5.3a147,147,0,0,0-23.9-.4c-11.9.5-11-1.9-11,11.5,0,2,.3,5.1,1.6,5.8a146.46,146.46,0,0,0,17.8,8.7c5,2,10.4,3.2,15.6,4.8a9.5,9.5,0,0,1,1.7,1c4.2,2.3,8.3,4.5,12.5,6.8,5.3,2.8,10.7,5.4,15.8,8.5,4.9,2.9,10.4,5.6,13.9,9.7,4.8,5.7,9.9,7.6,17.1,7.1,4.5-.3,5.7-1.8,5.6-6-.3-7.9-.2-15.7-.2-23.5Zm-264.2,2.3c.5,8.2-2.1,18,4.5,26.2,1.6,2,3.9,4.3,6.1,4.6,5.7.8,11.6.3,17.4.6,11.3.6,18.9-5.9,25.8-13.5,5.1-5.6,7.1-12.5,4.5-19.9-6.2-18-21.5-25.1-38-30.1-10.4-3.1-21.3,7.7-20.4,17C671.23,80.73,670.83,85.43,670.83,91.13ZM68.53,54.63c0,5.3-.1,9.9,0,14.5a3.25,3.25,0,0,0,1.1,2.5c6.2,3.1,12.4,6.2,18.8,8.9,5,2.1,10.3,3.3,15.4,5.3,5.7,2.3,11.4,4.6,16.9,7.4,4,2.1,7.7,4.9,11.6,7.4,2.6,1.7,5,4.2,7.8,4.8,4.2.8,8.6.2,12.9.2,3,0,3.8-1.6,4.2-4.3.5-4,1.9-7.9,2.5-12,1.1-6.9,4.4-14.1-2.7-20.1-2.7-2.2-14.1-4-16.1-1.3-3.3,4.2-7.6,3.5-11.8,3.6-5.9.1-8.7-2.5-10-8.3-.3-1.2-.6-3-1.4-3.5-3.9-1.9-7.9-4.7-12-4.9C93.73,54.23,81.53,54.63,68.53,54.63ZM1394,169.83c.1-.5.3-1,.4-1.5,3.2,0,6.4.4,9.5-.1,2.5-.4,6.8-1.5,7-2.7.5-4.6,1.5-11.5-1-13.6-6.8-5.7-15-9.7-23-13.7-4.7-2.4-10.6-2.7-15-5.6-6.6-4.3-13.4-2.8-20.2-2.9-1.1,0-3.1,1-3.1,1.6-.2,4.9-2,11.4.4,14.5,5.3,6.8,12.1,13.4,19.8,17.3S1385.43,167.73,1394,169.83ZM1130,33.13a2.35,2.35,0,0,1-.2.8,71.18,71.18,0,0,0-8,.1c-1.3.1-3.1.9-3.6,1.9-2.3,4.7,0,15.2,3.8,18.5,2.9,2.6,5.6,5.8,8.9,7.7,2.2,1.3,6.1,1.9,8,.7,4.3-2.6,8-6.4,11.6-9.9,4.5-4.5,2.8-14.1-3.2-16-5.6-1.8-11.5-2.6-17.3-3.8Z"/></g></g></svg>