<svg id="Layer_1" data-name="Layer 1" xmlns="http://www.w3.org/2000/svg" viewBox="0 0 2526.78 122.48"><defs><style>.cls-1,.cls-3{fill:#d1d0d1;}.cls-1,.cls-2{opacity:0.33;}.cls-3{stroke:#1d1d1b;}.cls-3,.cls-4{stroke-miterlimit:10;}.cls-4{fill:#b7b7b7;stroke:#fff;stroke-width:2px;opacity:0.5;}</style></defs><rect class="cls-1" x="1.5" width="2525.28" height="20.01"/><g class="cls-2"><path class="cls-3" d="M-1065.83,465.11V410.39H1459.45v54.72Zm2201-43.8c-1.72,0-3.36,0-5,0a1.27,1.27,0,0,0-1.42.93q-3.48,8.46-7,16.9c-.73,1.74-1.47,3.47-2.31,5.46-.87-2.12-1.64-3.95-2.38-5.79-2.23-5.54-4.44-11.08-6.69-16.62-.14-.34-.53-.81-.82-.82-1.78-.08-3.58,0-5.42,0V451H1109V431.72c2.33,5.28,4.46,10.57,6.59,15.85.46,1.14.68,2.71,1.54,3.26s2.47.17,3.74.26a1.26,1.26,0,0,0,1.42-.93c1.74-4.24,3.52-8.46,5.3-12.69.83-2,1.68-4,2.52-6l.26.06V451h4.81Zm-1676.85,0c-1.74,0-3.37,0-5,0a1.2,1.2,0,0,0-1.33.88c-1.78,4.36-3.6,8.69-5.41,13l-3.93,9.36c-.22-.49-.38-.81-.51-1.14q-4.25-10.55-8.5-21.09c-.17-.4-.62-1-1-1-1.78-.09-3.58,0-5.43,0V451H-568V431.56a1.56,1.56,0,0,1,.59.77q3,7.59,6.08,15.19c.46,1.15.66,2.73,1.52,3.3s2.47.17,3.74.27a1.31,1.31,0,0,0,1.49-1c1.86-4.54,3.78-9,5.68-13.57l2-4.83.32.08V451h4.79Zm1257.58,0c-1.76,0-3.4.05-5,0a1.2,1.2,0,0,0-1.3.93q-3.28,8-6.61,15.91c-.87,2.1-1.76,4.19-2.73,6.5-.84-2.09-1.57-3.93-2.31-5.78q-3.3-8.22-6.63-16.44c-.17-.42-.58-1-.91-1.05-1.82-.1-3.65-.05-5.52-.05V451h4.84V431.55a.53.53,0,0,1,.38.37c2.08,5.17,4.18,10.34,6.24,15.53,1.52,3.83,1.5,3.86,5.57,3.59a1.56,1.56,0,0,0,1.1-.78c1.41-3.22,2.74-6.46,4.1-9.7q1.86-4.44,3.73-8.87l.26,0V451h4.83ZM-122.45,451V421.31c-1.7,0-3.33.05-5,0a1.33,1.33,0,0,0-1.49,1c-2.11,5.16-4.28,10.31-6.43,15.46-.91,2.19-1.83,4.38-2.88,6.86l-.78-1.89q-4.12-10.26-8.26-20.51c-.15-.35-.51-.85-.79-.86-1.82-.08-3.64,0-5.48,0V451h4.91V431.8c2.49,5.67,4.77,11.37,7.05,17.08.87,2.19.86,2.19,3.19,2.19a15.69,15.69,0,0,1,1.68,0c.72.07,1.05-.25,1.32-.9,1.6-3.9,3.24-7.8,4.87-11.69,1-2.34,2-4.66,3-7l.28,0V451Zm-854.15-6.44c-.25-.57-.41-.89-.54-1.22-2.81-7-5.6-14-8.42-21-.16-.4-.5-1-.79-1-1.85-.1-3.72-.05-5.59-.05V451h4.84V431.62a.84.84,0,0,1,.43.48q3.12,7.77,6.25,15.54c.46,1.13.69,2.67,1.54,3.23s2.4.13,3.63.22a1.32,1.32,0,0,0,1.51-1c1.92-4.68,3.89-9.34,5.85-14q1-2.28,1.94-4.54l.24.06V451h4.77V421.31c-1.7,0-3.3.06-4.89,0a1.35,1.35,0,0,0-1.49,1c-1.88,4.57-3.79,9.13-5.68,13.69C-974.17,438.79-975.33,441.57-976.6,444.59ZM270.51,451v-19.4a.9.9,0,0,1,.42.49q3.12,7.75,6.24,15.52c.46,1.13.69,2.7,1.54,3.23s2.48.16,3.75.23a1.19,1.19,0,0,0,1.34-.88c1.54-3.76,3.14-7.5,4.71-11.24q1.56-3.72,3.14-7.42l.22.05V451h4.8V421.32c-1.85,0-3.6,0-5.35,0a1.32,1.32,0,0,0-.89.74c-2.11,5-4.19,10-6.28,15-1,2.45-2,4.9-3.15,7.53l-.67-1.59q-4.18-10.44-8.39-20.86c-.13-.32-.46-.8-.71-.81-1.85-.07-3.71,0-5.56,0V451ZM89.84,451h5V430.8c.36.53.57.81.74,1.11Q101,441,106.36,450.16c.2.34.55.84.86.86,1.45.09,2.92,0,4.43,0V421.39h-4.86v20.26c-.45-.71-.7-1.11-1-1.52q-5.19-8.82-10.39-17.63c-.26-.45-.69-1.09-1.08-1.12-1.49-.13-3-.05-4.53-.05Zm754.74.09V421.41h-4.85v20.2c-.33-.53-.5-.78-.66-1.05-3.59-6.08-7.16-12.17-10.77-18.24-.24-.4-.68-.93-1.06-.95-1.46-.12-2.93-.05-4.41-.05V451h4.95V431.08a15,15,0,0,1,1.72,2.46c3.26,5.54,6.5,11.08,9.79,16.6a1.93,1.93,0,0,0,1.22.89C841.82,451.15,843.14,451.07,844.58,451.07Zm577.53-29.71v19.91a4.53,4.53,0,0,1-1-1.27q-5.19-8.82-10.39-17.64c-.23-.39-.59-.95-.93-1-1.49-.1-3,0-4.48,0V451h4.86V431.12a2.76,2.76,0,0,1,.85.95q5.36,9.07,10.72,18.14c.19.32.49.79.77.8,1.49.08,3,0,4.49,0V421.36Zm-1274.5,0V451h4.95V431.13a2.82,2.82,0,0,1,.87,1c3.57,6,7.12,12.1,10.7,18.13.2.33.61.74.94.76,1.42.08,2.85,0,4.29,0V421.41h-4.88v20.13c-.29-.39-.4-.5-.48-.64q-5.44-9.28-10.92-18.55a2.09,2.09,0,0,0-1.29-1C150.45,421.23,149.08,421.32,147.61,421.32Zm378.5,20.51c-.42-.65-.66-1-.87-1.36q-5.38-9.12-10.75-18.24c-.21-.35-.56-.84-.87-.86-1.49-.09-3,0-4.5,0V451H514V430.68l.68,1.11c3.6,6.11,7.2,12.24,10.82,18.34.22.37.62.87,1,.89,1.46.1,2.92,0,4.43,0V421.39h-4.82Zm402.22-20.51V451h4.85v-20.3a5.37,5.37,0,0,1,.36.45q5.61,9.54,11.24,19.07a1.67,1.67,0,0,0,1,.83c1.42.09,2.85,0,4.3,0V421.41h-4.85v20.28c-.41-.65-.63-1-.82-1.3-3.57-6.05-7.12-12.1-10.71-18.13a1.93,1.93,0,0,0-1.2-.9C931.16,421.24,929.79,421.32,928.33,421.32ZM-832.16,451.07V421.41H-837v20.25c-.33-.44-.48-.61-.59-.8q-5.49-9.33-11-18.66c-.19-.32-.49-.8-.76-.82-1.53-.08-3.07,0-4.58,0V451h4.84V430.67a5.13,5.13,0,0,1,.43.58c3.73,6.32,7.44,12.65,11.19,19a1.8,1.8,0,0,0,1.13.82C-835,451.14-833.62,451.07-832.16,451.07ZM1259,421.37v20.35a6.48,6.48,0,0,1-.44-.56q-5.58-9.48-11.18-19c-.22-.36-.65-.82-1-.84-1.42-.1-2.86,0-4.32,0V451H1247V430.7c.39.63.59.93.77,1.23q5.31,9,10.64,18c.24.41.63,1,1,1,1.49.12,3,.05,4.48.05V421.37Zm-833.6,29.7V421.41H420.6V441.7c-.39-.59-.59-.87-.76-1.16q-5.25-8.91-10.5-17.83c-.3-.5-.68-1.26-1.09-1.3a43.64,43.64,0,0,0-4.57-.07V451h4.84V430.73a4.32,4.32,0,0,1,.38.41q5.61,9.54,11.24,19.06a1.78,1.78,0,0,0,1.13.83C422.62,451.14,424,451.07,425.44,451.07ZM-748.45,421.32V451h4.84V430.69c.4.63.62.94.81,1.27q5.34,9.07,10.7,18.14c.21.35.53.89.83.9,1.54.1,3.08.05,4.57.05V421.4h-4.85v20.26a4.83,4.83,0,0,1-.37-.42q-5.61-9.54-11.24-19.06a1.77,1.77,0,0,0-1.13-.82C-745.64,421.25-747,421.32-748.45,421.32Zm749.9.06v20.44L.9,441q-5.5-9.33-11-18.65c-.24-.4-.68-.91-1.06-.94-1.42-.12-2.85-.05-4.32-.05V451h4.86V431.06a2.77,2.77,0,0,1,.82.95q5.36,9.08,10.71,18.14c.21.34.55.85.85.87,1.5.09,3,0,4.54,0V421.38Zm-309,29.69V421.41h-4.86v19.92a2.8,2.8,0,0,1-.82-1q-5.34-9.06-10.71-18.13c-.21-.35-.55-.84-.86-.86-1.5-.09-3,0-4.51,0V451h4.84V430.61c.28.41.39.57.49.73q5.52,9.38,11.08,18.75a1.93,1.93,0,0,0,1.18.94C-310.35,451.15-309,451.07-307.53,451.07ZM1003,441.32l-.25,0c-.19-.3-.38-.6-.56-.91q-5.42-9.17-10.84-18.33c-.18-.31-.51-.74-.79-.76-1.49-.07-3,0-4.54,0V451h4.9V430.62l.52.8q5.54,9.38,11.07,18.74c.22.37.63.84,1,.87,1.42.1,2.85,0,4.31,0V421.4H1003Zm-1693.68-20V451h4.84v-20.3l.72,1.17q5.45,9.21,10.9,18.43c.18.31.51.73.79.75,1.5.07,3,0,4.53,0V421.42h-4.92v20.21c-.24-.3-.33-.38-.38-.47q-5.6-9.48-11.2-19a1.78,1.78,0,0,0-1.11-.85C-687.89,421.25-689.25,421.32-690.71,421.32ZM588.63,451.07V421.41h-4.87v20.36c-.31-.49-.42-.65-.51-.81q-5.5-9.33-11-18.66c-.22-.38-.61-.9-1-.93-1.46-.1-2.93,0-4.43,0V451h4.87V430.62c.36.61.53.88.69,1.16q5.45,9.23,10.9,18.44a1.77,1.77,0,0,0,1.14.81C585.81,451.13,587.18,451.07,588.63,451.07Zm-860.2-29.75V451h4.87V430.75a3.88,3.88,0,0,1,.39.48q5.6,9.48,11.2,19c.2.34.57.81.88.83,1.46.09,2.93,0,4.44,0V421.38h-4.88v20.34l-.68-1.11c-3.61-6.12-7.2-12.24-10.84-18.35a1.92,1.92,0,0,0-1.21-.9C-268.75,421.24-270.11,421.32-271.57,421.32Zm-158.35,9.23c.47.76.77,1.21,1,1.68q5.19,8.81,10.39,17.63c.27.45.68,1.11,1.07,1.14,1.45.14,2.92.06,4.43.06V421.39h-4.86v20.25c-.39-.59-.6-.88-.78-1.19q-5.37-9.12-10.76-18.24c-.2-.35-.56-.83-.87-.84-1.5-.09-3,0-4.55,0V451h4.89Zm1799.14,20.52V421.41h-4.84v20.23c-.44-.73-.71-1.15-1-1.59-3.51-5.94-7-11.89-10.52-17.82-.22-.37-.63-.84-1-.87-1.42-.1-2.85,0-4.3,0V451h4.83v-19.9a33.24,33.24,0,0,1,2.5,3.81q4.53,7.68,9.07,15.35a1.63,1.63,0,0,0,1,.79C1366.39,451.13,1367.75,451.07,1369.22,451.07ZM-827,450.92c4.48,0,8.84.23,13.17-.06a11.92,11.92,0,0,0,9.94-6.4c2-3.49,2.18-7.28,1.77-11.15a12.78,12.78,0,0,0-12-11.84c-4.18-.28-8.39-.09-12.58-.11-.07,0-.13.07-.25.13ZM430.67,421.45v29.47c4.44,0,8.81.23,13.14-.06a12,12,0,0,0,10.06-6.61c1.89-3.44,2.06-7.17,1.63-10.94-.72-6.41-5.32-11.33-11.45-11.8C439.65,421.18,435.19,421.45,430.67,421.45Zm419.24,0V451a2.81,2.81,0,0,0,.5.09c4.15,0,8.32.15,12.45-.17A12,12,0,0,0,873.19,444a18.09,18.09,0,0,0,1.12-12.59,12.32,12.32,0,0,0-11.13-9.87C858.82,421.19,854.41,421.45,849.91,421.45ZM-407.79,451a3.55,3.55,0,0,0,.52.1c4.15,0,8.32.13,12.45-.17a12.09,12.09,0,0,0,10.49-7.08A18.33,18.33,0,0,0-383,432.36a12.63,12.63,0,0,0-11.8-10.89c-3.94-.25-7.9-.12-11.85-.15a10.9,10.9,0,0,0-1.09.09Zm419.26.28c4.91-.18,9.71-.1,14.45-.61A11.12,11.12,0,0,0,34.26,445a17.33,17.33,0,0,0,2-11.67C35.36,426.43,31,422,24.12,421.47c-4.08-.34-8.22-.1-12.33-.11-.1,0-.2.1-.32.17Zm1257.65-29.77v29.45c4.47,0,8.83.26,13.16-.07a11.86,11.86,0,0,0,10.52-7.73,17.81,17.81,0,0,0,.16-13.44c-1.79-4.74-5.34-7.67-10.33-8.12C1278.2,421.15,1273.7,421.47,1269.12,421.47ZM360,420.94c-2.92,0-6.33,2.07-8.29,6.1a20.75,20.75,0,0,0-.35,17.5,11.1,11.1,0,0,0,20.28.56,20.81,20.81,0,0,0,.46-16.86C370.31,423.6,366.84,420.94,360,420.94Zm552.12,0a10.53,10.53,0,0,0-9.9,6.14c-2.3,4.63-2.39,9.51-1.35,14.47a13.24,13.24,0,0,0,3.91,7.13,11.14,11.14,0,0,0,17.67-4.08,21.36,21.36,0,0,0,.29-16.21A10.77,10.77,0,0,0,912.14,421Zm-1257.58,0c-4,0-7.18,1.55-9.22,5-3.56,6-3.53,12.34-1,18.63,1.8,4.49,5.38,6.82,10.28,6.85a10.79,10.79,0,0,0,10.33-7,21.84,21.84,0,0,0,.65-14.76C-336.07,424-340.07,421-345.44,421Zm-550.49,0a10.49,10.49,0,0,0-9.94,6.07c-2.38,4.65-2.43,9.58-1.39,14.58a13.2,13.2,0,0,0,3.92,7.12,11.15,11.15,0,0,0,17.76-4.34,21.44,21.44,0,0,0,.17-16A10.77,10.77,0,0,0-895.93,420.94Zm850.22,15.11a18.24,18.24,0,0,0-1.53-8.27c-1.85-4-4.85-6.5-9.36-6.81-4.74-.33-8.53,1.48-10.68,5.77a19.92,19.92,0,0,0,.17,19.18c3.78,7,13.61,7.48,18.39,1.12C-46.32,443.83-45.62,440.1-45.71,436.05Zm1257.6,0a17.84,17.84,0,0,0-1.55-8.31c-1.81-3.9-4.75-6.39-9.13-6.76s-8.25,1.1-10.48,5.07a20,20,0,0,0-.21,19.9c2,3.84,5.5,5.56,9.8,5.47a10.54,10.54,0,0,0,9.61-6A18.45,18.45,0,0,0,1211.89,436.05Zm-707,.14a18.74,18.74,0,0,0-2.36-9.95c-4-6.95-14.46-7.09-18.77-.4-3.44,5.34-3.46,15.06-.13,20.48,4.1,6.67,14.47,6.9,18.71.08A18.31,18.31,0,0,0,504.86,436.19ZM-752.74,436a18.4,18.4,0,0,0-2.16-9.43c-4-7.19-14.29-7.86-18.72-1-4.07,6.32-3.94,13.17-.76,19.86,1.84,3.9,5.22,5.83,9.54,5.91a10.6,10.6,0,0,0,9.89-5.59A18.37,18.37,0,0,0-752.74,436Zm1545.48.19a18.63,18.63,0,0,0-2-9.25,10.57,10.57,0,0,0-9.49-6c-4.65-.12-8.2,1.8-10.24,5.94a20.41,20.41,0,0,0-.28,18.05c3.82,8.48,14.94,8.35,19.29,1.66A18.53,18.53,0,0,0,792.74,436.22Zm-1257.59,0a19.7,19.7,0,0,0-1.44-8.07c-1.78-4.17-4.77-6.86-9.44-7.21-4.84-.35-8.66,1.51-10.84,5.91a20.53,20.53,0,0,0-.29,18,10.33,10.33,0,0,0,9.79,6.51,10.61,10.61,0,0,0,10.1-5.84A19.16,19.16,0,0,0-464.85,436.25Zm526.77-.1a18.54,18.54,0,0,0,2,9.25,11.08,11.08,0,0,0,19.22,1c2.34-3.58,2.78-7.61,2.55-11.73s-1.35-8-4.52-11c-4.19-4-12-3.49-15.67,1C62.71,428,61.92,432,61.92,436.15Zm1257.52-.06c.11,1.31.16,2.63.35,3.93.55,3.75,2,7.07,5.13,9.4a11.14,11.14,0,0,0,16.1-3.51c2.08-3.6,2.47-7.54,2.23-11.57a16.54,16.54,0,0,0-2.86-8.87,11.06,11.06,0,0,0-17.41-.69C1320.26,428.06,1319.52,432,1319.44,436.09Zm-241.25-14.72V451h20.72V421.4h-5v25h-11v-25Zm-1103.85,25h-11v-25h-4.78V451H-20.7V421.41h-5ZM-578,451V421.41h-4.85v25h-10.91V421.38h-4.93V451Zm41.47-29.68V451h5V437.72h16.79V421.36ZM1216.13,451h20.77V421.39H1232v25h-11v-25h-4.86Zm-1390.77-4.53v-25h-4.8V451h20.6V421.39h-4.81v25.05ZM817.6,451V421.41h-4.84v25H801.82v-25H797V451ZM-440,451V421.41h-4.85v25h-10.93v-25h-4.79V451ZM659,421.36V451h20.59V421.42h-4.89v25H663.81V421.36Zm-281.28,0V451h20.68V421.38h-4.85v25H382.52V421.36ZM-879.89,451h20.72V421.39H-864v25.05h-11.09v-25h-4.82Zm-133.19-4.52v-25h-4.78V451h20.69V421.4H-1002v25ZM239.71,451h20.72V421.4h-4.81v25h-11.1v-25h-4.81ZM-950.9,437.71h17V421.42H-955.7V451h4.8Zm2113,0V421.41h-21.77V451h4.86V437.75ZM-117.25,421.37V451h4.84V437.7h16.92V421.37Zm419.18,0V451h4.81V437.75h16.94V421.36Zm419.28,0V451H726V437.72h16.81V421.38ZM-492.87,433.15h-12v-7.28h14.24v-4.5h-19.29V437.8h12.11v8.74h-12.11V451h17.05Zm1791.12-11.77v16.43h12.09v8.75h-12.09V451h17V433.18h-12v-7.32h14.24v-4.48ZM1035.18,451h17v-17.8h-12v-7.34h14.34v-4.4h-19.3v16.37h12.11v8.76h-12.13ZM45.6,433.2v-7.38H59.94v-4.41H40.64v16.38H52.75v8.75H40.64V451h17V433.2Zm-251,0h-12.09v-7.34h14.34v-4.47h-19.26v16.4h12.06v8.75h-12.05V451h17Zm-592.32,4.62h12v8.73h-12V451h17V433.15h-12.06v-7.32h14.21V421.4h-19.15Zm-258.13-12h14.24v-4.4h-19.25v16.33h12.07v8.79h-12.07V451h17V433.16h-12ZM459.9,451h17v-17.8h-12V425.8h14.19v-4.4H460v16.4h11.91v8.77h-12ZM216.05,421.41H196.88v16.38h12v8.76h-12V451h16.89V433.19h-12v-7.34h14.23ZM-924.2,425.84h14.3v-4.41h-19.16v16.34h12v8.79h-12V451h17V433.15H-924.2ZM891.2,446.56H879.12V451h17V433.15H884v-7.3h14.22v-4.44H879.08v16.37H891.2ZM345.56,433.14H333.42v-7.29H347.8V421.4H328.52v16.37h12.1v8.79H328.56V451h17Zm270.51-11.78v16.43h12v8.79h-12V451h17V433.13H621v-7.26h14.24v-4.51ZM-641.51,446.53V451h17v-17.8h-12.13v-7.31h14.25v-4.46h-19.15v16.33h12.09v8.79Zm1820.58-8.78v8.79H1167V451h17V433.19h-12.06v-7.36h14.22v-4.45H1167v16.37ZM-90.61,446.48V451h17V433.21H-85.7v-7.35h14.2v-4.45H-90.65v16.36h12.14v8.71Zm-275.81,0h-12.05V451h16.94V433.14h-12.09v-7.27h14.25v-4.46h-19.15v16.32h12.1Zm1114.2-8.75h12v8.78h-12V451h16.88v-17.8h-12v-7.32H767v-4.44H747.78Zm-136.92-4.59H598.79v-7.36h12.05v-4.45h-17V451h17v-4.54h-12v-8.71h12.1Zm-1269.7,4.51h12.09v-4.51h-12.06v-7.36h12.06v-4.45h-17V451h17v-4.55h-12.06Zm1671.89-16.34V451h17v-4.5h-12.11v-8.74H1030v-4.57h-12.07v-7.3H1030v-4.51Zm-1257.61,0V451h17v-4.5h-12.12v-8.75h12.1v-4.61h-12.08v-7.26h12.08v-4.51ZM179.56,437.7h12v-4.55h-12v-7.34h11.94v-4.39H174.71V451h16.86v-4.5h-12Zm1269.62-16.27h-16.86V451h16.83V446.5h-11.93v-8.78h11.94v-4.54h-11.94v-7.34h12Zm-2470.8,25.06h-12.09V421.37h-4.92V451h17Zm1993.92,0H960.1V421.38h-4.81V451h17ZM-619.34,421.37V451h17v-4.51h-12.22V421.37Zm1262.42,0h-4.84V451h17v-4.48H643.08ZM121.8,446.52V421.41H117V451h16.88v-4.5Zm-419.32,0V421.41h-4.8V451h17v-4.44Zm1689,4.48v-4.54h-12V421.42h-4.83V451ZM-721.43,421.36V451h17v-4.51h-12.21V421.36Zm1257.6,0V451h17v-4.51H540.93V421.36Zm-736.32,0V451h17v-4.51h-12.21V421.36Zm1257.6,0V451h17v-4.51h-12.21V421.36ZM223.88,446.49V421.41h-4.79V451H236v-4.47Zm-86.25-25.12V451h4.73v-29.6Zm424,29.66V421.41h-4.72V451Zm-1262.3-29.66V451H-696v-29.6Zm1676.78,0V451h4.73V421.36Zm419.14,0V451H1400v-29.6Zm-1676.74,0V451h4.73V421.36Z" transform="translate(1066.33 -360.01)"/><path class="cls-3" d="M-822,425.91c2.41,0,4.69-.14,7,0a8.1,8.1,0,0,1,7.62,6.22,12.37,12.37,0,0,1-1.07,10.39,7.13,7.13,0,0,1-5.35,3.65c-2.68.3-5.38.3-8.16.43Z" transform="translate(1066.33 -360.01)"/><path class="cls-3" d="M435.54,446.34V425.88c3.43.18,6.89-.61,10.16.87a7.85,7.85,0,0,1,4.21,4.68,12.71,12.71,0,0,1-.68,10.87,7.4,7.4,0,0,1-5.93,4C440.77,446.51,438.21,446.34,435.54,446.34Z" transform="translate(1066.33 -360.01)"/><path class="cls-3" d="M854.88,425.9c2.34,0,4.58-.13,6.81,0a8.23,8.23,0,0,1,7.76,6.53c1,4,.78,7.84-2,11.18a8.3,8.3,0,0,1-6.35,2.84c-2,.09-4.07,0-6.21,0Z" transform="translate(1066.33 -360.01)"/><path class="cls-3" d="M-402.76,446.51v-20.8a84.75,84.75,0,0,1,8.82.62,7.21,7.21,0,0,1,5.27,4.65,13.3,13.3,0,0,1,.38,9.36c-1.19,3.83-3.95,5.86-8.34,6.14C-398.62,446.61-400.62,446.51-402.76,446.51Z" transform="translate(1066.33 -360.01)"/><path class="cls-3" d="M16.38,426.12a78.13,78.13,0,0,1,8.25.07,7.08,7.08,0,0,1,5.75,4.55A12.24,12.24,0,0,1,29.59,443a7.46,7.46,0,0,1-6.14,3.42c-2.34.11-4.69,0-7.07,0Z" transform="translate(1066.33 -360.01)"/><path class="cls-3" d="M1274,425.77a70.12,70.12,0,0,1,8.37.43c3.22.52,5.21,2.81,6.19,5.86a12.86,12.86,0,0,1-.13,8.57c-1.28,3.47-3.73,5.53-7.47,5.74-2.3.14-4.61,0-7,0Z" transform="translate(1066.33 -360.01)"/><path class="cls-3" d="M354.73,436.29c0-3.09.4-5.85,2.14-8.27a5.78,5.78,0,0,1,9.63.1c1.88,2.68,2.21,5.77,2.11,8.91a12.86,12.86,0,0,1-2,7,5.81,5.81,0,0,1-10-.07A13,13,0,0,1,354.73,436.29Z" transform="translate(1066.33 -360.01)"/><path class="cls-3" d="M912.16,425.5a5.67,5.67,0,0,1,5.27,3.23,15.6,15.6,0,0,1,0,14.83,5.78,5.78,0,0,1-10.55-.09,15.66,15.66,0,0,1,.18-14.94A5.61,5.61,0,0,1,912.16,425.5Z" transform="translate(1066.33 -360.01)"/><path class="cls-3" d="M-352.41,436.11a15.28,15.28,0,0,1,1.77-7.45c2.41-4.08,7.82-4.37,10.21-.29a14.94,14.94,0,0,1,.12,15.39c-2.47,4.46-8.11,4.08-10.55-.46A16,16,0,0,1-352.41,436.11Z" transform="translate(1066.33 -360.01)"/><path class="cls-3" d="M-903.27,436a61.78,61.78,0,0,1,1.71-6.52,5.72,5.72,0,0,1,5.36-4,5.71,5.71,0,0,1,5.71,3.63c2.18,4.84,2.31,9.82-.3,14.51-2.48,4.47-8.11,4.22-10.59-.28a16.19,16.19,0,0,1-1.58-7.3Z" transform="translate(1066.33 -360.01)"/><path class="cls-3" d="M-50.62,435.78c0,3.11-.32,5.82-1.93,8.21-2.7,4-8.06,3.86-10.26-.44a15.76,15.76,0,0,1-.08-14.63,5.63,5.63,0,0,1,5.59-3.4,6,6,0,0,1,5.24,3.62A13.6,13.6,0,0,1-50.62,435.78Z" transform="translate(1066.33 -360.01)"/><path class="cls-3" d="M1207,436.25c0,3-.38,5.92-2.37,8.34-2.72,3.3-7.47,3.09-9.58-.67a15,15,0,0,1-.15-15.21c2.53-4.57,8.13-4.26,10.63.35A14.58,14.58,0,0,1,1207,436.25Z" transform="translate(1066.33 -360.01)"/><path class="cls-3" d="M500.08,436.27a16.51,16.51,0,0,1-1.52,6.75c-1.17,2.31-2.92,3.84-5.6,3.83-2.85,0-4.69-1.71-5.72-4.2a16.86,16.86,0,0,1-.19-12.51c1.48-4,5.25-5.73,8.56-4,2.24,1.15,3.28,3.23,3.82,5.54C499.78,433.17,499.88,434.73,500.08,436.27Z" transform="translate(1066.33 -360.01)"/><path class="cls-3" d="M-757.66,435.05c0,3.62-.33,6-1.5,8.22-2.42,4.58-7.87,4.88-10.59.49-2.18-3.52-2.16-7.43-1.46-11.37a9.36,9.36,0,0,1,2.62-5.26,5.73,5.73,0,0,1,8.47.52A12,12,0,0,1-757.66,435.05Z" transform="translate(1066.33 -360.01)"/><path class="cls-3" d="M787.82,436.36a14.34,14.34,0,0,1-1.72,7.25c-2.55,4.28-8,4.49-10.36.15a15,15,0,0,1,.09-15.3c2.39-4.15,7.65-4,10.17.11A14.38,14.38,0,0,1,787.82,436.36Z" transform="translate(1066.33 -360.01)"/><path class="cls-3" d="M-483.73,436.1c.05-2.78.38-5.54,2.09-7.93a5.8,5.8,0,0,1,10,.29c1.77,2.8,2,5.93,1.83,9.12a12.49,12.49,0,0,1-2.06,6.65,5.78,5.78,0,0,1-9.56.19C-483.32,442-483.68,439.1-483.73,436.1Z" transform="translate(1066.33 -360.01)"/><path class="cls-3" d="M66.84,436.61c0-3.21.38-5.87,1.92-8.24a5.82,5.82,0,0,1,10,0c1.81,2.77,2.09,5.9,1.91,9.1a12.28,12.28,0,0,1-2.14,6.87,5.8,5.8,0,0,1-9.77-.27A13.08,13.08,0,0,1,66.84,436.61Z" transform="translate(1066.33 -360.01)"/><path class="cls-3" d="M1338.37,436.81a13.5,13.5,0,0,1-2,7.32,5.82,5.82,0,0,1-9.92-.09c-1.91-2.92-2.12-6.22-1.91-9.57a12.31,12.31,0,0,1,1.86-6.11,5.85,5.85,0,0,1,10.07,0C1337.71,430.3,1338.37,433,1338.37,436.81Z" transform="translate(1066.33 -360.01)"/><path class="cls-3" d="M-531.55,433.11V426h11.9v7.16Z" transform="translate(1066.33 -360.01)"/><path class="cls-3" d="M-950.84,433.15V426h12v7.17Z" transform="translate(1066.33 -360.01)"/><path class="cls-3" d="M1157.24,433.16h-12V426h12Z" transform="translate(1066.33 -360.01)"/><path class="cls-3" d="M-100.34,426v7.12h-12V426Z" transform="translate(1066.33 -360.01)"/><path class="cls-3" d="M318.8,426v7.14h-12V426Z" transform="translate(1066.33 -360.01)"/><path class="cls-3" d="M726.06,433.11v-7.17H738v7.17Z" transform="translate(1066.33 -360.01)"/></g><line class="cls-4" x1="1.5" y1="121.48" x2="2526.78" y2="121.48"/><line class="cls-4" x1="1.5" y1="35.2" x2="2526.78" y2="35.2"/></svg>