<svg xmlns="http://www.w3.org/2000/svg" viewBox="0 0 2526.78 121.98"><defs><style>.cls-1{fill:#e9e9e9;}.cls-1,.cls-2,.cls-5{opacity:0.33;}.cls-3,.cls-5{fill:#fff;}.cls-4{fill:none;}.cls-4,.cls-6{stroke:#fff;stroke-miterlimit:10;}.cls-6{fill:#bcbcbb;}</style></defs><g id="Layer_2" data-name="Layer 2"><g id="Layer_1-2" data-name="Layer 1"><rect class="cls-1" x="1.5" width="2525.28" height="20.01"/><g class="cls-2"><path class="cls-3" d="M.5,105.11V50.39H2525.78v54.72Zm2201-43.8c-1.72,0-3.36,0-5,0a1.27,1.27,0,0,0-1.42.93c-2.32,5.65-4.67,11.27-7,16.9-.73,1.74-1.47,3.47-2.31,5.46-.87-2.12-1.64-4-2.38-5.79-2.23-5.54-4.45-11.08-6.7-16.61-.13-.34-.52-.82-.81-.83-1.79-.07-3.58,0-5.42,0V91h4.86V71.72c2.34,5.27,4.46,10.56,6.6,15.84.46,1.14.68,2.71,1.54,3.26s2.47.17,3.73.26a1.24,1.24,0,0,0,1.42-.93c1.75-4.24,3.53-8.46,5.31-12.69.83-2,1.68-4,2.52-6l.26.06V91h4.81Zm-1676.85,0c-1.74,0-3.38,0-5,0a1.22,1.22,0,0,0-1.34.88q-2.67,6.54-5.4,13l-3.93,9.35c-.22-.49-.38-.81-.52-1.13q-4.23-10.56-8.5-21.1c-.16-.4-.61-.95-.95-1-1.79-.1-3.58,0-5.43,0V91h4.83V71.55a1.56,1.56,0,0,1,.59.77q3,7.59,6.08,15.19c.46,1.15.66,2.74,1.52,3.3s2.47.18,3.73.27a1.32,1.32,0,0,0,1.5-1c1.86-4.54,3.78-9,5.68-13.57l2-4.83.32.08V91h4.79Zm1257.58,0c-1.76,0-3.4,0-5,0a1.21,1.21,0,0,0-1.31.93q-3.27,8-6.6,15.91c-.87,2.1-1.76,4.19-2.74,6.51-.83-2.09-1.56-3.94-2.3-5.78q-3.3-8.23-6.63-16.44c-.17-.42-.58-1-.91-1.05-1.82-.11-3.66,0-5.52,0V91H1756V71.54a.53.53,0,0,1,.37.37q3.14,7.77,6.25,15.53c1.52,3.83,1.5,3.86,5.57,3.59a1.55,1.55,0,0,0,1.1-.78c1.41-3.21,2.74-6.46,4.1-9.7q1.86-4.44,3.73-8.87l.26,0V91h4.83ZM943.87,91V61.31c-1.69,0-3.32,0-5,0a1.33,1.33,0,0,0-1.49,1c-2.12,5.17-4.28,10.31-6.43,15.46-.91,2.19-1.84,4.38-2.88,6.86l-.78-1.89c-2.75-6.83-5.49-13.67-8.27-20.5-.14-.35-.5-.85-.78-.86-1.82-.08-3.64,0-5.48,0V91h4.91V71.79c2.49,5.67,4.77,11.37,7,17.08.88,2.19.87,2.2,3.2,2.2a15.69,15.69,0,0,1,1.68,0c.72.07,1.05-.25,1.32-.89,1.6-3.91,3.24-7.81,4.87-11.7q1.47-3.49,3-7l.27,0V91ZM89.73,84.59c-.25-.58-.41-.9-.54-1.23-2.81-7-5.6-14-8.42-21-.16-.4-.51-1-.79-1-1.86-.09-3.72,0-5.59,0V91h4.84V71.62a.86.86,0,0,1,.43.47c2.08,5.18,4.15,10.36,6.25,15.54.45,1.13.69,2.67,1.54,3.23s2.4.14,3.63.22a1.32,1.32,0,0,0,1.51-1c1.92-4.69,3.89-9.35,5.85-14q1-2.26,1.94-4.54l.24.06V91h4.77V61.31c-1.7,0-3.3,0-4.89,0a1.35,1.35,0,0,0-1.49,1c-1.88,4.57-3.79,9.13-5.69,13.69C92.16,78.78,91,81.57,89.73,84.59ZM1336.84,91V71.61a.9.9,0,0,1,.42.49q3.12,7.75,6.24,15.52c.46,1.13.69,2.71,1.54,3.24s2.48.15,3.75.22a1.19,1.19,0,0,0,1.34-.88c1.54-3.76,3.13-7.5,4.71-11.24,1-2.48,2.09-4.95,3.13-7.42l.23,0V91h4.8V61.31c-1.85,0-3.61,0-5.35,0a1.35,1.35,0,0,0-.89.74c-2.12,5-4.19,10-6.28,15-1,2.45-2,4.9-3.16,7.54l-.66-1.6q-4.19-10.44-8.39-20.86c-.13-.32-.46-.8-.71-.8-1.85-.07-3.71,0-5.56,0V91Zm-180.67,0h5V70.79c.36.53.58.81.75,1.11l10.76,18.25c.21.35.56.84.86.86,1.46.09,2.93,0,4.44,0V61.38h-4.86V81.64c-.45-.71-.71-1.11-.95-1.52q-5.19-8.82-10.39-17.63c-.27-.45-.69-1.08-1.09-1.12-1.49-.13-3,0-4.52,0Zm754.73.1V61.4h-4.84V81.61c-.33-.53-.51-.79-.66-1.06-3.59-6.08-7.16-12.17-10.77-18.24-.24-.4-.68-.92-1.06-1-1.46-.11-2.93,0-4.41,0V91h4.95V71.07a14.65,14.65,0,0,1,1.72,2.47c3.26,5.53,6.5,11.07,9.79,16.59a1.9,1.9,0,0,0,1.22.89C1908.15,91.14,1909.47,91.07,1910.9,91.07Zm577.54-29.72V81.26a4.4,4.4,0,0,1-1-1.27q-5.19-8.82-10.38-17.64c-.23-.38-.59-1-.93-1-1.49-.11-3-.05-4.48-.05V91h4.86V71.11a2.7,2.7,0,0,1,.85,1q5.36,9.06,10.71,18.13c.19.32.5.79.77.81,1.5.07,3,0,4.5,0V61.35Zm-1274.51,0V91h5V71.12a2.91,2.91,0,0,1,.87,1c3.57,6.05,7.12,12.1,10.7,18.13a1.53,1.53,0,0,0,.94.76c1.42.09,2.84,0,4.28,0V61.4h-4.87V81.53c-.29-.39-.4-.5-.48-.64-3.63-6.18-7.26-12.38-10.92-18.55a2.1,2.1,0,0,0-1.29-1A41.36,41.36,0,0,0,1213.93,61.31Zm378.51,20.51c-.42-.65-.66-1-.88-1.35q-5.37-9.14-10.75-18.25c-.2-.35-.55-.84-.86-.85-1.49-.09-3,0-4.5,0V91h4.91V70.67l.68,1.11q5.4,9.18,10.82,18.34c.22.38.62.87,1,.89,1.45.1,2.92,0,4.43,0V61.38h-4.82Zm402.22-20.51V91h4.85V70.68a4.37,4.37,0,0,1,.36.44q5.61,9.54,11.23,19.07c.22.36.65.81,1,.83,1.42.1,2.85,0,4.3,0V61.4h-4.85V81.68c-.41-.65-.63-1-.82-1.3-3.57-6-7.12-12.1-10.71-18.13a2,2,0,0,0-1.2-.9C1997.48,61.23,1996.12,61.31,1994.66,61.31ZM234.16,91.06V61.4h-4.84V81.65c-.32-.44-.47-.61-.58-.8q-5.49-9.33-11-18.65c-.19-.33-.49-.81-.76-.83-1.54-.07-3.08,0-4.59,0V91h4.85V70.66c.25.33.35.45.43.58,3.73,6.32,7.44,12.65,11.19,19A1.72,1.72,0,0,0,230,91C231.34,91.13,232.71,91.06,234.16,91.06Zm2091.2-29.7V81.72a6.73,6.73,0,0,1-.43-.57c-3.73-6.32-7.44-12.65-11.19-19-.21-.36-.64-.81-1-.84-1.43-.09-2.86,0-4.32,0V91h4.88V70.69c.39.63.59.93.77,1.24q5.31,9,10.63,18c.25.41.64,1,1,1,1.5.12,3,0,4.49,0V61.36Zm-833.6,29.7V61.4h-4.84V81.7c-.38-.6-.58-.87-.75-1.17q-5.25-8.91-10.51-17.83c-.29-.49-.67-1.26-1.08-1.3a43.78,43.78,0,0,0-4.58-.06V91h4.85V70.72c.22.24.32.32.38.41q5.61,9.54,11.24,19.07a1.78,1.78,0,0,0,1.12.82C1488.94,91.13,1490.31,91.06,1491.76,91.06ZM317.88,61.31V91h4.84V70.68c.4.63.61.94.81,1.27q5.34,9.08,10.7,18.14c.21.36.53.89.83.91,1.53.09,3.07,0,4.57,0V61.39h-4.85V81.66a4.2,4.2,0,0,1-.37-.43q-5.61-9.53-11.25-19.06a1.72,1.72,0,0,0-1.12-.82C320.69,61.25,319.33,61.31,317.88,61.31Zm749.9.06V81.82c-.31-.49-.43-.67-.55-.87q-5.51-9.33-11-18.65c-.24-.39-.68-.91-1.06-.94-1.42-.11-2.86,0-4.32,0V91h4.85V71.05a2.79,2.79,0,0,1,.83,1q5.35,9.07,10.71,18.14c.21.35.55.85.85.87,1.5.09,3,0,4.54,0V61.37Zm-309,29.69V61.41h-4.86V81.32a2.8,2.8,0,0,1-.82-1q-5.36-9.06-10.71-18.13c-.21-.35-.56-.84-.86-.86-1.5-.09-3,0-4.52,0V91h4.85V70.6c.27.42.39.57.48.73,3.69,6.26,7.37,12.52,11.09,18.75a1.93,1.93,0,0,0,1.18.94C756,91.14,757.34,91.06,758.8,91.06Zm1310.49-9.74-.24,0c-.19-.3-.38-.6-.56-.91q-5.41-9.16-10.84-18.32c-.18-.32-.51-.75-.79-.77-1.5-.07-3,0-4.54,0V91h4.9V70.61l.52.8c3.69,6.25,7.36,12.51,11.07,18.75.22.36.63.84,1,.86,1.42.1,2.85,0,4.32,0V61.39h-4.82Zm-1693.67-20V91h4.84V70.68l.72,1.16q5.44,9.21,10.9,18.43c.18.31.51.74.79.75,1.5.08,3,0,4.53,0V61.41h-4.92V81.62a3.84,3.84,0,0,1-.38-.47q-5.6-9.48-11.2-19a1.8,1.8,0,0,0-1.11-.85C378.44,61.24,377.08,61.31,375.62,61.31ZM1655,91.06V61.41h-4.87V81.76c-.31-.49-.42-.65-.51-.81q-5.5-9.33-11-18.66c-.22-.38-.61-.9-1-.93-1.46-.1-2.93,0-4.44,0V91h4.88V70.61c.36.61.53.88.69,1.16,3.63,6.15,7.24,12.31,10.9,18.44a1.76,1.76,0,0,0,1.14.82C1652.14,91.13,1653.5,91.06,1655,91.06ZM794.76,61.31V91h4.87V70.75a4.46,4.46,0,0,1,.39.47q5.6,9.48,11.2,19c.2.35.57.81.88.83,1.46.09,2.93,0,4.44,0V61.38h-4.88V81.72c-.35-.58-.52-.84-.69-1.12q-5.4-9.18-10.83-18.34a1.94,1.94,0,0,0-1.21-.91C797.58,61.23,796.22,61.31,794.76,61.31ZM636.4,70.54c.48.76.78,1.21,1.05,1.68q5.19,8.82,10.39,17.63c.27.45.67,1.11,1.07,1.15,1.45.13,2.92,0,4.43,0V61.38h-4.86V81.63c-.39-.59-.6-.88-.78-1.18q-5.37-9.14-10.76-18.25c-.2-.34-.56-.82-.87-.84-1.5-.09-3,0-4.55,0V91h4.88ZM2435.54,91.06V61.4h-4.83V81.63c-.44-.72-.72-1.15-1-1.59-3.51-5.94-7-11.89-10.52-17.82-.22-.37-.63-.84-1-.87-1.42-.1-2.85,0-4.31,0V91h4.84V71.07a32.49,32.49,0,0,1,2.5,3.82c3,5.11,6,10.24,9.07,15.34a1.64,1.64,0,0,0,1,.8C2432.72,91.12,2434.08,91.06,2435.54,91.06ZM239.36,90.92c4.48,0,8.84.22,13.17-.07a11.91,11.91,0,0,0,9.94-6.39c2-3.49,2.18-7.29,1.77-11.15a12.77,12.77,0,0,0-12.06-11.84c-4.17-.28-8.38-.1-12.57-.12-.07,0-.13.07-.25.13ZM1497,61.44V90.91c4.44,0,8.81.23,13.14-.06a12,12,0,0,0,10.06-6.61c1.89-3.44,2.06-7.17,1.63-10.94-.72-6.4-5.32-11.33-11.45-11.8C1506,61.17,1501.52,61.44,1497,61.44Zm419.24,0V91a2.81,2.81,0,0,0,.5.09c4.15,0,8.32.15,12.45-.17A12,12,0,0,0,1939.52,84a18.08,18.08,0,0,0,1.12-12.59,12.31,12.31,0,0,0-11.13-9.86C1925.15,61.18,1920.74,61.44,1916.24,61.44ZM658.54,91a2.58,2.58,0,0,0,.52.1c4.15,0,8.32.14,12.45-.16A12.12,12.12,0,0,0,682,83.81a18.37,18.37,0,0,0,1.28-11.46,12.63,12.63,0,0,0-11.8-10.89c-3.94-.25-7.9-.12-11.86-.15-.34,0-.69.06-1.08.09Zm419.25.29c4.92-.18,9.72-.11,14.46-.62a11.12,11.12,0,0,0,8.34-5.66,17.33,17.33,0,0,0,2-11.67c-.93-6.87-5.26-11.25-12.17-11.83-4.09-.34-8.22-.1-12.33-.11-.1,0-.2.11-.33.17ZM2335.45,61.46V90.91c4.46,0,8.83.27,13.15-.07a11.87,11.87,0,0,0,10.53-7.73,17.79,17.79,0,0,0,.16-13.43C2357.5,64.93,2354,62,2349,61.55,2344.53,61.14,2340,61.46,2335.45,61.46Zm-909.1-.53c-2.93,0-6.34,2.07-8.29,6.1a20.72,20.72,0,0,0-.35,17.5,11.1,11.1,0,0,0,20.28.57,20.79,20.79,0,0,0,.45-16.87C1436.64,63.59,1433.17,60.93,1426.35,60.93Zm552.12,0a10.54,10.54,0,0,0-9.91,6.13c-2.29,4.63-2.38,9.52-1.34,14.47a13.18,13.18,0,0,0,3.91,7.13,11.12,11.12,0,0,0,17.66-4.07,21.34,21.34,0,0,0,.3-16.22A10.76,10.76,0,0,0,1978.47,61ZM720.89,61c-4,0-7.18,1.54-9.23,5-3.55,6-3.52,12.34-1,18.63,1.8,4.49,5.38,6.82,10.28,6.86a10.8,10.8,0,0,0,10.33-7,21.78,21.78,0,0,0,.64-14.76C730.26,64,726.26,61,720.89,61Zm-550.5,0A10.5,10.5,0,0,0,160.45,67c-2.37,4.64-2.43,9.57-1.39,14.57A13.28,13.28,0,0,0,163,88.7a11.14,11.14,0,0,0,17.75-4.33,21.42,21.42,0,0,0,.18-16A10.78,10.78,0,0,0,170.39,60.93ZM1020.62,76a18.38,18.38,0,0,0-1.53-8.27c-1.85-4-4.85-6.49-9.36-6.81-4.75-.33-8.53,1.48-10.68,5.77a19.9,19.9,0,0,0,.17,19.18c3.78,7,13.61,7.48,18.39,1.12C1020,83.82,1020.71,80.09,1020.62,76Zm1257.6,0a18,18,0,0,0-1.55-8.31c-1.81-3.9-4.75-6.39-9.14-6.76s-8.24,1.1-10.47,5.08c-3.66,6.51-3.62,13.29-.21,19.89,2,3.85,5.5,5.57,9.8,5.47a10.54,10.54,0,0,0,9.61-6A18.45,18.45,0,0,0,2278.22,76Zm-707,.15a18.78,18.78,0,0,0-2.36-10c-4-7-14.46-7.09-18.77-.4-3.44,5.34-3.46,15.06-.13,20.48,4.1,6.67,14.46,6.9,18.7.09A18.26,18.26,0,0,0,1571.19,76.19ZM313.59,76a18.31,18.31,0,0,0-2.17-9.43c-4-7.18-14.28-7.86-18.72-1-4.06,6.32-3.93,13.17-.76,19.87,1.85,3.89,5.23,5.82,9.55,5.9a10.56,10.56,0,0,0,9.88-5.59A18.28,18.28,0,0,0,313.59,76Zm1545.48.19a18.53,18.53,0,0,0-2-9.25,10.55,10.55,0,0,0-9.49-6c-4.64-.12-8.19,1.81-10.23,5.94a20.38,20.38,0,0,0-.28,18.05c3.82,8.48,14.94,8.35,19.29,1.66A18.53,18.53,0,0,0,1859.07,76.21Zm-1257.6,0A19.7,19.7,0,0,0,600,68.17c-1.79-4.16-4.77-6.86-9.44-7.2-4.84-.36-8.66,1.5-10.84,5.9a20.53,20.53,0,0,0-.29,18,10.31,10.31,0,0,0,9.79,6.51,10.58,10.58,0,0,0,10.09-5.84A18.94,18.94,0,0,0,601.47,76.24Zm526.78-.1a18.54,18.54,0,0,0,2,9.25,11.07,11.07,0,0,0,19.21,1c2.35-3.58,2.78-7.61,2.56-11.73s-1.35-8-4.52-11c-4.19-4-12-3.5-15.68,1C1129,68,1128.25,71.94,1128.25,76.14Zm1257.52-.06c.11,1.31.15,2.63.34,3.93.56,3.76,2,7.07,5.14,9.4a11.13,11.13,0,0,0,16.09-3.51c2.09-3.6,2.48-7.54,2.24-11.57a16.54,16.54,0,0,0-2.86-8.87,11.06,11.06,0,0,0-17.41-.69C2386.59,68.05,2385.84,72,2385.77,76.08ZM2144.52,61.36V91h20.72V61.4h-5v25h-11v-25Zm-1103.85,25h-11v-25h-4.79V91h20.75V61.41h-5ZM488.32,91V61.41h-4.85v25H472.56V61.38h-4.93V91Zm41.47-29.67V91h5V77.71h16.79V61.36ZM2282.46,91h20.77V61.38h-4.87v25h-11.05v-25h-4.85ZM891.69,86.43v-25h-4.8V91h20.59V61.38h-4.8V86.43ZM1883.93,91V61.4h-4.85v25h-10.94v-25h-4.78V91ZM626.33,91V61.4h-4.85v25H610.54v-25h-4.78V91Zm1099-29.67V91H1746V61.41h-4.89v25h-10.94V61.35Zm-281.28,0V91h20.68V61.37h-4.85v25h-11.07V61.35ZM186.44,91h20.72V61.39h-4.81v25H191.26v-25h-4.82ZM53.25,86.43v-25H48.46V91H69.15V61.39H64.34v25ZM1306,91h20.72V61.39H1322v25h-11.1v-25H1306ZM115.43,77.71h17V61.41H110.63V91h4.8Zm2113,0V61.4h-21.77V91h4.86V77.74ZM949.08,61.36V91h4.83V77.7h16.93V61.36Zm419.17,0V91h4.82V77.74H1390V61.35Zm419.29,0V91h4.82V77.71h16.81V61.37ZM573.46,73.14h-12V65.86H575.7V61.37H556.41V77.79h12.11v8.75H556.41V91h17.05ZM2364.58,61.37V77.8h12.09v8.75h-12.1V91h17V73.17h-12V65.85h14.23V61.37ZM2101.5,91h17V73.16h-12V65.81h14.34v-4.4h-19.3V77.78h12.11v8.76H2101.5ZM1111.93,73.2V65.81h14.34v-4.4H1107V77.78h12.11v8.76H1107V91h17V73.2Zm-251,0H848.87V65.85h14.34V61.38H844v16.4H856v8.75H844V91h17ZM268.64,77.81h12v8.73h-12V91h17V73.14H273.57V65.82h14.22V61.39H268.64Zm-258.13-12H24.75V61.41H5.5V77.74H17.57v8.8H5.5V91h17V73.15h-12ZM1526.22,91h17V73.16h-12V65.79h14.19v-4.4h-19.13V77.8h11.92v8.77h-12ZM1282.38,61.41H1263.2V77.78h12v8.77h-12V91h16.89V73.18h-12V65.84h14.23ZM142.13,65.83h14.3V61.42H137.27V77.76h12v8.8h-12V91h17V73.14H142.13Zm1815.4,20.73h-12.08V91h17V73.14h-12.06v-7.3h14.22V61.4H1945.4V77.77h12.13ZM1411.88,73.13h-12.13V65.84h14.38V61.39h-19.28V77.76h12.09v8.79h-12V91h17ZM1682.4,61.35V77.78h12v8.8h-12V91h17V73.12H1687.3V65.86h14.24V61.35ZM424.82,86.53V91h17V73.17H429.67V65.86h14.25V61.4H424.77V77.73h12.09v8.8ZM2245.4,77.74v8.79h-12.11V91h17V73.18h-12.05V65.82h14.21V61.37h-19.16V77.74ZM975.72,86.47V91h17V73.21H980.62V65.85h14.2V61.4H975.68V77.76h12.13v8.71Zm-275.82,0h-12V91H704.8V73.14H692.71V65.87H707V61.4H687.81V77.72H699.9Zm1114.21-8.74h12v8.77h-12V91H1831V73.17h-12V65.85h14.29V61.41h-19.21Zm-136.92-4.6h-12.07V65.82h12.05V61.37h-17V91h17V86.44h-12.05V77.73h12.1ZM407.49,77.69h12.09V73.18H407.52V65.82h12.05V61.38h-17V91h17V86.45H407.49ZM2079.37,61.35V91h17v-4.5h-12.11V77.73h12.09V73.16h-12.07v-7.3h12.08V61.35Zm-1257.6,0V91h17v-4.5H826.64V77.74h12.1V73.12H826.66V65.86h12.08V61.35Zm424.12,16.34h12V73.14h-12V65.8h11.94V61.41H1241V91h16.85V86.47h-12ZM2515.51,61.42h-16.86V91h16.83V86.5h-11.94V77.71h11.94V73.17h-11.93V65.83h12ZM44.71,86.48H32.62V61.37H27.7V91h17Zm1993.92,0h-12.21V61.38h-4.81V91h17ZM447,61.36V91h17V86.47H451.75V61.36Zm1262.42,0h-4.84V91h17V86.48h-12.15ZM1188.13,86.51V61.41h-4.84V91h16.89v-4.5Zm-419.33,0V61.4H764V91h17V86.52Zm1689,4.49V86.47h-12.05V61.41h-4.83V91ZM344.9,61.35V91h17V86.46H349.66V61.35Zm1257.6,0V91h17V86.46h-12.21V61.35Zm-736.32,0V91h17V86.46H870.94V61.35Zm1257.6,0V91h17V86.46h-12.21V61.35ZM1290.21,86.48V61.4h-4.79V91h16.85V86.48ZM1204,61.36V91h4.72V61.36Zm424,29.66V61.41h-4.73V91ZM365.64,61.36V91h4.72V61.36Zm1676.78,0V91h4.73V61.36Zm419.14,0V91h4.72V61.36Zm-1676.74,0V91h4.73V61.36Z"/></g><path class="cls-4" d="M.5,105.11V50.39H2525.78v54.72Zm2201-43.8c-1.72,0-3.36,0-5,0a1.27,1.27,0,0,0-1.42.93c-2.32,5.65-4.67,11.27-7,16.9-.73,1.74-1.47,3.47-2.31,5.46-.87-2.12-1.64-4-2.38-5.79-2.23-5.54-4.45-11.08-6.7-16.61-.13-.34-.52-.82-.81-.83-1.79-.07-3.58,0-5.42,0V91h4.86V71.72c2.34,5.27,4.46,10.56,6.6,15.84.46,1.14.68,2.71,1.54,3.26s2.47.17,3.73.26a1.24,1.24,0,0,0,1.42-.93c1.75-4.24,3.53-8.46,5.31-12.69.83-2,1.68-4,2.52-6l.26.06V91h4.81Zm-1676.85,0c-1.74,0-3.38,0-5,0a1.22,1.22,0,0,0-1.34.88q-2.67,6.54-5.4,13l-3.93,9.35c-.22-.49-.38-.81-.52-1.13q-4.23-10.56-8.5-21.1c-.16-.4-.61-.95-.95-1-1.79-.1-3.58,0-5.43,0V91h4.83V71.55a1.56,1.56,0,0,1,.59.77q3,7.59,6.08,15.19c.46,1.15.66,2.74,1.52,3.3s2.47.18,3.73.27a1.32,1.32,0,0,0,1.5-1c1.86-4.54,3.78-9,5.68-13.57l2-4.83.32.08V91h4.79Zm1257.58,0c-1.76,0-3.4,0-5,0a1.21,1.21,0,0,0-1.31.93q-3.27,8-6.6,15.91c-.87,2.1-1.76,4.19-2.74,6.51-.83-2.09-1.56-3.94-2.3-5.78q-3.3-8.23-6.63-16.44c-.17-.42-.58-1-.91-1.05-1.82-.11-3.66,0-5.52,0V91H1756V71.54a.53.53,0,0,1,.37.37q3.14,7.77,6.25,15.53c1.52,3.83,1.5,3.86,5.57,3.59a1.55,1.55,0,0,0,1.1-.78c1.41-3.21,2.74-6.46,4.1-9.7q1.86-4.44,3.73-8.87l.26,0V91h4.83ZM943.87,91V61.31c-1.69,0-3.32,0-5,0a1.33,1.33,0,0,0-1.49,1c-2.12,5.17-4.28,10.31-6.43,15.46-.91,2.19-1.84,4.38-2.88,6.86l-.78-1.89c-2.75-6.83-5.49-13.67-8.27-20.5-.14-.35-.5-.85-.78-.86-1.82-.08-3.64,0-5.48,0V91h4.91V71.79c2.49,5.67,4.77,11.37,7,17.08.88,2.19.87,2.2,3.2,2.2a15.69,15.69,0,0,1,1.68,0c.72.07,1.05-.25,1.32-.89,1.6-3.91,3.24-7.81,4.87-11.7q1.47-3.49,3-7l.27,0V91ZM89.73,84.59c-.25-.58-.41-.9-.54-1.23-2.81-7-5.6-14-8.42-21-.16-.4-.51-1-.79-1-1.86-.09-3.72,0-5.59,0V91h4.84V71.62a.86.86,0,0,1,.43.47c2.08,5.18,4.15,10.36,6.25,15.54.45,1.13.69,2.67,1.54,3.23s2.4.14,3.63.22a1.32,1.32,0,0,0,1.51-1c1.92-4.69,3.89-9.35,5.85-14q1-2.26,1.94-4.54l.24.06V91h4.77V61.31c-1.7,0-3.3,0-4.89,0a1.35,1.35,0,0,0-1.49,1c-1.88,4.57-3.79,9.13-5.69,13.69C92.16,78.78,91,81.57,89.73,84.59ZM1336.84,91V71.61a.9.9,0,0,1,.42.49q3.12,7.75,6.24,15.52c.46,1.13.69,2.71,1.54,3.24s2.48.15,3.75.22a1.19,1.19,0,0,0,1.34-.88c1.54-3.76,3.13-7.5,4.71-11.24,1-2.48,2.09-4.95,3.13-7.42l.23,0V91h4.8V61.31c-1.85,0-3.61,0-5.35,0a1.35,1.35,0,0,0-.89.74c-2.12,5-4.19,10-6.28,15-1,2.45-2,4.9-3.16,7.54l-.66-1.6q-4.19-10.44-8.39-20.86c-.13-.32-.46-.8-.71-.8-1.85-.07-3.71,0-5.56,0V91Zm-180.67,0h5V70.79c.36.53.58.81.75,1.11l10.76,18.25c.21.35.56.84.86.86,1.46.09,2.93,0,4.44,0V61.38h-4.86V81.64c-.45-.71-.71-1.11-.95-1.52q-5.19-8.82-10.39-17.63c-.27-.45-.69-1.08-1.09-1.12-1.49-.13-3,0-4.52,0Zm754.73.1V61.4h-4.84V81.61c-.33-.53-.51-.79-.66-1.06-3.59-6.08-7.16-12.17-10.77-18.24-.24-.4-.68-.92-1.06-1-1.46-.11-2.93,0-4.41,0V91h4.95V71.07a14.65,14.65,0,0,1,1.72,2.47c3.26,5.53,6.5,11.07,9.79,16.59a1.9,1.9,0,0,0,1.22.89C1908.15,91.14,1909.47,91.07,1910.9,91.07Zm577.54-29.72V81.26a4.4,4.4,0,0,1-1-1.27q-5.19-8.82-10.38-17.64c-.23-.38-.59-1-.93-1-1.49-.11-3-.05-4.48-.05V91h4.86V71.11a2.7,2.7,0,0,1,.85,1q5.36,9.06,10.71,18.13c.19.32.5.79.77.81,1.5.07,3,0,4.5,0V61.35Zm-1274.51,0V91h5V71.12a2.91,2.91,0,0,1,.87,1c3.57,6.05,7.12,12.1,10.7,18.13a1.53,1.53,0,0,0,.94.76c1.42.09,2.84,0,4.28,0V61.4h-4.87V81.53c-.29-.39-.4-.5-.48-.64-3.63-6.18-7.26-12.38-10.92-18.55a2.1,2.1,0,0,0-1.29-1A41.36,41.36,0,0,0,1213.93,61.31Zm378.51,20.51c-.42-.65-.66-1-.88-1.35q-5.37-9.14-10.75-18.25c-.2-.35-.55-.84-.86-.85-1.49-.09-3,0-4.5,0V91h4.91V70.67l.68,1.11q5.4,9.18,10.82,18.34c.22.38.62.87,1,.89,1.45.1,2.92,0,4.43,0V61.38h-4.82Zm402.22-20.51V91h4.85V70.68a4.37,4.37,0,0,1,.36.44q5.61,9.54,11.23,19.07c.22.36.65.81,1,.83,1.42.1,2.85,0,4.3,0V61.4h-4.85V81.68c-.41-.65-.63-1-.82-1.3-3.57-6-7.12-12.1-10.71-18.13a2,2,0,0,0-1.2-.9C1997.48,61.23,1996.12,61.31,1994.66,61.31ZM234.16,91.06V61.4h-4.84V81.65c-.32-.44-.47-.61-.58-.8q-5.49-9.33-11-18.65c-.19-.33-.49-.81-.76-.83-1.54-.07-3.08,0-4.59,0V91h4.85V70.66c.25.33.35.45.43.58,3.73,6.32,7.44,12.65,11.19,19A1.72,1.72,0,0,0,230,91C231.34,91.13,232.71,91.06,234.16,91.06Zm2091.2-29.7V81.72a6.73,6.73,0,0,1-.43-.57c-3.73-6.32-7.44-12.65-11.19-19-.21-.36-.64-.81-1-.84-1.43-.09-2.86,0-4.32,0V91h4.88V70.69c.39.63.59.93.77,1.24q5.31,9,10.63,18c.25.41.64,1,1,1,1.5.12,3,0,4.49,0V61.36Zm-833.6,29.7V61.4h-4.84V81.7c-.38-.6-.58-.87-.75-1.17q-5.25-8.91-10.51-17.83c-.29-.49-.67-1.26-1.08-1.3a43.78,43.78,0,0,0-4.58-.06V91h4.85V70.72c.22.24.32.32.38.41q5.61,9.54,11.24,19.07a1.78,1.78,0,0,0,1.12.82C1488.94,91.13,1490.31,91.06,1491.76,91.06ZM317.88,61.31V91h4.84V70.68c.4.63.61.94.81,1.27q5.34,9.08,10.7,18.14c.21.36.53.89.83.91,1.53.09,3.07,0,4.57,0V61.39h-4.85V81.66a4.2,4.2,0,0,1-.37-.43q-5.61-9.53-11.25-19.06a1.72,1.72,0,0,0-1.12-.82C320.69,61.25,319.33,61.31,317.88,61.31Zm749.9.06V81.82c-.31-.49-.43-.67-.55-.87q-5.51-9.33-11-18.65c-.24-.39-.68-.91-1.06-.94-1.42-.11-2.86,0-4.32,0V91h4.85V71.05a2.79,2.79,0,0,1,.83,1q5.35,9.07,10.71,18.14c.21.35.55.85.85.87,1.5.09,3,0,4.54,0V61.37Zm-309,29.69V61.41h-4.86V81.32a2.8,2.8,0,0,1-.82-1q-5.36-9.06-10.71-18.13c-.21-.35-.56-.84-.86-.86-1.5-.09-3,0-4.52,0V91h4.85V70.6c.27.42.39.57.48.73,3.69,6.26,7.37,12.52,11.09,18.75a1.93,1.93,0,0,0,1.18.94C756,91.14,757.34,91.06,758.8,91.06Zm1310.49-9.74-.24,0c-.19-.3-.38-.6-.56-.91q-5.41-9.16-10.84-18.32c-.18-.32-.51-.75-.79-.77-1.5-.07-3,0-4.54,0V91h4.9V70.61l.52.8c3.69,6.25,7.36,12.51,11.07,18.75.22.36.63.84,1,.86,1.42.1,2.85,0,4.32,0V61.39h-4.82Zm-1693.67-20V91h4.84V70.68l.72,1.16q5.44,9.21,10.9,18.43c.18.31.51.74.79.75,1.5.08,3,0,4.53,0V61.41h-4.92V81.62a3.84,3.84,0,0,1-.38-.47q-5.6-9.48-11.2-19a1.8,1.8,0,0,0-1.11-.85C378.44,61.24,377.08,61.31,375.62,61.31ZM1655,91.06V61.41h-4.87V81.76c-.31-.49-.42-.65-.51-.81q-5.5-9.33-11-18.66c-.22-.38-.61-.9-1-.93-1.46-.1-2.93,0-4.44,0V91h4.88V70.61c.36.61.53.88.69,1.16,3.63,6.15,7.24,12.31,10.9,18.44a1.76,1.76,0,0,0,1.14.82C1652.14,91.13,1653.5,91.06,1655,91.06ZM794.76,61.31V91h4.87V70.75a4.46,4.46,0,0,1,.39.47q5.6,9.48,11.2,19c.2.35.57.81.88.83,1.46.09,2.93,0,4.44,0V61.38h-4.88V81.72c-.35-.58-.52-.84-.69-1.12q-5.4-9.18-10.83-18.34a1.94,1.94,0,0,0-1.21-.91C797.58,61.23,796.22,61.31,794.76,61.31ZM636.4,70.54c.48.76.78,1.21,1.05,1.68q5.19,8.82,10.39,17.63c.27.45.67,1.11,1.07,1.15,1.45.13,2.92,0,4.43,0V61.38h-4.86V81.63c-.39-.59-.6-.88-.78-1.18q-5.37-9.14-10.76-18.25c-.2-.34-.56-.82-.87-.84-1.5-.09-3,0-4.55,0V91h4.88ZM2435.54,91.06V61.4h-4.83V81.63c-.44-.72-.72-1.15-1-1.59-3.51-5.94-7-11.89-10.52-17.82-.22-.37-.63-.84-1-.87-1.42-.1-2.85,0-4.31,0V91h4.84V71.07a32.49,32.49,0,0,1,2.5,3.82c3,5.11,6,10.24,9.07,15.34a1.64,1.64,0,0,0,1,.8C2432.72,91.12,2434.08,91.06,2435.54,91.06ZM239.36,90.92c4.48,0,8.84.22,13.17-.07a11.91,11.91,0,0,0,9.94-6.39c2-3.49,2.18-7.29,1.77-11.15a12.77,12.77,0,0,0-12.06-11.84c-4.17-.28-8.38-.1-12.57-.12-.07,0-.13.07-.25.13ZM1497,61.44V90.91c4.44,0,8.81.23,13.14-.06a12,12,0,0,0,10.06-6.61c1.89-3.44,2.06-7.17,1.63-10.94-.72-6.4-5.32-11.33-11.45-11.8C1506,61.17,1501.52,61.44,1497,61.44Zm419.24,0V91a2.81,2.81,0,0,0,.5.09c4.15,0,8.32.15,12.45-.17A12,12,0,0,0,1939.52,84a18.08,18.08,0,0,0,1.12-12.59,12.31,12.31,0,0,0-11.13-9.86C1925.15,61.18,1920.74,61.44,1916.24,61.44ZM658.54,91a2.58,2.58,0,0,0,.52.1c4.15,0,8.32.14,12.45-.16A12.12,12.12,0,0,0,682,83.81a18.37,18.37,0,0,0,1.28-11.46,12.63,12.63,0,0,0-11.8-10.89c-3.94-.25-7.9-.12-11.86-.15-.34,0-.69.06-1.08.09Zm419.25.29c4.92-.18,9.72-.11,14.46-.62a11.12,11.12,0,0,0,8.34-5.66,17.33,17.33,0,0,0,2-11.67c-.93-6.87-5.26-11.25-12.17-11.83-4.09-.34-8.22-.1-12.33-.11-.1,0-.2.11-.33.17ZM2335.45,61.46V90.91c4.46,0,8.83.27,13.15-.07a11.87,11.87,0,0,0,10.53-7.73,17.79,17.79,0,0,0,.16-13.43C2357.5,64.93,2354,62,2349,61.55,2344.53,61.14,2340,61.46,2335.45,61.46Zm-909.1-.53c-2.93,0-6.34,2.07-8.29,6.1a20.72,20.72,0,0,0-.35,17.5,11.1,11.1,0,0,0,20.28.57,20.79,20.79,0,0,0,.45-16.87C1436.64,63.59,1433.17,60.93,1426.35,60.93Zm552.12,0a10.54,10.54,0,0,0-9.91,6.13c-2.29,4.63-2.38,9.52-1.34,14.47a13.18,13.18,0,0,0,3.91,7.13,11.12,11.12,0,0,0,17.66-4.07,21.34,21.34,0,0,0,.3-16.22A10.76,10.76,0,0,0,1978.47,61ZM720.89,61c-4,0-7.18,1.54-9.23,5-3.55,6-3.52,12.34-1,18.63,1.8,4.49,5.38,6.82,10.28,6.86a10.8,10.8,0,0,0,10.33-7,21.78,21.78,0,0,0,.64-14.76C730.26,64,726.26,61,720.89,61Zm-550.5,0A10.5,10.5,0,0,0,160.45,67c-2.37,4.64-2.43,9.57-1.39,14.57A13.28,13.28,0,0,0,163,88.7a11.14,11.14,0,0,0,17.75-4.33,21.42,21.42,0,0,0,.18-16A10.78,10.78,0,0,0,170.39,60.93ZM1020.62,76a18.38,18.38,0,0,0-1.53-8.27c-1.85-4-4.85-6.49-9.36-6.81-4.75-.33-8.53,1.48-10.68,5.77a19.9,19.9,0,0,0,.17,19.18c3.78,7,13.61,7.48,18.39,1.12C1020,83.82,1020.71,80.09,1020.62,76Zm1257.6,0a18,18,0,0,0-1.55-8.31c-1.81-3.9-4.75-6.39-9.14-6.76s-8.24,1.1-10.47,5.08c-3.66,6.51-3.62,13.29-.21,19.89,2,3.85,5.5,5.57,9.8,5.47a10.54,10.54,0,0,0,9.61-6A18.45,18.45,0,0,0,2278.22,76Zm-707,.15a18.78,18.78,0,0,0-2.36-10c-4-7-14.46-7.09-18.77-.4-3.44,5.34-3.46,15.06-.13,20.48,4.1,6.67,14.46,6.9,18.7.09A18.26,18.26,0,0,0,1571.19,76.19ZM313.59,76a18.31,18.31,0,0,0-2.17-9.43c-4-7.18-14.28-7.86-18.72-1-4.06,6.32-3.93,13.17-.76,19.87,1.85,3.89,5.23,5.82,9.55,5.9a10.56,10.56,0,0,0,9.88-5.59A18.28,18.28,0,0,0,313.59,76Zm1545.48.19a18.53,18.53,0,0,0-2-9.25,10.55,10.55,0,0,0-9.49-6c-4.64-.12-8.19,1.81-10.23,5.94a20.38,20.38,0,0,0-.28,18.05c3.82,8.48,14.94,8.35,19.29,1.66A18.53,18.53,0,0,0,1859.07,76.21Zm-1257.6,0A19.7,19.7,0,0,0,600,68.17c-1.79-4.16-4.77-6.86-9.44-7.2-4.84-.36-8.66,1.5-10.84,5.9a20.53,20.53,0,0,0-.29,18,10.31,10.31,0,0,0,9.79,6.51,10.58,10.58,0,0,0,10.09-5.84A18.94,18.94,0,0,0,601.47,76.24Zm526.78-.1a18.54,18.54,0,0,0,2,9.25,11.07,11.07,0,0,0,19.21,1c2.35-3.58,2.78-7.61,2.56-11.73s-1.35-8-4.52-11c-4.19-4-12-3.5-15.68,1C1129,68,1128.25,71.94,1128.25,76.14Zm1257.52-.06c.11,1.31.15,2.63.34,3.93.56,3.76,2,7.07,5.14,9.4a11.13,11.13,0,0,0,16.09-3.51c2.09-3.6,2.48-7.54,2.24-11.57a16.54,16.54,0,0,0-2.86-8.87,11.06,11.06,0,0,0-17.41-.69C2386.59,68.05,2385.84,72,2385.77,76.08ZM2144.52,61.36V91h20.72V61.4h-5v25h-11v-25Zm-1103.85,25h-11v-25h-4.79V91h20.75V61.41h-5ZM488.32,91V61.41h-4.85v25H472.56V61.38h-4.93V91Zm41.47-29.67V91h5V77.71h16.79V61.36ZM2282.46,91h20.77V61.38h-4.87v25h-11.05v-25h-4.85ZM891.69,86.43v-25h-4.8V91h20.59V61.38h-4.8V86.43ZM1883.93,91V61.4h-4.85v25h-10.94v-25h-4.78V91ZM626.33,91V61.4h-4.85v25H610.54v-25h-4.78V91Zm1099-29.67V91H1746V61.41h-4.89v25h-10.94V61.35Zm-281.28,0V91h20.68V61.37h-4.85v25h-11.07V61.35ZM186.44,91h20.72V61.39h-4.81v25H191.26v-25h-4.82ZM53.25,86.43v-25H48.46V91H69.15V61.39H64.34v25ZM1306,91h20.72V61.39H1322v25h-11.1v-25H1306ZM115.43,77.71h17V61.41H110.63V91h4.8Zm2113,0V61.4h-21.77V91h4.86V77.74ZM949.08,61.36V91h4.83V77.7h16.93V61.36Zm419.17,0V91h4.82V77.74H1390V61.35Zm419.29,0V91h4.82V77.71h16.81V61.37ZM573.46,73.14h-12V65.86H575.7V61.37H556.41V77.79h12.11v8.75H556.41V91h17.05ZM2364.58,61.37V77.8h12.09v8.75h-12.1V91h17V73.17h-12V65.85h14.23V61.37ZM2101.5,91h17V73.16h-12V65.81h14.34v-4.4h-19.3V77.78h12.11v8.76H2101.5ZM1111.93,73.2V65.81h14.34v-4.4H1107V77.78h12.11v8.76H1107V91h17V73.2Zm-251,0H848.87V65.85h14.34V61.38H844v16.4H856v8.75H844V91h17ZM268.64,77.81h12v8.73h-12V91h17V73.14H273.57V65.82h14.22V61.39H268.64Zm-258.13-12H24.75V61.41H5.5V77.74H17.57v8.8H5.5V91h17V73.15h-12ZM1526.22,91h17V73.16h-12V65.79h14.19v-4.4h-19.13V77.8h11.92v8.77h-12ZM1282.38,61.41H1263.2V77.78h12v8.77h-12V91h16.89V73.18h-12V65.84h14.23ZM142.13,65.83h14.3V61.42H137.27V77.76h12v8.8h-12V91h17V73.14H142.13Zm1815.4,20.73h-12.08V91h17V73.14h-12.06v-7.3h14.22V61.4H1945.4V77.77h12.13ZM1411.88,73.13h-12.13V65.84h14.38V61.39h-19.28V77.76h12.09v8.79h-12V91h17ZM1682.4,61.35V77.78h12v8.8h-12V91h17V73.12H1687.3V65.86h14.24V61.35ZM424.82,86.53V91h17V73.17H429.67V65.86h14.25V61.4H424.77V77.73h12.09v8.8ZM2245.4,77.74v8.79h-12.11V91h17V73.18h-12.05V65.82h14.21V61.37h-19.16V77.74ZM975.72,86.47V91h17V73.21H980.62V65.85h14.2V61.4H975.68V77.76h12.13v8.71Zm-275.82,0h-12V91H704.8V73.14H692.71V65.87H707V61.4H687.81V77.72H699.9Zm1114.21-8.74h12v8.77h-12V91H1831V73.17h-12V65.85h14.29V61.41h-19.21Zm-136.92-4.6h-12.07V65.82h12.05V61.37h-17V91h17V86.44h-12.05V77.73h12.1ZM407.49,77.69h12.09V73.18H407.52V65.82h12.05V61.38h-17V91h17V86.45H407.49ZM2079.37,61.35V91h17v-4.5h-12.11V77.73h12.09V73.16h-12.07v-7.3h12.08V61.35Zm-1257.6,0V91h17v-4.5H826.64V77.74h12.1V73.12H826.66V65.86h12.08V61.35Zm424.12,16.34h12V73.14h-12V65.8h11.94V61.41H1241V91h16.85V86.47h-12ZM2515.51,61.42h-16.86V91h16.83V86.5h-11.94V77.71h11.94V73.17h-11.93V65.83h12ZM44.71,86.48H32.62V61.37H27.7V91h17Zm1993.92,0h-12.21V61.38h-4.81V91h17ZM447,61.36V91h17V86.47H451.75V61.36Zm1262.42,0h-4.84V91h17V86.48h-12.15ZM1188.13,86.51V61.41h-4.84V91h16.89v-4.5Zm-419.33,0V61.4H764V91h17V86.52Zm1689,4.49V86.47h-12.05V61.41h-4.83V91ZM344.9,61.35V91h17V86.46H349.66V61.35Zm1257.6,0V91h17V86.46h-12.21V61.35Zm-736.32,0V91h17V86.46H870.94V61.35Zm1257.6,0V91h17V86.46h-12.21V61.35ZM1290.21,86.48V61.4h-4.79V91h16.85V86.48ZM1204,61.36V91h4.72V61.36Zm424,29.66V61.41h-4.73V91ZM365.64,61.36V91h4.72V61.36Zm1676.78,0V91h4.73V61.36Zm419.14,0V91h4.72V61.36Zm-1676.74,0V91h4.73V61.36Z"/><path class="cls-5" d="M244.29,65.91c2.41,0,4.69-.15,7,0a8.1,8.1,0,0,1,7.63,6.21,12.37,12.37,0,0,1-1.07,10.39,7.15,7.15,0,0,1-5.35,3.65c-2.68.3-5.39.3-8.16.43Z"/><path class="cls-4" d="M244.29,65.91c2.41,0,4.69-.15,7,0a8.1,8.1,0,0,1,7.63,6.21,12.37,12.37,0,0,1-1.07,10.39,7.15,7.15,0,0,1-5.35,3.65c-2.68.3-5.39.3-8.16.43Z"/><path class="cls-5" d="M1501.87,86.33V65.88c3.43.17,6.89-.62,10.16.87a7.83,7.83,0,0,1,4.21,4.68,12.66,12.66,0,0,1-.69,10.86,7.38,7.38,0,0,1-5.92,4C1507.1,86.5,1504.54,86.33,1501.87,86.33Z"/><path class="cls-4" d="M1501.87,86.33V65.88c3.43.17,6.89-.62,10.16.87a7.83,7.83,0,0,1,4.21,4.68,12.66,12.66,0,0,1-.69,10.86,7.38,7.38,0,0,1-5.92,4C1507.1,86.5,1504.54,86.33,1501.87,86.33Z"/><path class="cls-5" d="M1921.21,65.89c2.34,0,4.58-.13,6.81,0a8.24,8.24,0,0,1,7.76,6.53c1,4,.77,7.84-2,11.18a8.3,8.3,0,0,1-6.35,2.84c-2,.09-4.07,0-6.21,0Z"/><path class="cls-4" d="M1921.21,65.89c2.34,0,4.58-.13,6.81,0a8.24,8.24,0,0,1,7.76,6.53c1,4,.77,7.84-2,11.18a8.3,8.3,0,0,1-6.35,2.84c-2,.09-4.07,0-6.21,0Z"/><path class="cls-5" d="M663.57,86.5V65.7a82.07,82.07,0,0,1,8.82.63A7.19,7.19,0,0,1,677.66,71a13.27,13.27,0,0,1,.37,9.37c-1.18,3.82-3.94,5.86-8.33,6.14C667.71,86.6,665.71,86.5,663.57,86.5Z"/><path class="cls-4" d="M663.57,86.5V65.7a82.07,82.07,0,0,1,8.82.63A7.19,7.19,0,0,1,677.66,71a13.27,13.27,0,0,1,.37,9.37c-1.18,3.82-3.94,5.86-8.33,6.14C667.71,86.6,665.71,86.5,663.57,86.5Z"/><path class="cls-5" d="M1082.7,66.12a78.32,78.32,0,0,1,8.26.06,7.11,7.11,0,0,1,5.75,4.56,12.25,12.25,0,0,1-.79,12.2,7.41,7.41,0,0,1-6.14,3.42c-2.34.11-4.69,0-7.08,0Z"/><path class="cls-4" d="M1082.7,66.12a78.32,78.32,0,0,1,8.26.06,7.11,7.11,0,0,1,5.75,4.56,12.25,12.25,0,0,1-.79,12.2,7.41,7.41,0,0,1-6.14,3.42c-2.34.11-4.69,0-7.08,0Z"/><path class="cls-5" d="M2340.3,65.76a70.18,70.18,0,0,1,8.38.43c3.22.53,5.21,2.81,6.19,5.86a12.86,12.86,0,0,1-.13,8.57c-1.28,3.47-3.74,5.53-7.48,5.74-2.29.14-4.61,0-7,0Z"/><path class="cls-4" d="M2340.3,65.76a70.18,70.18,0,0,1,8.38.43c3.22.53,5.21,2.81,6.19,5.86a12.86,12.86,0,0,1-.13,8.57c-1.28,3.47-3.74,5.53-7.48,5.74-2.29.14-4.61,0-7,0Z"/><path class="cls-5" d="M1421.05,76.28c0-3.09.4-5.85,2.15-8.26a5.77,5.77,0,0,1,9.62.09c1.89,2.68,2.22,5.77,2.11,8.92a12.73,12.73,0,0,1-2,7,5.8,5.8,0,0,1-10-.07A13,13,0,0,1,1421.05,76.28Z"/><path class="cls-4" d="M1421.05,76.28c0-3.09.4-5.85,2.15-8.26a5.77,5.77,0,0,1,9.62.09c1.89,2.68,2.22,5.77,2.11,8.92a12.73,12.73,0,0,1-2,7,5.8,5.8,0,0,1-10-.07A13,13,0,0,1,1421.05,76.28Z"/><path class="cls-5" d="M1978.49,65.49a5.67,5.67,0,0,1,5.26,3.23,15.57,15.57,0,0,1,0,14.83,5.78,5.78,0,0,1-10.55-.09,15.66,15.66,0,0,1,.18-14.94A5.61,5.61,0,0,1,1978.49,65.49Z"/><path class="cls-4" d="M1978.49,65.49a5.67,5.67,0,0,1,5.26,3.23,15.57,15.57,0,0,1,0,14.83,5.78,5.78,0,0,1-10.55-.09,15.66,15.66,0,0,1,.18-14.94A5.61,5.61,0,0,1,1978.49,65.49Z"/><path class="cls-5" d="M713.92,76.11a15.23,15.23,0,0,1,1.77-7.45c2.41-4.08,7.82-4.38,10.21-.3A15,15,0,0,1,726,83.75c-2.48,4.47-8.11,4.08-10.55-.46A15.68,15.68,0,0,1,713.92,76.11Z"/><path class="cls-4" d="M713.92,76.11a15.23,15.23,0,0,1,1.77-7.45c2.41-4.08,7.82-4.38,10.21-.3A15,15,0,0,1,726,83.75c-2.48,4.47-8.11,4.08-10.55-.46A15.68,15.68,0,0,1,713.92,76.11Z"/><path class="cls-5" d="M163.06,76a61.78,61.78,0,0,1,1.71-6.52,5.93,5.93,0,0,1,11.06-.33C178,74,178.15,79,175.54,83.66c-2.48,4.47-8.11,4.21-10.59-.29a16.19,16.19,0,0,1-1.58-7.3Z"/><path class="cls-4" d="M163.06,76a61.78,61.78,0,0,1,1.71-6.52,5.93,5.93,0,0,1,11.06-.33C178,74,178.15,79,175.54,83.66c-2.48,4.47-8.11,4.21-10.59-.29a16.19,16.19,0,0,1-1.58-7.3Z"/><path class="cls-5" d="M1015.71,75.77c0,3.11-.32,5.82-1.93,8.21-2.7,4-8.06,3.86-10.27-.44a15.79,15.79,0,0,1-.07-14.63,5.63,5.63,0,0,1,5.59-3.4,6,6,0,0,1,5.23,3.62A13.61,13.61,0,0,1,1015.71,75.77Z"/><path class="cls-4" d="M1015.71,75.77c0,3.11-.32,5.82-1.93,8.21-2.7,4-8.06,3.86-10.27-.44a15.79,15.79,0,0,1-.07-14.63,5.63,5.63,0,0,1,5.59-3.4,6,6,0,0,1,5.23,3.62A13.61,13.61,0,0,1,1015.71,75.77Z"/><path class="cls-5" d="M2273.31,76.24c0,3-.38,5.92-2.38,8.34-2.71,3.3-7.46,3.09-9.57-.67a14.94,14.94,0,0,1-.15-15.2c2.53-4.58,8.13-4.27,10.63.34A14.58,14.58,0,0,1,2273.31,76.24Z"/><path class="cls-4" d="M2273.31,76.24c0,3-.38,5.92-2.38,8.34-2.71,3.3-7.46,3.09-9.57-.67a14.94,14.94,0,0,1-.15-15.2c2.53-4.58,8.13-4.27,10.63.34A14.58,14.58,0,0,1,2273.31,76.24Z"/><path class="cls-5" d="M1566.41,76.26a16.51,16.51,0,0,1-1.52,6.75c-1.17,2.32-2.92,3.84-5.6,3.83-2.85,0-4.7-1.71-5.72-4.2a16.81,16.81,0,0,1-.19-12.51c1.48-4,5.25-5.73,8.56-4,2.24,1.15,3.27,3.23,3.82,5.54C1566.11,73.16,1566.2,74.72,1566.41,76.26Z"/><path class="cls-4" d="M1566.41,76.26a16.51,16.51,0,0,1-1.52,6.75c-1.17,2.32-2.92,3.84-5.6,3.83-2.85,0-4.7-1.71-5.72-4.2a16.81,16.81,0,0,1-.19-12.51c1.48-4,5.25-5.73,8.56-4,2.24,1.15,3.27,3.23,3.82,5.54C1566.11,73.16,1566.2,74.72,1566.41,76.26Z"/><path class="cls-5" d="M308.67,75.05c0,3.62-.34,6-1.5,8.21-2.42,4.59-7.88,4.89-10.59.49-2.18-3.52-2.16-7.43-1.46-11.36a9.3,9.3,0,0,1,2.62-5.27,5.73,5.73,0,0,1,8.47.52A12,12,0,0,1,308.67,75.05Z"/><path class="cls-4" d="M308.67,75.05c0,3.62-.34,6-1.5,8.21-2.42,4.59-7.88,4.89-10.59.49-2.18-3.52-2.16-7.43-1.46-11.36a9.3,9.3,0,0,1,2.62-5.27,5.73,5.73,0,0,1,8.47.52A12,12,0,0,1,308.67,75.05Z"/><path class="cls-5" d="M1854.15,76.36a14.43,14.43,0,0,1-1.72,7.24c-2.55,4.28-8,4.49-10.36.15a14.92,14.92,0,0,1,.09-15.29c2.39-4.16,7.64-4,10.17.1A14.48,14.48,0,0,1,1854.15,76.36Z"/><path class="cls-4" d="M1854.15,76.36a14.43,14.43,0,0,1-1.72,7.24c-2.55,4.28-8,4.49-10.36.15a14.92,14.92,0,0,1,.09-15.29c2.39-4.16,7.64-4,10.17.1A14.48,14.48,0,0,1,1854.15,76.36Z"/><path class="cls-5" d="M582.6,76.1c0-2.79.38-5.55,2.09-7.94a5.8,5.8,0,0,1,10,.29c1.77,2.8,2,5.93,1.83,9.12a12.46,12.46,0,0,1-2.06,6.65,5.78,5.78,0,0,1-9.56.19C583,82,582.65,79.09,582.6,76.1Z"/><path class="cls-4" d="M582.6,76.1c0-2.79.38-5.55,2.09-7.94a5.8,5.8,0,0,1,10,.29c1.77,2.8,2,5.93,1.83,9.12a12.46,12.46,0,0,1-2.06,6.65,5.78,5.78,0,0,1-9.56.19C583,82,582.65,79.09,582.6,76.1Z"/><path class="cls-5" d="M1133.17,76.6c0-3.21.37-5.87,1.91-8.24a5.83,5.83,0,0,1,10.06,0c1.81,2.78,2.09,5.91,1.91,9.1a12.28,12.28,0,0,1-2.14,6.87,5.8,5.8,0,0,1-9.77-.27A13.06,13.06,0,0,1,1133.17,76.6Z"/><path class="cls-4" d="M1133.17,76.6c0-3.21.37-5.87,1.91-8.24a5.83,5.83,0,0,1,10.06,0c1.81,2.78,2.09,5.91,1.91,9.1a12.28,12.28,0,0,1-2.14,6.87,5.8,5.8,0,0,1-9.77-.27A13.06,13.06,0,0,1,1133.17,76.6Z"/><path class="cls-5" d="M2404.7,76.8a13.48,13.48,0,0,1-2,7.32,5.82,5.82,0,0,1-9.92-.08c-1.91-2.93-2.12-6.23-1.91-9.58a12.31,12.31,0,0,1,1.86-6.11,5.85,5.85,0,0,1,10.07,0C2404,70.29,2404.7,73,2404.7,76.8Z"/><path class="cls-4" d="M2404.7,76.8a13.48,13.48,0,0,1-2,7.32,5.82,5.82,0,0,1-9.92-.08c-1.91-2.93-2.12-6.23-1.91-9.58a12.31,12.31,0,0,1,1.86-6.11,5.85,5.85,0,0,1,10.07,0C2404,70.29,2404.7,73,2404.7,76.8Z"/><path class="cls-5" d="M534.78,73.1V65.94h11.9V73.1Z"/><path class="cls-4" d="M534.78,73.1V65.94h11.9V73.1Z"/><path class="cls-5" d="M115.49,73.14V66h12v7.17Z"/><path class="cls-4" d="M115.49,73.14V66h12v7.17Z"/><path class="cls-5" d="M2223.57,73.16h-12V66h12Z"/><path class="cls-4" d="M2223.57,73.16h-12V66h12Z"/><path class="cls-5" d="M966,66v7.12H954V66Z"/><path class="cls-4" d="M966,66v7.12H954V66Z"/><path class="cls-5" d="M1385.13,66V73.1h-12V66Z"/><path class="cls-4" d="M1385.13,66V73.1h-12V66Z"/><path class="cls-5" d="M1792.39,73.11V65.93h11.9v7.18Z"/><path class="cls-4" d="M1792.39,73.11V65.93h11.9v7.18Z"/><line class="cls-6" x1="1.5" y1="121.48" x2="2526.78" y2="121.48"/><line class="cls-6" x1="1.5" y1="35.2" x2="2526.78" y2="35.2"/></g></g></svg>