<svg xmlns="http://www.w3.org/2000/svg" viewBox="0 0 2645.66 264.89"><g id="Layer_2" data-name="Layer 2"><g id="Layer_1-2" data-name="Layer 1"><g id="Layer_2-2" data-name="Layer 2"><g id="Layer_1-2-2" data-name="Layer 1-2"><path d="M0,189.3c.48-.29,1.35-.56,1.37-.88.71-12.12,9.51-19.07,17.46-26.14,6.1-5.43,13.23-9.79,20.17-14.19,9-5.67,17.73-11.94,21.18-22.13a29.22,29.22,0,0,0-1.4-22.5C56,97.76,52.1,92.15,51,86.09c-1.17-6.31-.25-13.24.94-19.69a61.23,61.23,0,0,1,5.72-17.27C63,38.66,71,30.53,82.87,27.41,88.32,26,93.94,25.16,99.46,23.9c12.87-2.94,26-2.72,39-4,8.75-.85,17.08.89,25.62.81s17.23,3.75,21.36,12.08c1.95,3.92.83,9.42.86,14.2,0,1.37-.87,2.73-1.3,4.11-1,3.23-3.28,4.08-5.94,1.93-4.69-3.75-10-2.57-14.86-1.55-9.14,1.88-16.17,7.72-21.93,14.81-4.87,6-8.61,13.4-3.8,19.9a16,16,0,0,0,8.73,5.67,106.45,106.45,0,0,1,30.53,11.25A66.69,66.69,0,0,1,201.55,125c.77,1.19,2.06,2,2.91,3.18,6.76,9.13,13.47,18.3,20.27,27.55a6.19,6.19,0,0,0,1.56-2.46,104.89,104.89,0,0,1,12.2-32.49c3.68-6.2,7.79-12.13,11.41-18.36a15.65,15.65,0,0,0,1.75-6.63c.28-3.87-.18-7.8.14-11.67.49-6-2-11.25-4.23-16.42s-1.15-7.3,4.08-7.75c4.21-.38,6.35-3.25,7.43-7.28a39.23,39.23,0,0,1,5.31-11.16c3.31-5,5.7-11.18,12.34-12.87a21.33,21.33,0,0,1,8.6-.53,18,18,0,0,1,7,3.43c3.47,2.49,6.26,5.21,6.2,10.32-.09,8-.21,15.94-4.26,23.15-4.83,8.58-10.47,16.75-14.63,25.63-4.69,10-5.09,19.51,4.4,29,4.92,4.88,9.6,9.68,9.24,17.57-.22,4.61,1.43,9.29,1.34,13.92-.15,7.36-1.54,14.69-1.52,22,0,9.18,4.44,15,13.86,16.44,9.69,1.53,19.13,4.69,28.77,6.65,6,1.22,11.66-.16,17.26-3.21a51.27,51.27,0,0,1,15.45-5.3c10.51-1.87,20.33,1.88,29.86,5.63a39.9,39.9,0,0,1,11.2,7.34c9.27,8.08,18.24,16.51,27.61,25.06-4.43,3.07-8.06,6-12.07,8.27-5.63,3.18-11.26,7.06-17.44,8.44-6.57,1.47-13.72,1-20.47.22-6-.73-11.72-3.11-17.56-4.81-6.95-2-13.87-4.19-20.83-6.21-7.5-2.17-14.39-5.63-22.45-6.8C309.41,222.32,295,228,280.46,235a285.77,285.77,0,0,1-26.34,11.44c-2.81,1-6.56-.57-9.93-.66A92.44,92.44,0,0,0,232,246c-4.89.5-9.67,2.29-14.65.85a4.13,4.13,0,0,1-1.82-1.16c-2.65-3-5.14-2.44-8.58-.81-4.12,2-8.82,2.74-13.34,3.75-8.66,1.87-17.36,3.53-26,5.27a20.87,20.87,0,0,1-2.24.12c-10.32.61-20.72.76-30.94,2-10.69,1.26-21.26,3.61-31.88,5.38-7.33,1.23-14.67,3.15-22,3.24-11.25.13-21.88-3.57-31.47-9.37-8.26-5-16.87-9.95-23.71-16.57-7.5-7.26-14.07-15.84-18-25.82-2-5-3.75-10-5.63-15-.21-.55-1-.93-1.52-1.32Zm118.26-10.77c-4.38-1.82-9,1.53-13.07,4.19-5,3.26-8.55,7.9-8.3,14.88.27,7.68,1,15,3.43,22.5,2.81,8.62,10.59,17.36,19.56,17.64,7.75.23,15.6,1.13,23.31-1.59,5.62-2,9.06-8.44,6.09-13.53a85.67,85.67,0,0,0-7.5-10.47c-4.08-5-8.82-9.57-12.55-14.84C125.38,191.77,122.38,185.65,118.26,178.53ZM87.2,143.44c-.64-3.35-1.76-4.48-4.49-4.52-3.61,0-7-.12-9.32,3.5-1.88,2.87-4.49,5.25-6.28,8.15a4.6,4.6,0,0,0,.4,4.36,4.9,4.9,0,0,0,4.36.93c3.2-1.15,6.56-2.46,9.14-4.56S85.17,146.08,87.2,143.44Z"/><path d="M2155.49,175.9c6.77-.79,12.82-1.82,18.9-2.11a30.82,30.82,0,0,0,13.74-4.08c3.89-2.15,7.94-4,12-5.86,5.31-2.43,11.92-1.18,17.1,3.81-5.31,2.62-10.18,5.23-15.21,7.5-9.88,4.39-19.25,9.38-25,19.08-2.45,4.13-4.35,4.44-7.8,1.09-4.49-4.35-9-8.66-13.39-13.13-2.08-2.13-3.12-2-3.75.94-.24,1.11-1.16,2.17-1.1,3.22.12,2,.15,4.41,1.28,5.8,2.45,3,5.86,5.27,8.36,8.25,5.63,6.74,13,8.44,21.36,9.18,11,.94,19.16-3.38,26.34-11,5-5.3,10.31-10.25,15.44-15.41a38.37,38.37,0,0,1,17.55-9.83c5-1.39,9.91-2.67,14.06-6.91,3.21-3.27,9-3.8,13.21-6.32,5.78-3.48,11.1-7.7,16.64-11.57,2.19-1.54,4.44-3,6.66-4.47l-.62-1.52-33.48,10.89a21.74,21.74,0,0,1,1.88-3.28c3.15-3.48,7.09-6.49,9.37-10.47,2.08-3.62,2.72-8.21,3.35-12.47a44.1,44.1,0,0,0,.06-10.77c-1.17-11.25,4.68-18,14.31-22.08,7.83-3.32,15.9-5.68,24.62-5.42,9.13.28,18.27,0,27.4.13,2.11,0,4.21.85,6.32,1.3a5,5,0,0,0,1.76.31c6.84-1.34,13.88-2.14,20.48-4.3,6-2,11.31-4.62,17.23.19,1.88,1.56,5.11,1.38,7.35,2.65,4.49,2.53,6.41,6.19,2,11-3.53,3.83-8,4.93-12.33,6.83-5.95,2.61-11.73,5.63-17.48,8.61-7.5,4-14.34,9-22.81,11.39-5.29,1.47-10,5.08-14.91,7.9-9.91,5.71-20.05,11.08-29.47,17.49-5.94,4-10.24,10.07-10.1,18,.14,7.61-2.12,14.65-4.88,21.57-2.34,5.92-5,11.75-7,17.81-2.26,6.79-8.28,8.32-13.76,10.31-8.92,3.3-18.33,4.35-27.71,5.9-16.25,2.68-32.44,1.29-48.58.94-6.78-.14-13.93-4.05-20.09-7.66-6-3.5-11.55-7.5-18.21-9.83-2.4-.81-4.41-2.81-6.82-3.5-4.81-1.33-7.63,2.81-11.08,4.94-10.43,6.5-20.75,13.12-31.13,19.74a4,4,0,0,1-1.74.31c-9.89.62-19.77,1.33-29.66,1.79-4.28.2-8.39-3.51-9.46-7.64-.43-1.63-1.11-3.54-2.32-4.55-8-6.67-11.6-15.31-14.25-25.24s.88-19,1.88-28.41c.93-8.94,2.38-18,1.75-26.9-.47-6.56-3.58-13.12-8-18.42-4.24-5.11-8.25-10.64-13.33-14.79-6.43-5.24-13.83-9.3-20.85-13.82-.4-.24-1.15.07-2,.14-.93,7.66-1,15.15,2,22.34,3.43,8.39,5.57,17,4.74,26.1-.22,2.28-1.82,4.57-1.59,6.72.79,7.5,2.06,15,3.25,22.51.5,3.16,1.39,6.26,1.87,9.42,1.26,8.83,5,17.28,3.76,26.49-.87,6.61-3.06,11.73-9.21,15.78A91.24,91.24,0,0,1,1978.74,234a25.66,25.66,0,0,1-15.62-.7,335.39,335.39,0,0,1-34.76-17c-3.38-1.88-5.9-6-7.89-9.57-2.52-4.54-3.8-9.76-6.16-14.42a48.87,48.87,0,0,1-4.69-29.15,47.83,47.83,0,0,1,5.68-15.87c1.44-2.65,4.92-4.52,7.87-5.94,6.23-3,11.93-6.7,16.35-12,1.93-2.31,2.66-5.63,4-8.44,3.22-6.68-.58-12.64-2-18.75-.23-.94-1.94-2.08-3.08-2.22-6.42-.8-12.88-1.2-19.3-2-3-.38-6.31-.73-8.84-2.2-1.54-.88-2.68-3.89-2.59-5.88.27-6-1.44-10.92-6.85-14.83-1,2.9-2,5.69-3,8.44-1.94,5.47-6.57,8.26-11.09,11.25-3.61,2.37-7.5,4.49-10.67,7.36a181.84,181.84,0,0,0-16.42,16.31c-1.79,2.08-1.88,5.75-2.4,8.76-.81,5.22-1.79,10.48-1.87,15.72-.07,9.74-3.2,18.65-6.8,27.39q-8.8,21.32-18.36,42.32c-3.53,7.72-10.51,11.87-18.21,14.65a162.58,162.58,0,0,1-17,5.2,80.57,80.57,0,0,1-13.9,2,100.61,100.61,0,0,1-15.72,0c-13-1.21-25.48-3.84-36.45-11.7-4.8-3.44-10.42-5.74-15.56-8.73-6.36-3.75-12.33-8.26-19-11.25-7.35-3.32-15.31-5.33-23-7.9-8.65-2.88-17.41-5.45-25.94-8.67-10-3.75-19.69-8.44-29.77-12.11-6.56-2.4-7.61-7.8-8.21-13.13-.68-5.92-.16-12-.16-18a3.31,3.31,0,0,1,0-1.33c4.17-8.14.45-13.94-5.55-19.12a18,18,0,0,1-1.87-2.7c2.62-1.93,5.35-3.89,8-5.93,9.83-7.5,20.53-13.89,26.57-25.55,2.89-5.57,8.07-8.75,14.81-10.44,8.35-2.09,16.67-2,24.75-1.16,11.17,1.2,22.74,1.34,33.25,6.56,8.21,4.09,10.68,10.59,8.21,19.42-2.14,7.68-4.85,15.08-9.76,21.18a41.42,41.42,0,0,1-12.37,10c-5.81,3.15-12.25,5.19-18.51,7.5-6.1,2.24-12.31,4.21-19.49,6.65,2.76,4.1,5.18,8.68,8.51,12.47a139.81,139.81,0,0,0,15.61,15.27c8.21,6.77,16.88,12.95,25.48,19.26,10.57,7.77,23.21,11,35.08,15.94,8.31,3.45,16.64,6.56,25.93,5.62,7.32-.76,14.87-.36,21.93-2.08,8.3-2,13.6-8.54,17-16.22,3.34-7.5,2.4-15.58,1.72-23.29-.66-7.45-3.36-14.68-4.78-22.07-1.52-7.86.47-15.14,4.78-21.78,4.56-7,9.66-14,10.72-22.45,1-7.83-2.34-14.52-8.07-19.94-2.12-2-4.1-4.17-6.32-6-2.5-2.11-2.17-4.22.21-5.71,4.42-2.81,9.08-5.2,13.7-7.65,3-1.6,6.5-2.57,9.22-4.56,5.82-4.23,10.92-9.55,17-13.25,4.69-2.81,10.42-4,15.78-5.67,3-.94,6.29-1.88,9.38-1.75,12.51.41,24.17,3.41,33.58,12.46a7.18,7.18,0,0,0,4.19,1.72c3.43.25,7-.4,10.31.2,6.1,1.09,12.09,2.81,18.12,4.33,3.65.94,7.26,2.28,11,2.63,4.75.46,9.6-.16,14.36.19,6.31.45,11.74-2,17.35-4.23,7.4-2.91,14.88-5.62,22.34-8.44a81.87,81.87,0,0,1,9-3.13c5-1.21,9.31,0,14.06,2.72,8.72,5,14.06,12.65,19.83,20.22,2.26,3,4.59,5.9,6.74,9,4.93,7,9.85,13.92,14.63,21,6.92,10.21,12.83,21,18.75,31.8,3.86,7,12,10.73,19.69,13.58a27.86,27.86,0,0,0,8.5,1.83c7.14.24,11.25-3.43,12.52-10.52.58-3.3,1.71-6.56,1.64-9.88-.2-9.11-3.75-17.09-8.69-24.72-6.84-10.65-15.24-19.93-23.63-29.31a26.81,26.81,0,0,1-7.25-17.82c-.08-4.8-1.77-9.63-1.48-14.37.37-6.19,2-12.32,3.11-18.45.6-3.3.84-6.75,2-9.82C2093.49,3.78,2101-.58,2111.74,4.43c5.63,2.65,10.75,6.73,15.77,10.58,8.81,6.73,17.38,13.79,26,20.7,5.91,4.69,10,10.52,11,18.2.52,4,1.87,8.14,1.57,12.11-.53,6.94-2.2,13.79-3.13,20.71-1.74,12.87-7,25-5.92,38.58,1.07,13,.34,26.05.15,39.07C2157.31,167.7,2156.31,171.09,2155.49,175.9ZM2344,120.47c1.34.41,1.64.62,1.88.56a52.24,52.24,0,0,0,27.77-18c2.68-3.3,6.15-6.91,4.82-12.09-.31-1.2-.71-2.37-1.08-3.55-1.22.62-2.74.94-3.6,1.87-3.63,4.07-6.82,8.55-10.61,12.47-6,6.25-12.4,12.16-19.18,18.75Zm-400.34-43c-4.3,1-7.57,1.45-10.52,2.66-1.6.65-2.82,2.53-3.81,4.11-.26.41.94,2.53,1.46,2.52,2.36,0,5.22.17,6.91-1.08,2.2-1.59,3.4-4.48,6-8.23Z"/><path d="M1097.23,124.73c-7.51-3.94-14.85-8.25-22.51-11.75-10.41-4.75-20.94-9.33-31.71-13.19-14.42-5.15-24.92,1.88-30.94,14.07-2.45,4.93-5.06,9.87-6.71,15.08-1,3.3-.34,7.12-.64,10.68a36,36,0,0,0,5.1,21.9c4.38,7.5,6.83,16.11,11.25,23.58,5.31,9,12.35,17.06,17.58,26.12,4.58,7.94,12.19,12.27,18.5,18.09,3.66,3.38,8.31,5.63,12.49,8.44,1.08.72,2.07,1.56,3.31,2.5-4.75,6.67-10.23,11.25-19,10.19-7.61-.93-15.43-.65-22.86-2.23a66.45,66.45,0,0,1-25.9-11.92c-8.22-6.11-16.81-11.72-24.79-18.12-7.21-5.79-13.65-12.54-20.71-18.53-7.92-6.74-17.21-10.09-27.63-8.36-3.65.6-7.5,1.56-10.31,5-2.67,3.22-6.32,5.62-9.8,8.63-4-1.87-.8-4.54.28-6.61,3.58-6.89,8.67-13.27,10.83-20.54,1.87-6.17.8-13.33.27-20a54.66,54.66,0,0,0-3.16-13.93c-2.34-6.57-4.69-13.28-8.27-19.14-4.33-7-10-13.27-15.88-20.86-3.65,7-6.79,12.63-9.6,18.46-3.54,7.31-6.65,14.84-10.21,22.15-4.81,9.82-10.73,19.19-14.48,29.37-2.48,6.71-5.07,14.4-1,21.87a2.21,2.21,0,0,1,.15.88c.62,9.58,2.15,19.22,1.59,28.74a112.16,112.16,0,0,1-5.22,26.85c-2.6,8.18-11.56,9.47-17.64,3.55-8.88-8.67-15.94-18.76-22.09-29.4-5-8.64-10.47-17.09-14.66-26.13-2.61-5.67-3.39-12.19-4.75-18.44-1.88-8.51-3.92-17-5.06-25.62-1.11-8.38-4.78-15.59-8.83-22.65A39.07,39.07,0,0,0,764,115.81c-6-2.25-12.19-3.63-18.24-5.74-4.78-1.69-9.38-3.91-14.06-5.88-1-.42-2-.8-4-1.6.94,6,1.58,11.07,2.66,16,1.42,6.49,3.52,12.85,4.78,19.36,1,5.31,2.18,10.86,1.63,16.14-.87,8.44-3.09,16.82-4.75,25.22-.71,3.58-1.76,7.12-2.1,10.73-.82,8.37-1.35,16.77-1.88,25.15-.46,7,1.88,13.13,6,18.75,1.88,2.58,3.75,5.44,4.45,8.44.83,3.46,1.26,7.31-2.37,10.15-4.55,3.57-8.44,8.29-13.42,10.86-3.37,1.73-9,2.09-12.19.41-6.16-3.22-11.87-7.55-15.31-14.35-2.91-5.75-7.68-10.58-10.43-16.37-2.94-6.24-4.14-12.7-2.18-20.22,2.2-8.44,7.19-14.15,12.23-20.56,4.22-5.37,7-12,9.78-18.35,2.23-5.15,3.6-10.69,5.1-16.12a49.22,49.22,0,0,0,2.09-10.69q1.08-25.6,1.71-51.22a7.09,7.09,0,0,0-2.73-5c-9-6.37-17.11-13.6-21.51-24-2-4.63-3.75-9.63-4.12-14.59-.44-5.33,3.67-8.88,7.67-12,1.73-1.37,3.08-3.22,4.81-4.57,5.15-4,10.06-8.54,15.72-11.71,9-5,15.94.31,22.1,6.24,7.5,7.14,14.3,15,22,21.81,8.39,7.5,17.47,14.13,26.26,21.19,1.68,1.37,3.2,3,4.81,4.44,7.59,7.1,15.81,13.65,22.59,21.46,5.34,6.12,12.09,11.48,14.59,19.77a16,16,0,0,1,1,4.15c.11,5.85-.13,11.7.09,17.53.28,7.67,2.21,14.79,7.36,20.85s7.5,6.12,13.46.56c5-4.68,6.74-11,9.46-16.87,5.18-11.26,11.25-22.07,15.65-33.58,3.88-10.31,4.41-21.1,0-31.88-3.34-8.13-6.47-16.58-7.9-25.19s5.49-14.06,12.06-17.7c6.22-3.47,13.54-4.94,20.33-7.42a63,63,0,0,0,8.58-3.88c3.51-1.87,6.18-.09,8.44,1.92,8.2,7.34,16.44,14.67,24.14,22.51,4.41,4.49,7.5,10.31,11.75,14.91,2.81,3,6.66,5,11,8,1.11-2.89,2.19-5.09,2.81-7.43,1.16-4.33,2.67-8.69,3-13.12.47-7.77,0-15.58.2-23.36.07-2.71.94-5.4,1.42-8.11a11.44,11.44,0,0,0,.23-3.55c-.29-1.79-1.79-4.69-1.26-5.08a32.05,32.05,0,0,1,8.44-4.41c7.39-2.53,14.76-5.63,22.41-6.8,9.11-1.41,18.94-2.4,26.58,4.58,3,2.82,4.58,7.24,6.69,11,2.3,4.13,3.89,8.79,6.8,12.41a67.84,67.84,0,0,0,28.2,21.25,163.12,163.12,0,0,0,25.87,7.67,109.54,109.54,0,0,0,21.08,1.8c5.31.06,10,1.58,14.81,3.43,7.15,2.75,14.56,4.86,21.73,7.56,6.88,2.58,12.56,6.34,16.88,12.94a38.88,38.88,0,0,1,6.72,23.49c-.18,7.5-3.59,13.64-6.89,20-5,9.68-14,12.93-23.52,15.47a64.59,64.59,0,0,0-6.67,2.12c-5.25,2.06-8.82.75-11.65-4.07-2.91-5-5.93-9.93-9.18-14.7-.62-.94-2.46-1.18-3.8-1.4s-3,.1-4.48-.19c-.76-.15-1.35-1.13-2-1.73.57-.55,1.11-1.54,1.71-1.57,4.77-.27,6.35-4.21,6.8-7.5,1.18-8.54,1.16-17.52-3.57-24.92-5.39-8.44-12.26-15.67-22.91-18.23-10-2.43-19-7.34-27.55-13.31-5.43-3.82-11.53-6.73-17.47-9.74s-12.19-5.75-18.38-8.51a9.66,9.66,0,0,0-3.49-.62c-9.73-.39-16.48,5.39-17.7,15-.87,7,5.12,15.24,12.59,17.13,7.24,1.88,13,6.17,18.81,10.53,5.3,4,11,7.35,16.59,11q10.15,6.63,20.33,13.21c2.81,1.79,5.56,3.57,8.37,5.29,5.77,3.57,11.59,7,17.3,10.69.68.44.85,1.71,1.25,2.59ZM947.3,105.23a11.93,11.93,0,0,0-5.52-11.16c-8.13-5.53-23.87,1.68-25.49,12.34a25.87,25.87,0,0,0,.18,9.92c1.13,5.5,3.15,10.32,7.37,13.94s10.8,6.16,15-.6C943.27,122.67,947.49,115.36,947.3,105.23Z"/><path d="M1566,197.68c-2.7-9.37-5-17.15-7.12-25a103.07,103.07,0,0,1-2-10.31c-1.28-7.5-2.18-15-3.8-22.44-2.38-10.88-6.46-21-14.8-28.93-2.31-2.18-1.88-3.42,1.2-4,.94-.18,2.18-.53,2.59-1.22,6.69-11.43,10.79-9.24,18.92-2.5a74.61,74.61,0,0,1,13.53,15.7c3.52,5.21,6,11.19,8.51,17a36.65,36.65,0,0,1,2.42,9.26c.84,5.5,1.07,11.11,2,16.6.79,4.55,2.69,8.93,3.31,13.5,1,7.43,1.29,15,2,22.44.54,6-.22,12.11-3.61,16.88-7.68,10.88-10.88,24.63-22.51,33.11-6.71,4.9-7.68,6.36-14.92,2.35-6.3-3.48-12-8-18-12-8-5.38-15.77-11.18-24.09-16-13.31-7.72-27.19-14.4-40.44-22.23-9.56-5.63-18.16-12.64-26.48-20.19-7.14-6.47-14.07-13.68-23.63-17.4-6.9-2.7-16.88,1.39-18.62,8.54-1.7,6.88-3.49,13.72-5.31,20.57a5.58,5.58,0,0,1-1.33,2.23c-11.7,12.49-23.32,25.06-35.25,37.33-2.12,2.18-5.62,3-8.39,4.6-7.16,4.09-14.14,8.55-21.5,12.26a32.23,32.23,0,0,1-11.25,2.81c-9.26.94-18.57,1.29-27.85,2-5.85.45-11.71,1.73-17.52,1.5-5.43-.22-10.88-1.68-16.19-3.09-8.7-2.3-17.47-4.55-25.88-7.7-5.48-2-10.31-5.81-15.58-8.51-8.44-4.36-13.4-11.78-16.19-20.25-2.92-8.9-4.36-18.22-1.29-27.69,1.26-3.85.94-8.25,2.32-12,2.37-6.21,4.92-12.55,8.59-18,7.06-10.55,11.17-21.64,9.22-34.4-.76-5-2.31-9.87-3.26-14.85a16.63,16.63,0,0,1-.08-6.25,103.64,103.64,0,0,1,15.42-36.57c5.92-9,11.67-18.06,20-24.93,6.32-5.22,13.27-9.64,19.88-14.5,8-5.87,17.65-7.82,26.5-11.65a2.91,2.91,0,0,1,.88-.11c10.2-.62,20.38-1.64,30.56-1.7a198.63,198.63,0,0,1,24.24,1.81c6.18.72,12.28,2.1,18.38,3.4.77.16,1.27,1.56,1.87,2.38a14.26,14.26,0,0,1-2.56,1.21q-9.64,2.58-19.32,5c-5.36,1.35-10.74,2.59-16.09,4-5.07,1.3-10.32,2.33-15.13,4.22a154.14,154.14,0,0,0-17.7,8.31c-6.37,3.45-8.29,5.8-4.46,12.35a55.65,55.65,0,0,0,5.62,8.15c5.27,6.15,10.61,12.26,16.25,18,3.11,3.19,7.15,5.45,10.32,8.57,5.32,5.24,7.29,11.26,4.13,18.76-2.71,6.38-.27,12.27,6.08,15.28,7.72,3.67,15.4,7.67,23.52,10.15,7.58,2.3,15.21-.09,22-4.07a27.39,27.39,0,0,0,7.3-6c8.43-10.32,19.77-13.43,31.72-10.61,10,2.36,17.46-1.47,25.78-4.79,5.21-2.07,10.79-3.27,16.28-4.54,7.31-1.69,12.85,3.16,19,5.63,3.11,1.22,6.25,2.38,9.22,3.86a4.64,4.64,0,0,1,2.13,2.93c.1.55-1.42,1.48-2.27,2.14-2.12,1.66-4.89,2.87-6.32,5-3.85,5.63-2.68,9.11,2.22,14,9,9,18.76,17.27,28,26.1,8,7.66,15.51,15.84,23.59,23.44,4.49,4.21,9.16,8.44,16,8.75C1559.54,195.43,1562.24,196.68,1566,197.68Zm-236.87,26.85a1.63,1.63,0,0,1,.08-.62c2.81,0,5.7-.18,8.52,0,9.09.66,15.72-3.6,21.23-10.23,5.09-6.12,5-13-.8-18.21-6.1-5.5-12.57-10.57-19-15.7-9-7.17-19.69-8.74-30.67-9.88-5-.52-9.9-1.17-14.8-2a32,32,0,0,1-8-2.12c-8.32-3.75-16.48-7.88-24.77-11.74s-20.24-3.63-26.26,4.95c-2.89,4.15-5,13.3-2.14,16,8.21,7.94,16.13,16.37,25.31,23.13,8.54,6.33,18.36,11,27.84,15.94,5.78,3,11.75,6.24,18,7.62C1312,223.58,1320.62,223.69,1329.12,224.53Z"/><path d="M577.34,60.65c1.6,2.37,2.92,3.45,3,4.68,1.07,10.69,7.79,16.88,16.84,21,2,.94,4.68.62,7.08.58,8.69-.16,15.09,4.08,20,10.68a16.14,16.14,0,0,1,2.82,7.65c.88,8.66,2,17.38,1.74,26-.19,7.26,2.32,13.63,4.62,20,3.9,10.74,9,21,13.13,31.68A36.42,36.42,0,0,1,648.66,195c.28,10.63.73,21.32-.08,31.88-.74,9.38-5.57,19.11-17.51,21.88-4.78,1.1-9.89,4-14.26,3.14-10.7-2.15-21.33-1.32-32-1.29-4.53,0-9,1.87-13.57,2.86-3.41.75-6.78,1.72-10.23,2.2-5.82.81-11.66,1.52-17.52,1.87-11.36.77-22.76,1.19-34.13,2-5,.32-10.11,2.29-14.79,1.43-8-1.47-17.45-.13-22.92-8.51-1.2-1.88-2.42-4.09-2.5-6.2-.28-8.08.13-16.18-.17-24.25-.34-8.85-1.17-17.67-1.8-26.51-.57-7.79-1-15.59-1.78-23.36a153.67,153.67,0,0,0-2-15.25c-.66-3.44-8.65-8.89-12.66-8.85a77.54,77.54,0,0,1-37-9c-6-3.12-11.26-7.46-13.26-14.77-1.72-6.25-4.69-12.13-6.44-18.38a72.27,72.27,0,0,1-2.11-14.77c-.36-5.51.08-11.08-.13-16.61a80.3,80.3,0,0,1,3.88-27.31c1.42-4.51,4.58-8.77,7.84-12.33a136.72,136.72,0,0,1,16-14.65A107.37,107.37,0,0,1,436.82,8.78c4.56-2.33,10-4.51,14.89-4.18,5.45.37,11.57,1.17,15.94,5.89,4.56,4.9,9.47,9.46,14.22,14.18,5.52,5.49,8,12.67,10.49,19.69,2.12,6,4.21,12.13,5,18.38.56,4.14-1.24,8.57-1.82,12.9-.78,6-3.05,11.33-2,18.1,1.57,9.62,6.18,16.28,13.06,21.81,5.71,4.58,12.09,8.31,18.12,12.51,7.7,5.36,15.6,10.48,22.91,16.32a205.79,205.79,0,0,1,19.53,17.81c5.5,5.69,10.17,12.19,15.37,18.17a3.67,3.67,0,0,0,3.37.56c6.29-2.41,9.15-8.22,12.4-13.42,2.17-3.45,3.5-7.44,5.07-11.25.87-2.09-2.81-10.73-5-11.87-4.59-2.4-9.18-4.8-13.83-7.06-6.07-2.94-9.49-12.12-6.71-18.3a4.59,4.59,0,0,0,.59-1.17c.7-7,1.54-14.06,1.93-21.1a7.06,7.06,0,0,0-2-5.15c-3.85-3.22-3.16-7.36-3.18-11.44,0-4.35-.17-8.7.08-13C575.36,65.41,576.35,63.65,577.34,60.65Z"/><path d="M2525.56,74.19c-1.71-10.25.75-13.84,11.62-20.88,10.26-6.65,21.57-10.59,33-14.3,4.93-1.6,10.42-1.41,15.66-2.14,3.16-.43,6.28-1.12,9.44-1.56a17.6,17.6,0,0,1,4.47-.11c4.2.48,8.44,1,12.57,1.74a28.08,28.08,0,0,1,7.14,1.88c7,3.25,14.12,6,20.2,11.44,9.5,8.5,6.72,16.47-1.35,22.65a167,167,0,0,1-20.45,13c-3.18,1.77-7.11,2.33-10.78,3-7.15,1.34-14.35,2.4-21.56,3.53a9.26,9.26,0,0,1-2.68-.06c-3.75-.51-7.5-1.27-11.25-1.59-10.51-.94-21.08-2.18-30.23-7.59-4-2.35-7.5-3.93-11.85-3a126.46,126.46,0,0,0-13,3.64c-9,3-17.2,7.5-23.91,14.41a14.74,14.74,0,0,0-3,16.49c.75,1.87,1.45,3.69,2.32,5.46,1.29,2.62,3.7,2.62,6.3,3.06,19,3.23,38.07.73,57.06,1.82a175,175,0,0,1,26.48,3.66c12.43,2.67,24.44,7.27,34.13,15.53,7.25,6.2,13.9,13.66,16.13,23.63,1.33,5.94,3,11.93,3.33,18a39.45,39.45,0,0,1-6,23.44c-7.66,12.06-17.74,21-31.74,25.74a93,93,0,0,1-22.88,5.08c-4.69.36-9.38,1.77-13.92,1.47-6-.39-12-2-18-3.08a31.09,31.09,0,0,0-4.91-.33c-16,0-32.06.33-48.06-.16-7.67-.25-15.28-2.16-22.93-3.18-6-.8-12-1.4-17.94-2.06-10.32-1.16-20.63-2.28-31-3.45-5.39-.61-10.84-.93-16.15-2-11.57-2.36-22.68-4.88-29.39-16.88-3.88-6.9-7.27-13.43-6.38-21.25,1.1-9.77,3.6-17.46,14.48-19.64,5.62-1.13,13-9.51,12.56-16.21a82.64,82.64,0,0,0-3.44-18.44c-3.54-11.74-2.68-23,7.36-31.48,6.47-5.47,13.24-11,20.79-14.62,4.55-2.17,10.83-.73,16.33-.8.81,0,1.6.84,2.43.94,7.92.7,15.88,1.88,23.8,1.74,5.27-.07,10.57-1.76,15.75-3.08,6.75-1.72,13.43-3.75,20.08-5.77,7.07-2.14,14.07-4.6,21.12-6.64C2519.84,74.41,2522.66,74.53,2525.56,74.19ZM2540.09,230c-1.88-4.76-3.49-8.14-4.45-11.71-2.21-8.27-4.46-16.55-6-25-1.19-6.66-2.58-13.21-6.13-19-1.23-2-4-4.2-6.13-4.21a78.19,78.19,0,0,1-24.24-3.76c-6.57-2.21-13-4.87-19.74-6.47-2.91-.68-5.39-2.9-9.38-1.37-6.15,2.33-12.48,5.11-19.57,4.27-4.58-.53-9.3.23-13.89-.19-9.12-.85-16.12,2.67-22.17,9.21-4.76,5.16-4,12.38,2.06,15.8a20.24,20.24,0,0,1,2.64,1.51c11.8,9.17,25.82,13.51,39.59,18.44,7.75,2.82,15.84,4.91,23.18,8.55,13.7,6.78,27.48,12.44,43.13,11.32a12.8,12.8,0,0,1,2.23.16Z"/></g></g></g></g></svg>