<svg xmlns="http://www.w3.org/2000/svg" viewBox="0 0 1128.82 387.92"><g id="Layer_2" data-name="Layer 2"><g id="Layer_1-2" data-name="Layer 1"><g id="Layer_2-2" data-name="Layer 2"><g id="Layer_1-2-2" data-name="Layer 1-2"><path d="M633.93,13.63c4,.26,7.34.25,10.57.7q31.65,4.5,63.28,9.11c7,1,8.49,2.42,9.12,9.5,4.74,53.93,9.35,107.87,14.19,161.79,3.7,41.29,8,82.54,11.4,123.85,1.56,18.72,1.74,37.55,2.54,56.33,0,.66.05,1.33.11,2,.84,9.59.84,9.67-8.61,10-13.31.43-26.62,1-39.93,1-8.3,0-16.61-.71-24.92-1-3.33-.13-4.55-1.82-4.83-5-1.1-12.26-2.43-24.5-3.61-36.76-1.33-13.72-2.51-27.47-3.92-41.19-.9-8.82-2.29-17.58-3.1-26.41-.86-9.19-1.16-18.44-1.94-27.64-1-11.76-2.36-23.48-3.3-35.23-1-12.67-1.55-25.37-2.61-38-2.13-25.38-6-50.73-6.3-76.14-.35-24.94-8.24-48.88-7.49-73.79C634.7,22.66,634.25,18.67,633.93,13.63Zm63.12,135.09c-.9-16-1.43-27.42-2.21-38.83-.6-8.62-1.51-17.22-2.3-25.82-.45-4.87-2.71-7.94-7.9-8.76-2.38-.37-4.55-2-6.92-2.63-2.21-.61-5.26-1.74-6.67-.78a8.4,8.4,0,0,0-3,6.57c2.1,24.52,3.91,49.1,7,73.5,4.3,33.4,2.57,67.24,8.62,100.56,3.34,18.36,3.61,37.27,5.27,55.93.53,6,1.12,11.94,1.6,17.92.35,4.26,2.63,6.21,6.85,6.22,3.33,0,6.66.14,10,.32,6.16.35,8-1.82,7.34-8-1-8.75-1.89-17.52-2.51-26.31-.78-11.11-.85-22.29-1.93-33.37-2-20.89-4.6-41.74-6.94-62.61-.59-5.28-1.09-10.57-1.73-15.85C700,172.56,698.25,158.38,697.05,148.72Z"/><path d="M787.25,38.2c8.54,1.87,16.77,3.08,24.5,5.75,2.23.77,4,5.63,4.3,8.79,2,18.71,3.42,37.47,5.08,56.21,1.71,19.24,3.5,38.47,5.18,57.72,2.55,29.18,4.9,58.37,7.59,87.54q5.48,59.43,11.4,118.8c.44,4.45-.37,6.36-5.48,6.8-9.43.83-18.72,3.28-28.15,4.07-13.35,1.13-26.78,1.33-40.17,2-3.35.17-4.39-1.16-4.92-4.47-6-37.71-7-75.87-10.55-113.8-1.55-16.75-3.51-33.46-5.22-50.19-1.8-17.67-3.41-35.37-5.32-53-2.19-20.15-5.3-40.22-6.76-60.42-1.65-22.74-2-45.57-2.7-68.37-.19-5.93,1.64-7.15,7.67-6,4.08.78,8.2,1.42,12.26,2.32a7.54,7.54,0,0,1,6.41,7.28q1.53,17.9,3.18,35.79c2.64,28.17,5.38,56.32,8,84.49,3.28,35.64,6.41,71.3,9.68,107,1.87,20.38,3.94,40.75,5.81,61.13.34,3.69,2,5.3,5.73,5.25,20.72-.31,18-2.25,16.53-17.87-3.38-36.81-6.67-73.63-10.11-110.43-2.09-22.21-4.53-44.38-6.51-66.6-.39-4.34,1-8.82.88-13.21-.35-9.57-.85-19.15-1.87-28.66-1.92-17.71-4.26-35.37-6.4-53.06A47.17,47.17,0,0,1,787.25,38.2Z"/><path d="M285.25,7.79c11.19,10.5,22.51,20.88,33.5,31.58,3,3,7.12,3.67,10.32,0,8.37-9.49,16.43-19.26,24.8-28.75,2.1-2.38,4.9-4.14,8.47-7.09.71,5.54,1.35,9.54,1.72,13.57q4.53,48.75,9,97.51,3.65,39.81,7.26,79.6c3.24,36,6.58,72,9.59,108,1.31,15.72,1.84,31.52,2.83,47.27.18,2.92-.71,4.57-3.55,5.66-5.24,2-10.23,2.84-15.2-.65a9.06,9.06,0,0,0-3.33-.89c-3.35-.66-5.32-2.55-5.62-6-1.62-18.58-3.37-37.14-4.81-55.73-.77-9.8-.68-19.66-1.56-29.44-.86-9.55-2.67-19-3.68-28.55-.93-8.72-1.05-17.53-2.05-26.24-1.76-15.51-4.16-30.94-5.84-46.46-2.17-20.05-3.85-40.1-5.85-60.1a26.05,26.05,0,0,0-1.71-8.23,87.45,87.45,0,0,0-4.91,8c-1.67,3.49-3.77,3.46-6.13,1.12-2.69-2.67-5.1-5.62-8-8.79-2.11,6.16,17.62,236.38,21.35,252.24-5.36-1.52-10.24-2.84-15.09-4.29s-9.51-3-14-4.42c-1.27-21.76-2.38-43.2-3.83-64.63-.91-13.45-2.33-26.87-3.5-40.3a33.85,33.85,0,0,1-.18-3.49c.4-29.65-3.32-58.94-7.63-88.18-1-6.75-1.17-13.65-2.48-20.33-4.92-25.2-4.79-50.86-7.34-76.27-1.16-11.53-2.91-23-4.39-34.49Z"/><path d="M870.54,134.28c.24,4.08.35,8.17.74,12.23Q876.08,197.75,881,249q5.52,58.44,11,116.87c.79,8.4-.86,10.26-9.36,11-4.64.38-9.29.88-13.94,1-4.26.11-5.55-1.92-4.56-6a20.94,20.94,0,0,0,.62-6.31c-1.47-19.44-2.72-38.9-4.73-58.28-2.08-20-5.36-39.92-7.37-59.94-4.44-44.23-8.46-88.5-12.56-132.77-1.46-15.75-2.68-31.53-3.94-47.3a27.92,27.92,0,0,1,.15-6.46A23,23,0,0,1,838,56.13c1.55.73,3.48,1.08,4.58,2.24,9.2,9.64,18.25,19.43,27.32,29.19,5,5.37,9.93,10.78,14.94,16.13,1.32,1.4,2.84,2.62,4.26,3.93l1.38-.47Q889.14,92,887.8,76.86c-.28-3.14-.61-6.28-.85-9.43-.31-4.16,1.94-5.43,5.61-4.54,5,1.21,10,2.64,15,4,6.11,1.61,9.08,5.75,9.66,11.87,1.93,20.39,3.93,40.78,5.81,61.18,1.56,16.92,2.94,33.86,4.47,50.79q5.37,59.43,10.86,118.86c1.42,15.42,3.16,30.82,4.41,46.25.7,8.73,3,11.6-9.86,13.28-3.63.47-7.21,1.27-10.84,1.79-5.17.75-6.76-.3-7.27-5.51-1.33-13.59-2.25-27.23-3.69-40.81-1.88-17.87-4.27-35.69-6.12-53.57-1.23-11.93-1.58-23.94-2.87-35.86-2.39-22.16-5.19-44.28-7.81-66.42C892.46,153.42,882.77,143.33,870.54,134.28Z"/><path d="M295.35,330.23c-9.07-2.77-17.48-.75-26-4-9.92-3.78-21.13-4.06-31.59-6.66-8.18-2-16.11-5.16-24-8.11-1.1-.41-2.07-2.57-2.17-4-1.32-18-2.3-36.13-3.7-54.18-1.18-15.22-2.65-30.41-4.26-45.59-1.28-12.18-3.22-24.29-4.38-36.47-1.23-12.9-1.68-25.87-2.82-38.78-3-34.35-6.53-68.65-9.26-103-1.35-17-2.2-13.91,12.8-16,2.64-.37,5.27-.82,7.9-1.25,5.09-.81,6.67.33,7.12,5.57q3.19,37.1,6.31,74.19c1.84,21.9,3.47,43.81,5.52,65.69,3.42,36.62,7.09,73.22,10.66,109.83.79,8,1.36,8.6,9.42,10.34,2.93.64,5.82,1.49,8.78,1.9,3.78.52,5.16-1.24,5.32-5.19.91-22.12-3-43.95-3.83-66-1-27.25-3-54.47-4.8-81.69-.15-2.25-1.68-4.39-2.42-6.63a29.6,29.6,0,0,1-1.6-6.08c-2.67-25.33-5.22-50.68-7.89-76-.8-7.6-1.79-15.19-2.82-22.76-.61-4.5.77-6.91,5.69-7.2,5.8-.34,11.56-1.22,17.34-1.82,3.57-.37,5.25,1.53,5.55,4.88,1.39,15.26,2.85,30.52,4.11,45.79,1.39,16.76,2.49,33.55,3.91,50.31,1.14,13.4,2.56,26.77,3.88,40.16,2.09,21.37,4.38,42.73,6.25,64.12,2.09,24.06,3.62,48.16,5.75,72.21,1.15,13.07,3,26.07,4.57,39.1C294.86,324.87,295,326.85,295.35,330.23Z"/><path d="M540.05,4.14c9.31.66,17.93,1.18,26.53,1.91,14.09,1.21,28.17,2.67,42.28,3.76,4.5.35,5.94,2,6.4,6.67,1.33,13.4,3.9,26.67,5.26,40.06,2.17,21.51,3.77,43.08,5.6,64.63.07.79,0,1.6,0,3.51-9.12-.56-17.84-1-26.53-1.82-.91-.09-2.17-2.59-2.27-4-.81-11.29-1.23-22.61-2.06-33.89A79.37,79.37,0,0,0,593,69.81c-.56-2-3.07-4.22-5.18-5-4-1.45-8.39-2-12.64-2.81-5.47-1-7.21.32-6.79,5.88.86,11.45,2,22.87,3.06,34.3.84,8.94,1.92,17.86,2.58,26.81a25,25,0,0,0,7.08,16.5c14,14.67,27.48,29.94,41.76,44.38,7.43,7.51,11.55,15.62,12.22,26.25,1.23,19.43,3.36,38.81,5.14,58.2q4.38,48,8.83,95.93c.29,3.15.53,6.31.86,9.45.6,5.78-.36,6.9-6.19,6.6-14.64-.75-29.27-1.65-43.91-2.3a46.07,46.07,0,0,0-9.88.83c-6.78,1.18-12.84-.59-18.59-4-.82-.48-1.87-1.28-2-2.08-1.44-8.24-2.68-16.52-4-24.78-.93-5.71-2.12-11.39-2.87-17.13a124.58,124.58,0,0,1-1-13.92c-.23-11-.22-21.91-.39-32.85a114.59,114.59,0,0,0-.67-12,20.39,20.39,0,0,0-2.11-6.35c-1.6-3.27-1.87-5.24,2.17-7.41,8.4-4.52,16.31-9.94,24.81-15.23.5,8.73,1.79,18.43,1.46,28.07a145.55,145.55,0,0,0,5,44.93c1.13,4.06,3,7,7.65,7.17,5,.21,10,.71,15,.67,4,0,5.34-2.6,5.09-6.42-.94-14.62-1.74-29.26-2.69-43.89-1.1-16.95-2.37-33.89-3.44-50.84-.23-3.56-1.17-6-5.15-6.72-3.54-.67-8.5-10-8.22-14.56-8.74-12.25-12.5-19.09-21.73-33.9S556.51,148.74,549,131c-1.29-.3-2.59-.58-3.86-.93-.28-.08-.48-.44-1.22-1.14,9.14-3.49,5.39-10.86,5-16.93-1.7-23.57-3.79-47.12-5.8-70.67-.92-10.77-2-21.53-3-32.29A33.9,33.9,0,0,1,540.05,4.14Z"/><path d="M382.4.8C389.26.54,395.6.13,402,.1c17.47-.1,34.94.09,52.41-.1,6.24-.07,8.14,1.16,8.65,7.42,2.39,29.35,4.56,58.73,7.17,88.06,1.82,20.4,4.25,40.73,6.32,61.11.18,1.74.27,3.81-.48,5.29a79.29,79.29,0,0,0-7.77,49.45c.09.63,0,1.29,0,3.21-15-7.36-29.24-14.45-39.55-27.68l-1.52,1.06c.4,5.5.72,11,1.21,16.51,2,22,4.09,44,6,66,1.7,19.72,3.07,39.47,4.82,59.18.87,9.76,2.33,19.46,3.39,29.21.65,6.09-.76,7.62-6.81,7-5.28-.56-10.52-1.53-15.74-2.54-3.27-.64-4.95-2.56-5.13-6.26-.43-8.47.05-17.34-2.36-25.29-4.07-13.37-3.91-27.16-6.11-40.68-1.76-10.79-1.13-21.94-2.26-32.86-1.56-15.19-4.12-30.29-5.63-45.5-1.25-12.73-1.45-25.56-2.38-38.32-3.13-42.83-4-85.81-9.69-128.46C384.53,31.59,383.82,17.08,382.4.8Zm64.27,152.78c-.76-10-1.48-19.9-2.3-29.82-1.74-21.23-3.46-42.46-5.35-63.68-.58-6.49-2.4-8.21-8.7-9.63-3.08-.7-6.16-1.45-9.27-2-4.24-.72-6.94,1.37-6.81,5.59.34,10.76.61,21.54,1.45,32.27.77,9.78,2.82,19.47,3.31,29.26.93,18.49,16.05,26.77,26.57,38.4C445.61,154.08,445.85,153.88,446.67,153.58Zm-51.59,1.75c1.32,2.94,2.16,4.83,3,6.71l1.87-.86c-.7-2,1.73-5.45-4.87-5.85Z"/><path d="M959,364.3C950.45,267.51,942,171.66,933.45,75l15,4.21c10.25,2.89,20.55,5.61,30.72,8.75,3.91,1.21,8.2,2.63,11.15,5.26a247.74,247.74,0,0,1,22.18,22.25c2.69,3.11,4.16,8,4.59,12.24,2,19.7,3.23,39.48,5.09,59.2,3.12,33.14,7,66.21,9.55,99.39.93,12,.78,24.57-2,36.1-2.45,10-9,19.1-14.59,28.08-1.64,2.64-6,4.3-9.42,5C990.42,358.64,975.05,361.31,959,364.3Zm40.25-123.22c-2.07.16-3.58.58-5,.31a25,25,0,0,1-4.71-1.9c.79-1.46,1.21-3.44,2.42-4.3,4.78-3.38,6.23-7.88,5.73-13.46-2.28-25.52-4.46-51-6.73-76.56-.84-9.4-5-16.42-14.5-19.46s-11.31-1.69-10.38,8.19c2.62,27.65,5.32,55.29,7.82,82.95,2.85,31.47,5.5,63,8.27,94.44.37,4.27,2.52,6.52,7.15,6.47,10.61-.11,16.76-7.39,15.57-18.47-1.06-9.91-1.87-19.85-2.84-29.78C1001.16,260.17,1000.25,250.79,999.25,241.08Z"/><path d="M92.88,269.62c-6.91-2.52-13-4.58-19-7-16.68-6.64-33.28-13.5-50-20.08-5-2-7.78-4.78-8.22-10.53-1.55-20.09-3.58-40.14-5.37-60.21-.42-4.69.77-5.73,5.4-5,5.43.83,10.84,1.89,16.29,2.5,4.67.53,6.66,3,7,7.5,1,12.28,2.07,24.55,3.06,36.83.56,7,1.67,8.26,8.54,10.37,4.74,1.45,9.41,3.11,14.9,4.94-.59-7.26-1.12-13.85-1.68-20.45-.72-8.63-1.72-17.24-2.09-25.89-.15-3.45,1.06-7,1.66-10.45l1.42-.31c-2.13-1.76-4.16-3.68-6.43-5.25-15.11-10.51-30.27-21.15-45.57-31.51-4.34-2.94-6.53-6.39-6.95-11.8C4.25,102.5,2.14,81.79.25,61.08c-.74-8-.23-8.69,7.52-10.56q31-7.44,62.1-15c1.76-.42,3.58-.59,6-1,.37,3.17.79,6.06,1,9,1.23,14.2,2.39,28.4,3.61,42.6.37,4.31,1.09,8.6,1.19,12.91,0,1.57-.8,3.94-2,4.65-6.6,3.87-14,5.08-21.5,4.5-1.48-.12-3.63-3.24-3.89-5.19-1-8-1.44-16-2.18-23.88-.17-1.76-.6-3.5-1-5.85-6.12,1-11.91,1.7-17.46,3.21-1.47.4-3.22,3.52-3.12,5.29.63,10.8,1.38,21.62,3,32.32.43,2.93,3.29,6.12,5.89,8,10.37,7.55,21.45,14.14,31.52,22,7.91,6.21,15,13.38,15.55,24.83.79,16.44,2.39,32.84,3.52,49.26,1.07,15.58,2,31.17,2.94,46.76C92.94,266.17,92.88,267.32,92.88,269.62Z"/><path d="M1051.25,326.75c-1-10.57-2.12-20.61-3-30.67-1.12-12.91-1.94-25.84-3.17-38.74-.44-4.68,1.32-7,5.84-7.17,5.49-.2,11-.09,16.48-.26,2.77-.09,3.73,1.09,4,3.79,1.39,15.07,3.08,30.11,4.35,45.18.43,5.09,3,5.61,7.06,4.69,3.4-.78,6.84-1.47,10.29-2,4.5-.66,6.35-3.21,5.93-7.61-1.17-12.09-2.24-24.19-3.55-36.27-.46-4.22-.77-8.07,5.35-9.63-4.34-3-7.94-5.6-11.59-8.11-13.72-9.44-27.42-18.91-41.2-28.25a14.64,14.64,0,0,1-7-11.74c-2.5-24.5-5.77-48.92-8.43-73.4-.67-6.23-.1-12.58-.1-19.75,1.64.22,3.76.14,5.6.82,22.5,8.25,45,16.63,67.43,24.94,3.72,1.37,6.33,3.48,6.7,7.77,1.31,15.42,2.71,30.84,4,46.26.14,1.62,0,3.27,0,5.87-8.26-1.8-16.11-3.06-23.6-5.44-2-.64-3.74-4.57-4.2-7.23a179.66,179.66,0,0,1-1.92-19.37c-.27-4.26-2.18-6.67-6.37-7.69-5.79-1.42-11.5-3.17-17.92-5,.76,8.61,1.47,16.68,2.2,24.74.42,4.64,1.1,9.27,1.28,13.92.19,5.2,2.82,8.61,6.93,11.41,13.9,9.47,27.64,19.18,41.63,28.52,4.45,3,6.42,6.63,6.86,11.89,2.12,25.39,4.51,50.74,6.81,76.11.66,7.34-.07,8.44-7.25,10.58-7,2.09-14,4.25-21.08,6.13a7.14,7.14,0,0,1-5.08-.45c-12.89-8.16-26.47-9.13-40.71-4.42A23.21,23.21,0,0,1,1051.25,326.75Z"/><path d="M195.62,306.47c-12.22-4.36-23.31-8.36-34.43-12.28-14.29-5-28.57-10.06-42.91-14.93-3.12-1.06-4.36-2.6-4.6-6-1.67-23.89-3.34-47.8-5.53-71.65-2.52-27.53-5.68-55-8.38-82.5C97.4,94.91,95.28,70.68,93,46.47a65.12,65.12,0,0,0-1.1-8.91c-.9-3.78.17-5.94,4-6.76,6.17-1.31,12.33-2.7,18.48-4.07,4-.88,5.38,1,5.71,4.72,1.93,22.07,4.31,44.1,5.92,66.19,2.31,31.55,3.77,63.16,6.21,94.69,1.28,16.59,3.83,33.08,5.9,49.6.79,6.33,3.76,10,10.65,11.77,13.45,3.39,26.6,8,39.78,12.38a6.68,6.68,0,0,1,3.86,4.37c1.41,9.87,2.39,19.8,3.42,29.72A52.92,52.92,0,0,1,195.62,306.47Z"/><path d="M526.81,153.74c32,2.69,50.94,21.52,45.81,56.87C570,228.41,559.21,239.3,541,242.67c-4.38.81-8.31,3.91-12.53,5.75-1.28.57-3.36,1.17-4.22.55-18.55-13.19-32-29.58-30.13-53.89.57-7.4,3.93-14.6,6.14-21.86,1.25-4.09,2.66-8.14,4.18-12.14.51-1.36,1.37-3.39,2.41-3.62C514,155.91,521.19,154.74,526.81,153.74Z"/></g></g><path d="M1051.25,326.75s19.53,10.89,46.87,4.56c88.23-20.43-41.79-20.43-41.79-20.43"/></g></g></svg>