<svg id="Layer_1" data-name="Layer 1" xmlns="http://www.w3.org/2000/svg" viewBox="0 0 2258.06 1312"><defs><style>.cls-1{fill:#f1f1f1;}.cls-2{fill:#fff;}.cls-3{fill:#fefefe;}.cls-4{fill:#060606;}.cls-5{fill:#9c9c9c;}</style></defs><path class="cls-1" d="M582.84,65.07A74.54,74.54,0,0,0,530.21,12.4C483.79,0,297.64,0,297.64,0S111.49,0,65.06,12.4A74.53,74.53,0,0,0,12.44,65C0,111.49,0,208.4,0,208.4s0,96.86,12.44,143.27a74.56,74.56,0,0,0,52.62,52.64c46.43,12.43,232.58,12.43,232.58,12.43s186.15,0,232.57-12.43a74.56,74.56,0,0,0,52.63-52.64c12.43-46.46,12.43-143.27,12.43-143.27s0-96.86-12.43-143.28ZM238.11,297.64V119.05L392.76,208.4Z" transform="translate(737.01 715.72)"/><path d="M891.32-131.71c2.76,1.26,4.89,1.25,7.58-1.09,2-1.74,5.54-2.13,8.46-2.36,21-1.68,42.08-4.15,63.14-4.39,17-.2,34.1,1.54,50.94,4,17.67,2.55,35.07,7,52.61,10.52,20.57,4.14,35.48,16,46.7,33.35,5,7.79,10.24,15.53,16,22.8,7.17,9.07,17.59,12.69,28.57,13,15.62.48,31.28-.42,46.92-.64,26.27-.36,52.54-.56,78.81-1,24.77-.41,49.54-1.81,74.27-1.23,13,.31,25.56-2.65,38.5-1.81,17.19,1.13,34.43,1.39,51.64,1.87,2.22.06,4.46-.8,6.69-1.18a18.35,18.35,0,0,1,4.87-.66c11.54,1.26,23-1.44,34.47-.93,3.64.16,6.76,0,7.68,4.88.35,1.9,3.24,3.34,5.18,4.61,7.71,21.63,4.7,44.55,5.9,67.12.91,17.27.87,34.6.74,51.89,0,4.79-.46,12.19-3.28,13.76-4.45,2.47-6.59,9-13.49,7.9-5.51-.84-11.27.07-16.92.09-2.93,0-6.41,1.39-7.78-3.13-.19-.6-3.13-.87-4.52-.43-1,.33-1.58,2.08-3.13,4.32a76.1,76.1,0,0,0-7.62-3.41c-1.61-.55-3.91-1-5.21-.23-7.36,4.22-15.53,3.37-23.39,3.87-12.93.82-25.9,1.18-38.87,1.31-4.42,0-8.85-1.2-13.29-1.76-3.93-.49-7.88-1.27-11.81-1.19q-71.89,1.45-143.78,3.18c-17.47.42-35,.8-52.38,1.89-10.07.63-20.24,2.26-28.59,8.72-2.94,2.27-5.94,5.16-7.46,8.44-4.79,10.39-10.29,20.2-17.58,29.09-6.45,7.87-13.18,15.47-22.68,19.37-11.81,4.84-23.75,9.64-36,12.91a419,419,0,0,1-101.58,14c-23.36.36-46.57-1.3-69.38-6.19a30.57,30.57,0,0,1-22.43-18.87c-5.7-14.32-10.9-28.91-15.2-43.7-8.39-28.89-12.36-58.64-13.15-88.61C840.27-15.14,847-57.79,860-99.35c2.43-7.78,6.73-15.12,11.09-22.09s12.11-8.83,19.71-10.3c-11.5,5.7-20.13,14.24-24.32,26.44-3.38,9.87-6.09,20-8.67,30.12a361.09,361.09,0,0,0-11,104.3c.79,19.2,3.33,38.39,6.14,57.43,3.9,26.4,11,52,23,76,1.75,3.49,4.78,6.34,7.22,9.48-3.77-8.66-8.67-16.57-11.76-25.14a368.75,368.75,0,0,1-21.05-98.14,393.47,393.47,0,0,1,.66-66.22c1.72-18.15,5.25-36.16,8.67-54.1a211.45,211.45,0,0,1,7.94-28.72c4.2-12.25,11.23-22.58,23.11-28.9C891.26-129.46,891.15-130.85,891.32-131.71Zm298,134.38-74.15,2.05a12.53,12.53,0,0,0-.19,2.65c.78,4.71-1.39,6.15-5.85,6s-8.65.23-13,.47-9.09,1-8-6.14c.09-.62-1.67-1.51-2.57-2.27-.73.87-2.1,1.75-2.09,2.63,0,8,.39,16,.53,23.94.06,3.71,1.41,5.2,5.42,5,12.79-.7,25.61-1,38.41-1.52a7.77,7.77,0,0,0,2.09-.64c0-3.61.23-6.94-.06-10.23-.33-3.82.88-5.5,4.93-5.39,5,.13,10-.27,15-.37,3-.07,6,0,10,0L1145.89,33a5.87,5.87,0,0,0,3.78,1.15c16.13-.55,32.26-1.19,48.4-1.64,27.61-.77,55.23-1.39,82.83-2.24,1.08,0,3-1.71,3-2.67a179.76,179.76,0,0,0,0-20.37c-.3-4,1.28-4.62,4.45-4.52s6.47-1.08,6.23,4.32a174,174,0,0,0,.48,19c.09,1.36,1.51,3.69,2.44,3.76,5.24.37,10.52.18,15.33.18,0-8.66.06-16.28,0-23.89,0-2.7,1-4.44,3.73-3.93,4.09.76,9-2.64,12.27,2.22a1,1,0,0,1,.07.49V24.56c-3.15,0-6-.29-8.68.12-1.33.21-2.45,1.72-3.67,2.65,1.23.69,2.46,2,3.69,2,8.32,0,16.63-.25,25-.46,6.61-.17,6.61-.2,6.25-6.76-.47-8.44-.47-8.44,7.41-9.54a5.59,5.59,0,0,0,1.33-.58c0-4.35.29-8.68-.19-12.92-.13-1.18-2.48-2.95-3.87-3a85.8,85.8,0,0,0-13.87.63c-.91.11-2.18,2.18-2.25,3.4-.18,3.13.56,6.34.23,9.44-.12,1.11-2.14,2.43-3.53,2.8-.56.16-2.38-1.88-2.51-3.05A80.62,80.62,0,0,1,1334-.2c0-2.61-1.23-3.64-3.82-3.07a18.22,18.22,0,0,1-3.43.51c-22.78.61-45.57,1.27-68.36,1.67-3.64.07-4.79,1.35-4.38,4.7.18,1.49.2,3,.29,4.48.43,7.33.43,7.12-6.69,7.26-4.14.08-5.82-1.39-5.43-5.51.18-2-.34-4,0-6,.64-3.79-1.12-4.42-4.43-4.52-10.6-.32-10.59-.44-9.68,10.08,0,.17,0,.34,0,.5,1.08,4.49-.43,6.22-5.28,6.3-14.47.25-28.94,1-43.4,1.49a20.18,20.18,0,0,1-3.7-.8ZM890.69,20.17c1.54,22.22,2.73,41.12,4.2,60,.82,10.47,6.13,13.44,15.39,8.6,7.42-3.89,9.31-10.89,8.76-18.58-.67-9.63-2.37-19.21-2.56-28.84-.31-14.9.33-29.82.48-44.74.08-8.09.36-16.2-.17-24.26-.34-5.14-5.14-9.21-9.76-9.66-5.46-.52-8.28,1.33-10.76,7.38a20.59,20.59,0,0,0-1.5,5.75C893.26-8.35,891.85,7.49,890.69,20.17ZM983.44,33.6c-.16-1.29-.43-2.89-.54-4.5-.38-5.65-.78-11.3-1-17-.09-2.42-.58-3.65-3.43-3.5-8.47.45-17,.57-25.44.91-8.1.33-8.1.38-7.95,8.35.14,7.51.14,7.51-7.26,7.84-.27,0-.53.35-.75.51V40.93c3.28,0,6.1.18,8.89,0,10.53-.77,10.62-.82,10.3-11.49-.09-3,.89-4.34,3.87-4.42s5.39.05,5.39,4c0,3.61.3,7.21.46,10.5.56.36.69.53.83.52,27.94-.64,55.88-1.25,83.82-2.08,1.09,0,3-2.12,3-3.26,0-8.32-.21-16.65-.65-25-.06-1.1-1.76-2.11-2.69-3.16-.69,1.22-2,2.48-2,3.66.42,6.6.38,6.76-6.21,6.49-.83,0-1.66-.1-2.49-.18-3.52-.33-5.32.76-4.78,4.78.21,1.51-.63,4.39-1.49,4.6a19.65,19.65,0,0,1-8.82.28c-.95-.22-.87-3.78-1.78-5.54-.67-1.27-2.46-3.16-3.29-2.95-3.8,1-8.28-2.07-11.44,1.85-.39.49,0,1.62,0,2.45.06,2.33,0,4.67.18,7,.28,3.4-1,4.82-4.55,4.7C997.3,33.45,990.84,33.6,983.44,33.6Zm90.44-11.06h-.34c0-2,.08-4,0-6-.5-11.11,1.38-10.68-10.46-10.24-3.3.12-4.4.92-4.22,4.23.29,5.45.22,10.93.26,16.39.1,12.92,0,10.1,10.92,10.41,3.53.1,4.18-1.27,3.92-4.4C1073.65,29.52,1073.88,26,1073.88,22.54ZM913.34-39.64c8.74,12.06,9.82,14.43,8.68,25.7C919.4,11.87,921,37.53,923.81,63.2c.89,8,1.2,16.2-5.18,22.48-2.74,2.7-6.24,4.64-9.39,6.93.15.39.3.77.46,1.16,3.12-1.37,6.68-2.18,9.27-4.23,6.22-4.91,8.06-12,7.69-19.61-.3-6.13-1-12.26-1.23-18.39-.63-16.59-1.25-33.18-1.6-49.77-.18-8.61.69-17.26.2-25.84C923.65-30.56,920-35.63,913.34-39.64Z" transform="translate(737.01 715.72)"/><path class="cls-2" d="M891.32-131.71c-.17.86-.06,2.25-.55,2.51-11.88,6.32-18.91,16.65-23.11,28.9a211.45,211.45,0,0,0-7.94,28.72c-3.42,17.94-7,35.95-8.67,54.1a393.47,393.47,0,0,0-.66,66.22,368.75,368.75,0,0,0,21.05,98.14c3.09,8.57,8,16.48,11.76,25.14-2.44-3.14-5.47-6-7.22-9.48-12.05-24-19.13-49.59-23-76-2.81-19-5.35-38.23-6.14-57.43a361.09,361.09,0,0,1,11-104.3c2.58-10.12,5.29-20.25,8.67-30.12,4.19-12.2,12.82-20.74,24.32-26.44A2.36,2.36,0,0,0,891.32-131.71Z" transform="translate(737.01 715.72)"/><path class="cls-2" d="M1189.36,2.67l-13.6,14.25a20.18,20.18,0,0,0,3.7.8c14.46-.5,28.93-1.24,43.4-1.49,4.85-.08,6.36-1.81,5.28-6.3,0-.16,0-.33,0-.5-.91-10.52-.92-10.4,9.68-10.08,3.31.1,5.07.73,4.43,4.52-.33,1.93.19,4,0,6-.39,4.12,1.29,5.59,5.43,5.51,7.12-.14,7.12.07,6.69-7.26-.09-1.49-.11-3-.29-4.48-.41-3.35.74-4.63,4.38-4.7,22.79-.4,45.58-1.06,68.36-1.67a18.22,18.22,0,0,0,3.43-.51c2.59-.57,3.82.46,3.82,3.07a80.62,80.62,0,0,0,.09,9.46c.13,1.17,1.95,3.21,2.51,3.05,1.39-.37,3.41-1.69,3.53-2.8.33-3.1-.41-6.31-.23-9.44.07-1.22,1.34-3.29,2.25-3.4A85.8,85.8,0,0,1,1356.06-4c1.39.06,3.74,1.83,3.87,3,.48,4.24.19,8.57.19,12.92a5.59,5.59,0,0,1-1.33.58c-7.88,1.1-7.88,1.1-7.41,9.54.36,6.56.36,6.59-6.25,6.76-8.32.21-16.63.46-25,.46-1.23,0-2.46-1.29-3.69-2,1.22-.93,2.34-2.44,3.67-2.65,2.71-.41,5.53-.12,8.68-.12V4.82a1,1,0,0,0-.07-.49c-3.31-4.86-8.18-1.46-12.27-2.22-2.69-.51-3.76,1.23-3.73,3.93.1,7.61,0,15.23,0,23.89-4.81,0-10.09.19-15.33-.18-.93-.07-2.35-2.4-2.44-3.76a174,174,0,0,1-.48-19c.24-5.4-3.2-4.23-6.23-4.32s-4.75.57-4.45,4.52a179.76,179.76,0,0,1,0,20.37c0,1-1.94,2.64-3,2.67-27.6.85-55.22,1.47-82.83,2.24-16.14.45-32.27,1.09-48.4,1.64a5.87,5.87,0,0,1-3.78-1.15l13.84-14.22c-3.9,0-6.93-.05-10,0-5,.1-10,.5-15,.37-4-.11-5.26,1.57-4.93,5.39.29,3.29.06,6.62.06,10.23a7.77,7.77,0,0,1-2.09.64c-12.8.51-25.62.82-38.41,1.52-4,.22-5.36-1.27-5.42-5-.14-8-.48-16-.53-23.94,0-.88,1.36-1.76,2.09-2.63.9.76,2.66,1.65,2.57,2.27-1,7.1,3.61,6.38,8,6.14s8.66-.64,13-.47,6.63-1.26,5.85-6a12.53,12.53,0,0,1,.19-2.65ZM1184.66,24c3.19,2.81,32.47,2.36,35-.47C1208,23.22,1196.31,22.71,1184.66,24ZM1130.4,11.26c.07.71.13,1.43.2,2.14l24-1.44-.1-.7Z" transform="translate(737.01 715.72)"/><path class="cls-2" d="M983.44,33.6c7.4,0,13.86-.15,20.31.06,3.56.12,4.83-1.3,4.55-4.7-.19-2.32-.12-4.66-.18-7,0-.83-.43-2,0-2.45,3.16-3.92,7.64-.88,11.44-1.85.83-.21,2.62,1.68,3.29,2.95.91,1.76.83,5.32,1.78,5.54a19.65,19.65,0,0,0,8.82-.28c.86-.21,1.7-3.09,1.49-4.6-.54-4,1.26-5.11,4.78-4.78.83.08,1.66.15,2.49.18,6.59.27,6.63.11,6.21-6.49-.07-1.18,1.27-2.44,2-3.66.93,1,2.63,2.06,2.69,3.16.44,8.3.7,16.63.65,25,0,1.14-2,3.23-3,3.26-27.94.83-55.88,1.44-83.82,2.08-.14,0-.27-.16-.83-.52-.16-3.29-.45-6.89-.46-10.5,0-3.92-2.48-4.05-5.39-4s-4,1.43-3.87,4.42c.32,10.67.23,10.72-10.3,11.49-2.79.21-5.61,0-8.89,0V26.26c.22-.16.48-.5.75-.51,7.4-.33,7.4-.33,7.26-7.84-.15-8-.15-8,7.95-8.35,8.48-.34,17-.46,25.44-.91,2.85-.15,3.34,1.08,3.43,3.5.21,5.65.61,11.3,1,17C983,30.71,983.28,32.31,983.44,33.6Z" transform="translate(737.01 715.72)"/><path class="cls-2" d="M1073.88,22.54c0,3.48-.23,7,.07,10.43.26,3.13-.39,4.5-3.92,4.4-10.89-.31-10.82,2.51-10.92-10.41,0-5.46,0-10.94-.26-16.39-.18-3.31.92-4.11,4.22-4.23,11.84-.44,10-.87,10.46,10.24.09,2,0,4,0,6Z" transform="translate(737.01 715.72)"/><path class="cls-2" d="M913.34-39.64c6.61,4,10.31,9.08,10.69,15.57.49,8.58-.38,17.23-.2,25.84.35,16.59,1,33.18,1.6,49.77.23,6.13.93,12.26,1.23,18.39.37,7.66-1.47,14.7-7.69,19.61-2.59,2-6.15,2.86-9.27,4.23-.16-.39-.31-.77-.46-1.16,3.15-2.29,6.65-4.23,9.39-6.93,6.38-6.28,6.07-14.46,5.18-22.48C921,37.53,919.4,11.87,922-13.94,923.16-25.21,922.08-27.58,913.34-39.64Z" transform="translate(737.01 715.72)"/><path d="M1184.66,24c11.65-1.29,23.33-.78,35-.47C1217.13,26.36,1187.85,26.81,1184.66,24Z" transform="translate(737.01 715.72)"/><path d="M1130.4,11.26h24.12l.1.7-24,1.44C1130.53,12.69,1130.47,12,1130.4,11.26Z" transform="translate(737.01 715.72)"/><path class="cls-3" d="M-736.92-60.22q0-325.45-.09-650.91c0-3.75.84-4.59,4.59-4.59q651.41.15,1302.82,0c3.75,0,4.59.84,4.59,4.59q-.15,651.41,0,1302.82c0,3.75-.84,4.59-4.59,4.59q-651.4-.15-1302.82,0c-3.75,0-4.59-.84-4.59-4.59Q-736.86,265.74-736.92-60.22Zm597.19,337.86.09.11c1.33,3.51,4.83,1.21,7.25,2.73,5.64,3.55,12,2.62,18,.26h8.71c1.06,2.63,3.41,1.66,5.12,1.49,5-.52,10.36,1.55,15.13-1.52l13.87-.17c1.4,1.35,3.14.73,4.72.68,7.09-.19,14.26-1.32,21.25-.57,7.67.82,15.14-.18,22.67-.6,3.72-.21,7.61-.77,10.31-4,1.8,0,3.61-.12,5.41-.09,1.43,0,3-.15,2.67-1.94-.84-4.44,2.33-4.81,5.21-5.33,1.43-.26,2.53-.56,2.9-2.09,2.66-6.41,2.09-12.84.1-19.27-.13-2.49.12-5.08-.47-7.46-.94-3.82-1.45-7.42-.16-11.34.63-1.9.78-4.5-.53-6.29-1.57-2.15-1.5-4.45-1.22-6.68C3.52,198,1.7,180.27,3,162.64c.51-6.82.48-13.74-1.36-20.59s-.09-14.16-.19-21.25Q1,85.45.25,50.1C-.43,20.06-.44-10-1.21-40c-.31-11.81-1.15-23.66-.22-35.4C-.58-86.12,3-96.11,11.85-103.35c8.27-6.76,18-11.1,26.34-18.19,9.55-8.19,18.29-16.47,24.23-27.56,1.76-.85,2.84-2,1.68-4.05l3.18-11c1.78-.55,2.46-1.43.82-2.95-.19-2.93,1.31-5.41,2.13-8.07,2.8-.75,1.93-2.31.87-3.92.44-2,.89-4,1.34-5.92,1.55-.28,1.74-1,.63-2.07.56-2.93,1.11-5.86,1.67-8.79,2.78-2.33,2.68-5.16,1.42-8.19.5-1.94,1-3.89,1.48-5.83,2.66-1.39,2.06-3.22.7-5.15L79.46-225c3-2.14,1.41-4.94,1.07-7.56.32-1.83-.42-3.81.81-5.5.72,0,1.44-.25,1.44-1,0-5.68,1-11.39-.62-17L82.4-264c2.37-2.93,2.34-13.37-.06-17l-.1-12c1.48-1.36.71-3.12.8-4.71.43-7.53-1.17-14.88-2.1-22.28-1.27-10-2.31-20-5.65-29.65-.37-1.08-.35-2.38-2-2.33l-.27-4c1.26-4.47-2.3-10.19-7.13-11.45l-6.69-5.37c-.06-1.64-1-1.93-2.32-1.43a1.77,1.77,0,0,1-.76-.5c-.41-2.21-1.65-2.2-3.25-1.21l-7.48-3.06c-.18-1.5-.83-1.84-2-.81l-7.88-2.36c-2.66-2.15-5.6-3.39-9.1-2.69l-1.84-.41c-3.44-2.08-6.82-4.37-11.15-2.59l-2.81-.5A10.43,10.43,0,0,0,.4-390.66a47.77,47.77,0,0,1-4.95-.59c-18.65-4.2-37.65-5.88-56.64-7.12a270.22,270.22,0,0,0-42.74,1c-13.87,1.3-27.73,2.55-41.37,5.23-24,4.73-47.79,10.6-70.35,20.55a41.79,41.79,0,0,0-18,15.5,14.46,14.46,0,0,0-4.19,8.13c-3.21,15.27-5.69,30.72-6.14,46.3-.82,29.12.71,58.12,5.8,86.9,4.43,25.06,9.67,49.86,20.44,73.08,2.58,5.55,4.87,11.67,11,14.68l4.47,4.66c0,1.4.46,2.94,1.58,3.48,7.08,3.39,12.17,9.63,19.29,13,10.09,4.8,20.76,9,26.36,19.88l.3,2.77c.09,2.92.21,5.82,2.6,8,.1.85.2,1.7.31,2.54-.85,1.53-.77,2.81,1,3.62l.36,5.81c-1.59,3.81-.91,7.84-.51,11.65.71,6.77-.36,13.71,1.85,20.33q.21,12.49.43,25c-1.5,8.05-.25,16.14-.32,24.21a1.72,1.72,0,0,0,1.25,1.9l.06,1.87c-.25.57-.73,1.15-.72,1.72q.61,35.82,1.32,71.63c0,1,0,2,1.11,2.56l.26,24.52a47.28,47.28,0,0,0-.06,16.9c.93,4.38-3.53,7-3.27,11.52,1,16.86,1.38,33.75,2,50.62-.53,6.61-1.3,13.26,4.11,18.55l.06,3.57c-4.78.91-3.48,5.44-4.69,8.34-1.06,2.54,1.66,2.85,3.37,3.81s1.18,2.42-.35,3.46c-4,2.72-3.44,6.17-1.54,9.82.11,4.6.5,9.22.23,13.8-.28,4.78.07,8.87,5.37,10.77.85.3.83,1.31.63,2.16C-141.29,276.29-141.72,277-139.73,277.64Z" transform="translate(737.01 715.72)"/><path class="cls-4" d="M-139.86,275.48c.2-.85.22-1.86-.63-2.16-5.3-1.9-5.65-6-5.37-10.77.27-4.58-.12-9.2-.23-13.8-.12-5,.67-9.34,8.25-8.53-6.09-5.25-5.24-11.15-5-16.9l-.06-3.57c.5-6.6-3.64-12.16-4.11-18.55-.63-16.87-1-33.76-2-50.62-.26-4.49,4.2-7.14,3.27-11.52,2.08-5.62,1.48-11.26.06-16.9L-146,97.64c1.32-1.61.64-3.5.61-5.25-.39-20.34-.8-40.69-1.35-61-.09-3.2,1-6.59-1-9.62l-.06-1.87c.63-8.73,1-17.46-.93-26.11q-.21-12.49-.43-25c1.37-10.73-.3-21.34-1.34-32l-.36-5.81a2.84,2.84,0,0,0-1-3.62c-.11-.84-.21-1.69-.31-2.54-.24-2.87-.07-5.86-2.6-8l-.3-2.77c.43-1.42-.32-2.45-1-3.64-4-7.27-10.15-12.36-17.19-16.41-9.63-5.55-19.37-10.9-29.06-16.33l-4.47-4.66c-3.29-5-6.86-9.87-9.45-15.35-6.76-14.27-11.1-29.3-14.64-44.65a421.73,421.73,0,0,1-10.09-67.44,373.77,373.77,0,0,1-.24-42.34c.69-14.28,1.82-28.5,5.33-42.35,2.53-10,8.21-17.7,17.79-22.59,14.3-7.3,29.59-11.63,44.91-15.87a324.45,324.45,0,0,1,58.84-10.36c17.58-1.52,35.11-2.78,52.78-1.87,2.44.13,4.22,3.13,6,1.79,3.34-2.46,6.75-1.44,10-1.07,21.88,2.48,43.63,5.58,65,11.1,11.32,2.93,22.7,5.35,33.17,10.73,9,4.63,15.86,11.73,19.06,21.13a171.91,171.91,0,0,1,8.72,42.58c.26,3.46-.62,7.34,1.7,10.55l.1,12c-.89,5.67-.43,11.35.06,17L82.16-256c-2.53,5.89-1,12-.82,18-1.23,1.69-.49,3.67-.81,5.5-2.17,2.26-.89,5-1.07,7.56-.37,3.31-.74,6.61-1.12,9.92-1.6,1.53-1.5,3.29-.7,5.15-.49,1.94-1,3.89-1.48,5.83-1.63,2.53-1.28,5.4-1.42,8.19-.56,2.93-1.11,5.86-1.67,8.79a1.48,1.48,0,0,0-.63,2.07c-.45,2-.9,4-1.34,5.92-1.54,1-1.13,2.49-.87,3.92-.82,2.66-2.32,5.14-2.13,8.07-1.28.7-1.16,1.8-.82,2.95l-3.18,11a4,4,0,0,0-1.68,4.05C56.48-138,47.74-129.73,38.19-121.54c-8.29,7.09-18.07,11.43-26.34,18.19C3-96.11-.58-86.12-1.43-75.43c-.93,11.74-.09,23.59.22,35.4C-.44-10-.43,20.06.25,50.1Q1,85.46,1.47,120.8c.1,7.09-1.66,14.31.19,21.25S3.53,155.82,3,162.64c-1.32,17.63.5,35.34-1.67,52.93-.28,2.23-.35,4.53,1.22,6.68,1.31,1.79,1.16,4.39.53,6.29-1.29,3.92-.78,7.52.16,11.34.59,2.38.34,5,.47,7.46q0,9.63-.1,19.27c-.37,1.53-1.47,1.83-2.9,2.09-2.88.52-6.05.89-5.21,5.33.34,1.79-1.24,2-2.67,1.94-1.8,0-3.61,0-5.41.09-.27-.15-.61-.48-.8-.4-10.09,3.93-20.59,3.3-31.13,3.29-9,0-18.09-.15-27,1.59l-13.87.17c-6.75-.75-13.5-.39-20.25,0h-8.71c-8.62.56-16.82-2.41-25.3-3l-.09-.11A1.72,1.72,0,0,0-139.86,275.48Zm73.07-592.07c7.86,1.93,16,1.27,23.94,2.11a30.78,30.78,0,0,0,17.74-3.33c5.33-2.79,9.31-8.31,9.07-13.81-2.05.94-1.77,3.56-3.51,4.63-1,.62-1.56,3-3.3.87-.09-2.34,3.32-3,2.66-5.63A8.44,8.44,0,0,0-18-341.28c-1.57-3.58-5.31-5.29-9.28-5.65-7.89-.7-15.78-1.56-23.69-1.79-5.16-.16-10.44-1.41-15.54.61-2.66-.77-5.31,0-8,0a55.65,55.65,0,0,0-24,.35l-6.76.36c-4.29-.8-8.59-1.74-12.59,1-3.84.18-7.73-.51-11.52.61-5.07-1-10,.17-15,.94a3.69,3.69,0,0,0-3.36,3.61c-1.76,2.63-.8,5.46-.6,8.23-3.75-1.11-4,2-3.71,3.91a14.89,14.89,0,0,0,3.61,7.77c6.64,7.26,14.89,9.33,24.31,8.68,14.72-1,29.36-3.15,44.16-3.07,3.85,0,7.89.86,11.63-1Zm-7.3,253.44L-63-52.22c.84.83,1.84,1.79,3,1.37s1.12-1.82,1-3c-2.4-22.54-1.08-45.21-2.22-67.8-.16-3.12-.67-4.37-3.9-3.66s-4.85-.39-4.8-4.09c.08-5-.29-10-.67-14.95-.33-4.26-.25-7.76,5.71-6.74,1.95.34,3-1.07,2.88-3.14s-1-3-3.16-2.92c-8.31.29-16.63.59-24.94.72-3.64.05-4.82,1.54-4.66,5.18.58,13,1,25.93,1.25,38.9.06,2.95,1.14,3.73,4,3.41,3.13-.36,6.31-.25,9.47-.39,1.5-.07,2.73.22,2.74,2,0,8.23,0,16.46,0,25.15q-5.62-5.49-11.21-11c-.73-.7-1.49-1.58-2.55-1.23-1.39.45-1.23,1.78-1.2,2.95.25,8.15.37,16.3.75,24.44,1.7,35.9,2.28,71.84,3.07,107.76.08,3.42,1.26,4.66,4.36,4.14,6.64-1.11,13.28.4,19.89-.07,4.12-.3,3.52,2.32,3.69,4.79.19,2.69-.22,4.33-3.64,4.31-6.65,0-13.3.54-19.95.63-3.05,0-4.11,1.14-3.88,4.18a102.09,102.09,0,0,1,.25,11.47c-.11,3.15.71,4.48,4.23,4.22,6.46-.48,13-.44,19.45-.6,1.68,0,3.61-.21,3.74,2.16.2,3.78,1.47,8-.55,11.21-1.54,2.44-5.28.57-8,.92a29.46,29.46,0,0,1-4,.12c-8.4-.1-8.4,1.9-8.26-8.15,0-2.55-.35-4.16-3.43-4.1s-2.85,2-2.8,4.11c.17,7.14.33,14.28.44,21.42.16,10.84.15,11,10.87,10.45,3.78-.19,5.85.71,5.31,4.85-.51,3.92,1.41,5,5,4.54a58.49,58.49,0,0,1,9-.37c3.47.14,4.3-1.63,4.17-4.63-.19-4.64-.27-9.28-.35-13.92,0-2.47-1.5-3.08-3.61-3-3.16.11-6.32.2-9.48.3-1.71.06-3-.42-3-2.42,0-1.73,1.15-2.22,2.65-2.26A12.14,12.14,0,0,0-63.9,95c3.08-.7,6.62.84,9.27-1,3.43-2.42.34-5.91.32-8.82-.1-20.62-.55-41.24-1.17-61.85C-55.76,13.68-56,13.62-66,14c-3.8.13-6.62.28-6.3-5.22C-72,4.4-70.89,2.66-66.49,3.2c2.29.29,4.65,0,7,.11s3.2-.65,3.43-3.06C-54.81-12.83-54.93-13-67.92-12.22c-.5,0-1,0-1.5.1-2.4.32-3.23-.81-3.29-3.12C-73.11-30.81-73.6-46.37-74.09-63.15Zm-23.85-167h2v40.4c0,2.23-.26,4.39,3.17,4.27,8.81-.33,17.64-.48,26.46-.68,2.21,0,3.5-.93,3.16-3.37s-1.4-3.33-4.07-3c-6.65.87-6.71.69-6.11-6,.59-6.55.52-6.71-6.35-7-5.66-.23-2.56-4.72-3.49-7.18s.47-3.91,3.08-3.59c5.24.63,6.95-1.67,6-6.63a15,15,0,0,1-.06-4.49c.44-3.82-.68-5.71-5-4.91-2.26.43-4.66.09-7,.28-3,.25-4.13-1-4-4.05a155.57,155.57,0,0,0-.18-16.45c-.25-3,.5-3.75,3.32-3.82,6-.13,12-.68,18-.82,2.78-.06,3.91-1,3.79-3.85-.4-9.13-.57-18.28-1-27.42-.32-7.14-.43-7.14-7.4-7-2,.05-4,0-6,.27s-3.08-.69-2.65-2.48c1.59-6.56-2.15-6.46-6.9-6.19-10.32.59-10.33.43-9.74,10.68.63,10.88.63,10.95,11.16,10.25,2.68-.18,4.59-.06,4.72,3.32.13,3.09-.91,4.72-4.2,4.67-2.16,0-4.36.53-6.47.29-3.73-.42-4.33,1.17-4.28,4.55C-97.82-256.73-97.94-243.42-97.94-230.11ZM-126.08,222h.16c0,10.47-.1,20.95,0,31.42.08,6.8,5.27,11.2,13.06,11.42,5,.15,10.63-5.42,10.86-10.82.4-9.39-.63-18.75-.26-28.18.45-11.15-.4-22.34-.62-33.52-.15-7.57-4.18-11.75-11.57-11.86-7.64-.11-11.51,3.61-11.63,11.62C-126.19,202-126.08,212-126.08,222Zm109-6.67h-.08c0-8,0-15.94,0-23.92,0-6.68-4.43-11.5-10.79-11.67-7.85-.21-12.07,3.36-12,11.05,0,7.94-.71,15.83-.35,23.8.57,12.77.26,25.58.42,38.37.08,6.49,5.38,11.09,12.16,11.09,5.69,0,11.11-4.56,10.83-10.94C-17.42,240.53-17,227.92-17,215.32Zm-76,1.79c-.42,11.8.44,23.56.94,35.33a5.78,5.78,0,0,0,1.67,4.4c3.32,3.3,7.34,3.49,11.07,2.08,3.5-1.33,5.07-4.84,5.44-8.65.87-9-1.7-17.88-.64-26.8,1.13-9.48-.07-18.86-.27-28.29-.12-5.81-3.26-8.69-9.12-8.73s-9,2.88-9.06,8.74C-93.06,202.5-93,209.81-93,217.11Zm43.35,9.44c-.24-10.63.09-21.25-1-31.87-.54-5.39-3.47-8.86-8.16-8.78-5.38.08-9.15,3.65-9.33,8.89-.65,18.58.12,37.14.79,55.7.21,6,3.45,9.07,9,9,5.25-.11,8.6-3.67,8.66-9.46C-49.6,242.18-49.66,234.36-49.66,226.55ZM-78.72-165.79c3,0,7.36-.09,11.66,0,2.75.08,4.26-1.2,4-3.77-.33-4,1.82-8.51-1.74-12.07-.27-.27-1-.18-1.45-.17l-26.32.76c-2.2.06-3.77,1.15-3.13,3.38,1.17,4.1-2,9,2.33,12.39.6.47,1.93,0,2.92,0Z" transform="translate(737.01 715.72)"/><path class="cls-5" d="M82.24-293c-2.32-3.21-1.44-7.09-1.7-10.55a171.91,171.91,0,0,0-8.72-42.58c-3.2-9.4-10.06-16.5-19.06-21.13-10.47-5.38-21.85-7.8-33.17-10.73-21.41-5.52-43.16-8.62-65-11.1-3.27-.37-6.68-1.39-10,1.07-1.8,1.34-3.58-1.66-6-1.79-17.67-.91-35.2.35-52.78,1.87a324.45,324.45,0,0,0-58.84,10.36c-15.32,4.24-30.61,8.57-44.91,15.87-9.58,4.89-15.26,12.62-17.79,22.59-3.51,13.85-4.64,28.07-5.33,42.35a373.77,373.77,0,0,0,.24,42.34A421.73,421.73,0,0,0-230.81-187c3.54,15.35,7.88,30.38,14.64,44.65,2.59,5.48,6.16,10.32,9.45,15.35-6.17-3-8.46-9.13-11-14.68-10.77-23.22-16-48-20.44-73.08-5.09-28.78-6.62-57.78-5.8-86.9.45-15.58,2.93-31,6.14-46.3a14.46,14.46,0,0,1,4.19-8.13c.49,1-1,2.24.63,3.35,2.36-2.27,4-5.22,6.62-7.45,7.35-6.24,16.26-9.53,24.9-12.57,9.88-3.47,20.15-6.09,30.26-9,23.51-6.82,47.77-9.27,72-11.25,22.08-1.8,44.17-.68,66.18,1.51,15.91,1.57,31.41,5.32,47,8.8,11.81,2.63,23.81,4.44,35.06,9.23C59.5-369,67.75-362,73.29-352c1.65,0,1.63,1.25,2,2.33C78.63-340,79.67-330,80.94-320c.93,7.4,2.53,14.75,2.1,22.28C83-296.12,83.72-294.36,82.24-293Z" transform="translate(737.01 715.72)"/><path class="cls-4" d="M73.29-352C67.75-362,59.5-369,49-373.49c-11.25-4.79-23.25-6.6-35.06-9.23-15.57-3.48-31.07-7.23-47-8.8-22-2.19-44.1-3.31-66.18-1.51-24.26,2-48.52,4.43-72,11.25-10.11,2.94-20.38,5.56-30.26,9-8.64,3-17.55,6.33-24.9,12.57-2.63,2.23-4.26,5.18-6.62,7.45-1.62-1.11-.14-2.34-.63-3.35a41.79,41.79,0,0,1,18-15.5c22.56-9.95,46.31-15.82,70.35-20.55,13.64-2.68,27.5-3.93,41.37-5.23a270.22,270.22,0,0,1,42.74-1c19,1.24,38,2.92,56.64,7.12a47.77,47.77,0,0,0,5,.59c3.12,2,6.66,2.14,10.19,2.35l2.81.5a27.38,27.38,0,0,0,11.15,2.59l1.84.41a16.51,16.51,0,0,0,9.1,2.69l7.88,2.36a1.34,1.34,0,0,0,2,.81l7.48,3.06a2.55,2.55,0,0,0,3.25,1.21,1.77,1.77,0,0,0,.76.5c.41,1.07,1,1.82,2.32,1.43l6.69,5.37q3.57,5.73,7.13,11.45Z" transform="translate(737.01 715.72)"/><path class="cls-5" d="M-202.25-122.33c9.69,5.43,19.43,10.78,29.06,16.33,7,4,13.16,9.14,17.19,16.41.66,1.19,1.41,2.22,1,3.64-5.6-10.84-16.27-15.08-26.36-19.88-7.12-3.39-12.21-9.63-19.29-13C-201.79-119.39-202.23-120.93-202.25-122.33Z" transform="translate(737.01 715.72)"/><path class="cls-5" d="M-147.7,21.73c2,3,.88,6.42,1,9.62.55,20.35,1,40.7,1.35,61,0,1.75.71,3.64-.61,5.25-1.08-.55-1.09-1.57-1.11-2.56q-.68-35.82-1.32-71.63C-148.43,22.88-147.95,22.3-147.7,21.73Z" transform="translate(737.01 715.72)"/><path class="cls-5" d="M-71.51,280.54c8.93-1.74,18-1.6,27-1.59,10.54,0,21,.64,31.13-3.29.19-.08.53.25.8.4-2.7,3.22-6.59,3.78-10.31,4-7.53.42-15,1.42-22.67.6-7-.75-14.16.38-21.25.57C-68.37,281.27-70.11,281.89-71.51,280.54Z" transform="translate(737.01 715.72)"/><path class="cls-5" d="M-142.88,223.32c-.2,5.75-1.05,11.65,5,16.9-7.58-.81-8.37,3.51-8.25,8.53-1.9-3.65-2.46-7.1,1.54-9.82,1.53-1,2.06-2.5.35-3.46s-4.43-1.27-3.37-3.81C-146.36,228.76-147.66,224.23-142.88,223.32Z" transform="translate(737.01 715.72)"/><path class="cls-5" d="M-150.46-63.22c1,10.64,2.71,21.25,1.34,32-2.21-6.62-1.14-13.56-1.85-20.33C-151.37-55.38-152-59.41-150.46-63.22Z" transform="translate(737.01 715.72)"/><path class="cls-5" d="M-139.64,277.75c8.48.58,16.68,3.55,25.3,3-6.07,2.36-12.41,3.29-18-.26C-134.81,279-138.31,281.26-139.64,277.75Z" transform="translate(737.01 715.72)"/><path class="cls-5" d="M-148.69-6.25c1.9,8.65,1.56,17.38.93,26.11A1.72,1.72,0,0,1-149,18C-148.94,9.89-150.19,1.8-148.69-6.25Z" transform="translate(737.01 715.72)"/><path class="cls-5" d="M-147,201.2c.47,6.39,4.61,12,4.11,18.55C-148.35,214.46-147.58,207.81-147,201.2Z" transform="translate(737.01 715.72)"/><path class="cls-5" d="M-105.63,280.74c6.75-.42,13.5-.78,20.25,0-4.77,3.07-10.09,1-15.13,1.52C-102.22,282.4-104.57,283.37-105.63,280.74Z" transform="translate(737.01 715.72)"/><path class="cls-5" d="M3.63,266.61q.06-9.64.1-19.27C5.72,253.77,6.29,260.2,3.63,266.61Z" transform="translate(737.01 715.72)"/><path class="cls-5" d="M81.34-238.06c-.16-6-1.71-12.1.82-18,1.59,5.62.61,11.33.62,17C82.78-238.31,82.06-238,81.34-238.06Z" transform="translate(737.01 715.72)"/><path class="cls-5" d="M82.4-264c-.49-5.67-1-11.35-.06-17C84.74-277.37,84.77-266.93,82.4-264Z" transform="translate(737.01 715.72)"/><path class="cls-5" d="M-145.73,122.16c1.42,5.64,2,11.28-.06,16.9A47.28,47.28,0,0,1-145.73,122.16Z" transform="translate(737.01 715.72)"/><path class="cls-5" d="M73-355.93q-3.55-5.73-7.13-11.45C70.72-366.12,74.28-360.4,73-355.93Z" transform="translate(737.01 715.72)"/><path class="cls-5" d="M24.55-385.22a27.38,27.38,0,0,1-11.15-2.59C17.73-389.59,21.11-387.3,24.55-385.22Z" transform="translate(737.01 715.72)"/><path class="cls-5" d="M10.59-388.31c-3.53-.21-7.07-.36-10.19-2.35A10.43,10.43,0,0,1,10.59-388.31Z" transform="translate(737.01 715.72)"/><path class="cls-5" d="M74.74-195.91c.14-2.79-.21-5.66,1.42-8.19C77.42-201.07,77.52-198.24,74.74-195.91Z" transform="translate(737.01 715.72)"/><path class="cls-5" d="M35.49-382.12a16.51,16.51,0,0,1-9.1-2.69C29.89-385.51,32.83-384.27,35.49-382.12Z" transform="translate(737.01 715.72)"/><path class="cls-5" d="M-154.72-83.18c2.53,2.13,2.36,5.12,2.6,8C-154.51-77.36-154.63-80.26-154.72-83.18Z" transform="translate(737.01 715.72)"/><path class="cls-5" d="M79.46-225c.18-2.54-1.1-5.3,1.07-7.56C80.87-229.94,82.47-227.14,79.46-225Z" transform="translate(737.01 715.72)"/><path class="cls-5" d="M77.64-209.93c-.8-1.86-.9-3.62.7-5.15C79.7-213.15,80.3-211.32,77.64-209.93Z" transform="translate(737.01 715.72)"/><path class="cls-5" d="M70.23-175.21c-.26-1.43-.67-2.89.87-3.92C72.16-177.52,73-176,70.23-175.21Z" transform="translate(737.01 715.72)"/><path class="cls-5" d="M62.42-149.1a4,4,0,0,1,1.68-4.05C65.26-151.09,64.18-149.95,62.42-149.1Z" transform="translate(737.01 715.72)"/><path class="cls-5" d="M-151.81-72.65a2.84,2.84,0,0,1,1,3.62C-152.58-69.84-152.66-71.12-151.81-72.65Z" transform="translate(737.01 715.72)"/><path class="cls-5" d="M56.12-374.68a2.55,2.55,0,0,1-3.25-1.21C54.47-376.88,55.71-376.89,56.12-374.68Z" transform="translate(737.01 715.72)"/><path class="cls-5" d="M67.28-164.19c-.34-1.15-.46-2.25.82-2.95C69.74-165.62,69.06-164.74,67.28-164.19Z" transform="translate(737.01 715.72)"/><path class="cls-5" d="M45.39-378.95a1.34,1.34,0,0,1-2-.81C44.56-380.79,45.21-380.45,45.39-378.95Z" transform="translate(737.01 715.72)"/><path class="cls-5" d="M59.2-372.75c-1.3.39-1.91-.36-2.32-1.43C58.25-374.68,59.14-374.39,59.2-372.75Z" transform="translate(737.01 715.72)"/><path class="cls-5" d="M-139.86,275.48a1.72,1.72,0,0,1,.13,2.16C-141.72,277-141.29,276.29-139.86,275.48Z" transform="translate(737.01 715.72)"/><path class="cls-5" d="M72.44-185a1.48,1.48,0,0,1,.63-2.07C74.18-186,74-185.33,72.44-185Z" transform="translate(737.01 715.72)"/><path class="cls-5" d="M-74.09-63.15c.49,16.78,1,32.34,1.38,47.91.06,2.31.89,3.44,3.29,3.12.5-.06,1-.07,1.5-.1,13-.8,13.11-.61,11.84,12.47-.23,2.41-1.17,3.18-3.43,3.06s-4.69.18-7-.11c-4.4-.54-5.52,1.2-5.78,5.55-.32,5.5,2.5,5.35,6.3,5.22,9.92-.35,10.21-.29,10.49,9.32.62,20.61,1.07,41.23,1.17,61.85,0,2.91,3.11,6.4-.32,8.82-2.65,1.87-6.19.33-9.27,1a12.14,12.14,0,0,1-2.49.08c-1.5,0-2.63.53-2.65,2.26,0,2,1.26,2.48,3,2.42,3.16-.1,6.32-.19,9.48-.3,2.11-.08,3.57.53,3.61,3,.08,4.64.16,9.28.35,13.92.13,3-.7,4.77-4.17,4.63a58.49,58.49,0,0,0-9,.37c-3.58.41-5.5-.62-5-4.54.54-4.14-1.53-5-5.31-4.85-10.72.52-10.71.39-10.87-10.45-.11-7.14-.27-14.28-.44-21.42-.05-2.07-.31-4,2.8-4.11s3.47,1.55,3.43,4.1c-.14,10.05-.14,8.05,8.26,8.15a29.46,29.46,0,0,0,4-.12c2.73-.35,6.47,1.52,8-.92,2-3.21.75-7.43.55-11.21-.13-2.37-2.06-2.2-3.74-2.16-6.49.16-13,.12-19.45.6-3.52.26-4.34-1.07-4.23-4.22A102.09,102.09,0,0,0-88,58.75c-.23-3,.83-4.15,3.88-4.18,6.65-.09,13.3-.66,19.95-.63,3.42,0,3.83-1.62,3.64-4.31-.17-2.47.43-5.09-3.69-4.79-6.61.47-13.25-1-19.89.07-3.1.52-4.28-.72-4.36-4.14C-89.27,4.85-89.85-31.09-91.55-67c-.38-8.14-.5-16.29-.75-24.44,0-1.17-.19-2.5,1.2-2.95,1.06-.35,1.82.53,2.55,1.23q5.58,5.48,11.21,11c0-8.69,0-16.92,0-25.15,0-1.8-1.24-2.09-2.74-2-3.16.14-6.34,0-9.47.39-2.81.32-3.89-.46-4-3.41-.29-13-.67-25.94-1.25-38.9-.16-3.64,1-5.13,4.66-5.18,8.31-.13,16.63-.43,24.94-.72,2.12-.07,3,.89,3.16,2.92s-.93,3.48-2.88,3.14c-6-1-6,2.48-5.71,6.74.38,5,.75,10,.67,14.95,0,3.7,1.52,4.8,4.8,4.09s3.74.54,3.9,3.66c1.14,22.59-.18,45.26,2.22,67.8.13,1.21.32,2.56-1,3s-2.17-.54-3-1.37ZM-81.72-20.6c.76-11.29,1.43-22.62-.55-33.91C-81.65-43.21-84.4-31.91-81.72-20.6Z" transform="translate(737.01 715.72)"/><path class="cls-3" d="M-129.34-345.74c3.79-1.12,7.68-.43,11.52-.61,4.27.54,8.58,1.58,12.59-1l6.76-.36c4.92,1.76,10,.38,15,.56,2.95.1,6.19,1.22,9-.91,2.66,0,5.31-.79,8,0,.93,1.81,2.63,1.1,4,1.07,10.59-.23,20.95,1.66,31.3,3.45,5.87,1,8.63,4.2,9.63,10.06.15.89.46,1.58,1.43,1.78.66,2.6-2.75,3.29-2.66,5.63l.15.07a29.13,29.13,0,0,1-17.36,4c-15-1-29.86-3.34-44.93-2.39-13.58.86-27.16,1.65-40.67,3.4-10.64,1.38-18.22-2.37-21.68-10.24.37-.95.29-1.64-.94-1.7-.2-2.77-1.16-5.6.6-8.23,5.54-1.51,11-3.49,16.9-2.94C-129.92-344-129.35-344.78-129.34-345.74Z" transform="translate(737.01 715.72)"/><path class="cls-5" d="M-97.94-230.11c0-13.31.12-26.62-.09-39.92,0-3.38.55-5,4.28-4.55,2.11.24,4.31-.32,6.47-.29,3.29.05,4.33-1.58,4.2-4.67-.13-3.38-2-3.5-4.72-3.32-10.53.7-10.53.63-11.16-10.25-.59-10.25-.58-10.09,9.74-10.68,4.75-.27,8.49-.37,6.9,6.19-.43,1.79.63,2.72,2.65,2.48s4-.22,6-.27c7-.17,7.08-.17,7.4,7,.41,9.14.58,18.29,1,27.42.12,2.85-1,3.79-3.79,3.85-6,.14-12,.69-18,.82-2.82.07-3.57.83-3.32,3.82a155.57,155.57,0,0,1,.18,16.45c-.08,3,1,4.3,4,4.05,2.32-.19,4.72.15,7-.28,4.28-.8,5.4,1.09,5,4.91a15,15,0,0,0,.06,4.49c1,5-.75,7.26-6,6.63-2.61-.32-4,1.19-3.08,3.59s-2.17,6.95,3.49,7.18c6.87.27,6.94.43,6.35,7-.6,6.73-.54,6.91,6.11,6,2.67-.35,3.74.58,4.07,3s-1,3.32-3.16,3.37c-8.82.2-17.65.35-26.46.68-3.43.12-3.18-2-3.17-4.27v-40.4Z" transform="translate(737.01 715.72)"/><path class="cls-2" d="M1466.07,68c-10,0-20,.11-29.92,0-8-.11-11.73-4-11.62-11.62.11-7.4,4.29-11.42,11.86-11.57,11.18-.23,22.37-1.07,33.52-.63,9.43.38,18.79-.66,28.18-.26,5.4.23,11,5.82,10.82,10.87-.22,7.78-4.62,13-11.42,13.06-10.47.12-21,0-31.42,0Z" transform="translate(737.01 715.72)"/><path class="cls-2" d="M1459.4-41c12.59,0,25.21.38,37.78-.16,6.38-.28,10.94,5.14,10.94,10.82,0,6.79-4.6,12.08-11.09,12.17-12.79.16-25.6-.15-38.37.42-8,.36-15.86-.38-23.8-.35-7.69,0-11.26-4.19-11-12,.17-6.36,5-10.8,11.67-10.79,8,0,16,0,23.92,0Z" transform="translate(737.01 715.72)"/><path class="cls-2" d="M1461.19,34.91c-7.3,0-14.61.05-21.92,0-5.86-.06-8.77-3.16-8.74-9.06s2.92-9,8.73-9.12c9.42-.2,18.81-1.4,28.29-.27,8.92,1.06,17.83-1.52,26.8-.64,3.81.37,7.32,1.93,8.65,5.44,1.41,3.73,1.22,7.75-2.08,11.07a5.78,5.78,0,0,1-4.4,1.67C1484.75,34.48,1473,35.34,1461.19,34.91Z" transform="translate(737.01 715.72)"/><path class="cls-2" d="M1470.63-8.43c7.81,0,15.63-.06,23.44,0,5.79.06,9.35,3.41,9.46,8.66.11,5.56-3,8.8-9,9-18.56.67-37.12,1.44-55.7.79-5.24-.18-8.81-4-8.89-9.33-.08-4.69,3.39-7.62,8.78-8.17C1449.38-8.52,1460-8.2,1470.63-8.43Z" transform="translate(737.01 715.72)"/><path class="cls-5" d="M-78.72-165.79l-11.69.53c-1,0-2.32.5-2.92,0-4.31-3.37-1.16-8.29-2.33-12.39-.64-2.23.93-3.32,3.13-3.38l26.32-.76c.49,0,1.18-.1,1.45.17,3.56,3.56,1.41,8,1.74,12.07.22,2.57-1.29,3.85-4,3.77C-71.36-165.88-75.67-165.79-78.72-165.79Z" transform="translate(737.01 715.72)"/><path class="cls-5" d="M-148.28-333c1.23.06,1.31.75.94,1.7-1.27,1.67-.18,3.17.42,4.63,2.54,6.15,10.57,10.91,18.6,10.45,10.57-.59,21.12-1.76,31.69-2.49,9.36-.64,18.71-2.08,28.11-.46l-2.24,1.58,2.48.9c-3.74,1.84-7.78,1-11.63,1-14.8-.08-29.44,2-44.16,3.07-9.42.65-17.67-1.42-24.31-8.68A14.89,14.89,0,0,1-152-329C-152.31-330.92-152-334.07-148.28-333Z" transform="translate(737.01 715.72)"/><path class="cls-5" d="M-22.85-326.12c1.74,2.14,2.29-.25,3.3-.87,1.74-1.07,1.46-3.69,3.51-4.63.24,5.5-3.74,11-9.07,13.81a30.78,30.78,0,0,1-17.74,3.33c-8-.84-16.08-.18-23.94-2.11,2.74-1.11,5.59,0,8.35-.36,2.31-.28,5.07,1.26,6.84-1.5,5.9.09,11.8.22,17.71.27,5.29,0,10.67-3.79,11.19-7.86Z" transform="translate(737.01 715.72)"/><path class="cls-5" d="M-20.19-331.75c-1-.2-1.28-.89-1.43-1.78-1-5.86-3.76-9-9.63-10.06C-41.6-345.38-52-347.27-62.55-347c-1.36,0-3.06.74-4-1.07,5.1-2,10.38-.77,15.54-.61,7.91.23,15.8,1.09,23.69,1.79,4,.36,7.71,2.07,9.28,5.65A8.44,8.44,0,0,1-20.19-331.75Z" transform="translate(737.01 715.72)"/><path class="cls-5" d="M-74.51-348.09c-2.79,2.13-6,1-9,.91-5-.18-10.06,1.2-15-.56A55.65,55.65,0,0,1-74.51-348.09Z" transform="translate(737.01 715.72)"/><path class="cls-5" d="M-129.34-345.74c0,1-.58,1.69-1.44,1.61-5.91-.55-11.36,1.43-16.9,2.94a3.69,3.69,0,0,1,3.36-3.61C-139.37-345.57-134.41-346.77-129.34-345.74Z" transform="translate(737.01 715.72)"/><path class="cls-3" d="M-51.6-318.45c-1.77,2.76-4.53,1.22-6.84,1.5-2.76.33-5.61-.75-8.35.36l-1.49-.06-2.48-.9,2.24-1.58Z" transform="translate(737.01 715.72)"/><path class="cls-5" d="M-105.23-347.38c-4,2.61-8.32,1.57-12.59,1C-113.82-349.12-109.52-348.18-105.23-347.38Z" transform="translate(737.01 715.72)"/><path class="cls-4" d="M-81.72-20.6c-2.68-11.31.07-22.61-.55-33.91C-80.29-43.22-81-31.89-81.72-20.6Z" transform="translate(737.01 715.72)"/><path class="cls-4" d="M-51.6-318.45l-16.92-.68c-9.4-1.62-18.75-.18-28.11.46-10.57.73-21.12,1.9-31.69,2.49-8,.46-16.06-4.3-18.6-10.45-.6-1.46-1.69-3-.42-4.63,3.46,7.87,11,11.62,21.68,10.24,13.51-1.75,27.09-2.54,40.67-3.4,15.07-.95,30,1.37,44.93,2.39a29.13,29.13,0,0,0,17.36-4c-.52,4.08-5.9,7.91-11.19,7.87C-39.8-318.23-45.7-318.36-51.6-318.45Z" transform="translate(737.01 715.72)"/></svg>