<svg xmlns="http://www.w3.org/2000/svg" viewBox="0 0 679.76 325.39"><defs><style>.cls-1{fill:#fff;}</style></defs><g id="Layer_2" data-name="Layer 2"><g id="Layer_1-2" data-name="Layer 1"><path d="M50,7.86c2.76,1.26,4.89,1.25,7.58-1.09,2-1.75,5.55-2.13,8.47-2.36,21-1.68,42.07-4.15,63.13-4.4,17-.19,34.11,1.54,50.95,4,17.67,2.55,35.07,7,52.6,10.52,20.58,4.13,35.49,16.05,46.7,33.35,5.05,7.79,10.24,15.53,16,22.8,7.17,9.07,17.6,12.69,28.57,13,15.62.48,31.28-.42,46.92-.64,26.27-.36,52.55-.56,78.82-1,24.76-.4,49.54-1.8,74.27-1.22,13,.3,25.56-2.66,38.5-1.81,17.18,1.13,34.42,1.39,51.64,1.87,2.21.06,4.45-.8,6.68-1.18a18.35,18.35,0,0,1,4.87-.66c11.54,1.26,23-1.44,34.47-.94,3.64.16,6.77,0,7.68,4.89.36,1.9,3.24,3.34,5.18,4.61,7.72,21.63,4.71,44.55,5.9,67.12.91,17.27.88,34.59.75,51.89,0,4.79-.46,12.18-3.28,13.75-4.46,2.48-6.6,9-13.5,7.91-5.5-.84-11.27.07-16.92.09-2.93,0-6.4,1.39-7.78-3.13-.18-.6-3.13-.87-4.51-.43-1,.33-1.59,2.08-3.14,4.32a76.87,76.87,0,0,0-7.61-3.41c-1.61-.55-3.92-1-5.21-.24-7.37,4.23-15.53,3.37-23.39,3.88-12.94.82-25.91,1.17-38.87,1.31-4.43.05-8.86-1.2-13.3-1.76-3.92-.49-7.88-1.27-11.8-1.19q-71.89,1.46-143.79,3.18c-17.46.42-35,.79-52.38,1.89-10.06.63-20.23,2.26-28.59,8.72-2.93,2.27-5.94,5.15-7.45,8.43-4.79,10.4-10.3,20.21-17.59,29.1-6.44,7.87-13.17,15.47-22.68,19.37-11.8,4.84-23.75,9.64-36.05,12.91a418.42,418.42,0,0,1-101.58,14c-23.35.37-46.56-1.29-69.37-6.19a30.53,30.53,0,0,1-22.44-18.86C22.78,286,17.58,271.38,13.28,256.58,4.88,227.7.91,198,.13,168-1,124.43,5.72,81.77,18.7,40.22c2.43-7.78,6.74-15.12,11.1-22.09S41.91,9.3,49.51,7.83C38,13.53,29.37,22.07,25.19,34.27c-3.39,9.87-6.09,20-8.67,30.12a360.74,360.74,0,0,0-11,104.3c.78,19.2,3.32,38.39,6.13,57.43,3.9,26.4,11,52,23,76,1.75,3.48,4.77,6.33,7.21,9.48-3.77-8.66-8.67-16.57-11.75-25.14a368,368,0,0,1-21-98.14,392.42,392.42,0,0,1,.65-66.22C11.48,103.94,15,85.92,18.44,68a211.31,211.31,0,0,1,7.94-28.71c4.2-12.25,11.23-22.58,23.1-28.9C50,10.11,49.86,8.72,50,7.86Zm298,134.37-74.16,2.06a12.41,12.41,0,0,0-.18,2.65c.77,4.71-1.4,6.14-5.86,6s-8.65.23-13,.46-9.08,1-8-6.13c.09-.62-1.67-1.51-2.57-2.27-.73.87-2.1,1.75-2.1,2.62.05,8,.4,16,.53,23.95.06,3.71,1.42,5.2,5.43,5,12.79-.7,25.6-1,38.41-1.52a7.69,7.69,0,0,0,2.08-.64c0-3.62.23-7-.06-10.23-.33-3.82.88-5.5,4.93-5.39,5,.13,10-.27,15-.38,3-.06,6.05,0,10,0L304.6,172.57a5.87,5.87,0,0,0,3.78,1.15c16.14-.55,32.27-1.19,48.4-1.64,27.61-.77,55.23-1.4,82.84-2.24,1.08,0,3-1.71,3-2.67a182.11,182.11,0,0,0,0-20.37c-.3-4,1.27-4.62,4.45-4.52,3,.09,6.46-1.08,6.22,4.32a179,179,0,0,0,.48,19c.09,1.36,1.51,3.7,2.45,3.77,5.24.36,10.51.17,15.32.17,0-8.65.06-16.27,0-23.88,0-2.7,1-4.44,3.73-3.93,4.08.76,8.95-2.64,12.26,2.22a1,1,0,0,1,.08.49v19.74c-3.16,0-6-.29-8.69.12-1.32.2-2.45,1.72-3.66,2.64,1.23.7,2.46,2,3.69,2,8.31,0,16.63-.25,24.94-.46,6.62-.17,6.62-.2,6.25-6.76-.47-8.45-.47-8.44,7.41-9.55a5,5,0,0,0,1.33-.57c0-4.35.29-8.68-.18-12.92-.13-1.18-2.48-3-3.88-3a85.68,85.68,0,0,0-13.86.63c-.92.11-2.19,2.18-2.26,3.4-.17,3.13.57,6.33.24,9.43-.12,1.12-2.15,2.44-3.53,2.81-.57.15-2.38-1.88-2.52-3a82.85,82.85,0,0,1-.09-9.46c0-2.61-1.23-3.64-3.81-3.07a18.34,18.34,0,0,1-3.43.51c-22.79.61-45.57,1.26-68.36,1.67-3.65.07-4.79,1.35-4.39,4.7.18,1.48.2,3,.29,4.48.44,7.33.43,7.12-6.69,7.26-4.14.08-5.81-1.39-5.43-5.51.19-2-.33-4,0-6,.64-3.79-1.11-4.42-4.42-4.52-10.6-.33-10.6-.45-9.68,10.08a2.74,2.74,0,0,0,0,.5c1.07,4.49-.43,6.22-5.29,6.3-14.47.25-28.93,1-43.4,1.49a20,20,0,0,1-3.69-.8ZM49.41,159.74c1.54,22.22,2.73,41.12,4.2,60,.81,10.47,6.13,13.44,15.38,8.6,7.42-3.89,9.31-10.89,8.77-18.59-.68-9.62-2.37-19.21-2.57-28.83-.3-14.9.34-29.83.49-44.74.08-8.09.35-16.2-.18-24.26-.33-5.14-5.13-9.21-9.76-9.66-5.46-.52-8.27,1.33-10.76,7.38a20.57,20.57,0,0,0-1.49,5.75C52,131.22,50.56,147.06,49.41,159.74Zm92.74,13.43c-.16-1.29-.43-2.89-.54-4.5-.37-5.65-.78-11.3-1-17-.09-2.41-.59-3.64-3.43-3.49-8.47.44-17,.57-25.44.91-8.11.33-8.11.38-8,8.34.14,7.52.14,7.52-7.25,7.85-.28,0-.53.35-.75.5V180.5c3.28,0,6.1.17,8.89,0,10.53-.77,10.62-.82,10.3-11.49-.09-3,.88-4.34,3.87-4.42s5.38,0,5.39,4c0,3.6.3,7.2.45,10.5.56.36.7.52.83.52,27.94-.64,55.89-1.25,83.82-2.08,1.1,0,3-2.12,3.05-3.26,0-8.32-.21-16.65-.66-25-.06-1.1-1.75-2.11-2.69-3.16-.69,1.22-2,2.48-2,3.66.41,6.6.38,6.75-6.22,6.49-.83,0-1.66-.1-2.49-.18-3.52-.33-5.32.76-4.77,4.78.2,1.51-.64,4.39-1.5,4.6a19.61,19.61,0,0,1-8.81.28c-.95-.23-.87-3.78-1.79-5.54-.66-1.28-2.46-3.16-3.28-2.95-3.8,1-8.28-2.07-11.44,1.85-.4.49,0,1.62,0,2.45,0,2.33,0,4.67.17,7,.28,3.4-1,4.82-4.55,4.7C156,173,149.55,173.17,142.15,173.17Zm90.44-11.06h-.33c0-2,.07-4,0-6-.5-11.11,1.38-10.67-10.45-10.24-3.3.13-4.4.93-4.23,4.24.3,5.45.22,10.93.27,16.39.09,12.91,0,10.1,10.91,10.4,3.53.1,4.19-1.26,3.92-4.39C232.37,169.08,232.59,165.59,232.59,162.11ZM72.05,99.92c8.74,12.07,9.83,14.44,8.68,25.71-2.61,25.81-1.07,51.47,1.79,77.14.9,8,1.2,16.19-5.18,22.48-2.74,2.7-6.24,4.64-9.39,6.93.15.39.31.77.46,1.16,3.12-1.37,6.68-2.18,9.27-4.23,6.22-4.91,8.06-12,7.69-19.61-.29-6.14-1-12.26-1.22-18.4-.64-16.58-1.25-33.17-1.6-49.76-.18-8.61.69-17.26.19-25.84C82.37,109,78.67,103.93,72.05,99.92Z"/><path class="cls-1" d="M50,7.86c-.17.86-.06,2.25-.55,2.51C37.61,16.69,30.58,27,26.38,39.27A211.31,211.31,0,0,0,18.44,68c-3.43,17.94-7,36-8.68,54.11a392.42,392.42,0,0,0-.65,66.22,368,368,0,0,0,21.05,98.14c3.08,8.57,8,16.48,11.75,25.14-2.44-3.15-5.46-6-7.21-9.48-12.05-24-19.14-49.59-23-76-2.81-19-5.35-38.23-6.13-57.43a360.74,360.74,0,0,1,11-104.3c2.58-10.12,5.28-20.25,8.67-30.12C29.37,22.07,38,13.53,49.51,7.83A2.24,2.24,0,0,0,50,7.86Z"/><path class="cls-1" d="M348.08,142.23l-13.6,14.26a20,20,0,0,0,3.69.8c14.47-.5,28.93-1.24,43.4-1.49,4.86-.08,6.36-1.81,5.29-6.3a2.74,2.74,0,0,1,0-.5c-.92-10.53-.92-10.41,9.68-10.08,3.31.1,5.06.73,4.42,4.52-.32,1.93.2,4,0,6-.38,4.12,1.29,5.59,5.43,5.51,7.12-.14,7.13.07,6.69-7.26-.09-1.49-.11-3-.29-4.48-.4-3.35.74-4.63,4.39-4.7,22.79-.41,45.57-1.06,68.36-1.67a18.34,18.34,0,0,0,3.43-.51c2.58-.57,3.82.46,3.81,3.07a82.85,82.85,0,0,0,.09,9.46c.14,1.17,2,3.2,2.52,3,1.38-.37,3.41-1.69,3.53-2.81.33-3.1-.41-6.3-.24-9.43.07-1.22,1.34-3.29,2.26-3.4a85.68,85.68,0,0,1,13.86-.63c1.4,0,3.75,1.83,3.88,3,.47,4.24.18,8.57.18,12.92a5,5,0,0,1-1.33.57c-7.88,1.11-7.88,1.1-7.41,9.55.37,6.56.37,6.59-6.25,6.76-8.31.21-16.63.46-24.94.46-1.23,0-2.46-1.29-3.69-2,1.21-.92,2.34-2.44,3.66-2.64,2.71-.41,5.53-.12,8.69-.12V144.39a1,1,0,0,0-.08-.49c-3.31-4.86-8.18-1.46-12.26-2.22-2.7-.51-3.76,1.23-3.73,3.93.09,7.61,0,15.23,0,23.88-4.81,0-10.08.19-15.32-.17-.94-.07-2.36-2.41-2.45-3.77a179,179,0,0,1-.48-19c.24-5.4-3.19-4.23-6.22-4.32-3.18-.1-4.75.57-4.45,4.52a182.11,182.11,0,0,1,0,20.37c0,1-1.94,2.64-3,2.67-27.61.84-55.23,1.47-82.84,2.24-16.13.45-32.26,1.09-48.4,1.64a5.87,5.87,0,0,1-3.78-1.15l13.85-14.22c-3.91,0-6.93,0-10,0-5,.11-10,.51-15,.38-4-.11-5.26,1.57-4.93,5.39.29,3.28.06,6.61.06,10.23a7.69,7.69,0,0,1-2.08.64c-12.81.51-25.62.82-38.41,1.52-4,.22-5.37-1.27-5.43-5-.13-8-.48-16-.53-23.95,0-.87,1.37-1.75,2.1-2.62.9.76,2.66,1.65,2.57,2.27-1,7.1,3.6,6.37,8,6.13s8.66-.63,13-.46,6.63-1.26,5.86-6a12.41,12.41,0,0,1,.18-2.65Zm-4.71,21.34c3.19,2.8,32.47,2.36,35-.47C366.71,162.78,355,162.28,343.37,163.57Zm-54.26-12.74.21,2.14,24-1.44-.1-.7Z"/><path class="cls-1" d="M142.15,173.17c7.4,0,13.86-.15,20.31.06,3.57.12,4.83-1.3,4.55-4.7-.19-2.32-.12-4.66-.17-7,0-.83-.44-2,0-2.45,3.16-3.92,7.64-.88,11.44-1.85.82-.21,2.62,1.67,3.28,2.95.92,1.76.84,5.31,1.79,5.54a19.61,19.61,0,0,0,8.81-.28c.86-.21,1.7-3.09,1.5-4.6-.55-4,1.25-5.11,4.77-4.78.83.08,1.66.15,2.49.18,6.6.26,6.63.11,6.22-6.49-.08-1.18,1.26-2.44,2-3.66.94,1.05,2.63,2.06,2.69,3.16.45,8.3.7,16.63.66,25,0,1.14-2,3.23-3.05,3.26-27.93.83-55.88,1.44-83.82,2.08-.13,0-.27-.16-.83-.52-.15-3.3-.44-6.9-.45-10.5,0-3.93-2.49-4.06-5.39-4S114.9,166,115,169c.32,10.67.23,10.72-10.3,11.49-2.79.2-5.61,0-8.89,0V165.82c.22-.15.47-.49.75-.5,7.39-.33,7.39-.33,7.25-7.85-.15-8-.15-8,8-8.34,8.48-.34,17-.47,25.44-.91,2.84-.15,3.34,1.08,3.43,3.49.2,5.66.61,11.31,1,17C141.72,170.28,142,171.88,142.15,173.17Z"/><path class="cls-1" d="M232.59,162.11c0,3.48-.22,7,.07,10.43.27,3.13-.39,4.49-3.92,4.39-10.88-.3-10.82,2.51-10.91-10.4-.05-5.46,0-10.94-.27-16.39-.17-3.31.93-4.11,4.23-4.24,11.83-.43,10-.87,10.45,10.24.09,2,0,4,0,6Z"/><path class="cls-1" d="M72.05,99.92c6.62,4,10.32,9.09,10.69,15.58.5,8.58-.37,17.23-.19,25.84.35,16.59,1,33.18,1.6,49.76.23,6.14.93,12.26,1.22,18.4.37,7.65-1.47,14.7-7.69,19.61-2.59,2-6.15,2.86-9.27,4.23-.15-.39-.31-.77-.46-1.16,3.15-2.29,6.65-4.23,9.39-6.93,6.38-6.29,6.08-14.46,5.18-22.48-2.86-25.67-4.4-51.33-1.79-77.14C81.88,114.36,80.79,112,72.05,99.92Z"/><path d="M343.37,163.57c11.65-1.29,23.34-.79,35-.47C375.84,165.93,346.56,166.37,343.37,163.57Z"/><path d="M289.11,150.83h24.13l.1.7-24,1.44Z"/><path class="cls-1" d="M624.78,207.55c-10,0-19.94.11-29.91,0-8-.11-11.74-4-11.62-11.63.1-7.39,4.28-11.41,11.85-11.56,11.18-.23,22.38-1.07,33.53-.63,9.42.37,18.78-.66,28.18-.26,5.39.23,11,5.82,10.82,10.86-.22,7.79-4.63,13-11.43,13.06-10.47.13-20.94,0-31.42,0Z"/><path class="cls-1" d="M618.12,98.51c12.59,0,25.2.39,37.77-.16,6.39-.27,11,5.15,11,10.83,0,6.78-4.6,12.08-11.1,12.16-12.79.17-25.6-.14-38.37.43-8,.35-15.86-.38-23.79-.35-7.69,0-11.27-4.2-11.06-12,.17-6.36,5-10.8,11.68-10.79h23.92Z"/><path class="cls-1" d="M619.91,174.48c-7.31,0-14.62.05-21.93,0-5.86-.06-8.77-3.16-8.73-9.07s2.91-9,8.72-9.11c9.43-.2,18.82-1.4,28.3-.27,8.91,1.06,17.83-1.52,26.8-.64,3.81.37,7.32,1.93,8.64,5.44,1.41,3.73,1.22,7.75-2.07,11.07a5.84,5.84,0,0,1-4.41,1.67C643.46,174.05,631.7,174.91,619.91,174.48Z"/><path class="cls-1" d="M629.34,131.14c7.82,0,15.63-.06,23.45,0,5.78.05,9.35,3.41,9.45,8.66.12,5.56-3,8.8-9,9-18.56.66-37.12,1.44-55.69.79-5.24-.19-8.82-4-8.9-9.34-.07-4.68,3.39-7.61,8.78-8.16C608.09,131.05,618.72,131.37,629.34,131.14Z"/></g></g></svg>