<svg xmlns="http://www.w3.org/2000/svg" viewBox="0 0 2646.67 265.86"><defs><style>.cls-1{fill:none;stroke:#000;stroke-miterlimit:10;}</style></defs><g id="Layer_2" data-name="Layer 2"><g id="Layer_1-2" data-name="Layer 1"><path class="cls-1" d="M.5,189.77c.48-.29,1.35-.56,1.37-.88.71-12.12,9.51-19.07,17.46-26.14,6.11-5.43,13.23-9.79,20.18-14.19,8.94-5.67,17.72-11.94,21.17-22.13a29.13,29.13,0,0,0-1.4-22.5c-2.81-5.7-6.67-11.31-7.81-17.37-1.17-6.31-.25-13.24.94-19.69A61.54,61.54,0,0,1,58.13,49.6C63.51,39.13,71.51,31,83.37,27.88c5.45-1.45,11.08-2.25,16.59-3.51,12.87-2.94,26-2.72,39-4,8.75-.85,17.09.89,25.63.81S181.85,24.94,186,33.27c2,3.92.83,9.42.86,14.2,0,1.37-.87,2.73-1.29,4.11-1,3.23-3.28,4.08-6,1.93-4.69-3.75-10-2.57-14.86-1.55-9.13,1.88-16.16,7.72-21.93,14.81-4.87,6-8.61,13.4-3.8,19.9a16,16,0,0,0,8.73,5.67,106.34,106.34,0,0,1,30.53,11.25,66.64,66.64,0,0,1,23.83,21.85c.77,1.19,2.05,2,2.9,3.18,6.76,9.13,13.48,18.3,20.28,27.55a6.17,6.17,0,0,0,1.55-2.46A104.57,104.57,0,0,1,239,121.21c3.67-6.2,7.79-12.13,11.41-18.36a15.64,15.64,0,0,0,1.74-6.63c.28-3.87-.18-7.8.14-11.67.5-6-2-11.25-4.23-16.42s-1.15-7.3,4.08-7.75c4.21-.38,6.35-3.25,7.44-7.28a38.81,38.81,0,0,1,5.3-11.16c3.31-5,5.71-11.18,12.34-12.87a21.16,21.16,0,0,1,8.6-.53,18.13,18.13,0,0,1,7,3.43c3.46,2.49,6.25,5.21,6.19,10.32-.09,8-.2,15.94-4.25,23.15-4.83,8.58-10.48,16.75-14.64,25.63-4.69,10-5.08,19.51,4.41,29,4.91,4.88,9.6,9.68,9.23,17.57-.21,4.61,1.44,9.29,1.34,13.92-.15,7.36-1.53,14.69-1.52,22,0,9.18,4.44,15,13.86,16.44,9.7,1.53,19.13,4.69,28.77,6.65,6,1.22,11.66-.16,17.26-3.21a51.37,51.37,0,0,1,15.45-5.3c10.52-1.87,20.33,1.88,29.86,5.63a39.9,39.9,0,0,1,11.2,7.34c9.28,8.08,18.24,16.51,27.62,25.06-4.44,3.07-8.07,6-12.08,8.27-5.63,3.18-11.25,7.06-17.44,8.44-6.56,1.47-13.72,1-20.47.22-6-.73-11.72-3.11-17.55-4.81-7-2-13.88-4.19-20.84-6.21-7.5-2.17-14.39-5.63-22.44-6.8-16.88-2.49-31.32,3.21-45.83,10.2a286.78,286.78,0,0,1-26.33,11.44c-2.82,1-6.57-.57-9.93-.66a92.6,92.6,0,0,0-12.24.22c-4.89.5-9.67,2.29-14.65.85a4.24,4.24,0,0,1-1.82-1.16c-2.65-3-5.13-2.44-8.57-.81-4.12,1.95-8.83,2.74-13.35,3.75-8.65,1.87-17.35,3.53-26,5.27a20.87,20.87,0,0,1-2.24.12c-10.31.61-20.72.76-30.94,2-10.69,1.26-21.26,3.61-31.88,5.38-7.32,1.23-14.66,3.15-22,3.24-11.25.13-21.88-3.57-31.46-9.37-8.26-5-16.88-9.95-23.72-16.57-7.5-7.26-14.06-15.84-18-25.82-2-5-3.75-10-5.62-15-.22-.55-1-.93-1.52-1.32ZM118.76,179c-4.38-1.82-9,1.53-13.06,4.19-5,3.26-8.55,7.9-8.31,14.88.27,7.68,1,15,3.43,22.5,2.81,8.62,10.6,17.36,19.56,17.64,7.76.23,15.6,1.13,23.31-1.59,5.63-2,9.07-8.44,6.1-13.53a85.74,85.74,0,0,0-7.51-10.47c-4.07-5-8.82-9.57-12.54-14.84C125.89,192.24,122.88,186.12,118.76,179ZM87.7,143.91c-.63-3.35-1.76-4.48-4.49-4.52-3.61,0-7-.12-9.32,3.5-1.87,2.87-4.49,5.25-6.28,8.15a4.61,4.61,0,0,0,.4,4.36,4.9,4.9,0,0,0,4.36.93c3.2-1.15,6.57-2.46,9.15-4.56S85.68,146.55,87.7,143.91Z"/><path class="cls-1" d="M2156,176.37c6.77-.79,12.81-1.82,18.9-2.11a30.78,30.78,0,0,0,13.73-4.08c3.9-2.15,8-4,12-5.86,5.3-2.43,11.92-1.18,17.09,3.81-5.31,2.62-10.17,5.23-15.21,7.5-9.87,4.39-19.25,9.38-25,19.08-2.44,4.13-4.35,4.44-7.8,1.09-4.49-4.35-9-8.66-13.39-13.13-2.08-2.13-3.12-2-3.75.94-.24,1.11-1.16,2.17-1.09,3.22.12,2,.15,4.41,1.27,5.8,2.46,3,5.86,5.27,8.37,8.25,5.62,6.74,13,8.44,21.35,9.18,11.05.94,19.16-3.38,26.34-11,5-5.3,10.32-10.25,15.45-15.41a38.29,38.29,0,0,1,17.54-9.83c5-1.39,9.91-2.67,14.06-6.91,3.21-3.27,9-3.8,13.22-6.32,5.77-3.48,11.1-7.7,16.63-11.57,2.19-1.54,4.44-3,6.67-4.47l-.62-1.52-33.49,10.89a21.74,21.74,0,0,1,1.88-3.28c3.15-3.48,7.1-6.49,9.38-10.47,2.08-3.62,2.72-8.21,3.34-12.47a43.13,43.13,0,0,0,.06-10.77c-1.16-11.25,4.69-18,14.32-22.08,7.83-3.32,15.89-5.68,24.61-5.42,9.13.28,18.28,0,27.41.13,2.11,0,4.21.85,6.32,1.3a5,5,0,0,0,1.75.31c6.85-1.34,13.89-2.14,20.48-4.3,6-2,11.32-4.62,17.23.19,1.88,1.56,5.11,1.38,7.36,2.65,4.49,2.53,6.4,6.19,2,11-3.53,3.83-8,4.93-12.33,6.83-6,2.61-11.73,5.63-17.48,8.61-7.5,4-14.33,9-22.8,11.39-5.3,1.47-10,5.08-14.92,7.9-9.9,5.71-20,11.08-29.47,17.49-5.94,4-10.24,10.07-10.1,18,.14,7.61-2.12,14.65-4.87,21.57-2.35,5.92-5,11.75-7,17.81-2.26,6.79-8.28,8.32-13.75,10.31-8.92,3.3-18.34,4.35-27.71,5.9-16.25,2.68-32.45,1.29-48.58.94-6.79-.14-13.94-4.05-20.1-7.66-6-3.5-11.55-7.5-18.2-9.83-2.41-.81-4.41-2.81-6.82-3.5-4.81-1.33-7.63,2.81-11.08,4.94-10.44,6.5-20.75,13.12-31.13,19.74a4,4,0,0,1-1.75.31c-9.89.62-19.76,1.33-29.66,1.79-4.27.2-8.39-3.51-9.46-7.64-.43-1.63-1.1-3.54-2.31-4.55-8-6.67-11.6-15.31-14.26-25.24s.89-19,1.88-28.41c.94-8.94,2.38-18,1.75-26.9-.47-6.56-3.58-13.12-8-18.42-4.24-5.11-8.26-10.64-13.34-14.79-6.43-5.24-13.83-9.3-20.85-13.82-.39-.24-1.14.07-1.94.14-.94,7.66-1,15.15,1.94,22.34,3.43,8.39,5.58,17,4.74,26.1-.21,2.28-1.82,4.57-1.59,6.72.8,7.5,2.06,15,3.25,22.51.5,3.16,1.39,6.26,1.88,9.42,1.26,8.83,5,17.28,3.75,26.49-.86,6.61-3.06,11.73-9.21,15.78a91.18,91.18,0,0,1-25.64,11.51,25.65,25.65,0,0,1-15.62-.7,334.4,334.4,0,0,1-34.76-17c-3.39-1.88-5.91-6-7.9-9.57-2.52-4.54-3.8-9.76-6.16-14.42a48.87,48.87,0,0,1-4.69-29.15,47.53,47.53,0,0,1,5.69-15.87c1.43-2.65,4.92-4.52,7.86-5.94,6.24-3,11.94-6.7,16.35-12,1.94-2.31,2.67-5.63,4-8.44,3.21-6.68-.58-12.64-2-18.75-.22-.94-1.94-2.08-3.07-2.22-6.43-.8-12.89-1.2-19.31-2-3-.38-6.3-.73-8.83-2.2-1.54-.88-2.69-3.89-2.59-5.88.26-6-1.45-10.92-6.86-14.83-1,2.9-2,5.69-3,8.44-1.94,5.47-6.56,8.26-11.08,11.25-3.62,2.37-7.5,4.49-10.67,7.36a180.65,180.65,0,0,0-16.43,16.31c-1.78,2.08-1.88,5.75-2.39,8.76A115,115,0,0,0,1856,143.3c-.06,9.74-3.19,18.65-6.79,27.39q-8.8,21.32-18.36,42.32c-3.54,7.72-10.51,11.87-18.21,14.65a163.1,163.1,0,0,1-17,5.2,81.54,81.54,0,0,1-13.9,2,100.48,100.48,0,0,1-15.71,0c-13-1.21-25.49-3.84-36.46-11.7-4.8-3.44-10.41-5.74-15.55-8.73-6.37-3.75-12.33-8.26-19-11.25-7.35-3.32-15.3-5.33-23-7.9-8.64-2.88-17.41-5.45-25.93-8.67-10-3.75-19.69-8.44-29.77-12.11-6.57-2.4-7.62-7.8-8.22-13.13-.67-5.92-.16-12-.16-18a3.15,3.15,0,0,1,.06-1.33c4.16-8.14.45-13.94-5.55-19.12a17.38,17.38,0,0,1-1.88-2.7c2.63-1.93,5.36-3.89,8-5.93,9.83-7.5,20.52-13.89,26.56-25.55C1638,83.2,1643.23,80,1650,78.33c8.34-2.09,16.67-2,24.74-1.16,11.18,1.2,22.74,1.34,33.25,6.56,8.21,4.09,10.68,10.59,8.21,19.42-2.13,7.68-4.84,15.08-9.76,21.18a41.13,41.13,0,0,1-12.36,10c-5.82,3.15-12.26,5.19-18.51,7.5s-12.31,4.21-19.5,6.65c2.76,4.1,5.19,8.68,8.52,12.47A138.42,138.42,0,0,0,1680,176.25c8.2,6.77,16.88,12.95,25.47,19.26,10.57,7.77,23.21,11,35.08,15.94,8.32,3.45,16.64,6.56,25.94,5.62,7.31-.76,14.87-.36,21.93-2.08,8.3-2,13.59-8.54,17-16.22,3.34-7.5,2.4-15.58,1.71-23.29-.65-7.45-3.35-14.68-4.78-22.07-1.52-7.86.47-15.14,4.78-21.78,4.56-7,9.66-14,10.72-22.45,1-7.83-2.33-14.52-8.06-19.94-2.12-2-4.1-4.17-6.32-6-2.51-2.11-2.18-4.22.2-5.71,4.43-2.81,9.08-5.2,13.7-7.65,3-1.6,6.5-2.57,9.23-4.56,5.81-4.23,10.91-9.55,17-13.25,4.69-2.81,10.41-4,15.78-5.67,3-.94,6.29-1.88,9.37-1.75C1881.33,45,1893,48,1902.4,57.07a7.24,7.24,0,0,0,4.19,1.72c3.43.25,7-.4,10.32.2C1923,60.08,1929,61.8,1935,63.32c3.66.94,7.27,2.28,11,2.63,4.76.46,9.6-.16,14.37.19,6.31.45,11.74-2,17.34-4.23,7.4-2.91,14.88-5.62,22.35-8.44a81.15,81.15,0,0,1,9-3.13c5-1.21,9.31,0,14.06,2.72,8.72,5,14.07,12.65,19.84,20.22,2.25,3,4.58,5.9,6.74,9,4.92,7,9.84,13.92,14.62,21,6.92,10.21,12.83,21,18.76,31.8,3.85,7,12,10.73,19.69,13.58a27.8,27.8,0,0,0,8.49,1.83c7.15.24,11.25-3.43,12.52-10.52.58-3.3,1.72-6.56,1.64-9.88-.2-9.11-3.75-17.09-8.68-24.72-6.85-10.65-15.25-19.93-23.64-29.31a26.81,26.81,0,0,1-7.25-17.82c-.07-4.8-1.77-9.63-1.48-14.37.38-6.19,2-12.32,3.11-18.45.6-3.3.85-6.75,2.06-9.82,4.52-11.39,12.06-15.75,22.76-10.74,5.63,2.65,10.75,6.73,15.78,10.58,8.8,6.73,17.37,13.79,26,20.7,5.91,4.69,10,10.52,11,18.2.53,4,1.88,8.14,1.58,12.11-.54,6.94-2.2,13.79-3.13,20.71-1.75,12.87-7,25-5.93,38.58,1.07,13,.35,26.05.15,39.07C2157.82,168.17,2156.81,171.56,2156,176.37Zm188.54-55.43c1.33.41,1.64.62,1.87.56a52.29,52.29,0,0,0,27.78-18c2.68-3.3,6.15-6.91,4.82-12.09-.31-1.2-.72-2.37-1.08-3.55-1.22.62-2.75.94-3.6,1.87-3.63,4.07-6.83,8.55-10.62,12.47-6,6.25-12.39,12.16-19.17,18.75Zm-400.35-43c-4.29,1-7.57,1.45-10.52,2.66-1.59.65-2.81,2.53-3.81,4.11-.26.41.94,2.53,1.47,2.52,2.35,0,5.22.17,6.91-1.08C1940.43,84.56,1941.63,81.67,1944.22,77.92Z"/><path class="cls-1" d="M1097.73,125.2c-7.5-3.94-14.84-8.25-22.5-11.75-10.41-4.75-20.94-9.33-31.72-13.19-14.42-5.15-24.92,1.88-30.94,14.07-2.44,4.93-5.05,9.87-6.7,15.08-1,3.3-.35,7.12-.65,10.68a36,36,0,0,0,5.1,21.9c4.38,7.5,6.84,16.11,11.25,23.58,5.31,9,12.35,17.06,17.58,26.12,4.58,7.94,12.19,12.27,18.5,18.09,3.66,3.38,8.31,5.63,12.49,8.44,1.08.72,2.08,1.56,3.31,2.5-4.75,6.67-10.23,11.25-19,10.19-7.6-.93-15.42-.65-22.86-2.23a66.45,66.45,0,0,1-25.9-11.92c-8.21-6.11-16.81-11.72-24.79-18.12-7.21-5.79-13.64-12.54-20.7-18.53-7.93-6.74-17.22-10.09-27.64-8.36-3.64.6-7.5,1.56-10.31,5-2.66,3.22-6.32,5.62-9.8,8.63-4-1.87-.79-4.54.28-6.61,3.59-6.89,8.68-13.27,10.83-20.54,1.88-6.17.8-13.33.28-20a55,55,0,0,0-3.16-13.93c-2.35-6.57-4.69-13.28-8.27-19.14-4.34-7-10-13.27-15.89-20.86-3.65,7-6.79,12.63-9.6,18.46-3.53,7.31-6.65,14.84-10.21,22.15-4.8,9.82-10.73,19.19-14.48,29.37-2.47,6.71-5.06,14.4-1,21.87a2.21,2.21,0,0,1,.15.88c.62,9.58,2.15,19.22,1.58,28.74a111.67,111.67,0,0,1-5.22,26.85c-2.6,8.18-11.56,9.47-17.64,3.55-8.88-8.67-15.94-18.76-22.09-29.4-5-8.64-10.46-17.09-14.65-26.13-2.62-5.67-3.4-12.19-4.76-18.44-1.87-8.51-3.92-17-5.06-25.62-1.11-8.38-4.77-15.59-8.82-22.65a39.09,39.09,0,0,0-20.24-17.65c-6-2.25-12.19-3.63-18.24-5.74-4.78-1.69-9.37-3.91-14.06-5.88-1-.42-2-.8-4-1.6.94,6,1.57,11.07,2.65,16,1.43,6.49,3.53,12.85,4.78,19.36,1,5.31,2.18,10.86,1.64,16.14-.88,8.44-3.1,16.82-4.76,25.22-.71,3.58-1.75,7.12-2.1,10.73-.81,8.37-1.35,16.77-1.87,25.15-.46,7,1.87,13.13,6,18.75,1.87,2.58,3.75,5.44,4.44,8.44.84,3.46,1.26,7.31-2.37,10.15-4.55,3.57-8.44,8.29-13.42,10.86-3.36,1.73-9,2.09-12.19.41-6.16-3.22-11.87-7.55-15.31-14.35-2.91-5.75-7.68-10.58-10.43-16.37-2.94-6.24-4.14-12.7-2.18-20.22,2.2-8.44,7.19-14.15,12.24-20.56,4.22-5.37,7-12,9.78-18.35,2.23-5.15,3.6-10.69,5.1-16.12a50.44,50.44,0,0,0,2.09-10.69Q713.37,122,714,96.39a7.11,7.11,0,0,0-2.74-5c-9-6.37-17.1-13.6-21.51-24-2-4.63-3.75-9.63-4.11-14.59-.45-5.33,3.66-8.88,7.67-12,1.72-1.37,3.07-3.22,4.81-4.57,5.14-4,10.06-8.54,15.71-11.71,9-5,15.94.31,22.1,6.24,7.5,7.14,14.3,15,22,21.81,8.38,7.5,17.47,14.13,26.25,21.19,1.69,1.37,3.21,3,4.81,4.44,7.6,7.1,15.81,13.65,22.6,21.46,5.33,6.12,12.09,11.48,14.59,19.77a16.49,16.49,0,0,1,1,4.15c.11,5.85-.12,11.7.09,17.53.29,7.67,2.22,14.79,7.36,20.85s7.51,6.12,13.46.56c5-4.68,6.74-11,9.46-16.87,5.19-11.26,11.25-22.07,15.65-33.58,3.88-10.31,4.42-21.1,0-31.88-3.34-8.13-6.47-16.58-7.9-25.19s5.49-14.06,12.06-17.7c6.23-3.47,13.54-4.94,20.33-7.42A62.14,62.14,0,0,0,906.27,26c3.52-1.87,6.18-.09,8.44,1.92,8.2,7.34,16.45,14.67,24.14,22.51,4.41,4.49,7.51,10.31,11.75,14.91,2.82,3,6.66,5,11,8a77,77,0,0,0,2.82-7.43c1.16-4.33,2.67-8.69,2.94-13.12.48-7.77,0-15.58.21-23.36.06-2.71.93-5.4,1.41-8.11a11.44,11.44,0,0,0,.24-3.55c-.29-1.79-1.79-4.69-1.27-5.08a32.05,32.05,0,0,1,8.44-4.41c7.4-2.53,14.77-5.63,22.42-6.8,9.1-1.41,18.94-2.4,26.57,4.58,3,2.82,4.59,7.24,6.7,11,2.29,4.13,3.89,8.79,6.79,12.41a67.72,67.72,0,0,0,28.21,21.25A163.13,163.13,0,0,0,1093,58.39a109.27,109.27,0,0,0,21.08,1.8c5.3.06,10,1.58,14.8,3.43,7.16,2.75,14.56,4.86,21.74,7.56,6.88,2.58,12.55,6.34,16.87,12.94a38.87,38.87,0,0,1,6.73,23.49c-.19,7.5-3.59,13.64-6.89,20-5,9.68-14,12.93-23.53,15.47a64.59,64.59,0,0,0-6.67,2.12c-5.25,2.06-8.81.75-11.64-4.07-2.92-5-5.94-9.93-9.18-14.7-.62-.94-2.47-1.18-3.81-1.4s-3,.1-4.47-.19c-.76-.15-1.35-1.13-2-1.73.57-.55,1.12-1.54,1.72-1.57,4.76-.27,6.35-4.21,6.8-7.5,1.18-8.54,1.15-17.52-3.58-24.92-5.39-8.44-12.26-15.67-22.9-18.23-10-2.43-19-7.34-27.56-13.31-5.43-3.82-11.52-6.73-17.47-9.74s-12.19-5.75-18.38-8.51a9.41,9.41,0,0,0-3.49-.62c-9.73-.39-16.48,5.39-17.7,15.05-.87,7,5.12,15.24,12.59,17.13,7.24,1.88,13,6.17,18.81,10.53,5.3,4,11,7.35,16.59,11q10.15,6.63,20.33,13.21c2.81,1.79,5.56,3.57,8.37,5.29,5.77,3.57,11.59,7,17.3,10.69.69.44.86,1.71,1.26,2.59ZM947.8,105.7a11.94,11.94,0,0,0-5.51-11.16c-8.13-5.53-23.88,1.68-25.5,12.34a26.27,26.27,0,0,0,.18,9.92c1.13,5.5,3.15,10.32,7.37,13.94s10.8,6.16,15-.6C943.78,123.14,948,115.83,947.8,105.7Z"/><path class="cls-1" d="M1566.5,198.15c-2.7-9.37-5-17.15-7.13-25a101,101,0,0,1-2-10.31c-1.29-7.5-2.19-15-3.81-22.44-2.37-10.88-6.45-21-14.8-28.93-2.3-2.18-1.87-3.42,1.2-4,.94-.18,2.19-.53,2.59-1.22,6.7-11.43,10.79-9.24,18.92-2.5a74.6,74.6,0,0,1,13.53,15.7c3.53,5.21,6,11.19,8.52,17a37.51,37.51,0,0,1,2.42,9.26c.83,5.5,1.07,11.11,2,16.6.79,4.55,2.69,8.93,3.31,13.5,1,7.43,1.3,15,2,22.44.55,6-.21,12.11-3.61,16.88-7.68,10.88-10.88,24.63-22.5,33.11-6.72,4.9-7.69,6.36-14.93,2.35-6.3-3.48-12-8-18-12-8-5.38-15.76-11.18-24.09-16-13.3-7.72-27.19-14.4-40.44-22.23-9.55-5.63-18.15-12.64-26.48-20.19-7.13-6.47-14.06-13.68-23.63-17.4-6.9-2.7-16.88,1.39-18.62,8.54-1.7,6.88-3.49,13.72-5.31,20.57a5.47,5.47,0,0,1-1.33,2.23c-11.7,12.49-23.32,25.06-35.24,37.33-2.12,2.18-5.63,3-8.4,4.6-7.16,4.09-14.14,8.55-21.5,12.26a32.46,32.46,0,0,1-11.25,2.81c-9.25.94-18.56,1.29-27.85,2-5.85.45-11.71,1.73-17.51,1.5-5.44-.22-10.89-1.68-16.19-3.09-8.71-2.3-17.47-4.55-25.88-7.7-5.49-2.05-10.32-5.81-15.59-8.51-8.44-4.36-13.4-11.78-16.18-20.25-2.93-8.9-4.37-18.22-1.3-27.69,1.26-3.85.94-8.25,2.32-12,2.37-6.21,4.92-12.55,8.59-18,7.06-10.55,11.18-21.64,9.23-34.4-.76-5-2.32-9.87-3.27-14.85a16.43,16.43,0,0,1-.07-6.25,103.62,103.62,0,0,1,15.41-36.57c5.93-9,11.68-18.06,20-24.93,6.32-5.22,13.28-9.64,19.89-14.5,8-5.87,17.65-7.82,26.5-11.65a2.87,2.87,0,0,1,.88-.11c10.19-.62,20.37-1.64,30.56-1.7a198.47,198.47,0,0,1,24.23,1.81c6.18.72,12.29,2.1,18.38,3.4.77.16,1.28,1.56,1.88,2.38a14.26,14.26,0,0,1-2.56,1.21q-9.64,2.58-19.33,5c-5.35,1.35-10.73,2.59-16.09,4-5.07,1.3-10.31,2.33-15.12,4.22a154.14,154.14,0,0,0-17.7,8.31c-6.38,3.45-8.29,5.8-4.47,12.35a55,55,0,0,0,5.63,8.15c5.27,6.15,10.6,12.26,16.25,18,3.1,3.19,7.14,5.45,10.31,8.57,5.33,5.24,7.3,11.26,4.14,18.76-2.71,6.38-.28,12.27,6.07,15.28,7.72,3.67,15.41,7.67,23.53,10.15,7.57,2.3,15.21-.09,22-4.07a27.19,27.19,0,0,0,7.29-6c8.44-10.32,19.77-13.43,31.72-10.61,10,2.36,17.47-1.47,25.79-4.79,5.2-2.07,10.79-3.27,16.27-4.54,7.32-1.69,12.86,3.16,19,5.63,3.1,1.22,6.24,2.38,9.21,3.86a4.64,4.64,0,0,1,2.13,2.93c.11.55-1.41,1.48-2.27,2.14-2.11,1.66-4.88,2.87-6.32,5-3.85,5.63-2.68,9.11,2.23,14,9,9,18.75,17.27,28,26.1,8,7.66,15.51,15.84,23.59,23.44,4.48,4.21,9.15,8.44,16,8.75C1560.05,195.9,1562.75,197.15,1566.5,198.15ZM1329.63,225a1.85,1.85,0,0,1,.07-.62c2.82,0,5.7-.18,8.53,0,9.08.66,15.71-3.6,21.23-10.23,5.09-6.12,5-13-.81-18.21-6.1-5.5-12.57-10.57-19-15.7-8.94-7.17-19.69-8.74-30.67-9.88-5-.52-9.89-1.17-14.8-2a32,32,0,0,1-8-2.12c-8.32-3.75-16.49-7.88-24.78-11.74s-20.23-3.63-26.25,4.95c-2.9,4.15-5,13.3-2.15,16,8.21,7.94,16.14,16.37,25.32,23.13,8.53,6.33,18.36,11,27.84,15.94,5.77,3,11.75,6.24,18,7.62C1312.46,224.05,1321.12,224.16,1329.63,225Z"/><path class="cls-1" d="M577.84,61.12c1.6,2.37,2.93,3.45,3,4.68,1.07,10.69,7.78,16.88,16.83,21,2,.94,4.69.62,7.09.58,8.68-.16,15.08,4.08,20,10.68a16,16,0,0,1,2.81,7.65c.88,8.66,2,17.38,1.74,26-.18,7.26,2.32,13.63,4.63,20,3.9,10.74,9,21,13.12,31.68a36.21,36.21,0,0,1,2.09,12.06c.29,10.63.74,21.32-.08,31.88-.73,9.38-5.57,19.11-17.51,21.88-4.78,1.1-9.89,4-14.26,3.14-10.7-2.15-21.33-1.32-32-1.29-4.53,0-9,1.87-13.58,2.86-3.4.75-6.78,1.72-10.23,2.2-5.81.81-11.65,1.52-17.51,1.87-11.37.77-22.77,1.19-34.13,1.95-5,.32-10.11,2.29-14.79,1.43-8-1.47-17.46-.13-22.93-8.51-1.2-1.88-2.42-4.09-2.49-6.2-.28-8.08.12-16.18-.18-24.25-.34-8.85-1.16-17.67-1.8-26.51-.56-7.79-1-15.59-1.77-23.36-.47-5.1-1.08-10.22-2.05-15.25-.65-3.44-8.65-8.89-12.65-8.85a77.6,77.6,0,0,1-37.05-9c-6-3.12-11.25-7.46-13.26-14.77-1.71-6.25-4.69-12.13-6.44-18.38a73,73,0,0,1-2.11-14.77c-.36-5.51.08-11.08-.12-16.61a80.05,80.05,0,0,1,3.87-27.31c1.43-4.51,4.59-8.77,7.85-12.33A135,135,0,0,1,420,20.62,106.93,106.93,0,0,1,437.31,9.25c4.55-2.33,10-4.51,14.89-4.18,5.44.37,11.57,1.17,15.94,5.89,4.55,4.9,9.47,9.46,14.21,14.18,5.52,5.49,8,12.67,10.49,19.69,2.12,6,4.21,12.13,5.05,18.38.55,4.14-1.25,8.57-1.82,12.9-.79,6-3.06,11.33-2,18.1,1.58,9.62,6.18,16.28,13.06,21.81,5.71,4.58,12.1,8.31,18.13,12.51,7.69,5.36,15.59,10.48,22.9,16.32a204.57,204.57,0,0,1,19.53,17.81c5.51,5.69,10.18,12.19,15.37,18.17a3.71,3.71,0,0,0,3.38.56c6.28-2.41,9.14-8.22,12.39-13.42,2.17-3.45,3.5-7.44,5.08-11.25.86-2.09-2.82-10.73-5-11.87-4.59-2.4-9.18-4.8-13.83-7.06-6.07-2.94-9.49-12.12-6.71-18.3.19-.4.55-.77.6-1.17.7-7,1.53-14.06,1.93-21.1a7.12,7.12,0,0,0-2-5.15c-3.85-3.22-3.16-7.36-3.18-11.44,0-4.35-.16-8.7.08-13C575.86,65.88,576.86,64.12,577.84,61.12Z"/><path class="cls-1" d="M2526.07,74.66c-1.72-10.25.75-13.84,11.61-20.88,10.26-6.65,21.57-10.59,33-14.3,4.93-1.6,10.43-1.41,15.66-2.14,3.16-.43,6.28-1.12,9.44-1.56a17.6,17.6,0,0,1,4.47-.11c4.2.48,8.44,1,12.58,1.74a27.9,27.9,0,0,1,7.13,1.88c7,3.25,14.12,6,20.2,11.44,9.51,8.5,6.72,16.47-1.35,22.65a167.17,167.17,0,0,1-20.45,13c-3.18,1.77-7.11,2.33-10.77,3-7.16,1.34-14.36,2.4-21.57,3.53a9.19,9.19,0,0,1-2.67-.06c-3.75-.51-7.5-1.27-11.25-1.59-10.51-.94-21.08-2.18-30.23-7.59-4-2.35-7.5-3.93-11.86-3a124.49,124.49,0,0,0-13,3.64c-9.05,3-17.21,7.5-23.91,14.41a14.74,14.74,0,0,0-3,16.49c.75,1.87,1.45,3.69,2.33,5.46,1.29,2.62,3.69,2.62,6.3,3.06,19,3.23,38.06.73,57.05,1.82a175,175,0,0,1,26.48,3.66c12.43,2.67,24.45,7.27,34.13,15.53,7.26,6.2,13.91,13.66,16.14,23.63,1.32,5.94,3,11.93,3.33,18a39.46,39.46,0,0,1-6,23.44c-7.66,12.06-17.74,21-31.74,25.74a92.89,92.89,0,0,1-22.87,5.08c-4.69.36-9.38,1.77-13.93,1.47-6.05-.39-12-2-18-3.08a30.88,30.88,0,0,0-4.9-.33c-16,0-32.06.33-48.07-.16-7.67-.25-15.27-2.16-22.92-3.18-6-.8-12-1.4-18-2.06-10.31-1.16-20.63-2.28-31-3.45-5.39-.61-10.84-.93-16.14-2-11.58-2.36-22.69-4.88-29.4-16.88-3.87-6.9-7.27-13.43-6.38-21.25,1.1-9.77,3.6-17.46,14.48-19.64,5.63-1.13,13-9.51,12.57-16.21a82.55,82.55,0,0,0-3.45-18.44c-3.54-11.74-2.68-23,7.36-31.48,6.47-5.47,13.24-11,20.79-14.62,4.55-2.17,10.83-.73,16.34-.8.8,0,1.59.84,2.42.94,7.93.7,15.88,1.88,23.8,1.74,5.27-.07,10.57-1.76,15.75-3.08,6.76-1.72,13.43-3.75,20.09-5.77,7.06-2.14,14.06-4.6,21.11-6.64C2520.35,74.88,2523.16,75,2526.07,74.66Zm14.52,155.76c-1.87-4.76-3.49-8.14-4.44-11.71-2.22-8.27-4.47-16.55-6-25-1.19-6.66-2.57-13.21-6.13-19-1.23-2-4-4.2-6.13-4.21a78.19,78.19,0,0,1-24.24-3.76c-6.56-2.21-13-4.87-19.74-6.47-2.9-.68-5.39-2.9-9.37-1.37-6.15,2.33-12.48,5.11-19.58,4.27-4.58-.53-9.29.23-13.89-.19-9.12-.85-16.12,2.67-22.16,9.21-4.77,5.16-4,12.38,2.05,15.8a20.24,20.24,0,0,1,2.64,1.51c11.8,9.17,25.83,13.51,39.59,18.44,7.76,2.82,15.85,4.91,23.18,8.55,13.7,6.78,27.48,12.44,43.13,11.32a12.73,12.73,0,0,1,2.23.16Z"/></g></g></svg>