<svg xmlns="http://www.w3.org/2000/svg" viewBox="0 0 2388.18 274.5"><defs><style>.cls-1{fill:#fff;}</style></defs><g id="Layer_2" data-name="Layer 2"><g id="Layer_1-2" data-name="Layer 1"><path class="cls-1" d="M2004.89,123.77a6.14,6.14,0,0,1-.52-1.24c-.27-3.46.65-7.85-1.14-10.08-1.42-1.78-6.29-.45-9.33-1.42-1.62-.52-2.63-3-4.8-5.65-3,.18-7.44.56-11.87.71-5.16.17-10.33.3-15.49.13-4-.14-7.5,0-6.94,5.52l-5.33,1.07V252.23c5.64,2.2,6.67,4.78,5.67,12.22-.45,3.39-2.78,3-4.77,2.75-3.89-.4-9.83,2.72-9.56-5.62-2.18-.11-4.13-.29-6.08-.29q-370,0-739.94-.06c-3.94,0-7.56-.18-7,5.57a38.52,38.52,0,0,1-4.14.45c-10.74-.16-9.23,1.64-9.54-9.59-.1-3.72,1.6-4.8,4.81-4.31,6,.91,10.22-1.69,14.4-5.91,19.81-20,39.93-39.73,59.87-59.62,1.19-1.18,1.79-2.95,2.66-4.45-3.72-1.05-1.24-7.33-7.38-7.29-48.66.35-97.33.2-146,.21-1.14,0-2.29.2-3.76.34-.33,3.53-1.17,6.74-6.18,5.83v76.29l4.69,1c.27.43.58.71.59,1,.42,14.14,2.61,13.08-13,12.08.32-5.77-3.51-5.59-7.82-5.59q-111.24.14-222.48.06h-6.62c-.47,2-.85,3.57-1.42,5.94-3.39,0-7,.2-10.58-.13-1-.08-2.39-1.68-2.54-2.73a29.54,29.54,0,0,1,0-8c.14-1.09,1.5-2.83,2.37-2.87,3.46-.15,3.49-2.27,3.49-4.77q0-62.74,0-125.49c0-2.85-1.27-4-3.54-5.65-2.75-2-5.65-5.87-5.73-9s3.16-6.38,5.18-9.43a31.45,31.45,0,0,1,3.89-4.13l-5.78-3.26c0-2.6-.2-6.22.13-9.79a3.87,3.87,0,0,1,2.76-2.51c3.28-.33,6.62-.12,10.16-.12.85,3.29,1.05,7.29,5.92,5.86,1.06-.32,2.74-1.33,2.73-2,0-4.07,2.59-3.89,5.4-3.91,8.63-.06,11.09,3.19,8.61,11.81-.24.85-1.42,1.46-2.24,2.1-1.13.87-2.31,1.66-3.47,2.49,1.08,1,2,2.31,3.28,3,3.91,2.07,6.68,5.47,6,9.52-.55,3.36-3.37,6.41-5.44,9.41-.91,1.31-2.47,2.17-3.73,3.24l5.21,2.44c-.64,6,4,5.05,8.18,5q61.5,0,123,0h6.65c.47-1.94.84-3.51,1.29-5.38l5-1.2V98.89l-5.49-1.25c0-3.47-.19-7.09.14-10.67.08-.94,1.73-2.38,2.77-2.49,3.28-.32,6.62-.11,10.39-.11-.43,6.67,4,6,8.22,6q187.48,0,375,0h6.07c1.2-2.27,1.87-5.29,3.13-5.56,3.34-.72,6.93-.35,10.41-.16.6,0,1.4,1.27,1.62,2.07a13,13,0,0,1,.16,3.48c-.06,9.27.66,7.83-8,8.23-2.43.11-5.46.85-7.11,2.44-18,17.39-35.7,35-53.49,52.56-.58.56-1,1.23-1.85,2.18,5.46,3.12,7.68,7.74,6.46,14.35,2.56.15,4.79.39,7,.4,50.83.1,101.66.11,152.49.29,31.33.11,62.65.47,94,.73,2.9,0,5.84.34,5.77-4.05,0-.62,1.47-1.65,2.37-1.81a20.58,20.58,0,0,1,5.49-.12c3.6.36,5.28-.9,4.94-4.74-.25-2.79,0-5.61,0-8.59l5.68-1.27c.11-1.71.31-3.49.31-5.27,0-16.66-.06-33.33.07-50,0-3.93-.21-7.1-5.14-6.56-.31-.53-.62-.81-.63-1.09-.36-14-2.7-13.1,13-12l1.23,5.05h63.85l1.25-5.48c3.47,0,7.09-.2,10.67.13a3.92,3.92,0,0,1,2.49,2.77c.32,3.29.12,6.62.12,10.39-6.68-.42-6,4-6,8.23.08,12.47,0,25,0,37.25,6.57,2.38,7.21,4.21,5.37,14.6l-5.73,1.19c.65,4.87.69,9.9,2.18,14.45.77,2.36,3.83,4.71,6.36,5.56,3.53,1.19,7.53,1.13,11.34,1.23,1.12,0,3.25-1.23,3.25-1.91,0-4.46,3-4,5.87-4,2.47,0,4.94,0,7.61,0,.48,2,.85,3.56,1.34,5.57h22.88c.34-1.62.68-3.19,1.07-5l5.19-1.11c.11-1.75.3-3.54.3-5.32,0-21.66,0-43.33,0-65,0-3.8.18-7.41-5-6.35-.41-.74-.71-1-.72-1.3-.27-13.82-2.9-13.14,13.06-12,.35,1.48.73,3,1.2,5h428.86l1.23-5.5c3.49,0,7.11-.2,10.69.13A3.91,3.91,0,0,1,2239,77.3c.32,3.29.12,6.62.12,10.38-6.69-.42-6,4-6,8.24.06,20.16,0,40.33,0,60.49v6.14l5.09,1.22c2.07,6.24,2.62,6.26,13.59,5.85,4.09-.15,4.55-2.37,4.64-5.3,6.38-2.2,6.55-2.57,5.21-11.37-5.93-.23-11.24-2.41-11.88-8.87a13.65,13.65,0,0,1,3.78-10c4.66-4.36,10.11-2.83,15.27,1.78v-34c-6.45.39-5.75-4.09-5.67-8.29.08-4.83.11-9.66,0-14.49-.07-2.79,1.05-4,3.83-3.8a23.12,23.12,0,0,0,4,0c4-.41,7,.35,6.48,5.68,1.91.12,3.53.33,5.15.33q43,0,86,0c2.86,0,5.86.44,5.8-4,0-.63,1.43-1.69,2.34-1.88,9.77-2,11.66-.38,11.36,9.57,0,1.14-.22,2.28-.36,3.68l-5.3,1.11c-.11,1.78-.3,3.56-.31,5.34,0,21,.06,42-.07,63,0,4,.32,7,5.17,6.54.31.54.61.82.61,1.11.28,13.82,2.9,13.13-13,11.95-.36-1.47-.73-3-1.21-5h-38.88c-.35,1.62-.68,3.19-1.07,5l-5.2,1.1c-.1,1.77-.29,3.55-.3,5.33,0,16.67.07,33.33-.07,50,0,4,.35,7,5.69,6.48v12.9c-7.37,1.65-12.27,5.35-13.32,13.66-3.51,0-7.13.16-10.72-.11a3.45,3.45,0,0,1-2.38-2.35c-.13-3-1.76-3.5-4.26-3.48q-73.74.58-147.48,1.11a6.88,6.88,0,0,0-1.42.29c-2.37,6.25-3.8,6.76-14.5,5-.1-3.63-1.43-6.29-5.79-6.83-1.34-.17-3.23-2.29-3.47-3.74-.65-3.94-2.83-5.32-7.49-5.1.49-7.52.89-14.73,1.54-21.92.05-.65,1.6-1.49,2.55-1.66,1.62-.28,3.34,0,5-.14,4-.42,6.95.42,6.43,6h15.7c9.5,0,19,0,28.5,0,2.54,0,4.54-.13,4.76-3.53,0-.89,2.12-2.24,3.37-2.37,7.21-.77,7.21-.67,7.43-7.8,0-1.15.2-2.29.34-3.68l5.22-1.2v-88c-4.48.17-6-2-5.71-6.35.23-3.6-2.1-5.73-5.79-6.1-1.45-.15-2.92-.25-4.56-.38-.36-1.81-.68-3.39-1.07-5.32-6.74,0-13.35,0-20,0q-16-.12-32-.31c-2.86,0-5.79-.46-5.87,4,0,.69-2.4,1.82-3.76,1.92-6.71.53-6.7.43-7,7.24,0,1-.2,2-.34,3.19l-4.87,1.17V237.57l5.38,1.2c2.35,8.63,1.3,12.82-3.44,13.84,4,1.31,6.52,6.49,3.94,12.14s-8.41,1.31-12.92,2.6c-.46-2.14-.8-3.71-1.13-5.23-8.83-2.35-11.84-1.33-13.31,4.78h-12.63c.41-6.32-4-5.69-8.23-5.66-13.81.09-27.62,0-41.26,0-2.42,6.6-4.17,7.22-14.61,5.38a32.2,32.2,0,0,1-.5-3.69c-.09-3.59-1.75-5.85-5.44-5.61-4,.27-4.87-1.63-4.61-5.09.2-2.63,0-5.28,0-8.33,6.2.33,6.08-3.46,6.07-7.79-.12-35-.07-70-.07-105V125Zm-384.73,49.58c-1.26-.13-2.39-.34-3.52-.36-15.67-.27-31.33-.71-47-.75-68.33-.15-136.66-.14-205-.35-4.53,0-7.47.73-7.25,6.48-6-.49-11.59-1.24-17.16-1.29-3.91,0-5.17-2.61-5.61-5.28-.59-3.51-.15-7.19-.15-9.11,7.53-3.5,15.15-5.11,20-9.66,18.67-17.35,36.5-35.59,54.5-53.65,1.56-1.57,2-4.25,3.27-7H1021.13c-.22,2-.41,3.58-.6,5.25l-5.41.87v29.72l5.35.92v12.55h-12.7c-.23-1.93-.41-3.54-.62-5.33H869.27c-.37,2.05-.68,3.78-.94,5.25H855.85V128.91l7-.85c-2.09-2-3-3.41-4.35-4.11-3.82-2-6.22-4.77-6.31-9.35-.1-4.79,2.14-8.31,6.38-9.66,3.8-1.21,2.84-3.2,2.44-5.71l-5.26-.52c-.24-1.94-.47-3.67-.7-5.47h-7.88c-.29,2-.54,3.69-.8,5.49l-5.18.52c-.59,2.82-.92,4.68,2.65,5.79,3.83,1.2,6,4.41,6.19,8.78s-1.35,7.9-5.24,9.34c-3.58,1.33-4.08,3.33-4.07,6.65q.15,62.25.07,124.49c0,1.63.14,3.25.21,4.87l5.48.93c.25,1.93.46,3.53.67,5.12h236.94c.27-2,.49-3.62.72-5.31l5.3-.61V182.41l-5.29-.92V169h12.67c.24,2,.44,3.57.65,5.27h155c.23-2,.43-3.58.64-5.4h11.86c5.06,4.88,4.77,10.74,3.62,17.12a65.56,65.56,0,0,0-8.68.1c-2,.26-4.33.91-5.68,2.23q-32.49,31.84-64.66,64c-1.55,1.55-2,4.2-3.22,6.91h754.11c.25-2,.45-3.59.67-5.31l5.34-.62V112.41l-5.31-.91V99h12.68c.24,2,.43,3.55.66,5.53,9.84,0,19.47-.12,29.1.06,4.7.09,8.4-.45,7.36-6.69h12.77c.31,8.63,5.11,12.61,13.07,13.25v12.55l-5.74.67V243.12l6.33,1.1v9.16l9.32.48c.34,2,.62,3.76.9,5.47H2078c.35-2,.64-3.74,1-5.92h10.29c-.42-1.17-.61-1.79-.86-2.37-2-4.46-2.11-8.89,1.56-12.41s8-3.9,12.85-1.34c2.26,1.21,5.21,1.13,7.81,1.62V126.48l-5.86-1V113c8.26-.87,8.26-.87,11.48-11h12.22c.26,2,.46,3.66.73,5.82H2187c.38-2.5.65-4.24.86-5.6,4.48-.66,8.66-.82,12.57-2,7.34-2.11,14.54,3.67,13.33,11.22-.79,5-1.87,9.91-2.88,15.17l-4.78.72v88.76l5.39.91v12.77c-9.05-.77-11,4.87-11,11.73h-12.72c-.26-2-.48-3.6-.75-5.66h-41.22c6.4,6.62,5.31,12.51.23,18.36l6.52.7c.21,1.93.4,3.53.54,4.81H2307l1.16-6.47h12.5V241l5.55-.65V178.41l-5.3-.91V165h12.68c.24,2,.43,3.56.64,5.29h40c.21-2,.38-3.58.56-5.25l5.44-.86V89.43l-5.43-.93c-.24-1.89-.44-3.49-.64-5-13.16-1.91-94.86-.83-97.15,1.6,1.44-.19,2.5-.38,3.56-.47,5.71-.48,9.35,1.54,11.34,6.09s.6,8.2-2.59,11.32c-3.69,3.6-7.89,3.51-13.18.39-1.36-.81-3.07-1-5.56-1.83v50.72l5,.69v12.55l-5.89,1v11.09h-12.86c-.22-1.91-.41-3.51-.62-5.37h-16.9l-.91,5.29h-12.51V163.91l5.28-.64v-75l-5.24-.61-.88-5.41H1795.29l-.93,5.43-5.15.65v77l5.34.66v12.75h-12.76c-.24-1.94-.45-3.67-.68-5.48h-23.89c-.28,2-.54,3.69-.79,5.42h-12.89c1.16-6-2.38-6.58-6.66-6.44-1.66.06-3.34-.07-5-.17-8.11-.52-12-4.45-12.51-12.55-.21-3.41-.5-6.82-.74-10.1l-5.78-.88V135.91l5.26-.65v-46l-5.23-.62c-.33-2-.61-3.69-.89-5.39h-64.71c-.35,2-.64,3.74-.92,5.4l-5.14.69v61.93l5.33.71v12.93c-4.65-1.21-6.69,1.68-8.68,4.79-1.78,2.8-3.71,5.49-6.06,8.95h-11C1620.56,176.77,1620.37,175.16,1620.16,173.35Zm472.16,82.9c-.42,3.76,3.09,4.74,12.7,2.74v-4.8Zm39.23-4.69c-1,6.9,1.12,9.12,7.58,8.56C2140.92,253.21,2134.12,254.77,2131.55,251.56Z"/><path class="cls-1" d="M165.86,187.83l-5.19-1c.71-6.5-4-5.55-8.12-5.53-7.81,0-15.62,0-23.43,0l.66,1.26c-1.91,1.72-4.49,3.12-5.56,5.27-1.24,2.51-1.15,5.67-1.69,8.89l-5,1.15v47.91l5.7,1.19c-.41,8-.76,16.08-1.33,24.12a3.12,3.12,0,0,1-2.19,2,49.88,49.88,0,0,1-9,0,3.44,3.44,0,0,1-2.4-2.32c-.15-3-1.7-3.52-4.24-3.51q-43.48.08-87,.06a14.64,14.64,0,0,0-1.91.28c-2.2,5.65-4.79,6.69-12.23,5.69C-.39,272.83,0,270.5.25,268.51c.4-3.89-2.72-9.82,5.61-9.55.12-2,.3-3.8.3-5.59,0-20.33-.06-40.66.09-61,0-4-.52-6.92-5.33-6.49a7.3,7.3,0,0,1-.61-1.64c-1-12.38.31-13.5,13.26-11.34.32,1.45.67,3,1.11,5,11.89,0,23.81,0,35.73-.09.2,0,.4-1.36.52-1.8-3.46-.25-6.86.15-9.79-.85-5.78-2-8-8.36-5.55-14a10.61,10.61,0,0,1,13.95-5.09c1.05.48,2,1.31,3.05,1.69,2.58.91,4.71.75,4.72-2.79,0-13.81.13-27.63-.21-41.43,0-1.55-2.77-3-4.26-4.54l-1.22.77v-13c1.37-.18,2.64-.45,3.91-.49,4.18-.14,6.71-2.23,6.55-6.4C61.93,86,63.63,85,67.14,85.28c2.63.21,5.29,0,8.4,0-.43,6.7,4,6,8.22,6q76.49-.06,153,0H243c2.45-6.6,4.14-7.2,14.26-5.44,2.82,9.78,2.82,9.78,10,10.92,2.53,8.87,1.34,12.72-4.76,14.18-.12,1.33-.36,2.78-.36,4.23,0,30.67.06,61.33-.11,92,0,4.35,1.6,5.67,5.56,5.11a22.75,22.75,0,0,1,5.41-.55,10.52,10.52,0,0,1,8.52,15.16c-.66,1.45-1.53,2.82-2.95,5.42h112c0-4.42,2.88-5.73,7.32-5,4.13.65,5.69-1.13,5.37-5.29-.27-3.62-1.12-8.12,5.94-6.65V206.9c0-11.83-.07-23.66,0-35.49,0-3.85.09-7.36-6-6.14,0-3.09.13-5.55,0-8-.25-3.77.17-6.29,5.14-6.27,1.61,0,4.63-3.31,4.58-5-.15-5.38,2.46-6.1,6.74-5.68,2.13.21,4.3,0,6.93,0-.43,6.33,3.71,6.54,8.06,6.53,10.49,0,21-.08,31.47,0,3.92,0,7-.77,6.32-6.47,3.28,0,6.24.17,9.16-.05,3.45-.25,4.89,1,4.62,4.54-.28,3.71,1.64,5.77,5.38,5.44,4-.34,4.88,1.59,4.62,5.06-.21,2.63,0,5.29,0,8.36-6.81-.43-6.08,4.07-6,8.26.08,5.81,0,11.62,0,17.62l5.39,1.3c.34,1.45.71,3,1.19,5H554.6c.34-1.62.68-3.19,1.07-5l5.4-1.15c0-7.72.2-15.51-.22-23.26-.06-1.17-3-2.18-5.3-3.72V151c8.58-1.48,9.1-2.45,10.13-10.86,9-2.57,12.66-1.44,14.2,4.86,2,.09,4.09.26,6.21.27,13.16,0,26.33-.09,39.49.07,4,.05,7.48,0,6.91-5.73,5.67.54,5.83-2.82,5.75-6.9-.19-10.8-.06-21.62-.06-32.11-2.25-1.17-5.28-1.82-5.55-3.08-.73-3.33-.4-6.93-.16-10.41,0-.64,1.59-1.62,2.5-1.7a52.2,52.2,0,0,1,8.48,0c.89.07,2.44,1.15,2.43,1.75-.08,4.31,2.86,4.74,5.65,3.91,1.94-.57,3.42-2.71,5.1-4.15l-.78-1a2.86,2.86,0,0,1,.87-.44c12.18-1.2,12.18-1.12,13.41,12.27.47,5.05,1.27,10.08,2.12,15.08s-1,8.62-5.07,11.55c-1.36,1-2.91,2.9-2.91,4.4-.14,39-.08,78,0,117a6.68,6.68,0,0,0,.3,1.41c6.23,2.36,6.79,3.92,5.24,13.1-3.72,2.08-6.87,3.79-10,5.63-.64.38-1.48,1.29-1.42,1.87.86,8.11-4.92,6.32-9.42,6.38-1.3,0-2.61-.19-4.17-.32-.38-1.69-.73-3.27-1.18-5.24H184.73c-.36,1.64-.71,3.21-1.28,5.81-7.12-.47-14.32-.89-21.51-1.5-.61-.05-1.55-1.33-1.59-2.08a79.07,79.07,0,0,1,0-9.49c0-.69,1.17-1.91,1.77-1.89,4.39.11,4.05-2.85,4-5.74q0-30.51,0-61C166.16,191.18,166,189.56,165.86,187.83Zm389.3,10.45H496.27c-.34,2-.64,3.75-.91,5.32H482.82V190.91l5.31-.63v-26l-5.46-.61c-.15-3.28-.29-6.34-.44-9.47l-9.44-.45c-.23-2-.42-3.6-.63-5.46h-44.9c-.34,2-.64,3.76-1,5.93h-9.49v10.32l-5.88.91v49.79l5.64.77v12.5c-9.09,1.23-10.5,2.65-12.32,12.2H391.85c-.28-2-.53-3.72-.87-6.07H279.15c-.25,1.79-.48,3.39-.79,5.62l-23.48-1.54V212.94l5.19-.7V110.31l-5.84-.79V99.17l-9.45-.42-.66-5.42h-168c-.23,2-.42,3.57-.69,5.82H64.66v10.51l-5.51.64v47.89l5.28.92V185.6H51.77c-.25-2-.45-3.57-.66-5.25h-37l-.63,5.22-5.38.91v72.7l5.39.92c.26,1.92.47,3.51.68,5,13.88,1.89,91.87.82,94.58-1.71a14.19,14.19,0,0,0-3.5-.22c-5,1.13-8.78-.62-11.25-4.95A9.94,9.94,0,0,1,96,246c3.19-3,8.15-3.29,12.5-1.08,1.9,1,4.09,1.35,6.65,2.16V197.41l-5.45-.95V184l5-.81V174h12.84l.68,5.19h31.93c.28-2,.5-3.61.73-5.29h12.69v12.66l-5.33.82v63.71c6.69-4.44,11.37-4.94,15.28-1.61,6.06,5.14,3.72,10.86.43,16.79H644c.37-2.05.68-3.79,1.07-6H656.6V248.94l5.29-.61a5.71,5.71,0,0,0,.49-1.54q.06-59.25,0-118.49a4.53,4.53,0,0,0-2.62-3.2c-4.42-1.47-6.8-4.28-7.7-8.84a6.16,6.16,0,0,0-3-3.6c-4.35-2.33-7-5.48-6.65-10.67a9.56,9.56,0,0,0-.75-2.85l-1.17.15v40l5,.71v12.68H632.88c-.32-2-.59-3.7-.87-5.43H579.29c-.35,2-.65,3.73-1,5.9h-9.46v10.47l-5.54.69v26l5.23.76v12.65H555.78C555.56,201.79,555.37,200.18,555.16,198.28Z"/><path class="cls-1" d="M696.73,102.74l-4.67-.87c-.27-.44-.58-.71-.59-1-.4-14.13-2.62-13.08,13-12.08-.32,5.77,3.5,5.64,7.81,5.6,17.33-.16,34.66-.07,52-.07h6.11c.48-2,.86-3.56,1.43-5.94,3.39,0,7-.19,10.58.13A3.93,3.93,0,0,1,785,91.25a29.47,29.47,0,0,1,0,8c-.14,1.09-1.48,2.81-2.38,2.87-3,.21-3.49,1.76-3.49,4.28q.07,75,.07,150a12.73,12.73,0,0,0,.27,1.91c5.65,2.2,6.7,4.79,5.69,12.23-.45,3.39-2.79,3-4.78,2.74-3.88-.4-9.82,2.72-9.55-5.61-2-.11-3.8-.3-5.58-.3-18,0-36,.07-54-.08-4,0-6.93.5-6.49,5.32a7.48,7.48,0,0,1-1.64.61c-12.38,1-13.5-.31-11.34-13.25l5-1.11Zm7.71,157.12c.31,2,.57,3.74.84,5.48H771c.34-2,.63-3.72.92-5.44l5.19-.64v-157l-5.26-.57c-.31-2-.57-3.7-.84-5.44H705.28c-.33,2-.62,3.72-.91,5.44l-5.19.64v157Z"/><path class="cls-1" d="M544.21,169.11c.1,8.18-7.9,13.2-15.27,9.3-2.53-1.34-4.22-1.33-6.68.07a10.16,10.16,0,0,1-13.3-2.94A11,11,0,0,1,509,163a10.09,10.09,0,0,1,13.33-2.8c2.52,1.46,4.2,1.24,6.68-.07A10.17,10.17,0,0,1,544.21,169.11Z"/><path class="cls-1" d="M460.15,10.45a10.69,10.69,0,0,1-10.26,10.66c-5.63.08-10.81-5.22-10.68-10.93A10.54,10.54,0,0,1,449.9,0,10,10,0,0,1,460.15,10.45Z"/><path class="cls-1" d="M2177.74,217.38c-6,.05-10.47-4.19-10.57-10.09a10.73,10.73,0,0,1,10.49-10.92A10.88,10.88,0,0,1,2188.11,207,10.38,10.38,0,0,1,2177.74,217.38Z"/><path class="cls-1" d="M1220.15,190.7c-.08-6.1,4-10.41,10-10.56a10.31,10.31,0,0,1,10.91,10.38,11.12,11.12,0,0,1-10.48,10.64C1225.19,201.3,1220.22,196.34,1220.15,190.7Z"/><path class="cls-1" d="M880.13,107.57c0-6.07,4.12-10.34,10.16-10.43a10.44,10.44,0,0,1,10.8,10,11.18,11.18,0,0,1-10.63,11C885,118.2,880.16,113.22,880.13,107.57Z"/><path class="cls-1" d="M611.17,128.34A10.19,10.19,0,0,1,600.72,118,10.75,10.75,0,0,1,611,107.36c5.63-.12,11,5.18,10.85,10.74A10.6,10.6,0,0,1,611.17,128.34Z"/><path class="cls-1" d="M1129.56,203.7a10.71,10.71,0,0,1-10.41,10.53,11.21,11.21,0,0,1-10.76-10.36c-.16-5.69,4.92-10.66,10.85-10.6A10.17,10.17,0,0,1,1129.56,203.7Z"/><path class="cls-1" d="M996.11,107.38a10.79,10.79,0,0,1-10.23,10.75c-5.48.18-10.55-4.72-10.69-10.31a10.46,10.46,0,1,1,20.92-.44Z"/><path class="cls-1" d="M1770.21,144.46c0,5.72-4.69,10.65-10.2,10.71s-10.61-5-10.78-10.36a10.57,10.57,0,0,1,10.71-10.66C1766,134.19,1770.2,138.38,1770.21,144.46Z"/><path class="cls-1" d="M1976.55,122.6c5.43.06,10.52,5.18,10.52,10.58a10.72,10.72,0,0,1-10.94,10.52,10.1,10.1,0,0,1-10-10.67A10.62,10.62,0,0,1,1976.55,122.6Z"/><path class="cls-1" d="M2355.67,210.46c-6.17.1-10.48-3.94-10.61-10s4.64-11.12,10.32-11.07c5.37,0,10.5,5.1,10.66,10.51S2361.33,210.37,2355.67,210.46Z"/><path class="cls-1" d="M139,198.24a10.42,10.42,0,0,1,10.8,10c.24,5.64-4.92,11-10.59,10.94a11,11,0,0,1-10.54-10.49A10.35,10.35,0,0,1,139,198.24Z"/><path d="M1620.16,173.35c.21,1.81.4,3.42.62,5.32h11c2.35-3.46,4.28-6.15,6.06-8.95,2-3.11,4-6,8.68-4.79V152l-5.33-.71V89.36l5.14-.69c.28-1.66.57-3.39.92-5.4H1712c.28,1.7.56,3.42.89,5.39l5.23.62v46l-5.26.65v12.61l5.78.88c.24,3.28.53,6.69.74,10.1.5,8.1,4.4,12,12.51,12.55,1.66.1,3.34.23,5,.17,4.28-.14,7.82.47,6.66,6.44h12.89c.25-1.73.51-3.46.79-5.42h23.89c.23,1.81.44,3.54.68,5.48h12.76V166l-5.34-.66v-77l5.15-.65.93-5.43H2225l.88,5.41,5.24.61v75l-5.28.64v12.67h12.51l.91-5.29h16.9c.21,1.86.4,3.46.62,5.37h12.86V165.57l5.89-1V152l-5-.69V100.6c2.49.79,4.2,1,5.56,1.83,5.29,3.12,9.49,3.21,13.18-.39,3.19-3.12,4.52-6.88,2.59-11.32s-5.63-6.57-11.34-6.09c-1.06.09-2.12.28-3.56.47,2.29-2.43,84-3.51,97.15-1.6.2,1.51.4,3.11.64,5l5.43.93v74.73l-5.44.86c-.18,1.67-.35,3.29-.56,5.25h-40c-.21-1.73-.4-3.33-.64-5.29h-12.68V177.5l5.3.91V240.3l-5.55.65v12.37h-12.5l-1.16,6.47H2153.11c-.14-1.28-.33-2.88-.54-4.81l-6.52-.7c5.08-5.85,6.17-11.74-.23-18.36H2187c.27,2.06.49,3.66.75,5.66h12.72c-.05-6.86,1.94-12.5,11-11.73V217.08l-5.39-.91V127.41l4.78-.72c1-5.26,2.09-10.19,2.88-15.17,1.21-7.55-6-13.33-13.33-11.22-3.91,1.13-8.09,1.29-12.57,2-.21,1.36-.48,3.1-.86,5.6h-57.75c-.27-2.16-.47-3.78-.73-5.82h-12.22c-3.22,10.09-3.22,10.09-11.48,11v12.52l5.86,1V238.91c-2.6-.49-5.55-.41-7.81-1.62-4.8-2.56-9.11-2.24-12.85,1.34s-3.53,8-1.56,12.41c.25.58.44,1.2.86,2.37H2079c-.38,2.18-.67,3.91-1,5.92h-49.71c-.28-1.71-.56-3.43-.9-5.47l-9.32-.48v-9.16l-6.33-1.1V124.35l5.74-.67V111.13c-8-.64-12.76-4.62-13.07-13.25h-12.77c1,6.24-2.66,6.78-7.36,6.69-9.63-.18-19.26-.06-29.1-.06-.23-2-.42-3.58-.66-5.53h-12.68V111.5l5.31.91V253.3l-5.34.62c-.22,1.72-.42,3.32-.67,5.31H1187.05c1.22-2.71,1.67-5.36,3.22-6.91q32.16-32.17,64.66-64c1.35-1.32,3.7-2,5.68-2.23a65.56,65.56,0,0,1,8.68-.1c1.15-6.38,1.44-12.24-3.62-17.12h-11.86c-.21,1.82-.41,3.43-.64,5.4h-155c-.21-1.7-.41-3.3-.65-5.27h-12.67v12.5l5.29.92V259.3l-5.3.61c-.23,1.69-.45,3.3-.72,5.31H847.2c-.21-1.59-.42-3.19-.67-5.12l-5.48-.93c-.07-1.62-.2-3.24-.21-4.87q0-62.25-.07-124.49c0-3.32.49-5.32,4.07-6.65,3.89-1.44,5.38-5.08,5.24-9.34s-2.36-7.58-6.19-8.78c-3.57-1.11-3.24-3-2.65-5.79l5.18-.52c.26-1.8.51-3.53.8-5.49h7.88c.23,1.8.46,3.53.7,5.47l5.26.52c.4,2.51,1.36,4.5-2.44,5.71-4.24,1.35-6.48,4.87-6.38,9.66.09,4.58,2.49,7.31,6.31,9.35,1.31.7,2.26,2.09,4.35,4.11l-7,.85v12.65h12.48c.26-1.47.57-3.2.94-5.25h137.88c.21,1.79.39,3.4.62,5.33h12.7V129.09l-5.35-.92V98.45l5.41-.87c.19-1.67.38-3.29.6-5.25h391.18c-1.25,2.8-1.71,5.48-3.27,7-18,18.06-35.83,36.3-54.5,53.65-4.9,4.55-12.52,6.16-20,9.66,0,1.92-.44,5.6.15,9.11.44,2.67,1.7,5.25,5.61,5.28,5.57,0,11.14.8,17.16,1.29-.22-5.75,2.72-6.5,7.25-6.48,68.33.21,136.66.2,205,.35,15.66,0,31.32.48,47,.75C1617.77,173,1618.9,173.22,1620.16,173.35Zm-37.53,54.37h12.87c.25-1.94.48-3.67.72-5.53l9.35-.45V208.87l-9.43-.52c-.24-2-.43-3.66-.64-5.48h-12.87c.7,5.67-2.75,5.8-6.84,5.79q-80.19-.1-160.38,0h-5.21c-.3-2.38-.51-4-.74-5.72h-12.57c-.32,2-.6,3.71-.94,5.86h-9.19v13l9.36.43c.29,2.16.51,3.77.74,5.49h12.57c.31-2,.59-3.7.87-5.44h77.75c.31,2,.59,3.7.86,5.39h12.63c.22-1.92.41-3.53.62-5.38,1.65-.11,3.11-.27,4.58-.27,23.14,0,46.29,0,69.44-.08C1580.31,221.89,1583.19,222.62,1582.63,227.72Zm-337-101.91-8.28-.39c-.43-1.84-.76-3.24-1.08-4.59h-12.41c-.19,4.93-3.14,5.89-7.38,5.84q-51.43-.65-102.89-1c-4.38,0-7.57-.42-7.08-5.77h-12.74c-.2,1.92-.37,3.52-.57,5.37l-8.38.63v12.8l7.3.48c.28,2,.52,3.7.78,5.57h12.42c.59-4.77,3.59-6,8-5.83,14,.49,28,.72,41.93,1.07a9,9,0,0,1,1.82.43c.34,1.9.65,3.63.91,5.11h12.54c.26-2,.47-3.6.85-6.55,14.93,0,29.72.16,44.5-.1,4.6-.08,7.84.7,8.13,5.66h12.52c.26-2,.47-3.6.71-5.39l8.38-.47ZM868.36,248c5.42,0,10.29-4.56,10.42-9.83s-5.41-10.68-10.55-10.54a10.53,10.53,0,0,0-9.83,10.42A9.58,9.58,0,0,0,868.36,248Zm790.06-137.36c0,5.38,4.84,10.27,10,10.25,5,0,10.23-5.19,10.34-10.24.12-5.4-4.92-10.23-10.58-10.14A9.68,9.68,0,0,0,1658.42,110.68Zm-595.8,137.38a10.43,10.43,0,0,0,10.2-10c0-5-5.07-10.23-10.17-10.38-5.34-.16-10.29,5-10.2,10.6A9.75,9.75,0,0,0,1062.62,248.06ZM1816.4,120c5.38,0,10.3-4.7,10.39-10s-4.85-10.23-10.08-10.41A10.27,10.27,0,0,0,1806.4,110,9.86,9.86,0,0,0,1816.4,120Zm536.16.23c5.49,0,10.34-4.84,10.22-10.1a10.43,10.43,0,0,0-10.47-9.86c-5.88.06-9.94,4.21-9.9,10.13S2346.61,120.28,2352.56,120.23ZM1929.85,232c.05-5.9-4-10.26-9.74-10.35a10.71,10.71,0,0,0-10.55,10c-.17,5.19,4.79,10.24,10.18,10.38A9.89,9.89,0,0,0,1929.85,232Zm422.63-98.45c-5.91,0-10,4-10.07,9.8-.08,5.63,4.86,10.76,10.18,10.58,5-.17,10.2-5.45,10.19-10.42C2362.77,138.25,2357.9,133.54,2352.48,133.52Zm-1310.33-24c-5.94,0-9.91,4.06-9.87,10,0,5.54,4.76,10.37,10,10.26a10.69,10.69,0,0,0,10-10.4A9.85,9.85,0,0,0,1042.15,109.5Zm658.91,1c0-6-4-10-9.93-10a9.64,9.64,0,0,0-10,10c0,5.42,4.74,10.35,10,10.37S1701.05,116,1701.06,110.53ZM1218.1,255a10.16,10.16,0,0,0,10.31-10,10.63,10.63,0,0,0-10.08-10.39,10.18,10.18,0,0,0-10.09,10.18C1208.2,250.7,1212.32,255,1218.1,255ZM1381.16,96.5a9.62,9.62,0,0,0-10.07,9.93c0,5.42,4.67,10.31,10,10.38s10-4.78,10-10.29C1391.08,100.54,1387.1,96.51,1381.16,96.5Z"/><path d="M2092.32,256.25l12.7-2.06V259C2095.41,261,2091.9,260,2092.32,256.25Z"/><path d="M2131.55,251.56c2.57,3.21,9.37,1.65,7.58,8.56C2132.67,260.68,2130.53,258.46,2131.55,251.56Z"/><path d="M555.16,198.28c.21,1.9.4,3.51.62,5.4H568.5V191l-5.23-.76v-26l5.54-.69V153.16h9.46c.37-2.17.67-3.9,1-5.9H632c.28,1.73.55,3.45.87,5.43h12.64V140l-5-.71v-40l1.17-.15a9.56,9.56,0,0,1,.75,2.85c-.33,5.19,2.3,8.34,6.65,10.67a6.16,6.16,0,0,1,3,3.6c.9,4.56,3.28,7.37,7.7,8.84a4.53,4.53,0,0,1,2.62,3.2q.17,59.25,0,118.49a5.71,5.71,0,0,1-.49,1.54l-5.29.61v11.39H645.11c-.39,2.17-.7,3.91-1.07,6H183.93c3.29-5.93,5.63-11.65-.43-16.79-3.91-3.33-8.59-2.83-15.28,1.61V187.4l5.33-.82V173.92H160.86c-.23,1.68-.45,3.28-.73,5.29H128.2l-.68-5.19H114.68v9.14l-5,.81v12.49l5.45.95v49.68c-2.56-.81-4.75-1.2-6.65-2.16C104.15,242.72,99.19,243,96,246a9.94,9.94,0,0,0-2,12.23c2.47,4.33,6.24,6.08,11.25,4.95a14.19,14.19,0,0,1,3.5.22c-2.71,2.53-80.7,3.6-94.58,1.71-.21-1.51-.42-3.1-.68-5l-5.39-.92v-72.7l5.38-.91.63-5.22h37c.21,1.68.41,3.28.66,5.25H64.43V159.11l-5.28-.92V110.3l5.51-.64V99.15H75.45c.27-2.25.46-3.86.69-5.82h168l.66,5.42,9.45.42v10.35l5.84.79V212.24l-5.19.7v25.78l23.48,1.54c.31-2.23.54-3.83.79-5.62H391c.34,2.35.59,4.09.87,6.07H404.2c1.82-9.55,3.23-11,12.32-12.2V216l-5.64-.77V165.45l5.88-.91V154.22h9.49c.37-2.17.67-3.91,1-5.93h44.9c.21,1.86.4,3.47.63,5.46l9.44.45c.15,3.13.29,6.19.44,9.47l5.46.61v26l-5.31.63V203.6h12.54c.27-1.57.57-3.31.91-5.32Zm-519.31-.83c-5.82-.07-10.19,4-10.37,9.63s4.74,10.77,10.17,10.75c5.19,0,10.1-5,10.18-10.29A10,10,0,0,0,35.85,197.45Zm0,30.89a9.85,9.85,0,0,0-10.34,9.8,10.18,10.18,0,0,0,20.36.36A9.93,9.93,0,0,0,35.81,228.34Z"/><path d="M704.44,259.86l-5.26-.52v-157l5.19-.64c.29-1.72.58-3.46.91-5.44H771c.27,1.74.53,3.46.84,5.44l5.26.57v157l-5.19.64c-.29,1.72-.58,3.46-.92,5.44H705.28C705,263.6,704.75,261.88,704.44,259.86ZM726.8,133.19c5.93,0,10.07-4,10.1-9.87a9.85,9.85,0,0,0-10-10.18c-5.41,0-10.35,4.71-10.42,10S721.27,133.16,726.8,133.19Zm10.1,104.89c-.08-5.83-4.3-9.85-10.25-9.75-5.5.08-10.31,4.93-10.12,10.19a10.35,10.35,0,0,0,10.55,9.74C733,248.17,737,244,736.9,238.08Zm12.81-104.86a10,10,0,0,0,10.12-10,10.48,10.48,0,0,0-10.12-10.2,10.17,10.17,0,0,0-10.24,10.44C739.61,129.21,743.87,133.26,749.71,133.22Zm-.26,95.09a9.75,9.75,0,0,0-10,10c0,5.9,4.46,10.13,10.5,10a10,10,0,1,0-.52-20Z"/><path class="cls-1" d="M1582.63,227.72c.56-5.1-2.32-5.83-6.45-5.81-23.15.13-46.3.06-69.44.08-1.47,0-2.93.16-4.58.27-.21,1.85-.4,3.46-.62,5.38h-12.63c-.27-1.69-.55-3.42-.86-5.39H1410.3c-.28,1.74-.56,3.46-.87,5.44h-12.57c-.23-1.72-.45-3.33-.74-5.49l-9.36-.43v-13H1396c.34-2.15.62-3.87.94-5.86h12.57c.23,1.74.44,3.34.74,5.72h5.21q80.19,0,160.38,0c4.09,0,7.54-.12,6.84-5.79h12.87c.21,1.82.4,3.43.64,5.48l9.43.52v12.87l-9.35.45c-.24,1.86-.47,3.59-.72,5.53Zm-4.71-17.17c-1.4-.1-2.54-.26-3.68-.26q-79.5,0-159-.08c-3.79,0-5.3,1-5.25,5,0,3.87,1.18,5.18,5.15,5.15,22.66-.16,45.32-.11,68-.05,3,0,5.32-.16,5.28-4.06,0-.62,1.5-1.77,2.36-1.82,3.59-.2,7.2-.08,10.74-.08.5,2.29.84,3.87,1.22,5.65h75.18Z"/><path class="cls-1" d="M1245.61,125.81v12.91l-8.38.47c-.24,1.79-.45,3.38-.71,5.39H1224c-.29-5-3.53-5.74-8.13-5.66-14.78.26-29.57.1-44.5.1-.38,2.95-.59,4.54-.85,6.55H1158c-.26-1.48-.57-3.21-.91-5.11a9,9,0,0,0-1.82-.43c-14-.35-28-.58-41.93-1.07-4.43-.16-7.43,1.06-8,5.83h-12.42c-.26-1.87-.5-3.6-.78-5.57l-7.3-.48v-12.8l8.38-.63c.2-1.85.37-3.45.57-5.37h12.74c-.49,5.35,2.7,5.74,7.08,5.77q51.45.26,102.89,1c4.24,0,7.19-.91,7.38-5.84h12.41c.32,1.35.65,2.75,1.08,4.59Zm-134.36,1.71v9.92c2.31.25,4.28.61,6.24.64,10.83.13,21.66,0,32.48.3,4.3.1,8.15.23,7.79-6,3.21,0,6,0,8.83,0,2.53-.06,4.55.09,4.76,3.51.05.89,2.18,2.37,3.36,2.37,13,.08,26-.15,39-.15,4.29,0,5.56-1.69,5.49-6-.09-4.87-3.23-3.83-5.79-3.85q-48.72-.53-97.43-.89C1114.33,127.27,1112.7,127.44,1111.25,127.52Z"/><path class="cls-1" d="M868.36,248a9.58,9.58,0,0,1-10-9.95,10.53,10.53,0,0,1,9.83-10.42c5.14-.14,10.68,5.39,10.55,10.54S873.78,248.07,868.36,248Z"/><path class="cls-1" d="M1658.42,110.68a9.68,9.68,0,0,1,9.81-10.13c5.66-.09,10.7,4.74,10.58,10.14-.11,5-5.33,10.22-10.34,10.24C1663.26,121,1658.47,116.06,1658.42,110.68Z"/><path class="cls-1" d="M1062.62,248.06a9.75,9.75,0,0,1-10.17-9.8c-.09-5.61,4.86-10.76,10.2-10.6,5.1.15,10.2,5.36,10.17,10.38A10.43,10.43,0,0,1,1062.62,248.06Z"/><path class="cls-1" d="M1816.4,120a9.86,9.86,0,0,1-10-10,10.27,10.27,0,0,1,10.31-10.35c5.23.18,10.17,5.28,10.08,10.41S1821.78,120,1816.4,120Z"/><path class="cls-1" d="M2352.56,120.23c-5.95,0-10.11-4-10.15-9.83s4-10.07,9.9-10.13a10.43,10.43,0,0,1,10.47,9.86C2362.9,115.39,2358.05,120.18,2352.56,120.23Z"/><path class="cls-1" d="M1929.85,232a9.89,9.89,0,0,1-10.11,10c-5.39-.14-10.35-5.19-10.18-10.38a10.71,10.71,0,0,1,10.55-10C1925.8,221.71,1929.9,226.07,1929.85,232Z"/><path class="cls-1" d="M2352.48,133.52c5.42,0,10.29,4.73,10.3,10,0,5-5.15,10.25-10.19,10.42-5.32.18-10.26-5-10.18-10.58C2342.48,137.48,2346.57,133.5,2352.48,133.52Z"/><path class="cls-1" d="M1042.15,109.5a9.85,9.85,0,0,1,10.21,9.9,10.69,10.69,0,0,1-10,10.4c-5.28.11-10-4.72-10-10.26C1032.24,113.56,1036.21,109.52,1042.15,109.5Z"/><path class="cls-1" d="M1701.06,110.53c0,5.51-4.7,10.39-10,10.36s-10-5-10-10.37a9.64,9.64,0,0,1,10-10C1697.06,100.53,1701.07,104.57,1701.06,110.53Z"/><path class="cls-1" d="M1218.1,255c-5.78,0-9.9-4.3-9.86-10.19a10.18,10.18,0,0,1,10.09-10.18A10.63,10.63,0,0,1,1228.41,245,10.16,10.16,0,0,1,1218.1,255Z"/><path class="cls-1" d="M1381.16,96.5c5.94,0,9.92,4,9.89,10,0,5.51-4.74,10.35-10,10.29s-10-5-10-10.38A9.62,9.62,0,0,1,1381.16,96.5Z"/><path class="cls-1" d="M35.85,197.45a10,10,0,0,1,10,10.09c-.08,5.31-5,10.28-10.18,10.29-5.43,0-10.36-5.19-10.17-10.75S30,197.38,35.85,197.45Z"/><path class="cls-1" d="M35.81,228.34a9.93,9.93,0,0,1,10,10.16,10.18,10.18,0,0,1-20.36-.36A9.85,9.85,0,0,1,35.81,228.34Z"/><path class="cls-1" d="M726.8,133.19c-5.53,0-10.34-4.74-10.28-10s5-10.06,10.42-10a9.85,9.85,0,0,1,10,10.18C736.87,129.19,732.73,133.23,726.8,133.19Z"/><path class="cls-1" d="M736.9,238.08c.07,5.95-3.92,10.09-9.82,10.18a10.35,10.35,0,0,1-10.55-9.74c-.19-5.26,4.62-10.11,10.12-10.19C732.6,228.23,736.82,232.25,736.9,238.08Z"/><path class="cls-1" d="M749.71,133.22c-5.84,0-10.1-4-10.24-9.72a10.17,10.17,0,0,1,10.24-10.44,10.48,10.48,0,0,1,10.12,10.2A10,10,0,0,1,749.71,133.22Z"/><path class="cls-1" d="M749.45,228.31a10,10,0,1,1,.52,20c-6,.16-10.5-4.07-10.5-10A9.75,9.75,0,0,1,749.45,228.31Z"/><path d="M1577.92,210.55V220h-75.18c-.38-1.78-.72-3.36-1.22-5.65-3.54,0-7.15-.12-10.74.08-.86.05-2.37,1.2-2.36,1.82,0,3.9-2.31,4.07-5.28,4.06-22.66-.06-45.32-.11-68,.05-4,0-5.1-1.28-5.15-5.15,0-4.06,1.46-5,5.25-5q79.48.15,159,.08C1575.38,210.29,1576.52,210.45,1577.92,210.55Z"/><path d="M1111.25,127.52c1.45-.08,3.08-.25,4.7-.23q48.72.4,97.43.89c2.56,0,5.7-1,5.79,3.85.07,4.32-1.2,6-5.49,6-13,0-26,.23-39,.15-1.18,0-3.31-1.48-3.36-2.37-.21-3.42-2.23-3.57-4.76-3.51-2.81.07-5.62,0-8.83,0,.36,6.28-3.49,6.15-7.79,6-10.82-.25-21.65-.17-32.48-.3-2,0-3.93-.39-6.24-.64Z"/></g></g></svg>