<svg xmlns="http://www.w3.org/2000/svg" viewBox="0 0 1005.18 78.65"><g id="Layer_2" data-name="Layer 2"><g id="Layer_1-2" data-name="Layer 1"><path d="M899.32,64.9c9.25,0,18-.16,26.85.08,3.74.11,4.86-1.06,4.81-4.8q-.29-22,0-44c0-3.67-1-5-4.79-4.86-10.16.23-20.33.21-30.49,0-3.61-.08-4.49,1.27-4.47,4.66.13,17.83.06,35.67.06,53.5v6.24H880.08c-9,0-18-.14-27,.08-3.5.08-4.6-1-4.57-4.54.15-18.67-.08-37.34.18-56,.06-4.48-1.23-5.77-5.62-5.53-6.79.37-13.62.09-21.06.09V75.58H497.16L532,41.4c-.4-.56-.8-1.13-1.19-1.7H458.87V78.23H352.71V4.52h9.35V22.93h64.26V4H597.49L565.05,36.39l.87,1.34a24.13,24.13,0,0,0,3.16.39c39,0,78,0,117,.11,4.38,0,5.75-1.12,5.62-5.57-.31-10.65-.1-21.31-.1-32.41h33.53V25.56c0,13.05,0,13.05,12.95,13.05h16.16V0h188V37.6c4.78,0,9.1.35,13.28-.23,1.13-.16,2.6-3.12,2.65-4.84.27-9,.13-18,.13-27V.16h46.91v38H982.51c0,11.09-.21,21.55.1,32,.12,4.32-1,5.66-5.5,5.65-23.78-.08-47.57.24-71.36.39-6.86,0-6.87,0-6.74-7.09C899,68,899.17,66.86,899.32,64.9ZM630,59.31c13.3,0,26.6.08,39.89-.11,1.41,0,2.79-1.66,4.18-2.55-1.42-.86-2.84-2.48-4.26-2.49q-39.41-.22-78.79,0c-1.49,0-4,1.31-4.24,2.37-.7,3.54,2.35,2.75,4.33,2.76C604.09,59.33,617.06,59.31,630,59.31Zm-140-35c9.32,0,18.64.1,28-.11,1.27,0,2.5-1.64,3.74-2.52-1.24-.88-2.47-2.51-3.72-2.52q-27.7-.24-55.41,0c-1.27,0-2.53,1.63-3.79,2.51,1.25.88,2.49,2.5,3.77,2.53C471.76,24.4,480.91,24.3,490.06,24.29Z"/><path d="M204.06,49.15H235c0-6,.18-11.61-.06-17.23-.16-3.47,1-4.7,4.5-4.62,9.29.2,18.59.06,28.36.06V4.64h9.56c.11,1.45.32,2.87.32,4.29,0,21.49,0,43,.08,64.48,0,3.67-.65,5.25-4.89,5.24q-100.45-.21-200.9-.11c-1.14,0-2.29-.13-4.09-.24V41.81c-6.92,0-13.19-.16-19.44.18-.84,0-2.2,2.5-2.23,3.87-.2,9-.09,18-.12,27,0,1.78-.2,3.56-.32,5.5H0v-37H21.43c.12-2.18.28-3.93.29-5.68,0-8.83.09-17.66,0-26.49-.05-3.14,1-4.52,4.3-4.51,25.82.07,51.64.11,77.46,0,3.73,0,3.91,1.79,3.89,4.63-.07,16.33,0,32.65,0,49V64c1.9.15,3.34.36,4.78.36,17.83,0,35.65-.09,53.47.09,3.9,0,5.23-1,5.1-5-.3-9,0-18-.16-27-.07-3.39.8-4.75,4.43-4.65,8.32.24,16.66.22,25,0,3.37-.08,4.34,1.09,4.21,4.32C203.9,37.61,204.06,43.1,204.06,49.15Z"/><path d="M292.78,78.34V5.65h33.56V78.34Z"/></g></g></svg>