<svg id="Layer_1" data-name="Layer 1" xmlns="http://www.w3.org/2000/svg" viewBox="0 0 453.58 24.64"><defs><style>.cls-1,.cls-2{fill:#cfcfcf;}.cls-1,.cls-3{opacity:0.7;}</style></defs><rect class="cls-1" x="240.07" y="12.25" width="16.64" height="11.69"/><polyline class="cls-1" points="253.79 12.25 253.79 1.31 269.74 1.31"/><polyline class="cls-1" points="240.07 12.23 240.07 23.94 223.24 23.94"/><rect class="cls-1" x="30.83" y="1.62" width="17.72" height="22.84"/><rect class="cls-2" x="48.56" y="20.45" width="29.01" height="4.02"/><rect class="cls-1" x="77.57" y="8.9" width="14.93" height="15.57"/><rect class="cls-1" x="106.75" y="8.8" width="14.93" height="15.66"/><polygon class="cls-1" points="147.83 24.64 132.9 24.64 132.9 1.8 140.37 1.8 147.83 1.8 147.83 6.99 147.83 24.64"/><polygon class="cls-1" points="253.79 12.25 238.86 12.25 238.86 1.3 246.32 1.3 253.79 1.3 253.79 3.79 253.79 12.25"/><rect class="cls-1" x="160.3" y="7.51" width="31.34" height="16.95"/><rect class="cls-2" x="92.23" y="15.75" width="14.93" height="8.71"/><rect class="cls-1" x="122.55" y="27.94" width="23.02" height="4.3" transform="translate(93.53 147.01) rotate(-90)"/><rect class="cls-1" x="160.8" y="27.94" width="23.02" height="4.3" transform="translate(131.78 185.26) rotate(-90)"/><rect class="cls-1" x="191.64" y="1.31" width="14.48" height="23.15"/><rect class="cls-1" x="206.03" y="10.11" width="14.48" height="2.14"/><rect class="cls-1" x="220.42" y="10.11" width="14.48" height="2.14"/><rect class="cls-2" x="405.68" y="20.57" width="14.48" height="3.35"/><rect class="cls-2" x="429.93" y="20.58" width="8.79" height="3.35"/><rect class="cls-1" x="242.35" y="21.43" width="10.94" height="4.95" transform="translate(261.28 -241.04) rotate(90)"/><g class="cls-3"><rect class="cls-2" x="311.71" y="0.24" width="14.93" height="23.7"/><rect class="cls-2" x="340.15" width="14.93" height="23.93"/><rect class="cls-2" x="326.64" y="12.36" width="14.93" height="11.56"/><polygon class="cls-2" points="370.58 23.93 354.73 23.93 354.73 0.38 362.65 0.38 370.58 0.38 370.58 5.72 370.58 23.93"/><rect class="cls-2" x="342.19" width="42.1" height="3.18"/><rect class="cls-2" x="383.58" y="26.82" width="23.94" height="4.57" transform="translate(356 407.52) rotate(-90)"/><rect class="cls-2" x="387.39" width="14.48" height="23.94"/><rect class="cls-2" x="420.16" width="4.85" height="23.93"/><rect class="cls-2" x="401.82" width="14.48" height="3.6"/><rect class="cls-2" x="416.21" width="8.79" height="3.6"/><path class="cls-2" d="M266.52,41.07V29.38h55.64V41.07Zm7.93-1.69h39.72V31.05H274.45Z" transform="translate(-10.44 -17.13)"/><path class="cls-2" d="M442.88,17.49a2.77,2.77,0,0,1,.9-.34c6.71,0,13.41,0,20.25,0v12H453.66v11.9h-21V29.24h10.2V17.48Z" transform="translate(-10.44 -17.13)"/></g><path class="cls-1" d="M20.64,19.1a2.74,2.74,0,0,1,.9-.33c6.7,0,13.41,0,20.24,0V30.24H31.42V41.6h-21V30.31H20.65V19.09Z" transform="translate(-10.44 -17.13)"/><rect class="cls-1" x="205.99" y="1.3" width="14.48" height="1.87"/><rect class="cls-1" x="220.38" y="1.3" width="14.48" height="1.87"/></svg>