<svg id="Layer_1" data-name="Layer 1" xmlns="http://www.w3.org/2000/svg" viewBox="0 0 415.78 277.36"><path d="M288.21,298q0-57.37,0-114.75c0-13.23,6.3-21.43,18-23.83,5.93-1.21,11.11.83,16.1,3.72Q378,195.31,433.56,227.49q43.54,25.19,87.09,50.36c11,6.4,15.31,16.75,11.38,27.24-2.23,5.93-6.73,9.61-12.08,12.7q-83,48-165.94,96c-10.63,6.15-21.23,12.37-31.91,18.44-16.85,9.58-33.76-.09-33.84-19.56C288.1,374.48,288.21,336.23,288.21,298Z" transform="translate(-288.17 -158.96)"/><path d="M661.12,297.37q0-62.13,0-124.25c0-9.52,4.49-14.06,14-14.13q7.24-.06,14.48,0c9.66.07,14.37,4.74,14.37,14.42q0,75.58,0,151.19,0,47.9,0,95.8c0,11.6-4.32,15.92-15.92,15.9-4.66,0-9.32.07-14,0-8.17-.17-12.93-5-12.93-13.15Q661.1,360.25,661.12,297.37Z" transform="translate(-288.17 -158.96)"/><path d="M618.67,297.85q0,60.87,0,121.74c0,13-3.71,16.69-16.55,16.69-3.82,0-7.65,0-11.48,0-10.41,0-14.82-4.36-14.85-14.9-.06-23.61,0-47.23,0-70.84q0-87.57,0-175.12c0-12.54,3.88-16.47,16.31-16.45,4,0,8,0,12,0,10.06,0,14.55,4.45,14.59,14.63.08,18.29,0,36.59,0,54.88q0,34.68,0,69.35Z" transform="translate(-288.17 -158.96)"/></svg>