<svg id="Layer_1" data-name="Layer 1" xmlns="http://www.w3.org/2000/svg" viewBox="0 0 458.02 23.61"><defs><style>.cls-1{fill:#e42618;fill-opacity:0.5;stroke:#050303;stroke-miterlimit:10;stroke-width:0.29px;}</style></defs><path class="cls-1" d="M426.38,37.75c-2.74,1.35-3.51.19-3.44-2.5a76.43,76.43,0,0,0-.74-13.87c-1.89,4.23-3.73,8.47-5.68,12.66-.87,1.88-.95,4.25-4.19,4.3-3.45.06-3.62-2.34-4.51-4.47a84.93,84.93,0,0,0-6.34-12.79c0,4.6.08,9.19-.06,13.78,0,1.18,1,3.27-1.49,3.32-2.85,0-1.64-2.27-1.67-3.53-.15-5-.12-10.11,0-15.17,0-1.23-1-3.28,1.44-3.43,2.1-.13,4.52-.87,5.66,2.09,1.84,4.84,3.84,9.62,5.78,14.41.3.74.67,1.44,1.19,2.56,2.35-5.83,4.56-11.34,6.81-16.84,1.21-3,4.92-3.35,7.35-.76Q426.43,27.64,426.38,37.75Z" transform="translate(-10.95 -15.43)"/><path class="cls-1" d="M359.81,16c4.65-.19,8.35.19,11.16,3.1.81.83,2.21,2.19.9,3.35-1.12,1-2.5.64-3.72-.78-2.64-3.08-10-4-13.65-1.95-1,.55-1.85,1.24-1.69,2.46a2.84,2.84,0,0,0,2.69,2.52c3.56.36,7.14.51,10.7.83a17.63,17.63,0,0,1,4.28.83,5.57,5.57,0,0,1,1.83,9.39c-5.35,4.78-18.52,4-22.72-1.08-.8-1-2.3-2.21-1-3.21,1.08-.81,2.81-.71,4.11,1,2.54,3.3,12.36,4.41,15.84,2.06a3.25,3.25,0,0,0,1.73-3.33c-.25-1.55-1.46-2.15-2.79-2.46a42.78,42.78,0,0,0-9.11-.74c-6.42-.07-9.18-1.85-9.23-5.79-.05-3.75,3.16-5.94,9.11-6.17C359.07,15.93,359.87,16,359.81,16Z" transform="translate(-10.95 -15.43)"/><path class="cls-1" d="M429.27,16.87c6.89-1.62,13.77-1.72,20.39.94,2.73,1.1,2.57,4.09,2.49,6.62s-1.86,4-4.09,4.81c-3.17,1.11-6.49,1.07-9.81,1.06-5.4,0-5.39,0-5.7,5.48-.06,1.08.46,2.44-1.57,2.49s-1.51-1.37-1.72-2.42Q429.28,26.35,429.27,16.87Zm9.21,10.49c2.53,0,4.81.16,7-.54,1.94-.62,3.24-1.79,3.12-4a3.49,3.49,0,0,0-3.32-3.41c-2.48-.35-5-.12-7.53-.43-3.73-.48-4.88.7-4.92,4.67C432.76,29,436.33,26.88,438.48,27.36Z" transform="translate(-10.95 -15.43)"/><path class="cls-1" d="M376,26.74c0-2.79,0-5.57,0-8.35,0-1.23-.11-2.48,1.73-2.4,1.61.07,1.9,1.11,1.9,2.44,0,4.24.2,8.49,0,12.72-.14,3,.58,4.33,3.87,4s6.63,0,9.94,0c1.23,0,2.45-.07,2.38,1.77-.06,1.65-1.25,1.45-2.26,1.45-5,0-10.07,0-15.11.06-1.89,0-2.58-.67-2.51-2.55.1-3,0-6.09,0-9.14Z" transform="translate(-10.95 -15.43)"/><path class="cls-1" d="M333.07,37.89c3.31-6.61,6.66-13.18,9.89-19.82,1-2.1,2.43-2.55,4.76-1.62-3.49,6.71-7,13.34-10.39,20C336.37,38.35,335.09,38.81,333.07,37.89Z" transform="translate(-10.95 -15.43)"/><path class="cls-1" d="M454,37.89c3.41-6.83,6.82-13.53,10.11-20.3,1-2,2.44-1.6,4.59-1.47-3.67,7.2-7.17,14.09-10.68,21C457.17,38.85,455.77,38.45,454,37.89Z" transform="translate(-10.95 -15.43)"/><path class="cls-1" d="M331.5,16.33c-3.48,6.81-6.83,13.21-10,19.69-1,1.95-2,3-4.51,1.86q5.13-10.29,10.28-20.59C328.08,15.61,329.55,15.84,331.5,16.33Z" transform="translate(-10.95 -15.43)"/><path class="cls-1" d="M141.66,17.31c3.3,3,6.33,6,9.52,8.68,1.15,1,1.1,1.55.06,2.45-3.15,2.75-6.26,5.55-9.5,8.43-1.49-3.37.38-5.21,2.5-6.5,3.76-2.28,3.2-4.2.07-6.48C142.3,22.42,140.37,20.75,141.66,17.31Z" transform="translate(-10.95 -15.43)"/><path class="cls-1" d="M171.22,36.92c-1.48-3.26.46-4.85,2.37-6.53,3.68-3.24,3.71-3.33,0-6.64-1.85-1.65-3.65-3.16-2.47-6.42,3.3,3,6.45,5.92,9.7,8.75.91.79,1.12,1.33.16,2.17C177.74,31.1,174.52,34,171.22,36.92Z" transform="translate(-10.95 -15.43)"/><path class="cls-1" d="M274.15,17.26c3.44,3.14,6.58,6.12,9.84,8.94,1.13,1,.63,1.49-.13,2.16l-9.49,8.49c-.89-3.73-1-3.87,3.38-7.27,2.3-1.78,2.32-2.84.16-4.72S272.68,21.65,274.15,17.26Z" transform="translate(-10.95 -15.43)"/><path class="cls-1" d="M215.2,17.3c3.28,3,6.32,5.83,9.52,8.53,1.68,1.41.64,2.19-.38,3.1l-9,8c-1.74-3.57.65-5.36,2.8-6.77,3.35-2.2,2.75-3.94.06-6.07C216.18,22.5,213.85,20.93,215.2,17.3Z" transform="translate(-10.95 -15.43)"/><path class="cls-1" d="M200.67,36.92c-1.31-3.25.44-4.84,2.28-6.48,3.67-3.24,3.64-3.27,0-6.73-2.78-2.66-2.78-2.66-2.3-6.33,3.26,3,6.3,5.91,9.46,8.67,1.14,1,1,1.62,0,2.5C207.05,31.24,204,34,200.67,36.92Z" transform="translate(-10.95 -15.43)"/><path class="cls-1" d="M303.61,17.31c3.36,3.1,6.3,6,9.44,8.6,1.28,1.08,1.35,1.6.1,2.66C310,31.22,307,34,303.86,36.76c-1-3.68-1.18-3.88,3.27-7.21,2.52-1.89,2.1-2.88.13-4.73S302,21.58,303.61,17.31Z" transform="translate(-10.95 -15.43)"/><path class="cls-1" d="M230.15,17.38c3.28,3,6.25,5.81,9.32,8.49,1.17,1,1.37,1.69.1,2.78-3.11,2.63-6.13,5.37-9.34,8.2-1.68-3.87,1.1-5.57,3.25-7.18,2.44-1.83,2.5-3,.14-5C231.62,23,228.74,21.48,230.15,17.38Z" transform="translate(-10.95 -15.43)"/><path class="cls-1" d="M244.67,37.08c-1.37-3.66.86-5.15,2.71-6.79,3.63-3.21,3.65-3.23,0-6.49-1.86-1.64-4-3.1-2.62-6.5,3.33,3,6.48,5.93,9.73,8.74,1.24,1.06.71,1.73-.18,2.52Z" transform="translate(-10.95 -15.43)"/><path class="cls-1" d="M288.82,37.05c-.84-2.61-.25-4.09,1.44-5.62,4.6-4.15,4.57-4.3-.05-8.76a4.72,4.72,0,0,1-1.47-5.4c3.45,3.1,6.72,6.07,10,9,.83.74.61,1.31-.09,1.94C295.46,31.09,292.25,34,288.82,37.05Z" transform="translate(-10.95 -15.43)"/><path class="cls-1" d="M127.12,36.84c-1-3.05.15-4.55,1.9-6.08,4-3.52,4-3.69-.05-7.38-1.73-1.56-2.81-3.1-1.9-5.89,3.19,2.91,6.21,5.79,9.37,8.51,1.14,1,1,1.58,0,2.46C133.41,31.15,130.41,33.89,127.12,36.84Z" transform="translate(-10.95 -15.43)"/><path class="cls-1" d="M156.6,17.48c3.17,2.88,6.05,5.6,9.06,8.18,1.28,1.1,1.52,1.89.13,3.08-3,2.56-5.92,5.22-9,8-.74-3.62-.88-3.79,3.24-7.15,2.3-1.87,2.1-2.91.09-4.77S155.16,21.62,156.6,17.48Z" transform="translate(-10.95 -15.43)"/><path class="cls-1" d="M259.51,17.36c3.24,3,6.08,5.7,9.09,8.25,1.39,1.18,1.85,1.83.13,3.21-3.07,2.47-5.91,5.22-9,7.94-.89-3.48-1-3.63,3.09-7.06,2.36-2,2.36-3.19.08-5.15C261,22.86,258,21.44,259.51,17.36Z" transform="translate(-10.95 -15.43)"/><path class="cls-1" d="M185.85,37c-.7-2.73-.19-4.2,1.41-5.64,4.6-4.17,4.56-4.27.15-8.41-1.58-1.48-2.52-3-1.48-5.49,3.12,2.81,6.12,5.57,9.2,8.24,1.14,1,1.41,1.75.16,2.84C192.23,31.24,189.22,34,185.85,37Z" transform="translate(-10.95 -15.43)"/><path class="cls-1" d="M26,17.1c3.3,3,6.34,5.95,9.52,8.68,1.15,1,1.1,1.54.07,2.44-3.16,2.76-6.27,5.56-9.5,8.43-1.5-3.37.37-5.2,2.49-6.49,3.76-2.29,3.21-4.21.07-6.49C26.65,22.21,24.72,20.53,26,17.1Z" transform="translate(-10.95 -15.43)"/><path class="cls-1" d="M55.57,36.71C54.1,33.45,56,31.85,58,30.17c3.67-3.23,3.7-3.32,0-6.63-1.85-1.65-3.65-3.16-2.47-6.43,3.3,3,6.45,5.92,9.7,8.75.91.8,1.12,1.33.16,2.18C62.09,30.89,58.87,33.77,55.57,36.71Z" transform="translate(-10.95 -15.43)"/><path class="cls-1" d="M11.47,36.63c-1-3.05.15-4.55,1.91-6.08,4-3.53,4-3.69-.06-7.38-1.72-1.56-2.81-3.11-1.89-5.9,3.18,2.92,6.2,5.8,9.36,8.52,1.15,1,1,1.57,0,2.46C17.77,30.94,14.76,33.67,11.47,36.63Z" transform="translate(-10.95 -15.43)"/><path class="cls-1" d="M41,17.27c3.16,2.87,6,5.59,9,8.17,1.28,1.11,1.53,1.89.14,3.08-3,2.57-5.93,5.23-9,8-.73-3.62-.87-3.79,3.24-7.14,2.3-1.87,2.11-2.92.09-4.77S39.51,21.41,41,17.27Z" transform="translate(-10.95 -15.43)"/><path class="cls-1" d="M83.4,17.07c3.31,3,6.34,5.95,9.53,8.68,1.15,1,1.1,1.54.06,2.45-3.15,2.75-6.27,5.55-9.5,8.42-1.49-3.37.38-5.2,2.49-6.49,3.77-2.29,3.21-4.21.08-6.49C84,22.18,82.12,20.5,83.4,17.07Z" transform="translate(-10.95 -15.43)"/><path class="cls-1" d="M113,36.68c-1.48-3.26.46-4.86,2.37-6.54,3.68-3.23,3.71-3.32,0-6.63-1.85-1.65-3.65-3.16-2.47-6.42,3.29,3,6.45,5.92,9.69,8.74.92.8,1.13,1.33.17,2.18C119.48,30.86,116.27,33.74,113,36.68Z" transform="translate(-10.95 -15.43)"/><path class="cls-1" d="M68.87,36.6c-1-3.05.14-4.55,1.9-6.08,4-3.53,4-3.69,0-7.38-1.73-1.56-2.81-3.11-1.9-5.9C72,20.16,75,23,78.18,25.76c1.15,1,1,1.57,0,2.46C75.16,30.91,72.16,33.64,68.87,36.6Z" transform="translate(-10.95 -15.43)"/><path class="cls-1" d="M98.35,17.24c3.16,2.87,6.05,5.59,9.05,8.17,1.29,1.11,1.53,1.9.14,3.08-3,2.57-5.92,5.23-9,8-.73-3.63-.87-3.8,3.25-7.15,2.3-1.87,2.1-2.92.09-4.77S96.91,21.38,98.35,17.24Z" transform="translate(-10.95 -15.43)"/><path class="cls-1" d="M426.38,37.61c-2.74,1.35-3.51.18-3.44-2.51a76.33,76.33,0,0,0-.74-13.86c-1.89,4.22-3.73,8.46-5.68,12.66-.87,1.87-.95,4.24-4.19,4.3-3.45.06-3.62-2.34-4.51-4.47a84.93,84.93,0,0,0-6.34-12.79c0,4.59.08,9.19-.06,13.78,0,1.17,1,3.27-1.49,3.32-2.85.05-1.64-2.28-1.67-3.53-.15-5.06-.12-10.12,0-15.17,0-1.23-1-3.28,1.44-3.43,2.1-.14,4.52-.87,5.66,2.09,1.84,4.83,3.84,9.61,5.78,14.41.3.73.67,1.44,1.19,2.55,2.35-5.82,4.56-11.34,6.81-16.84,1.21-3,4.92-3.35,7.35-.75Q426.43,27.48,426.38,37.61Z" transform="translate(-10.95 -15.43)"/><path class="cls-1" d="M359.81,15.82c4.65-.19,8.35.19,11.16,3.09.81.83,2.21,2.19.9,3.36-1.12,1-2.5.63-3.72-.79-2.64-3.07-10-4-13.65-1.94-1,.54-1.85,1.23-1.69,2.45a2.84,2.84,0,0,0,2.69,2.53c3.56.35,7.14.5,10.7.83a17.62,17.62,0,0,1,4.28.82,5.57,5.57,0,0,1,1.83,9.4c-5.35,4.77-18.52,4-22.72-1.09-.8-1-2.3-2.2-1-3.2,1.08-.82,2.81-.72,4.11,1,2.54,3.3,12.36,4.41,15.84,2.06A3.26,3.26,0,0,0,370.29,31c-.25-1.55-1.46-2.15-2.79-2.46a41.52,41.52,0,0,0-9.11-.74c-6.42-.07-9.18-1.85-9.23-5.79-.05-3.76,3.16-5.94,9.11-6.18C359.07,15.79,359.87,15.82,359.81,15.82Z" transform="translate(-10.95 -15.43)"/><path class="cls-1" d="M429.27,16.73c6.89-1.62,13.77-1.73,20.39.93,2.73,1.1,2.57,4.1,2.49,6.62s-1.86,4-4.09,4.81c-3.17,1.12-6.49,1.07-9.81,1.07-5.4,0-5.39,0-5.7,5.48-.06,1.08.46,2.44-1.57,2.48s-1.51-1.36-1.72-2.41Q429.28,26.21,429.27,16.73Zm9.21,10.49c2.53,0,4.81.16,7-.54,1.94-.62,3.24-1.8,3.12-4.05a3.49,3.49,0,0,0-3.32-3.4c-2.48-.36-5-.12-7.53-.44-3.73-.47-4.88.71-4.92,4.68C432.76,28.81,436.33,26.74,438.48,27.22Z" transform="translate(-10.95 -15.43)"/><path class="cls-1" d="M376,26.59c0-2.78,0-5.56,0-8.35,0-1.23-.11-2.48,1.73-2.39,1.61.07,1.9,1.11,1.9,2.43,0,4.25.2,8.5,0,12.73-.14,3,.58,4.33,3.87,4s6.63,0,9.94,0c1.23,0,2.45-.06,2.38,1.77-.06,1.65-1.25,1.45-2.26,1.46-5,0-10.07,0-15.11.06-1.89,0-2.58-.68-2.51-2.55.1-3.05,0-6.1,0-9.15Z" transform="translate(-10.95 -15.43)"/><path class="cls-1" d="M333.07,37.75c3.31-6.61,6.66-13.19,9.89-19.82,1-2.1,2.43-2.55,4.76-1.63-3.49,6.71-7,13.34-10.39,20C336.37,38.2,335.09,38.66,333.07,37.75Z" transform="translate(-10.95 -15.43)"/><path class="cls-1" d="M454,37.75c3.41-6.83,6.82-13.54,10.11-20.3,1-2,2.44-1.6,4.59-1.48-3.67,7.21-7.17,14.09-10.68,21C457.17,38.7,455.77,38.3,454,37.75Z" transform="translate(-10.95 -15.43)"/><path class="cls-1" d="M331.5,16.19c-3.48,6.8-6.83,13.21-10,19.68-1,2-2,3-4.51,1.87q5.13-10.3,10.28-20.6C328.08,15.46,329.55,15.7,331.5,16.19Z" transform="translate(-10.95 -15.43)"/><path class="cls-1" d="M141.66,17.17c3.3,3,6.33,5.95,9.52,8.68,1.15,1,1.1,1.54.06,2.45-3.15,2.75-6.26,5.55-9.5,8.42-1.49-3.37.38-5.2,2.5-6.49,3.76-2.29,3.2-4.21.07-6.49C142.3,22.28,140.37,20.6,141.66,17.17Z" transform="translate(-10.95 -15.43)"/><path class="cls-1" d="M171.22,36.78c-1.48-3.26.46-4.86,2.37-6.54,3.68-3.23,3.71-3.32,0-6.63-1.85-1.65-3.65-3.16-2.47-6.43,3.3,3,6.45,5.92,9.7,8.75.91.8,1.12,1.33.16,2.18C177.74,31,174.52,33.84,171.22,36.78Z" transform="translate(-10.95 -15.43)"/><path class="cls-1" d="M274.15,17.11c3.44,3.15,6.58,6.12,9.84,9,1.13,1,.63,1.48-.13,2.16l-9.49,8.49c-.89-3.73-1-3.87,3.38-7.27,2.3-1.78,2.32-2.84.16-4.73S272.68,21.5,274.15,17.11Z" transform="translate(-10.95 -15.43)"/><path class="cls-1" d="M215.2,17.16c3.28,2.95,6.32,5.83,9.52,8.52,1.68,1.42.64,2.19-.38,3.1-3,2.63-5.9,5.25-9,8-1.74-3.56.65-5.35,2.8-6.76,3.35-2.2,2.75-3.94.06-6.08C216.18,22.36,213.85,20.78,215.2,17.16Z" transform="translate(-10.95 -15.43)"/><path class="cls-1" d="M200.67,36.78c-1.31-3.25.44-4.85,2.28-6.48,3.67-3.24,3.64-3.27,0-6.73-2.78-2.66-2.78-2.66-2.3-6.33,3.26,3,6.3,5.9,9.46,8.67,1.14,1,1,1.62,0,2.49C207.05,31.09,204,33.82,200.67,36.78Z" transform="translate(-10.95 -15.43)"/><path class="cls-1" d="M303.61,17.17c3.36,3.09,6.3,6,9.44,8.6,1.28,1.07,1.35,1.59.1,2.66-3.13,2.65-6.16,5.41-9.29,8.19-1-3.68-1.18-3.89,3.27-7.22,2.52-1.88,2.1-2.87.13-4.72S302,21.43,303.61,17.17Z" transform="translate(-10.95 -15.43)"/><path class="cls-1" d="M230.15,17.24c3.28,3,6.25,5.8,9.32,8.48,1.17,1,1.37,1.7.1,2.78-3.11,2.64-6.13,5.38-9.34,8.21-1.68-3.88,1.1-5.57,3.25-7.19,2.44-1.83,2.5-3,.14-5C231.62,22.86,228.74,21.34,230.15,17.24Z" transform="translate(-10.95 -15.43)"/><path class="cls-1" d="M244.67,36.94c-1.37-3.67.86-5.15,2.71-6.8,3.63-3.21,3.65-3.22,0-6.48-1.86-1.65-4-3.1-2.62-6.5,3.33,3,6.48,5.92,9.73,8.73,1.24,1.07.71,1.73-.18,2.52Z" transform="translate(-10.95 -15.43)"/><path class="cls-1" d="M288.82,36.91c-.84-2.62-.25-4.09,1.44-5.62,4.6-4.15,4.57-4.3-.05-8.77a4.71,4.71,0,0,1-1.47-5.4c3.45,3.11,6.72,6.08,10,9,.83.74.61,1.32-.09,1.94Z" transform="translate(-10.95 -15.43)"/><path class="cls-1" d="M127.12,36.7c-1-3.05.15-4.55,1.9-6.08,4-3.53,4-3.69-.05-7.38-1.73-1.56-2.81-3.11-1.9-5.9,3.19,2.92,6.21,5.8,9.37,8.52,1.14,1,1,1.57,0,2.46C133.41,31,130.41,33.74,127.12,36.7Z" transform="translate(-10.95 -15.43)"/><path class="cls-1" d="M156.6,17.34c3.17,2.87,6.05,5.59,9.06,8.17,1.28,1.11,1.52,1.9.13,3.08-3,2.57-5.92,5.23-9,8-.74-3.63-.88-3.8,3.24-7.15,2.3-1.87,2.1-2.92.09-4.77S155.16,21.48,156.6,17.34Z" transform="translate(-10.95 -15.43)"/><path class="cls-1" d="M259.51,17.22c3.24,3,6.08,5.69,9.09,8.25,1.39,1.18,1.85,1.83.13,3.21-3.07,2.47-5.91,5.22-9,7.94-.89-3.48-1-3.64,3.09-7.06,2.36-2,2.36-3.19.08-5.15C261,22.71,258,21.29,259.51,17.22Z" transform="translate(-10.95 -15.43)"/><path class="cls-1" d="M185.85,36.86c-.7-2.72-.19-4.2,1.41-5.64,4.6-4.16,4.56-4.26.15-8.41-1.58-1.47-2.52-3-1.48-5.48,3.12,2.81,6.12,5.57,9.2,8.23,1.14,1,1.41,1.76.16,2.85C192.23,31.09,189.22,33.84,185.85,36.86Z" transform="translate(-10.95 -15.43)"/><path class="cls-1" d="M26,17c3.3,3,6.34,5.95,9.52,8.69,1.15,1,1.1,1.54.07,2.44-3.16,2.76-6.27,5.55-9.5,8.43-1.5-3.37.37-5.21,2.49-6.49,3.76-2.29,3.21-4.21.07-6.49C26.65,22.06,24.72,20.39,26,17Z" transform="translate(-10.95 -15.43)"/><path class="cls-1" d="M55.57,36.56C54.1,33.3,56,31.71,58,30c3.67-3.24,3.7-3.33,0-6.64-1.85-1.65-3.65-3.16-2.47-6.42,3.3,3,6.45,5.92,9.7,8.75.91.79,1.12,1.33.16,2.17C62.09,30.75,58.87,33.63,55.57,36.56Z" transform="translate(-10.95 -15.43)"/><path class="cls-1" d="M11.47,36.48c-1-3,.15-4.54,1.91-6.08,4-3.52,4-3.69-.06-7.38-1.72-1.56-2.81-3.1-1.89-5.89,3.18,2.91,6.2,5.79,9.36,8.51,1.15,1,1,1.58,0,2.46C17.77,30.79,14.76,33.53,11.47,36.48Z" transform="translate(-10.95 -15.43)"/><path class="cls-1" d="M41,17.13c3.16,2.87,6,5.59,9,8.17,1.28,1.1,1.53,1.89.14,3.08-3,2.56-5.93,5.23-9,8-.73-3.62-.87-3.79,3.24-7.15,2.3-1.87,2.11-2.91.09-4.76S39.51,21.26,41,17.13Z" transform="translate(-10.95 -15.43)"/><path class="cls-1" d="M83.4,16.92c3.31,3,6.34,5.95,9.53,8.69,1.15,1,1.1,1.54.06,2.44-3.15,2.76-6.27,5.56-9.5,8.43C82,33.11,83.87,31.28,86,30c3.77-2.29,3.21-4.21.08-6.49C84,22,82.12,20.36,83.4,16.92Z" transform="translate(-10.95 -15.43)"/><path class="cls-1" d="M113,36.54c-1.48-3.26.46-4.86,2.37-6.54,3.68-3.24,3.71-3.32,0-6.63-1.85-1.65-3.65-3.17-2.47-6.43,3.29,3,6.45,5.92,9.69,8.75.92.79,1.13,1.33.17,2.17C119.48,30.72,116.27,33.6,113,36.54Z" transform="translate(-10.95 -15.43)"/><path class="cls-1" d="M68.87,36.45c-1-3.05.14-4.54,1.9-6.08,4-3.52,4-3.69,0-7.37-1.73-1.57-2.81-3.11-1.9-5.9C72,20,75,22.89,78.18,25.61c1.15,1,1,1.58,0,2.46C75.16,30.77,72.16,33.5,68.87,36.45Z" transform="translate(-10.95 -15.43)"/><path class="cls-1" d="M98.35,17.1c3.16,2.87,6.05,5.59,9.05,8.17,1.29,1.1,1.53,1.89.14,3.08-3,2.57-5.92,5.23-9,8-.73-3.62-.87-3.79,3.25-7.14,2.3-1.88,2.1-2.92.09-4.77S96.91,21.23,98.35,17.1Z" transform="translate(-10.95 -15.43)"/></svg>