<svg xmlns="http://www.w3.org/2000/svg" viewBox="0 0 1149.85 1143.24"><defs><style>.cls-1{fill:none;stroke:#000;stroke-miterlimit:10;stroke-width:4px;}</style></defs><g id="Layer_2" data-name="Layer 2"><g id="Layer_1-2" data-name="Layer 1"><path class="cls-1" d="M653.68,394.55c4,.26,7.34.25,10.57.7,21.1,3,42.19,6.06,63.28,9.11,7,1,8.49,2.42,9.12,9.5,4.74,53.93,9.35,107.87,14.19,161.79,3.7,41.29,8,82.54,11.4,123.85,1.56,18.72,1.74,37.55,2.54,56.33,0,.66.05,1.33.11,2,.84,9.59.84,9.67-8.61,10-13.31.43-26.62,1-39.93,1-8.3.05-16.61-.71-24.92-1-3.33-.13-4.55-1.82-4.83-5-1.1-12.26-2.43-24.5-3.61-36.76-1.33-13.72-2.51-27.47-3.92-41.19-.9-8.82-2.29-17.58-3.1-26.41-.86-9.19-1.16-18.44-1.94-27.64-1-11.76-2.36-23.48-3.3-35.23-1-12.67-1.55-25.37-2.61-38-2.13-25.38-6-50.73-6.3-76.14-.35-24.94-8.24-48.88-7.49-73.79C654.45,403.58,654,399.59,653.68,394.55ZM716.8,529.64c-.9-16-1.43-27.42-2.21-38.83-.6-8.62-1.51-17.22-2.3-25.82-.45-4.87-2.71-7.94-7.9-8.76-2.38-.37-4.55-2-6.92-2.63-2.21-.61-5.26-1.74-6.67-.78a8.41,8.41,0,0,0-3,6.57c2.1,24.52,3.91,49.1,7,73.5,4.3,33.4,2.57,67.24,8.62,100.56,3.34,18.36,3.61,37.27,5.27,55.93.53,6,1.12,11.94,1.6,17.92.35,4.26,2.63,6.21,6.85,6.22,3.33,0,6.66.14,10,.32,6.16.35,8-1.82,7.34-8-1-8.75-1.89-17.52-2.51-26.31-.78-11.11-.85-22.29-1.93-33.37-2.05-20.89-4.6-41.74-6.94-62.61-.59-5.28-1.09-10.57-1.73-15.85C719.73,553.48,718,539.3,716.8,529.64Z"/><path class="cls-1" d="M807,419.12c8.54,1.87,16.77,3.08,24.5,5.75,2.23.77,4,5.63,4.3,8.79,2,18.71,3.42,37.47,5.08,56.21,1.71,19.24,3.5,38.47,5.18,57.72,2.55,29.18,4.9,58.37,7.59,87.54q5.48,59.42,11.4,118.8c.44,4.45-.37,6.36-5.48,6.8-9.43.83-18.72,3.28-28.15,4.07-13.35,1.13-26.78,1.33-40.17,2-3.35.17-4.39-1.16-4.92-4.47-6-37.71-7-75.87-10.55-113.8-1.55-16.75-3.51-33.46-5.22-50.19-1.8-17.67-3.41-35.37-5.32-53-2.19-20.15-5.3-40.22-6.76-60.42-1.65-22.74-2-45.57-2.7-68.37-.19-5.93,1.64-7.15,7.67-6,4.08.78,8.2,1.42,12.26,2.32a7.53,7.53,0,0,1,6.41,7.28q1.54,17.89,3.18,35.79c2.64,28.17,5.38,56.32,8,84.49,3.28,35.64,6.41,71.3,9.68,107,1.87,20.38,3.94,40.75,5.81,61.13.34,3.69,2,5.3,5.73,5.25,20.72-.31,18-2.25,16.53-17.87-3.38-36.81-6.67-73.63-10.11-110.43-2.09-22.21-4.53-44.38-6.51-66.6-.39-4.34,1-8.82.88-13.21-.35-9.57-.85-19.15-1.87-28.66-1.92-17.71-4.26-35.37-6.4-53.06C806.89,422.78,807,421.6,807,419.12Z"/><path class="cls-1" d="M305,388.71c11.19,10.5,22.51,20.88,33.5,31.58,3,2.95,7.12,3.67,10.32,0,8.37-9.49,16.43-19.26,24.8-28.75,2.1-2.38,4.9-4.14,8.47-7.09.71,5.54,1.35,9.54,1.72,13.57q4.53,48.75,9,97.51,3.65,39.8,7.26,79.6c3.24,36,6.58,72,9.59,108,1.31,15.72,1.84,31.52,2.83,47.27.18,2.92-.71,4.57-3.55,5.66-5.24,2-10.23,2.84-15.2-.65a8.91,8.91,0,0,0-3.33-.89c-3.35-.66-5.32-2.55-5.62-6-1.62-18.58-3.37-37.14-4.81-55.73-.77-9.8-.68-19.66-1.56-29.44-.86-9.55-2.67-19-3.68-28.55-.93-8.72-1.05-17.53-2.05-26.24-1.76-15.51-4.16-30.94-5.84-46.46C364.68,522.05,363,502,361,482a25.94,25.94,0,0,0-1.71-8.23,86.22,86.22,0,0,0-4.91,8c-1.67,3.49-3.77,3.46-6.13,1.12-2.69-2.67-5.1-5.62-8-8.79-2.11,6.16,17.62,236.38,21.35,252.24-5.36-1.52-10.24-2.84-15.09-4.29s-9.51-3-14-4.42c-1.27-21.76-2.38-43.2-3.83-64.63-.91-13.45-2.33-26.87-3.5-40.3a34,34,0,0,1-.18-3.49c.4-29.65-3.32-58.94-7.63-88.18-1-6.75-1.17-13.65-2.48-20.33-4.92-25.2-4.79-50.86-7.34-76.27-1.16-11.53-2.91-23-4.39-34.49Z"/><path class="cls-1" d="M890.29,515.2c.24,4.08.35,8.17.74,12.23q4.8,51.24,9.68,102.47,5.52,58.43,11,116.87c.79,8.4-.86,10.26-9.36,11-4.64.38-9.29.88-13.94,1-4.26.11-5.55-1.92-4.56-6a20.71,20.71,0,0,0,.62-6.31c-1.47-19.44-2.72-38.9-4.73-58.28-2.08-20-5.36-39.92-7.37-59.94-4.44-44.23-8.46-88.5-12.56-132.77-1.46-15.75-2.68-31.53-3.94-47.3a28.46,28.46,0,0,1,.15-6.46,23.21,23.21,0,0,1,1.77-4.66c1.55.73,3.48,1.08,4.58,2.24,9.2,9.64,18.25,19.43,27.32,29.19,5,5.37,9.93,10.78,14.94,16.13,1.32,1.4,2.84,2.62,4.26,3.93l1.38-.47q-1.37-15.15-2.72-30.29c-.28-3.14-.61-6.28-.85-9.43-.31-4.16,1.94-5.43,5.61-4.54,5,1.21,10,2.64,15,4,6.11,1.61,9.08,5.75,9.66,11.87,1.93,20.39,3.93,40.78,5.81,61.18,1.56,16.92,2.94,33.86,4.47,50.79q5.38,59.43,10.86,118.86c1.42,15.42,3.16,30.82,4.41,46.25.7,8.73,3,11.6-9.86,13.28-3.63.47-7.21,1.27-10.84,1.79-5.17.75-6.76-.3-7.27-5.51-1.33-13.59-2.25-27.23-3.69-40.81-1.88-17.87-4.27-35.69-6.12-53.57-1.23-11.93-1.58-23.94-2.87-35.86-2.39-22.16-5.19-44.28-7.81-66.42C912.21,534.34,902.52,524.25,890.29,515.2Z"/><path class="cls-1" d="M315.1,711.15c-9.07-2.77-17.48-.75-26-4-9.92-3.78-21.13-4.06-31.59-6.66-8.18-2-16.11-5.16-24-8.11-1.1-.41-2.07-2.57-2.17-4-1.32-18-2.3-36.13-3.7-54.18-1.18-15.22-2.65-30.41-4.26-45.59-1.28-12.18-3.22-24.29-4.38-36.47-1.23-12.9-1.68-25.87-2.82-38.78-3-34.35-6.53-68.65-9.26-103-1.35-17-2.2-13.91,12.8-16,2.64-.37,5.27-.82,7.9-1.25,5.09-.81,6.67.33,7.12,5.57q3.2,37.09,6.31,74.19c1.84,21.9,3.47,43.81,5.52,65.69,3.42,36.62,7.09,73.22,10.66,109.83.79,8,1.36,8.6,9.42,10.34,2.93.64,5.82,1.49,8.78,1.9,3.78.52,5.16-1.24,5.32-5.19.91-22.12-3-43.95-3.83-66-1-27.25-3-54.47-4.8-81.69-.15-2.25-1.68-4.39-2.42-6.63a30.46,30.46,0,0,1-1.6-6.08c-2.67-25.33-5.22-50.68-7.89-76-.8-7.6-1.79-15.19-2.82-22.76-.61-4.5.77-6.91,5.69-7.2,5.8-.34,11.56-1.22,17.34-1.82,3.57-.37,5.25,1.53,5.55,4.88,1.39,15.26,2.85,30.52,4.11,45.79,1.39,16.76,2.49,33.55,3.91,50.31,1.14,13.4,2.56,26.77,3.88,40.16,2.09,21.37,4.38,42.73,6.25,64.12,2.09,24.06,3.62,48.16,5.75,72.21,1.15,13.07,3,26.07,4.57,39.1C314.61,705.79,314.77,707.77,315.1,711.15Z"/><path class="cls-1" d="M559.8,385.06c9.31.66,17.93,1.18,26.53,1.91,14.09,1.21,28.17,2.67,42.28,3.76,4.5.35,5.94,2,6.4,6.67,1.33,13.4,3.9,26.67,5.26,40.06,2.17,21.51,3.77,43.08,5.6,64.63.07.79,0,1.6,0,3.51-9.12-.56-17.84-1-26.53-1.82-.91-.09-2.17-2.59-2.27-4-.81-11.29-1.23-22.61-2.06-33.89a78.66,78.66,0,0,0-2.31-15.16c-.56-2-3.07-4.22-5.18-5-4-1.45-8.39-2-12.64-2.81-5.47-1-7.21.32-6.79,5.88.86,11.45,2,22.87,3.06,34.3.84,8.94,1.92,17.86,2.58,26.81a25.09,25.09,0,0,0,7.08,16.5c14,14.67,27.48,29.94,41.76,44.38,7.43,7.51,11.55,15.62,12.22,26.25,1.23,19.43,3.36,38.81,5.14,58.2q4.39,48,8.83,95.93c.29,3.15.53,6.31.86,9.45.6,5.78-.36,6.9-6.19,6.6-14.64-.75-29.27-1.65-43.91-2.3a45.65,45.65,0,0,0-9.88.83c-6.78,1.18-12.84-.59-18.59-4-.82-.48-1.87-1.28-2-2.08-1.44-8.24-2.68-16.52-4-24.78-.93-5.71-2.12-11.39-2.87-17.13a127.24,127.24,0,0,1-1-13.92c-.23-11-.22-21.91-.39-32.85a113.38,113.38,0,0,0-.67-12,20.22,20.22,0,0,0-2.11-6.35c-1.6-3.27-1.87-5.24,2.17-7.41,8.4-4.52,16.31-9.94,24.81-15.23.5,8.73,1.79,18.43,1.46,28.07A145.92,145.92,0,0,0,611.49,703c1.13,4.06,3,7,7.65,7.17,5,.21,10,.71,15,.67,4,0,5.34-2.6,5.09-6.42-.94-14.62-1.74-29.26-2.69-43.89-1.1-16.95-2.37-33.89-3.44-50.84-.23-3.56-1.17-6-5.15-6.72-3.54-.67-8.5-10-8.22-14.56-8.74-12.25-12.5-19.09-21.73-33.9s-21.74-24.85-29.26-42.57c-1.29-.3-2.59-.58-3.86-.93-.28-.08-.48-.44-1.22-1.14,9.14-3.49,5.39-10.86,5-16.93-1.7-23.57-3.79-47.12-5.8-70.67-.92-10.77-2-21.53-2.95-32.29C559.7,388.68,559.8,387.38,559.8,385.06Z"/><path class="cls-1" d="M402.15,381.72c6.86-.26,13.2-.67,19.55-.7,17.47-.1,34.94.09,52.41-.1,6.24-.07,8.14,1.16,8.65,7.42,2.39,29.35,4.56,58.73,7.17,88.06,1.82,20.4,4.25,40.73,6.32,61.11.18,1.74.27,3.81-.48,5.29A79.31,79.31,0,0,0,488,592.25c.09.63,0,1.29,0,3.21-15-7.36-29.24-14.45-39.55-27.68l-1.52,1.06c.4,5.5.72,11,1.21,16.51,2,22,4.09,44,6,66,1.7,19.72,3.07,39.47,4.82,59.18.87,9.76,2.33,19.46,3.39,29.21.65,6.09-.76,7.62-6.81,7-5.28-.56-10.52-1.53-15.74-2.54-3.27-.64-4.95-2.56-5.13-6.26-.43-8.47.05-17.34-2.36-25.29-4.07-13.37-3.91-27.16-6.11-40.68-1.76-10.79-1.13-21.94-2.26-32.86-1.56-15.19-4.12-30.29-5.63-45.5-1.25-12.73-1.45-25.56-2.38-38.32-3.13-42.83-4-85.81-9.69-128.46C404.28,412.51,403.57,398,402.15,381.72ZM466.42,534.5c-.76-10-1.48-19.9-2.3-29.82-1.74-21.23-3.46-42.46-5.35-63.68-.58-6.49-2.4-8.21-8.7-9.63-3.08-.7-6.16-1.45-9.27-2-4.24-.72-6.94,1.37-6.81,5.59.34,10.76.61,21.54,1.45,32.27.77,9.78,2.82,19.47,3.31,29.26.93,18.49,16.05,26.77,26.57,38.4C465.36,535,465.6,534.8,466.42,534.5Zm-51.59,1.75c1.32,2.94,2.16,4.83,3,6.71l1.87-.86C419,540.09,421.43,536.65,414.83,536.25Z"/><path class="cls-1" d="M978.75,745.22c-8.55-96.79-17-192.64-25.55-289.33l15,4.21c10.25,2.89,20.55,5.61,30.72,8.75,3.91,1.21,8.2,2.63,11.15,5.26a246.43,246.43,0,0,1,22.18,22.25c2.69,3.11,4.16,8,4.59,12.24,2,19.7,3.23,39.48,5.09,59.2,3.12,33.14,7,66.21,9.55,99.39.93,12,.78,24.57-2,36.1-2.45,10-9,19.1-14.59,28.08-1.64,2.64-6,4.3-9.42,5C1010.17,739.56,994.8,742.23,978.75,745.22ZM1019,622c-2.07.16-3.58.58-5,.31a25.52,25.52,0,0,1-4.71-1.9c.79-1.46,1.21-3.44,2.42-4.3,4.78-3.38,6.23-7.88,5.73-13.46-2.28-25.52-4.46-51-6.73-76.56-.84-9.4-5-16.42-14.5-19.46s-11.31-1.69-10.38,8.19c2.62,27.65,5.32,55.29,7.82,82.95,2.85,31.47,5.5,63,8.27,94.44.37,4.27,2.52,6.52,7.15,6.47,10.61-.11,16.76-7.39,15.57-18.47-1.06-9.91-1.87-19.85-2.84-29.78C1020.91,641.09,1020,631.71,1019,622Z"/><path class="cls-1" d="M1042.33,757.9c-.54,3.61-.39,6.6-1.46,9.05-4.74,10.82-10.17,21.3-12.18,33.18-.55,3.26-3.1,6.19-4.7,9.29-5.79,11.24-11.45,22.54-17.38,33.71a191.8,191.8,0,0,1-10.54,18.1c-7.68,11.26-17,21.57-23.34,33.52-5.55,10.52-15.19,17.53-20.51,27.93a20.93,20.93,0,0,1-5.65,6.27c-12.74,10.18-25.4,20.48-38.52,30.15-5,3.68-11.18,5.71-16.75,8.63-8.25,4.31-16.42,8.76-24.65,13.12-16.92,9-33.57,18.5-50.87,26.68-13,6.16-26.54,12.11-40.48,15.47-34.07,8.19-68.68,11.39-103.8,7.39-13.51-1.55-27.3-.51-40.84-1.9-32.74-3.36-65.79-4.43-97.89-13.12-13.45-3.64-27.1-6.32-40.23-11.35-12.52-4.8-25.7-7.88-38.27-12.56-8.27-3.08-16-7.7-24-11.55-6.26-3-12.71-5.66-18.87-8.86C382,955.79,353,939.73,326.51,919.77c-35.75-27-70.75-55-101.16-88.17-9.2-10-17.81-20.62-26.49-31.11-4.75-5.74-9.11-11.81-13.58-17.77a47.44,47.44,0,0,0-6.08-7.33c.87-3.29-1.72-5.67-4.28-8.8a73.19,73.19,0,0,1-9.78-16c-1.7-3.73-5.7-7.15-3.48-12.12.05-.11-.06-.43-.15-.45-9.09-2.64-6.94-12.37-11.2-18.22-4.44-6.11-6.22-14.16-9.16-21.36l1.83-1.35c3.7,2.81,7.43,5.6,11.09,8.48.46.36,1,1.36.79,1.73-2.67,5.37,1.11,7.77,4.5,10.59,1,.83,1,2.76,1.74,4,2.83,4.8,5.91,9.46,8.67,14.31,2.9,5.1,5.43,10.41,8.34,15.51.88,1.55,2.47,2.68,3.73,4a10.46,10.46,0,0,1,1.79,2.06c1.64,3.18,2.67,6.8,4.82,9.56,15.46,19.78,30.39,40,46.9,58.92,32.81,37.53,72.34,67.31,113.42,95.12,6.74,4.57,13,9.9,20,14,8.8,5.23,18.1,9.6,27.18,14.36,7.53,3.94,14.93,8.14,22.58,11.79,8.84,4.22,17.9,8,26.86,11.93,5.32,2.35,10.48,5.28,16,6.91,18.88,5.6,36.6,14.48,56.38,17.77,16.82,2.79,33,9,49.76,12.66,10,2.21,20.38,2.88,30.63,3.7,28.39,2.28,56.78,4.69,85.22,6.16,10.17.52,20.47-1.55,30.72-2.36,3.47-.27,7-.09,10.45-.52,4.88-.6,9.69-1.7,14.57-2.36,6-.81,12.11-1.42,18.18-2,3.77-.39,7.76,0,11.31-1.08,15.26-4.71,30.11-10.49,44.11-18.32,16.83-9.4,33.75-18.63,50.67-27.86,5.26-2.87,10.58-5.65,16-8.19a210.27,210.27,0,0,0,58.17-39.82c12.1-11.86,22-26.41,31-40.88,15.74-25.07,30.21-51,45-76.64,2.45-4.27,3.64-9.26,5.46-13.89,1.76-4.48,3.52-9,5.39-13.39,1.8-4.23,3.75-8.4,5.95-13.3Z"/><path class="cls-1" d="M919.47,412.69l-13.23-3.11c.5-2,.91-3.63,1.5-5.95l-3.85,1.55c-5.92-6.56-11.35-12.74-17-18.77-23.8-25.59-51.07-47.25-78.19-69.11-15.68-12.64-30.74-26-46-39.22-10.7-9.25-23.26-14.6-36.6-18.75-7.36-2.29-14.39-5.65-21.58-8.52a24.83,24.83,0,0,0-2.83-1c-8.65-2.29-17.32-4.53-26-6.86-16.83-4.54-33.46-10.06-50.51-13.45-21.27-4.23-42.81-7.24-64.36-9.74-11.39-1.33-22.68-2.46-34-4.88a226.85,226.85,0,0,0-71.57-3.63c-12.73,1.34-25.4,3.31-38.05,5.32-2.83.45-5.48,2.17-8.14,3.46-2.23,1.08-4.24,2.79-6.56,3.53-16.14,5.1-30.83,13.22-45.57,21.33-6.24,3.43-13.24,5.52-19.48,9-15.6,8.6-31.82,16.44-46.12,26.87-10.68,7.79-19.53,18.54-27.82,29.06-12.66,16.07-23.83,33.31-36.27,49.56A29.43,29.43,0,0,1,208,371.2c-4.91.79-9.89,6.33-13.15,10.93-5.76,8.13-8.25,17.92-8.41,27.82-.27,16.8.37,33.62.48,50.43.12,17.32-.25,34.65.17,52,.4,16.8,1.57,33.58,2.34,50.36.53,11.48.88,23,1.49,34.43.29,5.42,1,10.81,1.64,17.13-2.45-.89-4.58-1-5.63-2.16-3.77-4.08-8.49-7.4-9-13.89-1.05-12.1-2.23-24.24-4.25-36.21-3.22-19.19-2.07-38.42-2.14-57.69,0-9.43-1.95-18.85-2.82-28.29-.61-6.53-1-12.83.82-19.6,1.71-6.33.07-13.54.06-20.37a30.72,30.72,0,0,1,.73-8.31c1.35-4.77,3.61-9.29,1.69-14.5-.38-1,.43-2.55.84-3.8,5.17-15.92,14.29-29.69,24.21-42.85,20.19-26.8,39.66-54.28,65.84-75.92a49.38,49.38,0,0,0,5.57-5.72,88.43,88.43,0,0,1,23.81-19.56c16.56-9.17,33.21-18.21,49.42-28,5.58-3.36,11.38-6.39,16.78-9.87,17.82-11.46,38.14-16.32,57.63-23.4,1.79-.65,4-.1,5.91-.48,4-.78,7.88-1.82,11.83-2.71,2.25-.51,4.5-1.31,6.77-1.36,14.82-.31,29.67-1.15,44.45-.44,14.57.69,29.09,2.83,43.59,4.65,17.18,2.15,34.35,4.39,51.45,7.05,14.28,2.21,28.58,4.54,42.63,7.82,12.28,2.86,24.21,7.17,36.33,10.73a51.22,51.22,0,0,0,7.25,1.19c.82.11,1.74-.21,2.48.06q15.27,5.43,30.47,11c2.47.91,4.76,2.35,7.26,3.14,17.31,5.43,34.67,10.58,50.59,19.73a194.49,194.49,0,0,1,39.85,29.77c13.53,13.24,28.48,25.07,43,37.28,19.9,16.71,40.25,32.93,57.29,52.74q11.61,13.5,23.28,26.93Z"/><path class="cls-1" d="M118.38,393.51c2.6-21.53,11.16-40.6,20.06-59.61,7.9-16.9,19.92-30.75,32.55-44,12.17-12.75,25.66-24.25,38.25-36.62,9.85-9.68,20.3-19.05,28.51-30,8.51-11.38,18.54-20.83,29.11-30,6.36-5.5,13.53-9.34,21.3-12.68,21.72-9.33,44.54-13.21,67.78-15.83,6.87-.78,13.55-3.13,20.4-4.33,4.34-.77,8.82-.75,13.23-1.07a12.57,12.57,0,0,0,2.47-.11c14.69-4.16,29.86-7.16,43.94-12.83,21.4-8.63,43.48-10.77,66.06-10.91,10.66-.07,21.48-1.09,32,.35,30.72,4.22,62.17,4.26,91.79,15.22,2.14.79,4.62.61,6.84,1.24,5.34,1.5,10.63,3.19,15.93,4.85,1,.29,1.78,1,2.74,1.21,25.08,6.13,48.37,17,71,28.88,16.26,8.51,34.16,13.83,48.82,25.68,7.42,6,16.32,10.28,24.86,14.76,18.8,9.88,36.09,22.08,52.82,35a401.3,401.3,0,0,1,35,30.45c12,11.7,23.2,24.29,34.43,36.77,10,11.13,19.8,22.45,29.26,34,8,9.78,15.52,19.94,22.93,30.16q12.15,16.74,23.62,34c2,3,2.65,6.82,6.28,8.83,1,.54,1.12,2.53,2.12,5-9.39-2.23-19.64-1.23-23.08-11.2-3.89-11.25-13.14-18.29-19.11-27.85s-13.76-18.36-20.78-27.45C912,339.89,882.67,306,848.66,276.69,833,263.2,815.26,252,797.8,240.8c-18.47-11.85-37.52-22.86-56.73-33.5-11.89-6.59-24.48-12-36.88-17.62-13.3-6.06-26.53-12.43-40.22-17.5-13.53-5-27.6-8.59-41.47-12.66-2.35-.69-4.93-.6-7.39-.94-2.3-.32-5-.07-6.82-1.2-9.64-6-20.4-6.44-31.22-7.27-24.23-1.87-48.42-4.23-72.65-6-6.06-.45-12.22-.14-17.94,3.08a13.34,13.34,0,0,1-8.21,1.39c-5.11-.87-9.37,1-14,2.39-8.71,2.63-17.64,4.49-26.44,6.81-7.06,1.87-14,4-21.08,5.92-16.32,4.35-32.64,8.63-49.68,9.16-2.51.07-5,1.18-7.5,1.71a45.2,45.2,0,0,1-6.29,1.08c-2.48.18-5.12-.52-7.46.08-9.37,2.42-18.64,5.22-28,7.81-3.19.89-6.57,1.24-9.63,2.41-5.77,2.22-11.41,4.78-17,7.35-2.26,1-4.23,2.69-6.51,3.67a71.06,71.06,0,0,0-26.94,20.9c-18.82,23.32-41,43.21-61.87,64.49-14.16,14.45-29.5,28-40.34,45.5-4.89,7.88-10.28,15.47-14.94,23.47-1.65,2.84-1.86,6.51-2.69,9.82-.23.94,0,2.28-.55,2.83-5.72,5.51-6,13.21-8,20.11C127,392.15,127.24,392.23,118.38,393.51Z"/><path class="cls-1" d="M112.63,650.54c-6.91-2.52-13-4.58-19-7-16.68-6.64-33.28-13.5-50-20.08-5-2-7.78-4.78-8.22-10.53-1.55-20.09-3.58-40.14-5.37-60.21-.42-4.69.77-5.73,5.4-5,5.43.83,10.84,1.89,16.29,2.5,4.67.53,6.66,3,7,7.5,1,12.28,2.07,24.55,3.06,36.83.56,7,1.67,8.26,8.54,10.37,4.74,1.45,9.41,3.11,14.9,4.94-.59-7.26-1.12-13.85-1.68-20.45-.72-8.63-1.72-17.24-2.09-25.89-.15-3.45,1.06-7,1.66-10.45l1.42-.31c-2.13-1.76-4.16-3.68-6.43-5.25C63,537,47.84,526.36,32.54,516c-4.34-2.94-6.53-6.39-6.95-11.8C24,483.42,21.89,462.71,20,442c-.74-8-.23-8.69,7.52-10.56Q58.57,424,89.62,416.49c1.76-.42,3.58-.59,6-1,.37,3.17.79,6.06,1,9,1.23,14.2,2.39,28.4,3.61,42.6.37,4.31,1.09,8.6,1.19,12.91,0,1.57-.8,3.94-2,4.65-6.6,3.87-14,5.08-21.5,4.5-1.48-.12-3.63-3.24-3.89-5.19C73,476,72.59,468,71.85,460.08c-.17-1.76-.6-3.5-1-5.85-6.12,1-11.91,1.7-17.46,3.21-1.47.4-3.22,3.52-3.12,5.29.63,10.8,1.38,21.62,3,32.32.43,2.93,3.29,6.12,5.89,8,10.37,7.55,21.45,14.14,31.52,22,7.91,6.21,15,13.38,15.55,24.83.79,16.44,2.39,32.84,3.52,49.26,1.07,15.58,2,31.17,2.94,46.76C112.69,647.09,112.63,648.24,112.63,650.54Z"/><path class="cls-1" d="M1071,707.67c-1-10.57-2.12-20.61-3-30.67-1.12-12.91-1.94-25.84-3.17-38.74-.44-4.68,1.32-7,5.84-7.17,5.49-.2,11-.09,16.48-.26,2.77-.09,3.73,1.09,4,3.79,1.39,15.07,3.08,30.11,4.35,45.18.43,5.09,3,5.61,7.06,4.69,3.4-.78,6.84-1.47,10.29-2,4.5-.66,6.35-3.21,5.93-7.61-1.17-12.09-2.24-24.19-3.55-36.27-.46-4.22-.77-8.07,5.35-9.63-4.34-3-7.94-5.6-11.59-8.11-13.72-9.44-27.42-18.91-41.2-28.25a14.67,14.67,0,0,1-7-11.74c-2.5-24.5-5.77-48.92-8.43-73.4-.67-6.23-.1-12.58-.1-19.75,1.64.22,3.76.14,5.6.82,22.5,8.25,45,16.63,67.43,24.94,3.72,1.37,6.33,3.48,6.7,7.77,1.31,15.42,2.71,30.84,4,46.26.14,1.62,0,3.27,0,5.87-8.26-1.8-16.11-3.06-23.6-5.44-2-.64-3.74-4.57-4.2-7.23a184.08,184.08,0,0,1-1.92-19.37c-.27-4.26-2.18-6.67-6.37-7.69-5.79-1.42-11.5-3.17-17.92-5,.76,8.61,1.47,16.68,2.2,24.74.42,4.64,1.1,9.27,1.28,13.92.19,5.2,2.82,8.61,6.93,11.41,13.9,9.47,27.64,19.18,41.63,28.52,4.45,3,6.42,6.63,6.86,11.89,2.12,25.39,4.51,50.74,6.81,76.11.66,7.34-.07,8.44-7.25,10.58-7,2.09-14,4.25-21.08,6.13a7.17,7.17,0,0,1-5.08-.45c-12.89-8.16-26.47-9.13-40.71-4.42A24.43,24.43,0,0,1,1071,707.67Z"/><path class="cls-1" d="M680.27,95.66l7.71,37h2.24c1.1,3.55,1.55,6.72,3,9.34,7.28,13.28,17.69,23.6,30.38,31.84,8.8,5.71,17.22,12,25.79,18.07a9.49,9.49,0,0,1,3.4,3.94,16.06,16.06,0,0,1-3.37-.9C729,184.55,709,173.56,693.06,156.7c-2.57-2.72-4.5-6-6.7-9.12-.38-.54-.45-1.35-.91-1.76-6.75-6-8.5-14.21-10-22.52a50.22,50.22,0,0,1-1.28-8.8c0-8.6-3.51-15-10.81-19.53-8.86-5.47-18.24-7.64-28.64-5.63-9,1.74-13.3-1.52-18.11-9.44C612.75,73.48,607.18,68,602,62.45c-6.55-7.06-13.45-13.8-20.19-20.7-2.17-2.22-2.2-4.26-.25-7,3.78-5.27,7-10.94,10.61-16.34,1.95-2.92,4.41-5,8.4-3.34,2.6,1.06,4.4,0,5.39-2.74,3.16-8.75,7.14-11.61,16.59-9.88a78.39,78.39,0,0,1,19.65,6.58c9.43,4.55,18.4,10,27.52,15.2a24.86,24.86,0,0,1,4.42,3.22C692.82,44.35,711.54,61.16,730,78.27a36.61,36.61,0,0,1,8.33,11.59c2.64,5.91.53,9-5.81,10.48-1.3.31-2.65.43-3.89.86-5,1.71-7.25,5.32-6.15,10.46,1.51,7,3.31,13.91,5,20.84.24.95.48,2.32,1.16,2.68,5.79,3.12,5.82,8.92,7.4,14.24.93,3.13,3.46,6.13,6,8.41,18.13,16.42,36.43,32.42,57.36,45.62,20.21,12.76,38.64,28.39,57.5,43.2,4.74,3.72,8.2,9.09,12.1,13.83a6.62,6.62,0,0,1,1.21,3.67c.18,2.9.06,5.82.06,9.84-3.66-3.28-8.28-5.75-10.33-9.59-5.59-10.49-14.68-17.57-22.74-25.67-15.93-16-36-26.3-54.09-39.28-15.28-11-29.9-22.85-44.66-34.52-3.62-2.87-6.66-6.49-9.89-9.82a9.07,9.07,0,0,1-1.07-2.16c-1.49-2.77-2.57-5.93-4.62-8.2a15.25,15.25,0,0,1-4.37-10c-.61-8-2.43-16.07-4.36-24-1.15-4.69-5.58-5.92-9.88-6.28-7.2-.6-13.77-2.6-19-7.84-1.48-1.51-3.2-3.26-3.7-5.19-2.58-10-9-17.33-16.19-24.09Q641.52,45,617.4,22.91c-1.83-1.67-4.72-2.19-7.11-3.24,1.17,2.45,1.73,5.58,3.59,7.25,14.51,13,29.31,25.71,43.91,38.63,2.05,1.82,3.5,4.32,5.26,6.48,1.13,1.4,2,3.31,3.52,4,5.59,2.68,7.35,7.21,7.51,13C674.18,92.73,674.39,96.84,680.27,95.66Z"/><path class="cls-1" d="M219.61,734.25c-8.92-3.33-8.17-14.1-14.75-21.73,5.12,1.06,8.93,1.5,12.46,2.75,1.46.51,2.55,2.63,3.36,4.25,1.38,2.73,1.85,6.06,3.65,8.41a777.47,777.47,0,0,0,94.15,102.46c18.26,16.55,35.32,34.5,56.1,48,23.68,15.4,46.88,31.65,73.4,42.22,22.44,8.94,44.9,17.62,69,21.12a9.33,9.33,0,0,1,2.45.46c16.32,7,34.25,6.5,51,10.83,29.92,7.71,60.3,8,90.74,8.78,1.16,0,2.32-.16,3.48-.22,9-.47,17.89-1.3,26.84-1.28,6,0,11.69.9,17.42-2.3,2.79-1.56,6.79-1,10.24-1.36,6.42-.68,12.85-1.27,19.25-2,17-2,32.85-7.79,48.61-14.32,15-6.22,27.56-16,40.48-25.39,3.2-2.31,6.66-4.26,10-6.34.7-.44,1.65-.59,2.2-1.15,9.64-10,22.59-14.56,34.44-20.83,15.27-8.09,27.76-19.51,39.7-31.62,18.95-19.23,31.95-42.51,44.1-66.3a24.51,24.51,0,0,0,2.14-6.09c1.69-8.27,4.6-10.34,14.25-9.31-6.85,15.56-9,32.45-19,47-7.59,11.06-15.91,21.63-23.23,32.71-11.16,16.9-26.66,27.63-43.18,37.57-22.41,13.49-44.78,26.88-65,43.73-6.49,5.4-15.5,7.78-23.36,11.54a8.39,8.39,0,0,0-1.79.84c-11.93,9.75-26.55,11.6-41,14.14a123.25,123.25,0,0,0-12,3.2c-1,.27-1.84,1-2.78,1a162.42,162.42,0,0,0-23.41,3.19c-9.26,1.74-18.83,1.88-28.27,2.69a52.81,52.81,0,0,1-5.48.3q-32.21-.53-64.42-1.12c-15.5-.28-30.79-1.62-46-5.26-12.9-3.09-26.33-3.88-39.42-6.24-12.43-2.24-25-4.35-37-8-16.08-5-31.68-11.44-47.53-17.14-25.25-9.08-47.82-23-70.19-37.58-27.6-17.92-50.62-41.07-74.3-63.46q-26.31-24.9-51.44-51c-12.17-12.69-23.39-26.3-34.79-39.71C219.59,740.27,220.05,737.51,219.61,734.25Z"/><path class="cls-1" d="M215.37,687.39c-12.22-4.36-23.31-8.36-34.43-12.28-14.29-5-28.57-10.06-42.91-14.93-3.12-1.06-4.36-2.6-4.6-6-1.67-23.89-3.34-47.8-5.53-71.65-2.52-27.53-5.68-55-8.38-82.5-2.37-24.2-4.49-48.43-6.74-72.64a62.87,62.87,0,0,0-1.1-8.91c-.9-3.78.17-5.94,4-6.76,6.17-1.31,12.33-2.7,18.48-4.07,3.95-.88,5.38,1,5.71,4.72,1.93,22.07,4.31,44.1,5.92,66.19,2.31,31.55,3.77,63.16,6.21,94.69,1.28,16.59,3.83,33.08,5.9,49.6.79,6.33,3.76,10,10.65,11.77,13.45,3.39,26.6,8,39.78,12.38a6.66,6.66,0,0,1,3.86,4.37c1.41,9.87,2.39,19.8,3.42,29.72A51.4,51.4,0,0,1,215.37,687.39Z"/><path class="cls-1" d="M720,37.24c3.23,1.45,6.94,2.31,9.62,4.46,16,12.8,32,25.55,47.38,39.1,5.46,4.82,9.07,11.76,13.3,17.89a8.74,8.74,0,0,1,1.4,5.21c-.29,3.89.76,6.51,4.24,8.74,1.57,1,2.2,4,2.64,6.14a82.61,82.61,0,0,1,1.25,10.41c.4,5.31,1.86,10.05,5.86,13.87a11.51,11.51,0,0,1,3.21,4.95c2.09,7.74,6.88,13.57,12.57,18.86,17.44,16.23,35,32.25,56.2,43.75a186,186,0,0,1,17.5,10.47c6.49,4.53,12.49,9.75,18.81,14.52,3.58,2.71,7.5,5,11,7.7,3.39,2.62,6.5,5.59,9.7,8.44.61.55,1,1.55,1.64,1.85,5.73,2.48,7.41,7.44,8.4,13a4,4,0,0,0,2.23,2.79c5.71,1.24,6.52,5.41,6.72,10.21.14,3.49.46,7,.92,10.44a27.34,27.34,0,0,0,1.51,4.63c1-.48,1.68-.59,1.78-.91,3.3-10,5.25-20.22-2.38-27.53-1.73-1.65-2.28-4.52-3.35-6.84-.62-1.32-.86-3-1.83-3.93-7.18-6.88-14.17-14-21.84-20.27-9.25-7.57-18.93-14.66-28.77-21.46-21-14.48-42.2-28.66-60.35-46.75-3.19-3.18-4.91-7.79-7.79-11.36-7.55-9.37-6.41-21-8.55-31.72-1.1-5.55-2.15-11.12-3.1-16.7-.6-3.55-1.45-6.83-5.07-8.6-.68-.34-1.58-1.11-1.63-1.74C812.8,90.8,808,88,804.33,84.19c-11-11.34-21.71-22.93-33-34.89,2,.43,4.43.42,6.28,1.44,16.79,9.24,29.15,23.5,42.32,37,9.71,9.93,13.73,21.72,15,35,.34,3.48.26,7.11,1.26,10.39,4.5,14.65,9.09,28.73,21.69,39.64,15.26,13.21,30.93,25.72,47.18,37.67,18,13.26,37.22,25.14,52.41,42.11,7,7.83,12.45,16.09,13.58,26.58a31,31,0,0,1-1.1,10.76c-4,15.79-9.35,31.34-8.68,47.95a22,22,0,0,0,2.13,7.44c8.2,19,24.28,31.9,36.67,47.68,5,6.39,9.86,13,14.22,19.82,5.15,8.12,5.06,27.68.38,33.83-7.31-2.27-9.52-4.58-8.62-12.11,1.62-13.52-2.9-24.38-12.32-33.75-7.91-7.87-15.8-15.78-23.33-24s-14.67-16.8-21.81-25.36A41.32,41.32,0,0,1,939.08,323c.37-13.12,1.85-26.21,2.48-39.33.14-2.88-1.11-5.88-2-8.73a25.94,25.94,0,0,0-2.51-4.81c-2.26-4-3.86-8.56-6.94-11.72-17.52-18-37.91-32.45-59.48-45.2-24.8-14.67-46.84-32.76-67-53.28-1.24-1.26-2.92-3.13-2.76-4.52.57-4.83-2.88-6.77-5.36-9.83-2.31-2.84-4.22-7.13-4-10.65.45-7.31-2-12.89-6.61-18.15-1.52-1.75-3-4.15-3.15-6.35a30.56,30.56,0,0,0-7.28-17.69,234,234,0,0,0-39.62-37.92c-6-4.57-11.1-10.22-16.6-15.39Z"/><path class="cls-1" d="M882.82,787.79c-1.31,1.93-1.93,3.06-2.76,4C864,810.71,848.34,830,831.67,848.33c-14.65,16.14-33.6,26.54-53.33,35.28-12.14,5.37-24.68,9.85-37,14.78-6.93,2.78-13.66,6.19-20.76,8.39-13.26,4.12-26.52,8.86-40.14,11a391.75,391.75,0,0,1-55.14,4.62c-10.78.14-21.55-4.07-32.43-5-15.29-1.31-28.42-9-42.76-13.08-14.52-4.09-28.48-10.14-42.75-15.13-7.31-2.56-15.45-2.88-21.69-8.28a5.25,5.25,0,0,0-2.31-.91c-36.13-7.77-67.95-24.25-96.47-47.53-26.59-21.7-52.75-43.88-76.94-68.27-7.5-7.57-14.77-15.38-21.89-23.31-1.94-2.15-3-5.11-3.76-8.28,9.23,3.34,18.75,4.37,25.38,13.24C323.33,764.08,342,777.39,359,792.31c19.25,16.92,39,33.3,58.79,49.6,4.7,3.87,10.38,6.59,15.69,9.71,4.58,2.69,9.26,5.19,13.91,7.77a23.77,23.77,0,0,0,3.53,1.85c36.79,13.27,73.79,26,110.34,39.92,25.27,9.63,51.48,11.65,78,12.69,4.37.17,8.79-1.73,13.24-2,26.16-1.61,49.56-13.52,74.45-19.84,3-.76,5.79-2.49,8.7-3.73,9.17-3.9,18.43-7.6,27.5-11.73,7.07-3.24,14-6.78,20.82-10.6,8.39-4.71,16.46-10,24.83-14.77,11.26-6.41,19.69-15.56,27.33-25.88,8.7-11.75,18.25-22.87,27.53-34.18a6.26,6.26,0,0,1,3.68-2.18C872.08,788.38,876.9,788.19,882.82,787.79Z"/><path class="cls-1" d="M284.48,364.81c2.95-2.51,4.71-4.21,6.68-5.63,5.67-4.1,11.26-8.34,17.16-12.07,17.31-11,31.19-26,46.52-39.26a226.89,226.89,0,0,1,46.23-31.26c3.85-2,7.35-4.65,11.27-6.43a124.77,124.77,0,0,1,12.54-4.39c1.09-.36,2.34-.32,3.39-.76,9.59-4,19.68-4.45,29.9-4.53,23.95-.18,47.86-.43,71.86.69,29,1.35,57.74,4.44,86.42,8.53,3.74.53,7.35,1.93,11,2.91s7.66,2.06,11.52,3c1.77.43,3.67.43,5.38,1,7.15,2.4,14.48,4.44,21.51,6.91,24.61,8.67,48.35,19.08,69.79,34.76,30.15,22.06,56,49.19,85.8,71.51.65.49,1.57.62,1.76,1.71-10.6-1.64-20.75-1.95-29.63-9.59-23.34-20.09-47.19-39.64-71.65-58.34-10.72-8.2-23.12-14.4-35.3-20.43-15.06-7.47-30.77-13.51-47.8-15.15-2.06-.2-4-1.56-6-2.25-3.91-1.31-7.77-3.16-11.79-3.66-22.12-2.77-44.24-5.7-66.45-7.59-16.57-1.41-33.27-1.47-49.92-1.89-16.48-.42-33-.59-49.46-.76a30.92,30.92,0,0,0-6.37.94c-4.18.88-8.34,1.88-12.52,2.8-1.77.39-4.09.14-5.24,1.18-3.42,3.09-7.85,2.87-11.62,4.44-9,3.75-18.27,7.55-26.06,13.21C379,304.88,365.51,316.59,351.79,328q-17.62,14.61-34.88,29.67c-4.09,3.56-8.43,5.62-13.92,5.75S291.76,364.22,284.48,364.81Z"/><path class="cls-1" d="M1094.74,471l-9.64-3.53c2.78-4.39,5.3-8.58,8-12.64,5.92-8.85,5-18.75,4.43-28.55-.1-1.69-1.36-3.36-2.25-4.94-6.11-10.81-14.29-19.82-22.85-28.84-11.94-12.59-24.56-24.84-32.38-40.92-4.23-8.68-3.07-17.53-2.53-26.36.37-6.1,2.54-12.06,3.26-18.15,1-8.57,1.43-17.21,2-25.83a4.19,4.19,0,0,0-.64-2.86c-9.3-10.08-15.27-23.16-28.38-29.87-7.2-3.69-13.45-9.21-20.32-13.6-17.47-11.17-36.63-18.21-56.91-22-9.35-1.74-17.75-4.76-25.59-10.32-17.72-12.58-35.53-25.16-47.75-43.5-4.68-7-6.93-15.7-10-23.73-.21-.55,2.36-3.1,2.94-2.88,2.73,1,5.77,2.17,7.7,4.21,11.89,12.54,26.37,20.15,43.19,23.49a29.19,29.19,0,0,1,17.63,10.61c17.48,22,41.41,35.77,64.25,51,14.51,9.7,28.74,19.9,42.42,30.72a81.14,81.14,0,0,1,17.05,18.79c5.6,8.53,6.95,18.55,4.9,28.81-2.08,10.42-4.73,20.81-5.64,31.34-.57,6.61,1.55,13.48,2.64,20.2a8.83,8.83,0,0,0,2,4q15.9,18.92,32,37.73c6.7,7.86,13.82,15.38,20.13,23.53,7.91,10.22,9.63,21.45,2.92,33.12C1103.3,457,1099.09,463.76,1094.74,471Z"/><path class="cls-1" d="M546.56,534.66c32,2.69,50.94,21.52,45.81,56.87-2.58,17.8-13.41,28.69-31.62,32.06-4.38.81-8.31,3.91-12.53,5.75-1.28.57-3.36,1.17-4.22.55-18.55-13.19-32-29.58-30.13-53.89.57-7.4,3.93-14.6,6.14-21.86,1.25-4.09,2.66-8.14,4.18-12.14.51-1.36,1.37-3.39,2.41-3.62C533.72,536.83,540.94,535.66,546.56,534.66Z"/><path class="cls-1" d="M129.28,691.3c-7.8,6.64-15.24,12.5-22.12,19-8.35,7.84-16.85,15.67-24.16,24.44-9.53,11.45-8,24.33,3.52,33.85,8.71,7.18,18.22,13.41,27.23,20.25,2.5,1.9,4.47,4.48,7.37,7.45-5.9.9-9.47-.64-12.77-3.56a88.07,88.07,0,0,0-7.51-5.38c-2.51-1.8-4.92-3.75-7.52-5.39a19,19,0,0,0-6.13-2.85,28.69,28.69,0,0,0-9.92-.52,16.24,16.24,0,0,0-8,3.85c-3.18,3-6.1,3.61-9.11.61-8-8-16.25-15.8-23.55-24.39-5-5.86-3.79-13.47-1-20a41.64,41.64,0,0,1,9.27-13.39c11.53-11,23.75-21.35,35.4-32.27,5.54-5.19,10.39-11.11,15.8-17Z"/><path class="cls-1" d="M780.91,793.83c-23.6,16.67-46.56,34.37-73.78,45.15a5.68,5.68,0,0,0-.9.42c-13,7.88-27.73,11.46-42.27,14-14.12,2.43-28.89,2.71-43.24,1.78-22.4-1.45-44.78-4.07-67-7.44-16.5-2.5-33.38-4.24-48.75-11.84-1.69-.84-4-.35-5.85-1-3.52-1.18-6.94-2.66-10.35-4.14-1-.46-1.82-1.58-2.87-2-40.38-14.17-72.19-41.12-103.26-69.18a10.36,10.36,0,0,1-2.42-3.22c6.57,1.17,13.11,1.6,18.55,6.51,23.34,21.06,48.64,39.16,77.14,52.93,15.8,7.64,31.77,14.79,48.71,18.73,36.07,8.41,73.1,9.49,109.9,12.09a3.33,3.33,0,0,0,1,.05c14.2-3.37,29.24-1.54,43.05-8.7a97.15,97.15,0,0,1,18-6.86A72.32,72.32,0,0,0,712.31,825c17.27-9.66,34.12-20.1,51.55-29.45,4.78-2.56,11-2.37,16.63-3.45Z"/><path class="cls-1" d="M712.72,373.08l-34-5.32a1.61,1.61,0,0,1-.48-.12c-9.45-4.28-18.82-8.78-28.39-12.8-7.47-3.15-15.09-6-22.83-8.46-12.51-3.93-25-8-37.79-10.86-14.72-3.33-29.64-6-44.61-7.9-6.76-.87-13.84,1.13-20.76,1-17.42-.29-34.62,2.29-51.31,6.32-14,3.39-28.26,6.83-41.58,13.36-6,2.94-13.9,1.92-20.94,2.7l-.41-1.27c5.68-2.78,11.11-6.35,17.08-8.2,21.58-6.72,41.55-18.14,64.06-22,5-.87,10.18-.82,15.28-1.08,9-.46,17.92-1,26.88-1.22,18.19-.53,36.25,0,54,4.65,12.7,3.33,25.68,5.59,38.4,8.84a120.19,120.19,0,0,1,17.75,6.57c15.86,6.89,31.63,14,47.41,21.05,1.66.74,3.19,1.76,4.79,2.64,4.15,2.3,8.33,4.53,12.42,6.92,1.94,1.14,3.68,2.61,5.51,3.93Z"/><path class="cls-1" d="M285.24,922.41c-3.63,2.81-6.85.79-9.83-1.3-14.6-10.22-29.37-20.22-43.61-30.92-23.46-17.64-47.2-34.79-73.57-47.93-1.45-.72-2.93-1.39-4.86-2.31-.83,6.28-4.85,5.9-9.19,5.3A96.36,96.36,0,0,0,130.76,844c-12.54,0-23.77-3.92-34.54-10.06-9.55-5.43-19.51-10.13-29.11-15.47-2.32-1.29-3.92-3.85-5.86-5.82.36-.55.72-1.1,1.07-1.65a64,64,0,0,1,6.92,1.48c6.85,2.25,13.63,4.62,20.87,1.4a5.23,5.23,0,0,1,3.43,0c6.34,2,12.91,3.62,18.89,6.44,9.29,4.4,18.23,9.55,27.19,14.61,3.42,1.93,6.06,3.29,8.55-1.29,1.68-3.11,4.64-2,7-.65,7.9,4.61,15.85,9.15,23.55,14.07,20.59,13.18,41.44,26,61.43,40C255.67,897.92,270,910.38,285.24,922.41Z"/><path class="cls-1" d="M998,272.29c10.19,4.2,15.41,11.73,19.18,20.11,1.26,2.81.07,6.86-.4,10.29-1.79,13.16-4.75,26.27-5.25,39.47-.27,7.26,3.06,14.82,5.53,22,4.62,13.44,14.82,23.14,23.71,33.69,4.69,5.57,9.44,11.1,14.4,16.93l-9.46,4.83c-7.51-26.83-27.56-44.92-44.59-65.1-2.26-2.67-4.59-5.28-6.7-8.06-5.22-6.87-6.14-14.45-3.65-22.65,1.4-4.61,2.28-9.38,3.64-14C997.91,297.75,1001.17,285.7,998,272.29Z"/><path class="cls-1" d="M71.24,664.62l10.19,4.9c-6.88,7.4-12.88,14.48-19.54,20.86-8.65,8.29-17.88,16-26.73,24-4.42,4-8.63,8.29-12.83,12.56-6.87,7-8.74,15.32-6.89,24.86A21.55,21.55,0,0,0,23.63,765c10.28,8.36,20.34,17,30.53,26.49-2.94-.37-6.64.26-8.69-1.29-13.62-10.29-28.54-19-38.88-33.32-5.16-7.16-6.42-13.83-1.44-21,4.6-6.66,9.11-13.59,14.78-19.3,11.84-11.91,24.61-22.91,36.63-34.66C61.76,676.81,66.05,670.79,71.24,664.62Z"/><path class="cls-1" d="M488.51,1011.87c6.26,0,11.57.28,15.25,5.36a4.11,4.11,0,0,0,1.86,1.6c12.68,3.32,18.93,14.77,28.08,22.49,6.71,5.66,7.16,15.82,2.63,24.45-6.38,12.14-16.15,21.35-25.9,30.75-10.63,10.23-20.39,21.36-30.34,32.27-3.14,3.46-9.11,4.8-13.08,2.08-2.77-1.9-.65-3.36.69-4.71,8.79-8.85,17.57-17.73,26.45-26.49,6.63-6.55,13.62-12.74,20.06-19.46,7.55-7.88,13.5-16.87,14.17-28.15.16-2.71-1.43-6.13-3.32-8.26-9.49-10.71-19-21.44-32.49-27.54a8.15,8.15,0,0,1-2.24-2A26.66,26.66,0,0,1,488.51,1011.87Z"/><path class="cls-1" d="M514.35,1133.07c8.72-10.13,16.57-21,27-29.67,13.91-11.61,27.93-23.23,35.68-40.42,2.93-6.5,3-9.52-1.7-15-5-5.78-10.23-11.36-15.36-17l-3.23-3.54c.22-.57.45-1.15.68-1.72,2.27.53,5,.46,6.71,1.72,4.55,3.33,8.68,7.21,13,10.92,2.88,2.5,5.75,5,8.53,7.64.92.86,2.17,2,2.23,3,.77,12.55-.56,24.62-10.24,33.94Q553,1106.67,528,1130.05a20,20,0,0,1-6.2,4.11c-2.05.81-4.49.62-6.76.87C514.83,1134.38,514.59,1133.73,514.35,1133.07Z"/><path class="cls-1" d="M486.17,1140.1a68.87,68.87,0,0,1,16.37-21.7c10.68-9.71,21-19.84,31.57-29.66,8.34-7.73,14.18-17.15,19-27.27,3-6.35,1.39-12.34-3-17.13-5.84-6.35-12.36-12.07-18.62-18a18.35,18.35,0,0,1-3.74-4.17,15.56,15.56,0,0,1,13.85,3.81c4.82,4.34,9.58,8.75,14.32,13.17,8.68,8.09,10.8,20.32,4.66,30.46a58.48,58.48,0,0,1-10.12,12.24c-16.82,15.66-34,31-47,50.22-1.55,2.3-3.91,4-5.91,6C494.34,1141.35,490.59,1142.2,486.17,1140.1Z"/><path class="cls-1" d="M572.26,1126.64c2-2.82,3.46-5.77,5.7-8,12.64-12.25,26.14-23.71,37.92-36.73,5.53-6.11,8.09-15,11.44-22.9.61-1.46-1-4.46-2.4-6.08-4-4.67-8.43-9-12.57-13.5-1.22-1.34-2-3.06-3.7-5.69,6.83.9,12.22,1.16,16.18,5.8,3,3.54,6.49,6.71,9.3,10.4,5.4,7.06,5.42,14.48,1.41,22.44-6.93,13.74-18.3,23.52-29.1,33.86-6.13,5.87-12.36,11.63-18.32,17.66C583.75,1128.36,579,1129.69,572.26,1126.64Z"/><path class="cls-1" d="M677.2,799.68c-8.82,7.88-18.82,9.67-29.25,10.49-22.93,1.81-45.87,3.14-68.73-.52-10.51-1.69-21.06-3.49-31.35-6.17-7.49-2-14.59-5.42-21.85-8.26-4.48-1.77-9-3.47-13.36-5.52S504.25,785.23,500,783c-1.59-.83-3.26-1.52-4.93-2.22a35.22,35.22,0,0,1-6.86-3.44c13.84,2.14,27.11,5,39.8,11.83a124,124,0,0,0,35.73,12c17.28,3.14,35,4.36,52.52,5.61,10.65.76,20.72-2.39,30.1-7.69a12.36,12.36,0,0,1,6.51-1.29C660.83,798.23,668.76,799,677.2,799.68Z"/><path class="cls-1" d="M226.77,843.07c-1.54-1.12-3.11-2.22-4.63-3.38q-6.66-5.09-13.3-10.2c-7.42-5.72-14.6-11.78-22.32-17.06-3.52-2.41-8.06-3.31-12.71-5.12.79-4.4-2.56-5.88-7-6.28-3.09-.28-5.44-1.34-6-4.86a3.74,3.74,0,0,0-1.76-2.26c-13.51-7.8-22.76-20.24-33.68-30.86a3.92,3.92,0,0,1-1.41-2.5c.88-9.86.42-20.08,9.09-27.51,4-3.42,7.33-7.62,10.95-11.45,4.67,4.12,4.73,5.91,1.94,10.74a238,238,0,0,0-11.21,21.1c-2.75,6.11-1.43,8.51,3.31,13.12,3.78,3.67,6.33,8.77,10.44,11.91,12.81,9.8,25.71,19.6,39.33,28.21,14.27,9,25.76,21,38.15,32.12a14,14,0,0,1,1.88,2.76C227.5,842.06,227.14,842.57,226.77,843.07Z"/><path class="cls-1" d="M456.67,1059.67c0-11-5.62-18.8-13.28-25.45-11.55-10-23.23-19.92-34.78-30-1.94-1.68-3.48-3.82-6.21-6.87,3.31-.25,5.16-.53,7-.51,3.68,0,7,.24,9.48-3.74,1.77-2.85,6.32-1.31,10,2.91l-9.09,4.17a70.7,70.7,0,0,0,5.3,4.85c7.92,5.8,16.35,11,23.75,17.41,6.59,5.7,12.28,12.52,17.88,19.24,1.61,1.94,2.07,5.26,2.14,8C469,1056.68,464.83,1060.13,456.67,1059.67Z"/><path class="cls-1" d="M97.69,756.34c-2.25-10.63,4-17.45,10.18-24.08,8.31-8.87,16.94-17.45,25.41-26.17,2.1-2.16,4.13-2.54,6.39-.19s1.93,4.28-.36,6.75c-9.17,9.85-18.49,19.6-27,30-6.44,7.91-6.18,15.58,1,23,8.07,8.35,17.22,15.64,25.95,23.34,2,1.76,4.27,3.21,6.2,5a3.29,3.29,0,0,1,.8,2.9A3,3,0,0,1,143.5,798a19.33,19.33,0,0,1-5.15-2.69c-3-2.17-5.6-5.06-8.83-6.75-11.64-6.11-20.29-15.58-28.88-25.08C99,761.66,98.64,758.74,97.69,756.34Z"/><path class="cls-1" d="M432.32,1005.8c3.45-6.52,8.41-7.06,12.62-1.92a18.09,18.09,0,0,0,4.08,3.45c7.75,5.07,15.63,9.95,23.28,15.16,3.14,2.14,5.66,5.18,8.75,7.41,9.37,6.75,11.24,16,9.06,26.53A36.67,36.67,0,0,1,479,1076.09c-3.77,3.52-7.36,7.3-11.47,10.36-2.21,1.64-5.38,2-8.11,2.94l-1.2-1.77c1.8-3.23,3.34-6.65,5.48-9.64,4.15-5.82,8.45-11.57,13-17,7.81-9.29,5.32-17.57-.61-24.38-8.1-9.31-15.53-19.81-28.32-23.65a1.19,1.19,0,0,1-.46-.2c-2.06-1.76-3.87-4.08-6.24-5.15C438.48,1006.38,435.36,1006.36,432.32,1005.8Z"/><path class="cls-1" d="M514.5,349.87c-.14,4.79-7.07,9.92-11.22,9.12-12.07-2.31-24.16-4.48-36.24-6.7-1.47-.27-3.34,0-4.35-.81-1.83-1.48-3.15-3.58-4.68-5.42,1.53-1.12,2.92-2.85,4.62-3.24,10-2.27,20.09-4.46,30.22-6.23C502.18,335,508,341,513.57,347.13,514.27,347.9,514.31,349.27,514.5,349.87Z"/><path class="cls-1" d="M540.28,256.85c-9.09-.79-17.35-1.35-25.55-2.35a5.25,5.25,0,0,1-3.54-3.49c-.44-3.22-.84-6.91.31-9.79,2-5.09.4-8.54-2.82-12.15-2.14-2.4-3.84-5.18-6.33-8.58,10-1.67,17.51.25,23.59,7,3.44,3.82,6.84,7.69,10.31,11.49C540.79,244,539.92,250,540.28,256.85Z"/><path class="cls-1" d="M524.08,181c3.26-6.08,5.75-11.31,8.79-16.2,2.36-3.79,6.78-4.12,12-.85,6.63,4.15,13,8.69,19.46,13.12,5.84,4,11.63,8.09,18.5,12.87Z"/><path class="cls-1" d="M502.61,703.8c9.36-9.45,13-21.75,18.31-33.12,2.09-4.46,8.76-6.57,14-3.77-6.26,12.54-12.15,25.32-19,37.59C512.62,710.56,510,710.09,502.61,703.8Z"/><path class="cls-1" d="M523.71,714.47l23.09-42.36c8.51,3,9,4.33,5.29,11.41-4.72,8.94-9.29,18-14,26.92C534.49,717.3,531.54,718.22,523.71,714.47Z"/><path class="cls-1" d="M907.57,823.87c2.84-10.66-.17-22.8,9-31.89a40,40,0,0,0,3.84-5.21c4.66-6.46,5.42-6.78,14.87-5.54L909.73,824.7Z"/><path class="cls-1" d="M566.25,738.83c-27.09-7.59-53.52-16.69-76.46-33.77-2.56-1.91-5.92-3.59-4.47-8.56,2,1.62,3.76,3,5.43,4.48,11.34,10.21,24.45,16.8,39.22,20.78,11.84,3.18,23.35,7.59,34.92,11.71,1.25.44,1.89,2.6,2.81,4Z"/><path class="cls-1" d="M712.86,265.79c-1.35,8.1-2.7,16.64-4.27,25.14-.18,1-1.58,2.47-2.4,2.46-1.83,0-4.59-.29-5.27-1.46-1.42-2.4-2.61-5.56-2.31-8.23.81-7.24,2.43-14.4,3.78-21.58.45-2.41.6-4.83,4.39-4.6,3.46.21,5.26,1.55,5.76,4.84C712.68,263.35,712.73,264.34,712.86,265.79Z"/><path class="cls-1" d="M200.17,715.46c6.77,6.85,6.77,8.21,1.1,14.52-4.11,4.57-8,9.35-12.15,13.86a66.86,66.86,0,0,1-6.35,5.4c-5.57-8-5.63-8.45.11-14.89S194.28,721.88,200.17,715.46Z"/><path class="cls-1" d="M673.33,248.25c9.91.72,14.42,4.84,14.43,13.72,0,5.92-1.08,11.86-2,17.74-.48,3.1-2,5.34-5.87,3.59-6-2.7-7.1-4.08-5.08-7.93C679.6,266.25,677.94,257.42,673.33,248.25Z"/><path class="cls-1" d="M548.17,355.14c-3.82.47-7.41,1-11,1.34a3.08,3.08,0,0,1-2.26-.48c-6-6.75-12-13.57-17.95-20.38l.77-1.44c5.83.47,11.68.91,17.51,1.49.61.06,1.27.9,1.69,1.53q5.42,8.28,10.72,16.62A5.79,5.79,0,0,1,548.17,355.14Z"/><path class="cls-1" d="M639.76,267.39c-2.07.16-3.37.3-4.68.35-6,.22-7.47-1.29-5.9-7,2-7.34.35-13.25-5.32-18.41-1.92-1.74-2.88-4.55-4.45-7.15,9.64-1,17.52,4.89,18.56,13.44C638.71,254.73,639.14,260.84,639.76,267.39Z"/><path class="cls-1" d="M595.2,231.6c8-1.28,17.32,4.86,19.38,13,1.33,5.26,1.6,10.84,1.87,16.3,0,1.08-2.18,3.3-3.2,3.2-2.82-.26-6.91.81-7.38-3.91a73.21,73.21,0,0,1-.08-8c.07-6.69-2-12.4-7.37-16.71A26.34,26.34,0,0,1,595.2,231.6Z"/><path class="cls-1" d="M156.34,819.86c6.56-7.23,8.87-7.42,15.24-3.2,2.57,1.71,5.55,2.81,8.34,4.19,2.52,1.26,5.28,2.2,7.49,3.87,5.09,3.83,9.2,8.88,15.75,10.81,2,.58,3.25,3.36,4.85,5.12l-1,1.71c-3.26-1.17-6.83-1.82-9.72-3.58-8.88-5.43-17.44-11.38-26.29-16.87-1.78-1.1-4.25-1.22-6.44-1.52S159.93,820.07,156.34,819.86Z"/><path class="cls-1" d="M1049.74,454.65c2.59-4.67,4.64-9,7.32-12.94,1.17-1.72,3.59-3.48,5.48-3.53,1.52,0,4.11,2.26,4.47,3.91,1.35,6.21,2,12.59,3,20Z"/><path class="cls-1" d="M532.82,444.78c-1,3.87-1.14,7.32-2.6,10.12-5.49,10.58-12.47,20.6-11.21,33.53-1-9.7-2.12-19.4-2.85-29.12a8,8,0,0,1,2.07-5.67C522,450,525.05,445,532.82,444.78Z"/><path class="cls-1" d="M578.76,354.16c-16,2.82-22.74-9.6-32.07-17.71,7.32,0,14.74-1.35,20.2,5.73C570.19,346.46,574.52,349.94,578.76,354.16Z"/><path class="cls-1" d="M534.46,654.27c5.33,2.6,10.59,5.38,16,7.73a61.36,61.36,0,0,0,12.7,4.31c4.13.79,5.84,2.51,4.94,7.57-3.73-1-7.55-1.76-11.09-3.19a224.76,224.76,0,0,1-20.88-9.39c-1.66-.88-2-4.18-3-6.37Z"/><path class="cls-1" d="M231.27,733.71c4.39-4.5,7.45-9.06,11.71-11.52,2.85-1.65,7.41-.32,11.2-.32.2.57.39,1.14.58,1.71-5.12,4.58-10,9.53-15.56,13.46C238,737.88,234.21,735,231.27,733.71Z"/><path class="cls-1" d="M358,965.18c6.52-1,28.95,8.84,33.52,15-2.39.52-4.78,1.88-6.13,1.2-8.45-4.26-16.68-9-24.95-13.57C359.64,967.32,359.12,966.41,358,965.18Z"/><path class="cls-1" d="M511.35,411.55c-.79-6.45-1.83-12.9-2.09-19.37,0-1.07,3.37-3.14,5.24-3.21,2.74-.1,7.17.6,6,4.51-1.85,6.35-5.12,12.28-7.78,18.38Z"/><path class="cls-1" d="M514.57,442.31A32.24,32.24,0,0,1,514,436a4.24,4.24,0,0,1,2.23-3c4.32-1.51,8.78-2.65,14.12-4.2.3,3.7.56,7,.81,10.17Z"/><path class="cls-1" d="M508.75,385.52c-2-8.17,5-13.47,16.21-12.54a44.49,44.49,0,0,0,.26,4.72c.54,3.65-1,4.81-4.6,5.14C516.61,383.21,512.7,384.59,508.75,385.52Z"/><path class="cls-1" d="M538.37,506.1,519.17,510c1-3.51,1.18-8,2.54-8.39,4.65-1.3,9.7-1.38,14.59-1.33C537,500.24,537.57,503.72,538.37,506.1Z"/><path class="cls-1" d="M402.73,997.11l-9.64-3c3.36-10.9,7.41-12.54,18.54-7.67C409.07,990.27,400.84,988.87,402.73,997.11Z"/><path class="cls-1" d="M92,800.83c-2.51.09-5.55,1.12-7.43.08-4.61-2.55-8.7-6-12.95-9.21a14.6,14.6,0,0,1-2.06-2.6C80,787,84.21,796.86,92.12,798.56Z"/><path class="cls-1" d="M914.33,286.09c-5.31-6.18-13.75-9.53-16.35-18.51C904.88,269.6,912.65,278.33,914.33,286.09Z"/><path class="cls-1" d="M175.52,706.27c-3.29,3-5.11,5.37-7.53,6.53-1.7.81-4.38.35-6.3-.39-.94-.36-1.94-3.56-1.54-3.91a11.4,11.4,0,0,1,5.58-2.92C168.41,705.24,171.22,705.9,175.52,706.27Z"/><path class="cls-1" d="M328.78,745.73c-5.24,6.73-8.18,7.35-12,2.77a4.7,4.7,0,0,1-.7-3.85c.23-.7,2.18-1.36,3.21-1.19C322.34,744,325.31,744.87,328.78,745.73Z"/><path class="cls-1" d="M522.52,645.44c-11.81.42-13.65-1.28-12.86-11.17Z"/><path class="cls-1" d="M756.22,121.11c3,5.14,6.07,9.66,8.45,14.5,1.23,2.52,1.3,5.6,2.07,9.26-5.65-2.54-4.28-7.6-6.15-11-2-3.61-4-7.23-6.21-11.15Z"/><path class="cls-1" d="M122.15,796.14,134.83,801c0,.67,0,1.35.07,2-1.74.7-3.59,2.17-5.22,2C125.42,804.39,123.12,801.17,122.15,796.14Z"/><path class="cls-1" d="M211.31,317c-2.78-6.42-2.78-6.42,2.6-11.2C217.65,310.41,217.61,310.6,211.31,317Z"/><path class="cls-1" d="M56.19,792l9.63,3.56c-.27,3.53-2.14,4-4.8,3.47C57.65,798.31,54.84,797.19,56.19,792Z"/><path class="cls-1" d="M151.37,808.12l-.38-5.61h9c-1.78,5.39-5.6,4.89-8.8,5.52Z"/><path class="cls-1" d="M653,1037.12c2.27.2,4.75-.09,6.72.77,1.39.6,2.09,2.78,3.09,4.26-1.52.35-3.41,1.44-4.49.9-2.27-1.13-4.11-3.12-6.13-4.76Z"/><path class="cls-1" d="M151.24,808c-4.9,5.89-6.87,6-13,.06,4.89,0,9,0,13.15,0Z"/><path class="cls-1" d="M110.69,808.12c-5.33,4-6.57,3.94-10.19-.17C104.06,804.73,106.55,804.72,110.69,808.12Z"/><path class="cls-1" d="M145.46,829.34l-10.78-.49C137.57,824,140.82,824,145.46,829.34Z"/><path class="cls-1" d="M117.1,817.34l9.67-1C125.34,821,122.35,821.39,117.1,817.34Z"/><path class="cls-1" d="M478.23,1006.84c3.57-1,7-1.57,9.29,4.48l-9.6-3Z"/><path class="cls-1" d="M889.93,837.9l-6.21-3.24,4-5.43C888.55,832.42,889.15,834.82,889.93,837.9Z"/></g></g></svg>