<svg id="Layer_1" data-name="Layer 1" xmlns="http://www.w3.org/2000/svg" viewBox="0 0 1365.55 278.36"><defs><style>.cls-1{fill:#e1ecec;}.cls-2{fill:#ced2c5;}.cls-3{fill:#bdc3bb;}.cls-4{fill:#384651;}.cls-5{fill:#9aa4a2;}.cls-6{fill:#869398;}.cls-7{fill:#3e4e5d;}.cls-8{fill:#647b8b;}.cls-9{fill:#010101;}.cls-10{fill:#acb4b1;}.cls-11{fill:#4e6175;}.cls-12{fill:#455768;}.cls-13{fill:#728691;}</style></defs><path class="cls-1" d="M-124.69,379c-8.48.41-17-.77-25.52-.33a5.38,5.38,0,0,1-2.84-.57c-2.24.1-4.47.2-6.7.19-18.66-.11-37.33-.6-56-.31q-39.49.6-79-.24c-13.32-.29-13.47-.55-13.52-13.44,0-2,0-4,0-6-.07-9.58.67-10.23,10-10.24,24,0,48-.78,68.18.14,28.1-1.23,52.42.71,76.74-.53a23.1,23.1,0,0,1,6.08.25c7.83-.25,15.66.15,23.49.18a39.67,39.67,0,0,1,1.46-5.37l.9-14.06c-.39-1.44-.77-2.88-1.16-4.32-2.32-2.94-1.32-6.41-1.35-9.65-.09-10.66,0-21.32,0-32-8.6-1.83-17.26-.39-25.88-.42q-111.37-.33-222.75-.41c-2.32,0-4.66.05-7,.14-3.87.14-6.31,1.72-6.16,6,.08,2.33-.13,4.66-.11,7,.17,30.61-.32,61.23,1.5,91.81.45,7.63.51,7.87,7.93,8.2,2.33.1,4.67.05,7,0q49.94-.21,99.88-.39c4,0,8-.7,11.82,1.08q30.63-1.15,61.27,0c3.13-1.37,4.56-.5,4,3l.57,23.8c2.85-.42,5.74-1.68,5.48-4.74-.64-7.66,3.79-11,9.63-14.43,3.45-2.05,5.61-6.41,8.13-9.89,1.37-1.89,2.55-3.79,4.71-5,3.71-2.05,6.8-2.55,9,2.11,1.23,2.66,2.51,6.13,6.2,5.37,3.9-.8,4.28-4.58,4.74-7.91.09-.66.08-1.33.16-2,.38-3,2-4.91,5-5.3a6,6,0,0,1,6.56,3.48c1.8,3.53,4.25,6.87,4.21,11.06-.05,3.94,2.13,5.24,5.64,5.19a176.53,176.53,0,0,0,.8-18.24A15.61,15.61,0,0,1-124.69,379Z" transform="translate(385.79 -281.77)"/><path class="cls-2" d="M-122.39,400.55c-3.51.05-5.69-1.25-5.64-5.19,0-4.19-2.41-7.53-4.21-11.06a6,6,0,0,0-6.56-3.48c-3.06.39-4.65,2.31-5,5.3-.08.66-.07,1.33-.16,2-.46,3.33-.84,7.11-4.74,7.91-3.69.76-5-2.71-6.2-5.37-2.16-4.66-5.25-4.16-9-2.11-2.16,1.19-3.34,3.09-4.71,5-2.52,3.48-4.68,7.84-8.13,9.89-5.84,3.46-10.27,6.77-9.63,14.43.26,3.06-2.63,4.32-5.48,4.74-6.47,1.87-13.09,1.51-19.7,1.42-24.15-.3-48.29-.51-72.43.36,0,1.39,0,2.79-.07,4.19,2,1.69,2.08,4,2.08,6.37q0,15.94,0,31.89c0,2-.07,4-1.58,5.59-.33,1.44-.67,2.88-1,4.33a7.53,7.53,0,0,0,1.06-.29c26.23-.71,52.53,2,78.72-1.7,4.28-.61,7.81-1.23,9.55-5.62,1.44-3.62,4.26-4.84,8-4.56a17.2,17.2,0,0,0,4-.17c3.19-.52,6-2.2,6.33-5.44.36-3.45-2.52-5.2-5.52-6.07-1.9-.54-4-.31-5.9-.87-2.53-.76-5.46-1.61-6.53-4.2-1.8-4.35-3.77-8.27-7.51-11.47-2.53-2.16-1.16-5,2.29-5.58,3.89-.68,8.45,1.21,11.67-1.47,4.92-4.09,11.23-6.06,15.74-10.45,5.48-5.36,10.9-9.27,19.1-6.39,2.5.87,5.2-.63,7.61-1.86a17.24,17.24,0,0,1,7.64-2c4-.06,6.78,1.28,6.23,5.65-.8,6.4,3.45,11.36,4.39,17.24.49,3.11,3.16,2.91,5.49,3C-121.52,423.18-121,411.86-122.39,400.55Z" transform="translate(385.79 -281.77)"/><path class="cls-3" d="M-122.23,434.5c-2.33-.12-5,.08-5.49-3-.94-5.88-5.19-10.84-4.39-17.24.55-4.37-2.25-5.71-6.23-5.65a17.24,17.24,0,0,0-7.64,2c-2.41,1.23-5.11,2.73-7.61,1.86-8.2-2.88-13.62,1-19.1,6.39-4.51,4.39-10.82,6.36-15.74,10.45-3.22,2.68-7.78.79-11.67,1.47-3.45.6-4.82,3.42-2.29,5.58,3.74,3.2,5.71,7.12,7.51,11.47,1.07,2.59,4,3.44,6.53,4.2,1.88.56,4,.33,5.9.87,3,.87,5.88,2.62,5.52,6.07-.35,3.24-3.14,4.92-6.33,5.44a17.2,17.2,0,0,1-4,.17c-3.72-.28-6.54.94-8,4.56-1.74,4.39-5.27,5-9.55,5.62-26.19,3.74-52.49,1-78.72,1.7a5.76,5.76,0,0,0,.24,4.28c13.95-.06,27.9-.18,41.85-.19s27.89.11,41.84.16c3.36,0,6.86-.27,7.86,4.16,1.33.18,3.43.16,3.28-1.16-1.11-9.33,5.46-13.31,11.68-17.75a20.47,20.47,0,0,0,8.4-13.05c.53-2.72.83-5.25,3.77-6.4,5.85-2.27,11.64-4.72,17.58-6.72,2.73-.93,6.28-1.89,7.83,1.75s-1.12,6.24-3.92,8.17c-2.14,1.48-5.07,1.84-6.6,4.22C-156.32,464.27-165,472.73-174,481c-1.73,1.6-1.18,3.62-1,5.57l5,.7a12.68,12.68,0,0,1,8,.17,115.13,115.13,0,0,1,31.79-.14c8.4-2.69,8.67-2.69,8.57-10.44C-121.69,462.76-120.69,448.6-122.23,434.5Z" transform="translate(385.79 -281.77)"/><path class="cls-1" d="M-87.31,351.42c2.66.05,5.32.18,8,.12,7.91-.19,9.33-1.25,9.5-9.25.28-13.29,0-26.58.07-39.87,0-2.32-.16-4.76.47-6.93,1.62-5.62,6.28-6.07,11.18-6,18.28.09,36.55.1,54.83.13,1.33,0,2.65-.1,4-.15,3.92-.1,7,1.84,10,4q-.12,42-.23,84c-1.61,1.38-1.73,2.73.07,4.05.27,5-1.07,8.19-7.18,7.85-13-.72-26,.85-38.93-1.07-7.33-1.09-14.63.28-21.88,1.27-4.14.57-5,2.9-1.93,6.13,5,5.11,15.53,5.44,22.29.7,5.68-1.09,11.22.81,16.89.67,27.27-.67,54.54-1.07,81.81-1.59,1,0,2-.23,3-.35,7.84.17,15.72-.15,23.49.65,8.27.85,16.91-.3,24.72,3.69a13.58,13.58,0,0,0-.55,1.78c-7.66.12-15.32.34-23,.35q-55,0-110,0a55.83,55.83,0,0,0-8,.3c-2,.29-3.83,1.46-3.61,3.95.17,1.9,1.66,2.87,3.34,3.22a26.43,26.43,0,0,0,5,.4c10,.14,20,1.4,29.77,1.51,19.67.22,38.91,4.53,58.52,4.53a18.09,18.09,0,0,1,4.93.58,9.88,9.88,0,0,1,7.31,9.57c-.2,4.62-3.68,6.17-7.22,7.16s-7.19,1.13-10.78,1.74c-13.38,2.28-26.68,5.34-40.16,6.65-8.92.87-17.77,1.12-26.58,3.36-6,1.52-12.42,1.24-18.65,1.76-5.44-6.69-14.14-4.63-21-7.69-10.09-4.45-21.88,2.14-23.5,11.63-1.18,1.14-2.62.78-4,.7l-3.51-2.06c-2.76-5.73-8.12-2.45-12.22-3.53l-.23-9.89a26.18,26.18,0,0,0,0-22v-12c3-2.6,1.93-6.11,2-9.29.14-12.88.14-25.77.19-38.65Z" transform="translate(385.79 -281.77)"/><path class="cls-1" d="M133.88,416.23c1.53-17.33.18-34.69.76-52,3.32.06,6.62.34,9.89-.75,5.72-1.9,10.13.48,12.33,5.53,4.85,11.17,14.42,12.67,24.17,10.91a40.71,40.71,0,0,1,20.36,1.55c8.39,2.63,12.55.15,15.2-8.07.91-2.84,1.15-6,2.44-8.61,7-14.13-6.64-30-21.41-25.26-4.32,1.38-8.31-1.31-8.52-4.6-.29-4.4,3.09-6,6.41-6.16a77.27,77.27,0,0,0,14.67-2.68c8.35-2.16,12-6.64,12.52-15.5.27-4.55,1.43-7.81,6.38-8.6-.66,5.7,1.34,11.19,1.34,16.84q0,59.79,0,119.59c-2,5.72-4.12,11.44,2.53,15.77l59.38-.25c.94-.21,2.31-.09,2.74-.68,2-2.69,2.52-16.78,1-21q.33-32,.64-64c2.69-2.31,2-5.47,2-8.39.05-13.63,0-27.27,0-40.9,0-2.32.21-4.69-1.4-6.67,0-1.95.07-3.89.1-5.84l4.18.25c.21,1.24.41,2.48.61,3.72-.26,4.71-1.74,11.19,4.85,11.51,8.57.41,16.87,3.15,25.49,2.42l4,.32c1,2.46,2,4.89,2.91,7.37,2.54,7,1.64,9.26-5.33,12.41A45.38,45.38,0,0,1,323.87,348c-5.88,1.07-11,4.41-17.11,4.94-4,.35-4.4,4.55-3.74,8,.75,3.86,3.57,3.23,6.21,2.2,5.39-2.12,9.38.71,13.81,3.21,7.44,4.19,13.55,12.42,24,8.72.73-.26,1.84.56,2.79.83,7,2,7,1.93,10.41-4.42,5.87-10.86,6.15-22.78,6.53-34.65.22-7,.15-13.94.08-20.91,0-3.68,1.41-5.65,5.27-5.43l.9,3.77c-1.05,19.35-.64,38.69-.11,58q-.14,34-.27,67.94c0,13,0,26,0,39,0,10.67-.05,10.82-11.16,10.85-39.65.12-79.3.1-119,.18-14,0-28,.24-42,.2-7.43,0-8.72-1.13-9.44-8.43-.45-4.62-.9-9.46-.05-13.95,2.31-12.27,1-24.6,1.36-36.88.22-8-1-9.06-9.31-9.14-13-.11-26,0-39,.13C139.33,422.24,135.39,421.43,133.88,416.23Z" transform="translate(385.79 -281.77)"/><path class="cls-2" d="M218.71,284c5.6.55,11.16,1.16,12.47,8.22-.72,3.24-.13,6.76-2.1,9.72-5,.79-6.11,4.05-6.38,8.6-.52,8.86-4.17,13.34-12.52,15.5a77.27,77.27,0,0,1-14.67,2.68c-3.32.19-6.7,1.76-6.41,6.16.21,3.29,4.2,6,8.52,4.6,14.77-4.72,28.37,11.13,21.41,25.26-1.29,2.64-1.53,5.77-2.44,8.61-2.65,8.22-6.81,10.7-15.2,8.07A40.71,40.71,0,0,0,181,379.89c-9.75,1.76-19.32.26-24.17-10.91-2.2-5.05-6.61-7.43-12.33-5.53-3.27,1.09-6.57.81-9.89.75q-.76-29.94.23-59.87c3.48-.17,5.49,1.09,6.08,4.9.6,4,3.62,7.66,7.33,6.67,7.44-2,14.45.35,21.59.63,12.81.5,24.61-4.63,37.16-5.49,10.22-.7,12.85-10.37,17.33-17.39,1.12-1.76,1-5.87-3.67-3.62l-21.82,0c0-1.69,0-3.38,0-5.07Z" transform="translate(385.79 -281.77)"/><path class="cls-2" d="M372.08,310.49c-3.86-.22-5.31,1.75-5.27,5.43.07,7,.14,13.94-.08,20.91-.38,11.87-.66,23.79-6.53,34.65-3.43,6.35-3.4,6.37-10.41,4.42-1-.27-2.06-1.09-2.79-.83-10.41,3.7-16.52-4.53-24-8.72-4.43-2.5-8.42-5.33-13.81-3.21-2.64,1-5.46,1.66-6.21-2.2-.66-3.44-.28-7.64,3.74-8,6.14-.53,11.23-3.87,17.11-4.94a45.38,45.38,0,0,0,10.31-3.53c7-3.15,7.87-5.45,5.33-12.41-.9-2.48-1.93-4.91-2.91-7.37,9.72-1.52,9.72-1.52,9.53-10.71l.15-5.8a26.83,26.83,0,0,1,4.66-1.49c3.81-.49,19.39-6.35,22.05-8.5C372.71,302.3,373.44,306.47,372.08,310.49Z" transform="translate(385.79 -281.77)"/><path class="cls-3" d="M198.89,284.91c0,1.69,0,3.38,0,5.07-9.65.1-19.32,0-29,.34-9.26.34-18.7-1.44-27.68.86.05,2.52,1,3,2,3q36,.07,71.93.06c2.78,0,4.32-1.41,4.56-4.19,4.68-2.25,4.79,1.86,3.67,3.62-4.48,7-7.11,16.69-17.33,17.39-12.55.86-24.35,6-37.16,5.49-7.14-.28-14.15-2.6-21.59-.63-3.71,1-6.73-2.69-7.33-6.67-.59-3.81-2.6-5.07-6.08-4.9-3.49-4-2.11-8.8-1.52-13.13.7-5.21,5.42-6.14,9.72-6.49,5.21-.43,10.46-.33,15.7-.46C172.14,284.84,185.54,283.51,198.89,284.91Z" transform="translate(385.79 -281.77)"/><path class="cls-4" d="M306.8,286.43l7.9-1.09c6.19,1.68,12.46.16,18.68.49,8.53.45,10.93,2.95,9,11a52.19,52.19,0,0,0-1.08,17.59c-2.32,2.71-5,4.75-8.78,4.61-1.3-2.13-2.88-2.42-4.78-.76-3.59-3.66-8.08-4.47-12.94-4.12-6.2-3.51-8.3-9.84-11.06-15.79C301.45,293.41,302.35,289.54,306.8,286.43Z" transform="translate(385.79 -281.77)"/><path class="cls-5" d="M373,298.2c-2.66,2.15-18.24,8-22.05,8.5a26.83,26.83,0,0,0-4.66,1.49c-2.64-10.36-.38-13,9.7-11.16,1,.17,1.89.65,2.87.81,3,.5,5.36,0,5.71-3.64s-1.1-5.75-4.93-5.85c-3.65-.08-7.31-.08-10.95-.28-1.76-.09-3.31-.95-3.21-3a2.57,2.57,0,0,1,2.68-2.42c6.29,0,12.7-.64,18.85.33C374.64,284.21,376,288.63,373,298.2Z" transform="translate(385.79 -281.77)"/><path class="cls-5" d="M332.54,319.06c3.8.14,6.46-1.9,8.78-4.61l4.82-.46c.18,9.19.18,9.19-9.54,10.71l-4-.32-4-3.88Z" transform="translate(385.79 -281.77)"/><path class="cls-6" d="M606.88,534l-1.65-17.7c.95.14,2.3-.06,2.78.49C611.46,520.74,610.83,529,606.88,534Z" transform="translate(385.79 -281.77)"/><path class="cls-2" d="M398.21,539.92c-.42-7.8-1.24-15.6.61-23.34,3.78-.76,7.57-1.32,11.37-.13-7.58,6.07-7.62,6.07-8.36,17.29C401.64,536.49,401.65,539.16,398.21,539.92Z" transform="translate(385.79 -281.77)"/><path class="cls-3" d="M-223.6,472.4c-1.51-1.59-1.58-3.58-1.58-5.59q0-15.94,0-31.89c0-2.35.07-4.68,2.08-6.37C-221.39,443.19-220.67,457.81-223.6,472.4Z" transform="translate(385.79 -281.77)"/><path class="cls-2" d="M466.81,555.78c3.29,1.1,3.83,2.51.49,4.35C467.14,558.68,467,557.23,466.81,555.78Z" transform="translate(385.79 -281.77)"/><path class="cls-1" d="M-176.3,479.18c-1-4.43-4.5-4.15-7.86-4.17-14-.05-27.9-.16-41.85-.15s-27.89.12-41.84.18l-.15,4.61c10.2,1.56,20.47.66,30.71.8,20.16.28,40.33.23,60.5.32A4.46,4.46,0,0,1-176.3,479.18Z" transform="translate(385.79 -281.77)"/><path class="cls-4" d="M-191.71,484.85a4.79,4.79,0,0,0-.49,1.6c5.75,1.5,11.52-.06,17.27.15-.22-2-.77-4,1-5.57,8.92-8.3,17.65-16.76,24.28-27.12,1.53-2.38,4.46-2.74,6.6-4.22,2.8-1.93,5.5-4.43,3.92-8.17s-5.1-2.68-7.83-1.75c-5.94,2-11.73,4.45-17.58,6.72-2.94,1.15-3.24,3.68-3.77,6.4a20.47,20.47,0,0,1-8.4,13.05c-6.22,4.44-12.79,8.42-11.68,17.75C-188.28,485-190.38,485-191.71,484.85Z" transform="translate(385.79 -281.77)"/><path class="cls-7" d="M-146.51,486.78c0-1.67,0-3.33,0-5a12.68,12.68,0,0,0-8-.16C-154.69,487.78-150.3,486.81-146.51,486.78Z" transform="translate(385.79 -281.77)"/><path class="cls-6" d="M-196.39,395.76a4.39,4.39,0,0,0,4,3C-191.83,395.26-193.26,394.39-196.39,395.76Z" transform="translate(385.79 -281.77)"/><path class="cls-1" d="M456,383.05,455,441.15c-3.63,2.67-2.36,6.61-2.42,10.09-.19,10.91-.16,21.84-.22,32.76,0,3-1.12,5.12-4.54,5.24-3,.1-5.29-.8-5.49-4.23-.38-6.4-3.66-9.72-10.12-9.6-4.9.1-6.17-2.67-6.1-7,.11-6.62.06-13.24,0-19.86,0-2.87.68-6.21-3.36-7.29l-.51-34.13a18,18,0,0,0,0-18q.15-39,.29-78c3.45-.75,3.44-3.43,3.62-6.18.74-11.22.78-11.21,8.37-17.29,4-.13,8-.38,12-.38q80.46,0,160.93,0c6.32,0,12.63-.35,19-.54l3.19.82q.82,8.85,1.64,17.7c-1.29,13.9-.14,27.84-.63,41.75-.15,4.19,1.84,6.09,6,6,10.6-.21,21.22.65,31.81-.52a93.59,93.59,0,0,0,22.19.15l0,.79c0,16.29,0,32.59.18,48.89,0,3.14-1.23,6.82,2.47,9,1.38,12.77.47,25.57.44,38.35,0,7.87-.59,15.73-.91,23.6-4.77,1.17-9.5,2.3-14.51,2.06-5.62-.28-8.76,3.06-10.78,7.44,1.4,2.4,3.32,1.75,4.7,2.37,5.66,2.52,12.64.06,17.69,4.73L684.33,492c-5.2-1.36-10.51-.72-15.77-.7q-37.15.09-74.32.29a118.22,118.22,0,0,1-1.61-21.84q0-54.39-.35-108.78c0-2.63-.47-5.27-.72-7.9,1.15-6.57.54-13.19.58-19.79.05-8.12-.29-8.34-8.32-8.33q-27.77,0-55.53.11c-3.73-2.89-5.53-1.13-5.64,2.74-.2,7.15,0,14.32.06,21.48a3.87,3.87,0,0,0,3.45,4.05c19.85,1,39.72.35,59.58.3,1.37,3.52,1.08,7.2,1.07,10.85q-.22,63.39-.47,126.77c-28.85-.15-57.7-.26-86.55-.51-2.6,0-5.18-.95-7.77-1.46-.32-4.06.8-8.31-1.55-12.11q.13-66.43.28-132.86c0-4.3-.58-8.66.76-12.89,3.35-1.85,2.81-3.26-.49-4.35-3.72-2.94-8.11-1.85-12.26-1.91-6.83-.1-13.67.06-20.51.11-4.86-2.31-3.79,1.82-3.81,3.86-.15,16.48-.12,33-.13,49.45A5.81,5.81,0,0,0,456,383.05Z" transform="translate(385.79 -281.77)"/><path class="cls-6" d="M591.56,353.07c.25,2.63.71,5.27.72,7.9q.26,54.39.35,108.78a118.22,118.22,0,0,0,1.61,21.84c-2.92,6.64-5.33,1.37-7.9-.34q.24-63.39.47-126.77c0-3.65.3-7.33-1.07-10.85Z" transform="translate(385.79 -281.77)"/><path class="cls-2" d="M422.17,491.2l.51-49.91c4,1.09,3.33,4.43,3.36,7.3.09,6.62.14,13.24,0,19.86-.07,4.29,1.2,7.06,6.1,7,6.46-.12,9.74,3.2,10.12,9.6.2,3.43,2.48,4.33,5.49,4.23,3.42-.12,4.52-2.21,4.54-5.24.06-10.92,0-21.85.22-32.76.06-3.48-1.21-7.42,2.42-10.09,2.39,11.66.67,23.43.86,35.15.08,5.54.36,11.16-1.71,16.51-8.59,1.54-17.42-.68-26,1.7Z" transform="translate(385.79 -281.77)"/><path class="cls-2" d="M456,383.05a5.81,5.81,0,0,1-1.7-4.47c0-16.49,0-33,.13-49.45,0-2-1.05-6.17,3.81-3.86-.19,15.8-.3,31.6-.62,47.39C457.56,376.15,458.84,380,456,383.05Z" transform="translate(385.79 -281.77)"/><path class="cls-8" d="M591.56,353.07l-5.82.56c-19.86.05-39.73.73-59.58-.3.46-9.44-1.77-19.09,2.13-28.27q27.76-.06,55.53-.11c8,0,8.37.21,8.32,8.33C592.1,339.88,592.71,346.5,591.56,353.07Z" transform="translate(385.79 -281.77)"/><path class="cls-3" d="M528.29,325.06c-3.9,9.18-1.67,18.83-2.13,28.27a3.87,3.87,0,0,1-3.45-4.05c-.1-7.16-.26-14.33-.06-21.48C522.76,323.93,524.56,322.17,528.29,325.06Z" transform="translate(385.79 -281.77)"/><path class="cls-2" d="M422.17,407.17a23.58,23.58,0,0,1,0-18A18,18,0,0,1,422.17,407.17Z" transform="translate(385.79 -281.77)"/><path class="cls-2" d="M111.07,423.66l-.27,25.87c-4.82.58-6.34-2.65-7.26-6.41-1-4.22-3.51-5.71-7.88-5.72-7.44,0-14.5.11-20.2,6.09-2.8,2.93-6.72,4.1-10.92,4-8-.2-16.29,3.88-24-1.49-.63-.43-2-.07-2.89.2a93.87,93.87,0,0,1-30.43,3.35c-1.63-.07-3.67-.18-4.84.66-6.64,4.81-14.7,3.18-22,5C-25.37,456.55-31,456-35,449.42c-3.39-5.6-9.94-6.27-16.35-3.69-4.5-.38-8.06,1-10,5.41-3.34-.47-6.9,1.5-10.07-.9,1.62-9.49,13.41-16.08,23.5-11.63,6.91,3.06,15.61,1,21,7.69,6.23-.52,12.67-.24,18.65-1.76,8.81-2.24,17.66-2.49,26.58-3.36,13.48-1.31,26.78-4.37,40.16-6.65,3.59-.61,7.3-.77,10.78-1.74s7-2.54,7.22-7.16a9.88,9.88,0,0,0-7.31-9.57,18.09,18.09,0,0,0-4.93-.58c-19.61,0-38.85-4.31-58.52-4.53C-4,410.84-14,409.58-24,409.44a26.43,26.43,0,0,1-5-.4c-1.68-.35-3.17-1.32-3.34-3.22-.22-2.49,1.59-3.66,3.61-3.95a55.83,55.83,0,0,1,8-.3q55,0,110,0c7.67,0,15.33-.23,23-.35C110.87,408.63,110.13,416.1,111.07,423.66Z" transform="translate(385.79 -281.77)"/><path class="cls-9" d="M-71.41,450.24c3.17,2.4,6.73.43,10.07.9-.85,2.7,1.78,3.95,2.51,6-1,4.05,2.36,7.49,1.49,11.62-.92,4.3-1.5,9.06-6.53,10.07-6.64,1.34-13.27.52-18.79-3.93-6.79-5.47-5-12.2-2.33-18.94l5.06-1.8c2.31,1.52,4.05,1.21,5-1.56.07-.22.26-.5.18-.65a5.88,5.88,0,0,0-.69-1C-74,451-72.59,451.38-71.41,450.24Z" transform="translate(385.79 -281.77)"/><path class="cls-2" d="M-59.36,395.65c7.44.07,14.9-.89,22.29.7C-43.83,401.09-54.34,400.76-59.36,395.65Z" transform="translate(385.79 -281.77)"/><path class="cls-10" d="M12.84,379.55l-2.28,1.92c-1.8-1.32-1.68-2.67-.07-4.05Z" transform="translate(385.79 -281.77)"/><path class="cls-11" d="M106.09,485.87c-.87,7.73-.87,7.84-7.87,7.87-12.29.05-24.59.16-36.88-.12-17.61-.4-35.15.61-52.7,1.71l-7,.41a8.38,8.38,0,0,0-6.07-5.83c-6.58-1.69-9-6.72-10.64-12.49l3.76.11c.9,1.91,2.29,3.52,4.39,3.67,6.27.46,12.27,2.42,18.7,2.35,26.92-.29,53.84-.06,80.76-.14C97.25,483.4,101.81,483.74,106.09,485.87Z" transform="translate(385.79 -281.77)"/><path class="cls-12" d="M-89.25,456l4.26-.07c-2.63,6.74-4.46,13.47,2.33,18.94,5.52,4.45,12.15,5.27,18.79,3.93,5-1,5.61-5.77,6.53-10.07.87-4.13-2.44-7.57-1.5-11.62l5.5.37c1.32,2.37,3.64,3.24,6,4,2.34,7.56,6,13.54,15.27,13,.26,0,.54.33.82.51l-.11,2.36-5.56.46c-10.86.74-12.8,2.71-12.42,12.77a27,27,0,0,0,.67,3.85l-.28.49-10.33.77c-5.71-1.34-11.52-.77-17.3-.83C-78.24,491-82,491.69-85.06,491c.61-5.67-.57-10.61-5.75-13.89C-91.52,470-91.85,462.89-89.25,456Z" transform="translate(385.79 -281.77)"/><path class="cls-9" d="M-36.89,477.81l5.56-.46c2.59,2.54,3.62,1.1,4.15-1.62l8-.48.6,2a2.54,2.54,0,0,0-1.87,2.93c1.23,9.89,1.2,9.85-7.47,14.48-.68.36-.88,1.62-1.3,2.46-6.55.9-13,.08-19.47-.89a1.08,1.08,0,0,0-.21-1.35l.28-.5c1.36,0,3.23-.3,2.94-1.8-1.42-7.3,3.26-10.69,8.38-13.93C-37.08,478.54-37,478.11-36.89,477.81Z" transform="translate(385.79 -281.77)"/><path class="cls-4" d="M-29.24,497.16c.42-.84.62-2.1,1.3-2.46,8.67-4.63,8.7-4.59,7.47-14.48a2.54,2.54,0,0,1,1.87-2.93l3.52.13c1.65,5.77,4.06,10.8,10.64,12.49a8.38,8.38,0,0,1,6.07,5.83c-1.8,2.13-4.46,2.18-6.86,2.84a72,72,0,0,0-24.2.07A1.46,1.46,0,0,1-29.24,497.16Z" transform="translate(385.79 -281.77)"/><path class="cls-8" d="M-29.43,498.65a72,72,0,0,1,24.2-.07C-11.66,502.58-22.79,502.6-29.43,498.65Z" transform="translate(385.79 -281.77)"/><path class="cls-8" d="M-48.92,494.92a1.08,1.08,0,0,1,.21,1.35c-5.47,4.39-6.77,4.32-10.54-.58Z" transform="translate(385.79 -281.77)"/><path class="cls-1" d="M896,362.65c-23.22-.14-46.45-.4-69.68-.39-19.24,0-38.47-.08-57.71-.8-7.73-.29-10.05,3-8,9.54.46,1.51,2,1.53,3.19,2.08,3.22,2.75,6.53,2.41,9.88.26,5.66-.09,11.32-.42,17-.2,6.8.27,9.64,2.83,10.29,9.66.44,4.6-.07,9.29-.15,13.94-4.58,2.11-2.89,6.32-2.92,9.68-.26,29.27-.33,58.55-.46,87.82a151.35,151.35,0,0,1-25.28,0c.95-6.66,8.93-.72,10.72-5.87-.61-2.5-2.58-3.84-4.17-5.48-4.11-4.26-12-4.17-14.19-9.34-2.31-5.46-.34-12.37-2.53-18.38a6.25,6.25,0,0,1-.11-1c-1.64-8.54-4.82-11-14.24-11l-3.89-.05c-3.33-3.48-7.31-3.28-10.69-.76-3,2.25-4.2,17.73-1.39,20.84,5.15,5.71,4.93,10.64.77,16.92-4.67,7.05-2.69,9.83,5.8,10.7,3.24.34,7.71-2,9.16,3.4-4,.17-7.95.56-11.91.46-8.73-.23-11.24-2.61-11.35-11.31-.2-14.57,0-29.15-.12-43.72-.07-10.93-.35-21.85-.53-32.78.66-5.57,1.87-11.15,1.9-16.72.14-31.13,0-62.26,0-93.39,2.94-1.71,2-4.87,2.8-7.4,8-.17,16-.48,24-.48q93.39,0,186.77.09c3,0,6-.31,9-.47,6.23,1.14,12.53.38,18.79.59,3.26.11,6.65-.56,9.58,1.57q-.12,17.93-.25,35.86-.24,38.85-.47,77.69a8.52,8.52,0,0,0-1.68.77c-20.41-1.27-40.83-2.19-61.29-1.79-4.28.09-8.57-.22-12.85-.35,0-10.77.12-21.53.08-32.3C899.64,367.43,900.52,363.74,896,362.65Z" transform="translate(385.79 -281.77)"/><path class="cls-3" d="M975.39,404.23q.24-38.84.47-77.69.12-17.93.25-35.86c5,1.63,3.4,5.9,3.41,9.22.12,21.82,0,43.63,0,65.45,0,10.91,0,21.82-.09,32.72C979.43,400.84,980.25,404.51,975.39,404.23Z" transform="translate(385.79 -281.77)"/><path class="cls-3" d="M747.55,443.19c9.42,0,12.6,2.46,14.24,11a6.25,6.25,0,0,0,.11,1c2.19,6,.22,12.92,2.53,18.38,2.19,5.17,10.08,5.08,14.19,9.34,1.59,1.64,3.56,3,4.17,5.48-1.79,5.15-9.77-.79-10.72,5.87-2.66.65-4-.37-4-3.13,2.41-3.23,1.42-5.32-2.2-6.52l-3.36-2.36a10.78,10.78,0,0,0-6.12-6.37,1.32,1.32,0,0,0-.58-1.09c0-.73,0-1.46,0-2.19a9.89,9.89,0,0,0-3.24-7.85c-1.43-1.37-3-3.13-2.05-5.1C753.65,453.3,749.74,448.44,747.55,443.19Z" transform="translate(385.79 -281.77)"/><path class="cls-3" d="M797.35,494.24c.13-29.27.2-58.55.46-87.82,0-3.36-1.66-7.57,2.92-9.68,4.26,2.83,3.22,7.36,2.38,10.86-1.91,7.9-1.42,15.81-1.46,23.74-.1,18.23.06,36.47-.07,54.7C801.55,489.27,803.3,493.87,797.35,494.24Z" transform="translate(385.79 -281.77)"/><path class="cls-3" d="M896,362.65c4.54,1.09,3.66,4.78,3.67,7.91,0,10.77,0,21.53-.08,32.3-4.73-1-3.52-4.87-3.55-7.9C895.91,384.19,896,373.42,896,362.65Z" transform="translate(385.79 -281.77)"/><path class="cls-3" d="M773.62,373.34c-3.35,2.15-6.66,2.49-9.88-.26C767.11,370.26,770.41,370.11,773.62,373.34Z" transform="translate(385.79 -281.77)"/><path class="cls-13" d="M766.19,491.06l-.27-6.47c3.62,1.2,4.61,3.29,2.2,6.52l-1-.07Z" transform="translate(385.79 -281.77)"/><path class="cls-5" d="M267.58,363.32c9.13,1,17.26,7.07,26.86,5l2.31-.06-.63,64c-3.16,2.19-3.11,5.5-3.19,8.84-.1,4.27-.39,8.53-.6,12.8l-59.38.25c-1.57-5.14,1.62-11-2.53-15.77q0-59.79,0-119.59c0-5.65-2-11.14-1.34-16.84,2-3,1.38-6.48,2.1-9.72,4.49,1.34,3.47,5.12,3.48,8.26.09,16.25.14,32.5,0,48.75,0,5.39.3,10.38,3.8,15a25.37,25.37,0,0,1,4.61,12.94c.32,3.12,3.13,3.81,5,1.48" transform="translate(385.79 -281.77)"/><path class="cls-2" d="M296.75,368.28l-2.31.06c.37-13.16,1.27-26.3-.93-39.45-.85-5.13-.13-10.53-.13-15.81l4-.76c1.61,2,1.4,4.35,1.4,6.67,0,13.63.06,27.27,0,40.9C298.75,362.81,299.44,366,296.75,368.28Z" transform="translate(385.79 -281.77)"/><path class="cls-5" d="M306.8,286.43c-4.45,3.11-5.35,7-3,12,2.76,5.95,4.86,12.28,11.06,15.79-1.95,2.71-4.22,2.06-6.51.55-2.07-1.36-3.49-3.64-6.07-4.28l-.6-3.72c1.18-2.7-.39-5-1.1-7.4-1.05-3.57-3.2-2.1-5.21-1-4.52-8.94-1.94-15.06,6.67-15.79C304.85,282.31,306.36,283.71,306.8,286.43Z" transform="translate(385.79 -281.77)"/><path class="cls-2" d="M302.24,310.45c2.58.64,4,2.92,6.07,4.28,2.29,1.51,4.56,2.16,6.51-.55,4.86-.35,9.35.46,12.94,4.11.27.73.54,1.47.8,2.21l4,3.88c-8.62.73-16.92-2-25.49-2.42C300.5,321.64,302,315.16,302.24,310.45Z" transform="translate(385.79 -281.77)"/><path class="cls-2" d="M292.33,453.91c.21-4.27.5-8.53.6-12.8.08-3.34,0-6.65,3.19-8.84,1.47,4.18.92,18.27-1.05,21C294.64,453.82,293.27,453.7,292.33,453.91Z" transform="translate(385.79 -281.77)"/><path class="cls-2" d="M230.42,438.39c4.15,4.73,1,10.63,2.53,15.77C226.3,449.83,228.37,444.11,230.42,438.39Z" transform="translate(385.79 -281.77)"/><path class="cls-2" d="M295.33,298.35c2-1.12,4.16-2.59,5.21,1,.71,2.4,2.28,4.7,1.1,7.4l-4.2-.25q-1.08-2.14-2.15-4.3C295.3,300.91,295.32,299.63,295.33,298.35Z" transform="translate(385.79 -281.77)"/><path class="cls-5" d="M295.29,302.18q1.06,2.16,2.15,4.3c0,1.95-.06,3.89-.09,5.84l-4,.76C293,309.27,291.43,305.26,295.29,302.18Z" transform="translate(385.79 -281.77)"/><path class="cls-5" d="M220.69,290c-.24,2.78-1.78,4.19-4.56,4.19q-36,0-71.93-.06c-.93,0-1.92-.46-2-3,9-2.3,18.42-.52,27.68-.86,9.64-.36,19.31-.24,29-.34Z" transform="translate(385.79 -281.77)"/><path class="cls-13" d="M328.56,320.5c-.26-.74-.53-1.48-.8-2.21,1.9-1.65,3.48-1.36,4.78.77Z" transform="translate(385.79 -281.77)"/><path class="cls-3" d="M-47.31,461.48c-2.39-.75-4.71-1.62-6-4,3.48-3.45,1.51-7.8,2-11.76,6.41-2.58,13-1.91,16.35,3.69,4,6.59,9.66,7.13,15.38,5.74,7.29-1.77,15.35-.14,22-5,1.17-.84,3.21-.73,4.84-.66a93.87,93.87,0,0,0,30.43-3.35c.92-.27,2.26-.63,2.89-.2,7.75,5.37,16,1.29,24,1.49,4.2.1,8.12-1.07,10.92-4,5.7-6,12.76-6.11,20.2-6.09,4.37,0,6.86,1.5,7.88,5.72.92,3.76,2.44,7,7.26,6.41.08,1.24.16,2.47.23,3.71,0,4.14-1.7,8.51,1.59,12.22,0,1.31,0,2.62,0,3.93l-7.89.06a6.51,6.51,0,0,1-2.12-4.34c-.48-3-2.36-3.33-5.08-3.05-18.72,1.94-37.45,3.6-56.31,3.42-17.82-.17-35.64-.09-53.46,0-3.38,0-7.61-1.44-9.27,3.48l-5.48.11c-2-7-8.91-13-15.6-13.46-2.65-.19-4.34.91-4.86,3.59Z" transform="translate(385.79 -281.77)"/><path class="cls-13" d="M106.09,485.87c-4.28-2.13-8.84-2.47-13.56-2.46-26.92.08-53.84-.15-80.76.14-6.43.07-12.43-1.89-18.7-2.35-2.1-.15-3.49-1.76-4.39-3.67,2.64-3,6.17-1.93,9.4-2,9-.15,18.27,1.25,26.91-.52,13.51-2.77,27.13-1,40.67-3.07,12.7-1.93,25.93-.38,38.92-.37,2.93,2.71,1.45,6.53,2.43,9.73Z" transform="translate(385.79 -281.77)"/><path class="cls-5" d="M-51.38,445.73c-.45,4,1.52,8.31-2,11.76l-5.5-.37c-.72-2-3.35-3.28-2.5-6C-59.44,446.73-55.88,445.35-51.38,445.73Z" transform="translate(385.79 -281.77)"/><path class="cls-5" d="M104.71,469.45c0,.71-.09,1.43-.13,2.14-13,0-26.22-1.56-38.92.37C52.12,474,38.5,472.26,25,475c-8.64,1.77-17.92.37-26.91.52-3.23.05-6.76-1-9.4,2l-3.76-.11-3.52-.13-.6-2A6.55,6.55,0,0,0-21.53,469c1.66-4.92,5.89-3.46,9.27-3.48,17.82-.12,35.64-.2,53.46,0,18.86.18,37.59-1.48,56.31-3.42,2.72-.28,4.6,0,5.08,3.05A6.51,6.51,0,0,0,104.71,469.45Z" transform="translate(385.79 -281.77)"/><path class="cls-13" d="M-21.53,469a6.55,6.55,0,0,1,2.33,6.26l-8,.48-4-.74c-.28-.18-.56-.53-.82-.51-9.25.54-12.93-5.44-15.27-13,0-.75-.11-1.5-.16-2.25,5.18,0,9.74,1.09,12.26,6.31,1.68,3.49,4.59,4.38,8.2,3.56Z" transform="translate(385.79 -281.77)"/><path class="cls-4" d="M-36.89,477.81c-.14.3-.19.73-.43.88-5.12,3.24-9.8,6.63-8.38,13.93.29,1.5-1.58,1.78-2.94,1.8a26.61,26.61,0,0,1-.67-3.84C-49.69,480.52-47.75,478.55-36.89,477.81Z" transform="translate(385.79 -281.77)"/><path class="cls-4" d="M-31.22,475l4,.74c-.53,2.72-1.56,4.16-4.15,1.62C-31.29,476.56-31.26,475.78-31.22,475Z" transform="translate(385.79 -281.77)"/><path class="cls-5" d="M-27,469.1c-3.61.82-6.52-.07-8.2-3.56-2.52-5.22-7.08-6.33-12.26-6.31.52-2.68,2.21-3.78,4.86-3.59C-35.92,456.12-29,462.06-27,469.1Z" transform="translate(385.79 -281.77)"/></svg>